<?xml version="1.0" standalone="no"?>
<!DOCTYPE svg PUBLIC "-//W3C//DTD SVG 20010904//EN"
 "http://www.w3.org/TR/2001/REC-SVG-20010904/DTD/svg10.dtd">
<svg version="1.0" xmlns="http://www.w3.org/2000/svg"
 width="16.000000pt" height="16.000000pt" viewBox="0 0 16.000000 16.000000"
 preserveAspectRatio="xMidYMid meet">
<metadata>
Created by potrace 1.11, written by Peter Selinger 2001-2013
</metadata>
<g transform="translate(0.000000,16.000000) scale(0.003125,-0.003125)"
fill="#000000" stroke="none">
<path d="M1007 4682 c-9 -2 -14 -8 -11 -14 4 -7 0 -6 -13 1 -14 7 -24 7 -33
-2 -9 -8 -11 -8 -6 0 10 17 -66 7 -80 -11 -6 -9 -14 -13 -17 -9 -4 3 -7 1 -7
-6 0 -7 -4 -9 -10 -6 -5 3 -10 -1 -10 -10 0 -8 -6 -18 -14 -21 -9 -3 -12 -12
-9 -21 4 -11 2 -14 -5 -9 -7 4 -5 -7 5 -28 9 -20 25 -38 35 -42 10 -3 16 -10
12 -15 -3 -5 -2 -9 3 -8 13 3 81 -29 85 -40 1 -5 10 -11 18 -13 8 -2 25 -13
38 -25 21 -22 35 -27 55 -24 5 1 5 -4 1 -10 -5 -9 -2 -10 9 -6 10 4 16 2 14
-6 -1 -7 4 -11 11 -9 6 1 12 -2 12 -7 0 -5 9 -13 20 -16 11 -4 18 -10 16 -14
-3 -4 5 -8 17 -8 12 -1 28 -11 36 -23 7 -11 22 -20 32 -20 11 0 19 -4 19 -10
0 -6 6 -9 13 -8 6 2 11 -3 9 -11 -3 -12 -1 -12 14 0 10 8 15 9 11 2 -4 -7 4
-16 22 -24 16 -7 27 -17 25 -21 -3 -5 -2 -8 3 -7 22 4 44 -2 38 -10 -3 -5 3
-12 14 -16 10 -3 29 -14 41 -25 12 -11 27 -17 31 -14 5 3 9 1 9 -3 0 -5 10
-13 23 -18 12 -6 21 -16 20 -22 -1 -6 3 -10 10 -10 32 1 47 -4 44 -15 -1 -7 4
-12 11 -10 7 1 15 -4 18 -12 3 -9 12 -12 21 -9 10 4 14 2 10 -4 -4 -6 -1 -13
7 -16 8 -3 16 -16 18 -29 2 -15 16 -29 41 -41 20 -9 37 -20 37 -23 0 -3 -5 -2
-12 2 -7 5 -8 3 -4 -5 5 -7 14 -10 22 -7 8 3 14 1 14 -5 0 -6 5 -7 10 -4 6 4
9 1 8 -7 -2 -8 6 -13 19 -12 12 0 20 -3 17 -8 -3 -4 0 -8 5 -8 18 0 12 -28
-13 -69 l-25 -39 21 -18 c20 -18 20 -18 17 1 -2 11 1 19 8 18 6 -1 17 5 25 14
11 14 11 16 -1 8 -10 -5 -12 -4 -7 3 4 7 14 12 22 12 9 0 12 5 8 13 -6 10 -4
10 7 0 7 -7 21 -13 31 -13 10 0 21 -6 24 -14 3 -8 17 -22 31 -31 18 -12 23
-13 18 -4 -4 8 2 4 12 -7 10 -12 29 -27 43 -34 24 -13 24 -12 10 6 -14 18 -14
18 3 5 9 -7 17 -20 17 -28 0 -8 4 -12 9 -9 9 6 67 -44 64 -55 -1 -4 5 -6 15
-5 10 0 16 -6 16 -16 -1 -10 3 -18 10 -19 6 0 1 -4 -12 -10 -18 -7 -22 -14
-17 -30 5 -16 4 -20 -6 -15 -8 4 -6 1 3 -7 10 -8 16 -16 13 -19 -3 -2 2 -5 10
-5 8 0 13 2 11 5 -9 8 43 52 61 52 10 0 30 -11 45 -24 14 -14 29 -22 32 -19 3
4 6 1 6 -5 0 -7 3 -11 8 -10 4 2 9 -1 12 -7 2 -5 15 -20 27 -31 13 -12 23 -26
23 -31 0 -6 7 -16 15 -23 13 -11 12 -15 -7 -35 -30 -31 -31 -51 -2 -51 12 0
21 3 18 7 -2 4 8 7 23 6 31 -2 73 -34 73 -54 0 -8 5 -11 10 -8 6 3 10 -3 10
-15 0 -11 7 -23 15 -26 8 -4 15 -10 15 -15 0 -5 8 -17 19 -28 23 -23 23 -67
-1 -63 -9 1 -20 -3 -24 -9 -4 -8 -3 -9 4 -5 7 4 12 2 12 -3 0 -10 -14 -15 -32
-12 -5 0 -8 -6 -8 -15 0 -8 -4 -13 -9 -10 -11 7 -33 -18 -24 -27 3 -4 -5 -7
-20 -7 -17 0 -28 -7 -32 -20 -3 -11 -12 -19 -18 -17 -7 1 -11 -4 -9 -12 3 -12
1 -12 -14 0 -10 8 -15 9 -11 2 4 -6 -7 -19 -28 -32 -19 -11 -35 -25 -35 -31 0
-6 -5 -8 -10 -5 -6 3 -13 -1 -16 -9 -3 -9 -12 -16 -20 -16 -8 0 -14 -5 -14
-11 0 -5 -5 -7 -12 -3 -7 4 -8 3 -4 -4 4 -8 -3 -16 -18 -22 -14 -5 -26 -14
-26 -20 0 -6 -5 -8 -10 -5 -6 4 -9 1 -8 -6 2 -7 -6 -17 -17 -23 -47 -26 -75
-49 -80 -67 -6 -17 -9 -18 -23 -7 -12 10 -14 10 -8 1 4 -8 2 -13 -4 -13 -6 0
-8 -4 -5 -10 3 -5 -1 -10 -9 -10 -9 0 -16 -5 -16 -10 0 -6 -4 -9 -9 -8 -5 2
-18 -7 -29 -20 -11 -13 -24 -24 -29 -25 -4 -1 -7 -5 -5 -9 1 -5 -5 -8 -14 -8
-9 0 -12 -5 -8 -12 5 -7 2 -10 -7 -6 -16 5 -51 -27 -41 -37 4 -4 3 -6 -3 -5
-21 5 -36 0 -30 -10 3 -5 -1 -10 -9 -10 -9 0 -16 -7 -16 -15 0 -8 -4 -14 -9
-13 -5 2 -17 -6 -26 -17 -9 -11 -13 -14 -10 -7 6 11 3 11 -14 0 -12 -7 -21
-18 -21 -24 0 -7 -7 -15 -16 -18 -8 -3 -12 -11 -8 -17 4 -7 3 -9 -3 -6 -11 7
-109 -81 -105 -94 1 -5 -7 -9 -18 -9 -13 0 -18 -5 -14 -15 5 -11 2 -14 -12 -9
-11 4 -16 4 -12 0 4 -5 -7 -21 -23 -37 -16 -15 -29 -33 -29 -39 0 -6 -4 -8
-10 -5 -5 3 -10 2 -10 -3 0 -6 -7 -13 -16 -16 -10 -4 -13 -2 -8 7 4 6 -2 4
-13 -5 -11 -10 -24 -18 -29 -18 -5 0 -2 5 6 10 8 5 10 10 4 10 -6 0 -17 -6
-24 -14 -6 -8 -19 -12 -27 -9 -12 5 -14 3 -8 -8 7 -11 5 -11 -10 1 -10 8 -16
10 -12 4 9 -15 -17 -26 -40 -17 -10 4 -14 2 -9 -5 4 -7 -1 -10 -14 -7 -30 6
-41 15 -34 28 5 8 3 8 -7 0 -16 -16 -33 -17 -24 -2 4 6 0 9 -11 7 -12 -2 -18
2 -16 11 3 12 1 12 -14 0 -13 -10 -16 -11 -10 -1 6 9 3 12 -10 10 -11 -2 -18
2 -17 9 2 7 -6 10 -17 8 -11 -2 -20 0 -20 5 0 5 -7 6 -17 3 -11 -4 -14 -3 -9
5 4 7 -2 11 -16 10 -13 0 -30 0 -38 1 -13 1 -13 3 0 12 12 9 12 10 -4 5 -22
-7 -58 2 -52 13 3 4 -5 7 -17 6 -12 -1 -33 5 -47 14 -24 15 -25 15 -10 -4 10
-14 7 -13 -13 4 -15 14 -27 19 -27 12 0 -7 -5 -9 -10 -6 -6 4 -8 10 -6 14 3 4
-1 8 -9 8 -8 0 -12 -5 -8 -10 3 -5 -6 -2 -19 7 -14 9 -27 14 -30 11 -3 -3 -22
3 -42 15 -21 11 -41 18 -46 15 -5 -3 -11 -1 -15 4 -3 6 -13 7 -22 4 -11 -4
-14 -3 -9 5 4 7 2 10 -7 6 -8 -3 -19 1 -25 9 -7 8 -23 12 -37 9 -15 -2 -25 0
-25 7 0 7 -5 9 -10 6 -6 -4 -17 -1 -25 5 -8 7 -15 9 -15 5 0 -4 -6 -2 -13 4
-8 6 -17 8 -20 4 -4 -3 -7 -1 -7 6 0 7 -6 11 -12 8 -7 -2 -21 2 -30 11 -13 10
-18 11 -18 3 0 -9 -5 -8 -15 3 -9 8 -23 12 -32 9 -11 -5 -14 -3 -9 6 6 9 1 12
-15 9 -16 -2 -23 2 -21 10 2 10 -2 10 -17 2 -11 -5 -29 -10 -40 -10 -12 0 -21
-5 -21 -11 0 -5 -4 -7 -10 -4 -5 3 -10 1 -10 -5 0 -6 -4 -9 -8 -6 -5 3 -14 -4
-22 -14 -8 -10 -17 -17 -22 -14 -4 3 -8 -2 -8 -10 0 -9 5 -16 11 -16 5 0 7 -5
3 -12 -5 -7 -2 -9 9 -5 9 3 18 -1 21 -10 4 -9 13 -13 22 -9 12 4 15 2 10 -9
-5 -13 5 -20 27 -16 7 1 11 -15 8 -33 -1 -5 4 -4 12 2 16 13 37 -2 37 -27 0
-8 3 -11 6 -8 9 9 46 -12 39 -22 -2 -5 3 -8 13 -7 9 0 16 -5 14 -12 -2 -11 18
-17 41 -13 5 1 6 -3 2 -9 -3 -6 8 -18 26 -28 18 -9 43 -27 56 -39 13 -12 23
-20 23 -18 0 3 9 -3 20 -13 12 -9 22 -15 24 -12 2 3 14 -8 26 -23 13 -16 28
-26 37 -23 8 3 11 1 8 -4 -3 -6 -1 -10 5 -10 6 0 8 -4 5 -10 -3 -6 1 -7 9 -4
9 4 18 -1 22 -10 3 -9 10 -13 15 -10 5 3 9 0 9 -6 0 -6 4 -8 10 -5 5 3 7 0 4
-8 -3 -8 0 -18 7 -23 7 -4 10 -3 5 4 -3 6 -2 14 4 17 6 4 10 3 9 -2 -3 -20 2
-34 11 -28 5 3 10 1 10 -5 0 -6 6 -8 13 -4 6 4 1 -4 -13 -18 -14 -13 -29 -22
-34 -20 -5 3 -7 -2 -3 -11 5 -13 1 -17 -15 -17 -12 0 -18 -3 -15 -7 4 -3 2
-12 -4 -19 -8 -9 -4 -12 16 -10 14 2 28 0 31 -5 2 -4 11 -6 18 -3 8 3 17 1 21
-5 3 -6 15 -11 26 -11 10 0 18 -5 17 -11 -2 -6 3 -14 10 -16 8 -3 10 2 6 14
-5 16 -4 16 8 3 7 -9 20 -14 29 -12 9 1 23 -3 30 -10 8 -8 21 -13 29 -13 8 1
21 -3 28 -8 6 -5 12 -6 12 -3 0 4 8 2 18 -3 11 -6 24 -6 37 2 18 9 18 9 7 -5
-11 -13 -10 -16 5 -14 12 0 19 -7 21 -21 2 -13 -1 -23 -6 -23 -13 0 -11 -30 2
-30 6 0 3 -5 -8 -11 -17 -11 -16 -12 9 -29 19 -13 23 -19 13 -24 -7 -3 -3 -3
9 -1 12 3 24 2 27 -3 3 -5 17 -8 31 -7 15 2 25 -1 23 -8 -1 -7 5 -23 14 -37 9
-14 18 -32 20 -40 2 -8 5 -17 8 -20 21 -20 37 -59 29 -69 -5 -6 -6 -9 -2 -6 7
5 36 -32 40 -52 2 -7 4 -20 6 -29 2 -8 8 -19 13 -22 5 -4 10 -20 12 -37 2 -16
8 -33 14 -36 5 -4 11 -18 11 -32 1 -14 5 -23 9 -21 4 3 12 -14 18 -36 6 -22
15 -40 19 -40 5 0 8 -10 7 -22 -1 -15 4 -22 13 -20 12 3 12 0 1 -12 -7 -9 -8
-16 -4 -16 5 0 15 -15 22 -32 27 -67 34 -76 50 -71 11 5 13 3 7 -6 -4 -8 -2
-17 6 -22 9 -6 10 -9 2 -9 -17 0 -6 -51 14 -65 9 -7 14 -19 10 -27 -3 -9 2
-26 11 -39 9 -13 18 -31 19 -39 1 -8 7 -16 13 -18 5 -2 8 -7 5 -12 -3 -4 2
-20 10 -36 7 -15 11 -32 8 -37 -3 -6 -1 -7 4 -4 6 4 18 -2 27 -12 12 -13 14
-21 6 -26 -5 -3 -8 -10 -5 -15 8 -12 40 -4 37 9 -1 6 6 15 15 18 19 7 48 33
48 42 0 3 3 5 6 4 3 -1 6 3 6 10 0 7 3 23 7 37 5 17 4 20 -2 12 -7 -11 -11 -7
-14 12 -3 15 -2 29 3 32 4 2 6 11 3 19 -4 8 -9 13 -13 10 -4 -2 -8 2 -8 10 0
8 4 12 8 10 4 -3 9 13 11 36 2 22 0 43 -5 46 -5 3 -6 11 -3 19 3 8 2 14 -3 14
-10 0 -8 40 2 57 4 6 3 14 -3 18 -7 4 -6 13 1 27 8 15 8 19 0 14 -6 -4 -12 0
-12 8 -2 18 -5 35 -9 39 -6 7 -5 45 1 41 4 -2 10 0 14 6 3 5 2 10 -3 10 -6 0
-8 10 -5 22 4 19 3 20 -6 8 -6 -8 -11 -10 -11 -5 0 6 5 16 12 23 8 8 8 15 0
25 -6 7 -11 37 -9 65 1 29 -2 52 -7 52 -6 0 -5 5 1 11 14 14 5 41 -11 32 -6
-3 -6 -1 1 8 16 16 17 33 1 23 -7 -4 -8 -3 -4 5 11 18 18 63 8 57 -5 -3 -9 1
-9 9 0 8 4 12 9 9 4 -3 8 0 8 5 0 6 -4 11 -8 11 -5 0 -8 32 -8 71 1 53 -3 73
-14 80 -10 5 -11 8 -2 9 6 0 12 5 12 11 0 5 -6 7 -12 3 -10 -6 -10 -5 -1 8 7
8 10 18 6 22 -10 10 -11 46 -1 40 5 -3 6 8 3 25 -3 16 0 33 5 36 6 4 8 11 5
16 -4 5 3 9 15 9 14 0 19 4 14 13 -5 7 0 6 11 -3 10 -8 16 -10 12 -4 -4 7 1
18 10 25 9 8 14 9 10 2 -5 -8 -1 -8 17 0 13 7 22 16 19 21 -3 5 6 7 21 4 19
-4 26 -2 23 7 -3 6 1 12 9 12 7 0 11 -5 8 -11 -3 -6 3 -2 13 10 20 22 24 24
51 24 14 0 15 2 2 10 -13 8 -12 10 3 10 9 0 18 -1 20 -2 2 -2 11 5 21 15 10 9
22 15 27 12 5 -4 9 -1 9 6 0 7 3 9 7 6 3 -4 15 1 26 10 15 13 18 14 12 3 -8
-13 -6 -13 8 -1 9 7 14 18 10 25 -4 6 2 4 12 -4 11 -9 16 -10 11 -3 -7 12 5
18 27 14 5 -1 6 3 3 8 -7 11 22 23 35 15 5 -3 8 0 7 7 -2 7 4 13 12 14 8 1 14
7 12 14 -1 7 2 10 8 6 5 -3 10 -2 10 4 0 6 6 8 14 5 9 -3 21 5 31 20 10 14 21
23 26 20 5 -3 12 2 15 10 3 9 9 14 13 11 4 -2 16 10 26 28 10 17 20 26 23 19
2 -8 11 -3 24 13 11 14 28 25 39 25 11 0 18 4 15 9 -3 5 1 11 9 15 8 3 15 0
15 -7 0 -7 5 -4 11 6 5 9 7 21 4 27 -3 5 4 7 15 5 13 -2 20 1 20 11 0 8 4 13
9 10 5 -3 23 8 40 25 17 16 36 27 42 24 5 -4 8 -3 7 2 -2 4 -1 8 2 8 10 0 38
30 34 36 -2 4 7 10 21 13 14 4 25 11 25 17 0 6 4 8 9 5 5 -3 12 1 15 10 3 8
10 12 16 9 6 -4 7 1 3 11 -4 12 -3 15 5 10 7 -4 12 -1 12 7 0 10 10 14 33 11
17 -1 26 0 20 3 -21 8 -15 22 7 18 11 -2 19 1 17 8 -1 7 7 11 21 9 12 -2 22 2
22 8 0 7 7 10 15 7 8 -4 17 -2 20 3 3 5 13 6 22 3 12 -5 14 -3 8 7 -5 9 -4 11
4 6 6 -4 18 -2 26 4 8 7 15 9 15 5 0 -4 8 -1 17 6 14 12 16 12 9 -1 -4 -8 2
-4 13 9 12 13 21 20 21 16 0 -4 7 -2 15 5 8 7 21 10 30 6 8 -3 14 -2 14 2 -3
19 2 22 16 8 8 -8 15 -19 15 -25 0 -6 4 -11 9 -11 5 0 12 -11 15 -25 4 -14 11
-23 16 -20 6 3 10 1 10 -5 0 -7 7 -10 15 -6 18 7 20 -10 3 -18 -7 -4 -3 -4 10
-2 14 3 22 -1 22 -11 0 -8 5 -11 10 -8 6 3 10 -1 10 -9 0 -9 7 -16 16 -16 8 0
13 -4 10 -9 -3 -5 2 -15 11 -22 14 -12 16 -12 9 1 -4 8 0 6 8 -4 20 -24 20
-31 2 -59 -13 -20 -13 -25 3 -45 16 -22 18 -23 32 -6 9 11 9 15 2 10 -7 -4
-13 -3 -13 2 0 5 13 12 29 14 17 2 29 2 27 -1 -4 -9 31 -40 38 -33 3 3 6 -2 6
-11 0 -9 6 -17 13 -17 9 0 8 -3 -2 -9 -11 -7 -9 -10 7 -16 12 -3 21 -9 20 -13
-1 -4 3 -16 9 -27 6 -11 13 -24 15 -30 1 -5 7 -9 12 -7 5 2 4 -4 -4 -12 -8
-11 -9 -16 -1 -16 6 0 11 -7 11 -15 0 -8 -4 -15 -10 -15 -5 0 -10 -7 -10 -15
0 -8 -4 -15 -10 -15 -5 0 -10 -7 -10 -16 0 -8 -4 -12 -10 -9 -5 3 -10 0 -10
-9 0 -27 12 -45 26 -39 12 4 12 8 -3 19 -16 13 -15 13 10 4 25 -9 31 -6 29 12
-1 3 5 9 13 12 8 3 15 1 15 -4 0 -5 11 -21 25 -36 14 -15 28 -38 31 -51 4 -13
10 -23 16 -23 5 0 7 -4 3 -9 -3 -6 3 -14 12 -20 10 -6 14 -11 10 -11 -4 0 1
-10 13 -22 11 -12 20 -30 20 -40 0 -11 4 -16 10 -13 6 3 7 -1 4 -9 -4 -10 -1
-16 7 -16 7 0 9 -3 6 -7 -4 -3 -2 -13 5 -20 9 -11 9 -16 -1 -22 -7 -5 -13 -12
-14 -17 -1 -5 -6 -8 -10 -6 -5 1 -6 -2 -2 -8 3 -5 1 -10 -5 -10 -6 0 -8 -4 -5
-10 3 -5 2 -10 -4 -10 -5 0 -8 -8 -7 -17 3 -19 35 -26 52 -12 8 7 14 6 19 -1
3 -6 11 -7 17 -4 7 4 8 2 4 -4 -4 -7 -2 -12 4 -12 6 0 9 -4 5 -9 -3 -6 4 -8
16 -6 12 2 19 1 15 -2 -3 -4 1 -17 10 -31 11 -17 12 -22 3 -17 -8 5 -3 -3 10
-18 13 -15 20 -31 16 -38 -5 -7 -4 -10 3 -5 6 3 13 2 17 -4 3 -5 0 -10 -7 -11
-7 0 -5 -4 5 -8 10 -4 18 -11 17 -15 -1 -5 3 -12 10 -16 6 -4 13 -16 14 -26 2
-10 6 -17 9 -14 12 10 36 -34 26 -47 -7 -7 -6 -14 1 -18 6 -3 8 -10 5 -15 -3
-5 0 -12 6 -15 5 -4 8 -13 5 -21 -3 -8 0 -13 7 -11 7 1 11 -8 11 -20 -1 -13 3
-20 7 -17 5 3 9 2 10 -3 3 -29 9 -48 18 -51 5 -2 7 -10 4 -19 -5 -12 -3 -14 7
-8 10 6 12 2 8 -18 -3 -17 -1 -24 5 -20 6 4 8 0 4 -11 -4 -9 -3 -15 2 -11 5 3
15 -11 21 -30 7 -22 16 -33 23 -28 7 4 5 -2 -3 -12 -9 -11 -10 -16 -2 -11 11
7 16 -6 15 -41 -1 -7 3 -11 7 -8 4 3 11 -2 14 -11 3 -8 2 -13 -3 -10 -5 4 -7
-3 -4 -15 4 -16 8 -17 14 -7 5 7 9 10 10 6 1 -5 2 -11 3 -15 4 -24 30 -73 38
-73 5 0 6 -4 3 -10 -3 -5 -1 -10 6 -10 7 0 10 -3 6 -6 -3 -4 0 -13 8 -21 8 -8
15 -28 15 -44 0 -17 6 -32 15 -35 9 -4 13 -16 11 -34 -2 -18 1 -28 8 -27 6 1
10 -6 8 -16 -2 -9 2 -17 8 -17 5 0 10 -15 10 -32 0 -19 4 -28 8 -21 5 8 11 3
19 -13 7 -16 7 -22 1 -17 -7 4 -8 1 -4 -6 5 -7 15 -10 23 -6 13 5 14 3 3 -10
-11 -13 -11 -16 1 -13 9 2 13 -4 11 -19 -2 -17 1 -20 18 -16 11 3 25 14 31 24
5 11 18 19 28 19 10 0 23 11 29 25 7 14 19 28 27 31 8 4 12 10 9 15 -3 5 -2 9
3 8 22 -4 33 3 33 19 1 19 24 54 32 47 2 -3 5 2 5 10 0 8 -5 11 -11 8 -6 -4
-5 0 1 8 10 12 10 18 0 29 -10 10 -9 11 3 5 13 -8 13 -7 1 8 -7 9 -9 17 -4 17
12 0 11 30 -2 49 -5 10 -4 12 3 7 8 -5 10 -2 6 8 -3 9 -11 16 -17 16 -6 0 -8
3 -5 6 4 3 1 20 -7 37 -7 18 -10 38 -7 46 3 9 0 11 -8 6 -10 -6 -12 -4 -7 8 4
10 1 17 -5 17 -6 0 -8 3 -5 7 4 3 1 13 -6 21 -10 13 -9 14 2 7 10 -6 12 -4 6
5 -7 11 -17 45 -31 110 -10 41 -10 44 -24 75 -7 17 -14 32 -14 35 -1 3 -4 10
-8 16 -4 5 -5 25 -2 43 4 22 2 31 -5 26 -6 -3 -11 1 -11 10 0 10 -5 13 -12 9
-8 -5 -9 -2 -5 9 4 12 1 17 -11 17 -13 0 -14 2 -4 9 11 7 10 9 -3 15 -9 3 -13
10 -10 16 4 6 10 8 14 6 4 -3 8 7 9 20 1 14 -2 23 -6 20 -4 -2 -8 7 -7 22 0
15 -5 33 -12 40 -7 8 -11 24 -9 37 3 13 0 25 -6 27 -6 2 -12 13 -12 24 -1 11
-5 25 -10 32 -4 6 -4 12 1 12 4 0 1 5 -7 10 -11 7 -12 10 -2 10 10 0 9 4 -3
16 -13 14 -14 19 -3 25 11 7 11 9 -1 9 -8 0 -11 6 -7 16 4 10 2 13 -6 8 -7 -5
-9 -2 -5 8 3 9 -1 27 -8 42 -8 14 -14 34 -14 43 -1 39 -5 53 -13 53 -5 0 -7 4
-3 9 3 5 0 13 -6 16 -5 4 -8 13 -5 21 3 8 1 14 -4 14 -5 0 -7 6 -4 14 3 8 1
17 -5 20 -6 4 -8 13 -5 20 3 8 1 17 -5 20 -6 4 -7 14 -4 23 4 11 3 14 -5 9 -8
-5 -10 -2 -6 8 4 10 1 16 -7 16 -11 0 -11 3 1 10 11 7 11 10 2 10 -7 0 -10 5
-7 10 3 6 2 10 -3 10 -5 0 -8 13 -7 30 2 19 -1 27 -8 23 -6 -4 -8 0 -4 10 3 9
-1 18 -10 21 -11 5 -13 10 -4 20 6 7 8 16 4 20 -4 3 -8 14 -9 22 -1 9 -6 23
-10 32 -4 9 -8 20 -8 24 -1 3 -4 9 -8 13 -4 4 -4 14 -1 23 4 10 2 13 -5 8 -8
-5 -10 -2 -5 9 3 10 0 21 -8 26 -12 7 -12 9 1 9 11 0 12 2 3 8 -7 4 -14 17
-16 27 -1 11 -6 26 -10 33 -5 7 -3 12 3 12 6 0 8 5 5 10 -4 6 -10 8 -15 5 -5
-3 -9 3 -9 12 0 10 -2 31 -4 46 -3 21 -1 27 9 23 8 -3 13 0 11 7 -1 7 3 11 10
10 7 -2 17 6 23 17 6 11 15 18 21 15 5 -4 9 -1 9 5 0 6 4 9 9 5 5 -3 16 4 24
15 7 11 17 17 20 13 4 -3 7 2 7 13 0 16 2 17 10 4 9 -13 14 -7 11 13 -1 7 15
11 31 8 5 0 7 2 5 7 -1 4 2 8 6 9 4 1 24 18 43 37 20 20 41 33 47 29 5 -3 7
-1 3 5 -3 6 0 17 8 25 8 8 12 17 9 21 -4 3 1 6 10 6 16 0 22 12 18 33 -1 5 3
6 9 2 10 -6 14 7 11 34 -2 8 3 10 11 6 10 -6 11 -5 1 6 -14 15 -18 43 -5 35 5
-3 9 1 9 9 0 8 -4 12 -9 9 -4 -3 -8 3 -8 13 0 10 -7 28 -15 39 -8 12 -11 25
-7 30 4 5 -2 2 -12 -6 -13 -10 -17 -10 -12 -2 4 6 3 12 -1 12 -5 0 -15 -6 -22
-12 -10 -11 -12 -10 -9 2 2 8 -3 14 -10 12 -8 -1 -11 2 -8 7 3 5 -1 14 -9 21
-8 7 -15 20 -15 30 0 9 -7 17 -15 17 -8 0 -12 -4 -9 -9 3 -4 1 -8 -5 -8 -5 0
-13 5 -16 10 -3 6 -12 10 -18 10 -7 0 -6 -4 3 -10 12 -8 9 -10 -13 -10 -19 0
-26 -4 -21 -12 5 -8 2 -9 -9 -5 -12 4 -17 1 -17 -10 0 -13 -3 -14 -11 -6 -9 9
-18 8 -35 -4 -13 -8 -24 -12 -24 -8 0 3 -7 -1 -16 -9 -8 -9 -20 -13 -26 -10
-7 4 -8 2 -4 -4 4 -7 1 -12 -8 -12 -9 0 -16 -7 -16 -16 0 -8 -4 -12 -10 -9 -9
6 -14 -8 -11 -28 0 -4 -5 -6 -11 -5 -7 2 -12 -4 -10 -12 2 -10 -4 -8 -19 7
-18 18 -20 25 -10 37 7 8 8 17 3 20 -5 3 -8 18 -8 33 1 15 -2 38 -5 49 -4 12
-3 26 3 32 6 6 6 12 -3 17 -8 5 -10 4 -5 -3 4 -7 2 -12 -3 -12 -14 0 -14 13 0
27 7 7 8 13 0 17 -7 4 -7 15 -1 30 5 13 7 26 4 29 -10 10 -11 77 -2 77 6 0 8
6 5 14 -3 8 1 20 8 26 8 7 12 16 9 21 -3 5 2 9 10 9 9 0 15 5 14 12 -2 6 7 17
20 23 13 7 23 15 23 19 -2 18 0 20 9 6 8 -13 10 -12 10 3 0 9 5 17 11 17 15 0
39 26 31 35 -4 4 -2 6 3 5 22 -5 36 1 29 12 -5 8 -2 9 9 5 11 -4 17 -1 17 9 0
8 5 12 10 9 6 -3 10 1 10 9 0 9 6 13 14 10 8 -3 17 0 22 7 5 8 3 10 -7 5 -8
-4 -5 -1 5 6 11 7 28 21 38 31 10 9 23 17 29 17 5 0 7 5 4 10 -3 6 3 10 14 10
12 0 20 3 19 8 -2 4 0 7 3 7 4 0 17 11 29 25 12 14 18 18 14 10 -7 -13 -5 -13
9 -1 9 7 15 17 12 21 -3 4 9 14 26 22 17 9 30 19 30 24 0 5 7 8 16 6 8 -2 12
1 8 7 -3 6 1 11 10 11 8 0 20 10 25 23 5 12 9 18 9 12 1 -5 8 1 17 13 8 12 19
20 23 18 4 -3 14 6 22 20 12 23 14 24 20 7 7 -15 8 -15 8 5 1 13 5 20 11 17 6
-3 10 1 10 9 0 9 6 15 13 13 6 -1 11 4 10 10 -2 7 3 12 10 10 6 -1 11 4 9 11
-1 8 2 11 7 8 5 -3 11 1 15 9 3 8 12 15 21 15 8 0 14 6 12 13 -1 6 4 11 11 10
6 -2 12 5 12 15 0 14 2 15 10 2 8 -12 10 -10 10 8 0 22 27 59 39 55 3 -1 8 1
10 3 2 2 -1 4 -9 4 -10 0 -10 3 0 15 7 8 19 15 26 15 13 0 19 13 15 34 -2 12
20 36 29 31 5 -3 7 3 6 12 -2 10 5 24 14 33 9 8 11 13 5 10 -6 -3 -4 2 5 10 8
9 21 26 28 39 11 19 11 22 0 16 -7 -3 -5 0 4 8 10 8 15 17 11 20 -3 4 -1 7 5
7 7 0 12 9 12 20 0 11 5 20 10 20 6 0 10 5 10 11 0 5 -6 7 -12 3 -7 -4 -2 5
11 19 14 15 21 30 18 34 -4 3 -7 0 -7 -7 0 -7 -3 -11 -6 -8 -3 3 0 15 7 26 10
16 9 23 -7 40 -24 26 -94 32 -120 11 -11 -8 -15 -9 -10 -2 5 10 -1 12 -26 9
-18 -3 -34 -6 -35 -7 -2 -1 -7 -2 -12 -3 -16 -2 -25 -16 -11 -16 7 0 11 -3 8
-6 -4 -3 -15 -1 -27 5 -14 8 -22 8 -27 0 -4 -8 -9 -7 -15 2 -7 11 -9 9 -9 -5
0 -11 -3 -16 -7 -13 -3 4 -13 1 -21 -6 -11 -8 -14 -8 -9 0 8 13 -18 12 -30 -2
-4 -4 -2 -5 6 0 9 5 12 4 8 -3 -4 -5 -17 -8 -29 -4 -16 4 -19 2 -13 -9 7 -11
5 -11 -10 1 -14 11 -17 12 -11 1 6 -9 5 -12 -5 -9 -8 3 -23 -2 -33 -11 -12
-10 -16 -11 -11 -2 5 9 0 8 -17 -3 -14 -9 -28 -13 -31 -9 -4 3 -7 1 -7 -5 0
-7 -7 -12 -16 -12 -8 0 -12 -5 -8 -11 4 -7 -1 -7 -16 1 -15 8 -20 8 -16 1 4
-6 0 -11 -9 -11 -9 0 -13 -4 -10 -10 4 -6 -5 -10 -19 -10 -14 0 -26 -5 -26
-11 0 -5 -5 -7 -10 -4 -6 3 -13 -1 -16 -9 -3 -9 -10 -14 -14 -11 -5 3 -13 -2
-18 -11 -5 -9 -15 -14 -23 -12 -8 3 -20 -2 -27 -11 -11 -13 -12 -13 -7 -1 4 8
-3 4 -14 -10 -11 -14 -21 -21 -21 -16 0 6 -7 1 -16 -10 -8 -10 -13 -12 -9 -4
4 8 -2 6 -12 -5 -10 -11 -25 -20 -33 -20 -8 0 -14 -6 -12 -13 1 -8 -1 -11 -6
-8 -12 7 -63 -29 -55 -39 5 -5 -1 -3 -11 5 -13 10 -17 10 -12 3 4 -8 2 -13 -4
-13 -6 0 -8 -5 -4 -12 4 -6 3 -8 -4 -4 -6 3 -13 2 -17 -4 -4 -6 -11 -7 -17 -4
-6 4 -8 3 -5 -2 3 -6 -3 -16 -15 -23 -16 -10 -19 -10 -14 1 4 7 -1 3 -10 -9
-9 -13 -22 -23 -29 -23 -6 0 -22 -13 -35 -30 -13 -16 -28 -30 -34 -30 -7 0
-18 -9 -26 -20 -10 -14 -16 -16 -22 -7 -5 8 -8 4 -8 -10 0 -21 -10 -28 -32
-24 -5 0 -8 -4 -8 -10 0 -5 -5 -7 -10 -4 -6 4 -9 1 -8 -7 2 -7 -3 -12 -9 -10
-7 1 -13 -5 -13 -13 0 -8 -12 -18 -26 -21 -16 -4 -23 -12 -20 -20 3 -8 2 -13
-2 -13 -22 4 -42 -2 -37 -11 6 -10 -9 -15 -30 -10 -5 1 -7 -2 -3 -6 11 -11
-12 -34 -34 -34 -10 0 -16 -4 -13 -10 3 -5 -1 -10 -9 -10 -8 0 -20 -9 -26 -20
-6 -11 -18 -20 -26 -20 -8 0 -12 -4 -9 -10 3 -6 -4 -10 -17 -10 -18 0 -20 2
-8 10 12 8 9 10 -13 10 -16 0 -38 5 -49 11 -16 9 -19 8 -12 -3 4 -7 -2 -4 -14
6 -12 11 -22 14 -22 9 0 -6 -14 -4 -35 5 -34 16 -46 32 -24 32 5 0 8 4 4 9 -6
10 34 37 48 33 5 -1 6 2 2 8 -3 5 -1 10 4 10 6 0 11 8 11 18 0 14 2 15 10 2 8
-12 10 -12 10 -1 0 7 15 27 33 43 17 17 26 27 20 23 -16 -8 -16 0 -2 27 8 15
8 19 0 14 -6 -4 -11 -2 -11 3 0 6 4 11 9 11 9 0 10 31 1 40 -3 3 -11 18 -18
33 -6 15 -18 27 -24 26 -29 -3 -49 2 -43 11 3 6 1 10 -5 10 -6 0 -15 11 -21
24 -8 17 -17 22 -33 19 -17 -4 -18 -3 -6 6 12 9 10 11 -10 7 -39 -7 -60 -17
-54 -27 3 -5 -1 -6 -9 -3 -8 3 -18 0 -22 -5 -3 -6 -11 -9 -16 -5 -5 3 -8 0 -7
-8 2 -7 -3 -12 -9 -10 -7 1 -13 -5 -13 -13 0 -9 -6 -12 -17 -8 -10 4 -14 2
-10 -4 4 -5 -5 -15 -19 -22 -14 -6 -22 -16 -19 -21 4 -6 3 -10 -2 -9 -19 3
-46 -1 -40 -7 7 -7 -17 -34 -31 -34 -6 0 -13 -7 -16 -16 -3 -8 -10 -12 -16 -9
-5 3 -10 -1 -10 -9 0 -9 -8 -16 -17 -16 -9 0 -14 -3 -10 -6 9 -9 -24 -39 -45
-40 -10 -1 -18 3 -18 8 0 5 -4 6 -10 3 -5 -3 -10 -2 -10 4 0 6 -7 7 -17 4 -11
-4 -14 -3 -9 5 5 8 -3 12 -24 12 -18 0 -29 4 -25 10 6 10 -7 14 -33 11 -8 -1
-22 5 -32 14 -11 10 -24 14 -31 9 -7 -4 -10 -3 -6 2 3 5 -6 14 -19 21 -17 8
-22 8 -17 0 4 -6 -8 -1 -25 12 -18 12 -32 19 -32 15 0 -4 -8 0 -18 9 -13 12
-21 14 -29 6 -7 -7 -16 -3 -29 14 -11 13 -25 22 -32 19 -8 -2 -23 5 -36 17
-18 17 -25 18 -36 8 -10 -9 -12 -9 -6 1 5 7 1 12 -9 12 -10 0 -13 5 -9 12 4 7
3 8 -5 4 -13 -9 -53 2 -47 13 4 6 -13 11 -56 14 -9 1 -15 3 -13 6 9 8 -17 30
-30 25 -7 -3 -16 0 -20 5 -3 6 -11 9 -16 5 -11 -7 -41 15 -35 25 3 4 -5 8 -17
9 -12 1 -31 3 -42 5 -11 1 -25 11 -32 22 -7 11 -12 14 -13 7 0 -8 -5 -10 -12
-5 -18 10 -39 13 -33 4 2 -5 -7 -6 -20 -3 -14 2 -23 8 -20 12 2 4 -7 5 -22 2
-18 -3 -24 -1 -19 7 5 7 -1 11 -14 11 -12 0 -19 4 -15 9 3 5 0 13 -6 17 -7 4
-9 3 -5 -4 4 -7 -1 -10 -14 -9 -10 1 -22 8 -25 16 -5 14 -7 14 -15 1 -6 -8
-10 -10 -10 -4 0 5 -16 16 -35 24 -19 7 -31 18 -28 24 3 6 3 8 -2 4 -4 -4 -15
-2 -23 5 -9 7 -13 7 -9 1 3 -6 -9 -4 -27 5 -19 9 -32 19 -30 23 6 9 -26 39
-36 33 -5 -3 -10 0 -12 5 -2 6 -10 12 -18 14 -8 1 -26 8 -39 15 -13 7 -21 8
-17 3 4 -6 -2 -8 -15 -5 -16 4 -17 8 -7 14 9 6 7 9 -9 9 -12 0 -23 4 -25 9 -1
6 -14 12 -28 14 -35 6 -61 18 -55 26 2 4 -2 8 -10 8 -8 0 -12 -4 -9 -9 4 -5
-3 -4 -14 3 -12 7 -19 17 -16 21 3 4 -2 5 -10 2 -9 -3 -16 -1 -16 6 0 7 -8 9
-21 5 -15 -5 -19 -4 -15 4 7 10 -5 15 -30 12 -7 -1 -14 5 -17 13 -3 8 -16 13
-31 12 -14 -2 -23 1 -20 5 3 5 -2 9 -11 9 -9 0 -13 4 -10 10 4 6 -1 7 -11 3
-10 -3 -15 -2 -12 3 6 9 -33 13 -65 6z m2643 -3002 c0 -5 -5 -10 -11 -10 -5 0
-7 5 -4 10 3 6 8 10 11 10 2 0 4 -4 4 -10z m-2473 -125 c0 -8 -4 -12 -9 -9 -5
3 -6 10 -3 15 9 13 12 11 12 -6z"/>
<path d="M1376 3468 c3 -4 11 -5 19 -1 21 7 19 12 -4 10 -11 0 -18 -5 -15 -9z"/>
<path d="M2339 2193 c-13 -16 -12 -17 4 -4 9 7 17 15 17 17 0 8 -8 3 -21 -13z"/>
<path d="M755 1801 c-3 -5 -2 -12 3 -15 5 -3 9 1 9 9 0 17 -3 19 -12 6z"/>
</g>
</svg>
