<?xml version="1.0" standalone="no"?>
<!DOCTYPE svg PUBLIC "-//W3C//DTD SVG 1.1//EN" "http://www.w3.org/Graphics/SVG/1.1/DTD/svg11.dtd" >
<svg>
<metadata>
Created by FontForge 20090914 at Fri Feb 24 03:28:16 2012
 By www-data
Typeface &#194;&#169; 1989 - 1999, Linotype Library GmbH or its affiliated Linotype-Hell companies. Portions &#194;&#169; 1999 Microsoft Corporation. All rights reserved.

</metadata>
<defs>
<font id="FrutigerLinotype-Roman" horiz-adv-x="1139" >
  <font-face 
    font-family="Frutiger Linotype"
    font-weight="400"
    font-stretch="normal"
    units-per-em="2048"
    panose-1="2 11 6 4 3 5 4 4 2 4"
    ascent="1638"
    descent="-410"
    x-height="1044"
    cap-height="1430"
    bbox="-452 -512 2048 1949"
    underline-thickness="102"
    underline-position="-99"
    unicode-range="U+0020-U+FB02"
  />
<missing-glyph horiz-adv-x="1024" 
d="M128 0v1811h768v-1811h-768zM256 128h512v1555h-512v-1555z" />
    <glyph glyph-name=".notdef" horiz-adv-x="1024" 
d="M128 0v1811h768v-1811h-768zM256 128h512v1555h-512v-1555z" />
    <glyph glyph-name="space" unicode=" " horiz-adv-x="569" 
 />
    <glyph glyph-name="exclam" unicode="!" horiz-adv-x="797" 
d="M514 1430l-27 -1029h-176l-26 1029h229zM514 0h-229v229h229v-229z" />
    <glyph glyph-name="quotedbl" unicode="&#x22;" 
d="M813 928h-180v502h180v-502zM506 928h-180v502h180v-502z" />
    <glyph glyph-name="numbersign" unicode="#" 
d="M1081 848h-217l-37 -266h195v-156h-217l-60 -426h-155l59 426h-241l-60 -426h-155l59 426h-195v156h217l37 266h-196v156h219l59 426h156l-60 -426h242l60 426h155l-59 -426h194v-156zM709 848h-242l-37 -266h242z" />
    <glyph glyph-name="dollar" unicode="$" 
d="M985 399c0 -109.333 -32.6709 -200.831 -98.0039 -274.498s-152.666 -119.167 -261.999 -136.5v-205h-119v192h-25c-111.333 0 -215 20 -311 60l25 196c71.333 -50 165.333 -75 282 -75h29v497l-70 35c-90.667 45.333 -157.667 93.666 -201 144.999
c-54 64 -81 141.333 -81 232c0 100.667 34 186 102 256c64.667 67.333 148 109 250 125v205h119v-197c102.667 -2 200.334 -19 293.001 -51l-29 -189c-67.333 40 -148.666 60 -243.999 60h-20v-445l118 -65c82.667 -45.333 142.334 -93.333 179.001 -144
c42 -58.667 63 -132.334 63 -221.001zM505.996 891.002v366c-90 -33.333 -135 -95.333 -135 -186c0 -64 45 -124 135 -180zM767.996 387.002c0 88 -47.667 156.999 -143 206.999v-416c42 13.333 76.333 39.833 103 79.5s40 82.834 40 129.501z" />
    <glyph glyph-name="percent" unicode="%" horiz-adv-x="2048" 
d="M1823 385c0 -118 -22 -212 -66 -282c-52 -85.333 -132.333 -128 -241 -128c-109.333 0 -190 42.667 -242 128c-44 70 -66 164 -66 282c0 273.333 102.667 410 308 410c204.667 0 307 -136.667 307 -410zM1540 1475l-887 -1520h-147l887 1520h147zM840 1044
c0 -117.333 -22 -211.333 -66 -282c-52 -84.667 -132.667 -127 -242 -127c-108.667 0 -189 42.333 -241 127c-44 70.667 -66 164.667 -66 282c0 273.333 102.333 410 307 410c205.333 0 308 -136.667 308 -410zM1642 385c0 80 -4 136 -12 168c-18 65.333 -56 98 -114 98
c-84.667 0 -127 -88.667 -127 -266s42.333 -266 127 -266c84 0 126 88.667 126 266zM659 1044c0 80.667 -4 136.667 -12 168c-18 66 -56.333 99 -115 99c-84 0 -126 -89 -126 -267c0 -177.333 42 -266 126 -266c84.667 0 127 88.667 127 266z" />
    <glyph glyph-name="ampersand" unicode="&#x26;" horiz-adv-x="1479" 
d="M1413 0l-256.001 0.000976562l-117 139c-95.333 -109.333 -231.666 -164 -408.999 -164c-140.667 0 -252.667 36.5 -336 109.5s-125 169.833 -125 290.5c0 192 106.333 331.333 319 418c-98 119.333 -147 227.666 -147 324.999c0 110 36.667 194.667 110 254
c66.667 54.667 154.334 82 263.001 82c100.667 0 183 -25.667 247 -77c71.333 -58 107 -140.333 107 -247c0 -155.333 -104.333 -279.333 -313 -372l291 -332c48.667 78 78 193.333 88 346h192c-14.667 -182 -69.334 -345 -164.001 -489zM876.999 1122
c0 117.333 -56.667 176 -170 176c-50 0 -90.667 -15.333 -122 -46c-33.333 -33.333 -50 -79.333 -50 -138c0 -68 42.333 -148.667 127 -242c143.333 68.667 215 152 215 250zM931.999 268.001l-344 404.001c-68 -46.667 -115 -85.334 -141 -116.001
c-40 -48 -60 -103.667 -60 -167c0 -76 28.333 -138.667 85 -188c54 -46.667 119.333 -70 196 -70c95.333 0 183.333 45.667 264 137z" />
    <glyph glyph-name="quotesingle" unicode="'" horiz-adv-x="569" 
d="M375 928h-180v502h180v-502z" />
    <glyph glyph-name="parenleft" unicode="(" horiz-adv-x="682" 
d="M653 -287h-184.001c-224 334.667 -336 640.667 -336 918c0 160 33 321 99 483c49.333 122 128.333 266.667 237 434h184c-99.333 -177.333 -171.666 -324 -216.999 -440c-65.333 -170 -98 -329 -98 -477c0 -254.667 105 -560.667 315 -918z" />
    <glyph glyph-name="parenright" unicode=")" horiz-adv-x="682" 
d="M549 631c0 -160 -32.999 -321.332 -98.999 -483.999c-49.333 -121.333 -128.333 -266 -237 -434h-184c99.333 177.333 171.666 324.333 216.999 441c65.333 170 98 329 98 477c0 254 -105 559.667 -315 917h184c224 -334.667 336 -640.334 336 -917.001z" />
    <glyph glyph-name="asterisk" unicode="*" 
d="M991 1057l-321 -68l219 -252l-154 -102l-166 283l-168 -283l-151 102l225 252l-328 68l58 174l309 -127l-33 326h187l-31 -326l299 127z" />
    <glyph glyph-name="plus" unicode="+" horiz-adv-x="1229" 
d="M1133 428h-428v-428h-181v428h-428v180h428v428h181v-428h428v-180z" />
    <glyph glyph-name="comma" unicode="," horiz-adv-x="569" 
d="M399 229l-174 -501h-184l129 501h229z" />
    <glyph glyph-name="hyphen" unicode="-" horiz-adv-x="682" 
d="M604 473h-526v156h526v-156z" />
    <glyph glyph-name="hyphen" unicode="&#xad;" horiz-adv-x="682" 
d="M604 473h-526v156h526v-156z" />
    <glyph glyph-name="period" unicode="." horiz-adv-x="569" 
d="M399 0h-229v229h229v-229z" />
    <glyph glyph-name="slash" unicode="/" horiz-adv-x="569" 
d="M621 1454l-492 -1479h-180l491 1479h181z" />
    <glyph glyph-name="zero" unicode="0" horiz-adv-x="1202" 
d="M1092 522c0 -151.333 -46 -279.666 -138 -384.999c-94 -108 -211.333 -162 -352 -162c-142 0 -260 54 -354 162c-91.333 105.333 -137 233.666 -137 384.999c0 154.667 42.333 283 127 385c90.667 108 212 162 364 162c151.333 0 272 -54.333 362 -163
c85.333 -102 128 -230 128 -384zM887 522c0 95.333 -23 179.001 -69 251.001c-54 84 -126 126 -216 126c-90.667 0 -163 -41.667 -217 -125c-46.667 -72 -70 -156 -70 -252c0 -98.667 22.667 -183 68 -253c52.667 -82.667 125.667 -124 219 -124
c92.667 0 165 40.333 217 121c45.333 69.333 68 154.666 68 255.999z" />
    <glyph glyph-name="one" unicode="1" horiz-adv-x="801" 
d="M594 0h-193v848l-235 -160l-66 141l308 215h186v-1044z" />
    <glyph glyph-name="two" unicode="2" horiz-adv-x="1032" 
d="M899 0h-760v184l244 193c195.333 154 293 276 293 366c0 94.667 -68.333 142 -205 142c-90 0 -186.333 -24.667 -289 -74l-14 180c120 46.667 225.667 70 317 70c111.333 0 201.333 -21.333 270 -64c84 -52 126 -130.333 126 -235c0 -152 -101 -302.333 -303 -451
l-193 -141h514v-170z" />
    <glyph glyph-name="three" unicode="3" horiz-adv-x="1028" 
d="M922 -4c0 -270.667 -182.333 -405.999 -547 -405.999c-94.667 0 -202 18 -322 54l13 184c90 -45.333 192.333 -68 307 -68c90.667 0 167 17.333 229 52c76.667 42.667 115 106 115 190c0 180 -117.333 270 -352 270h-119v170h108c91.333 0 168.666 16.667 231.999 50
c79.333 40.667 119 102 119 184c0 148.667 -92.333 223 -277 223c-117.333 0 -221 -22.667 -311 -68l-13 177c110.667 40.667 228.334 61 353.001 61c133.333 0 239 -30.667 317 -92c87.333 -68.667 131 -167.667 131 -297c0 -86.667 -27.667 -159.334 -83 -218.001
c-52 -55.333 -122 -91.333 -210 -108v-4c206.667 -42 310 -160 310 -354z" />
    <glyph glyph-name="four" unicode="4" horiz-adv-x="1147" 
d="M1100 0h-193v-385h-192v385h-645v168l557 876h280v-874h193v-170zM715 168v709h-4l-455 -709h459z" />
    <glyph glyph-name="five" unicode="5" horiz-adv-x="1100" 
d="M1014 72c0 -152 -53.335 -271.667 -160.002 -359c-98.667 -82 -225.667 -123 -381 -123c-117.333 0 -219.666 16 -306.999 48l6 190c80.667 -45.333 179.667 -68 297 -68c90.667 0 168.334 23.667 233.001 71c71.333 52 107 122 107 210c0 99.333 -35 176 -105 230
c-62.667 48.667 -145 73 -247 73c-102.667 0 -195 -17.667 -277 -53l13 753h780v-170h-588l-12 -380c52 13.333 113.333 20 184 20c127.333 0 235.333 -42 324 -126s133 -189.333 133 -316z" />
    <glyph glyph-name="six" unicode="6" horiz-adv-x="1182" 
d="M1063 449c0 -140 -40.3311 -253.333 -120.998 -340c-82.667 -89.333 -193.334 -134 -332.001 -134c-316.667 0 -475 229 -475 687c0 225.333 38.333 405.333 115 540c95.333 168 246 252 452 252c128.667 0 227 -15 295 -45l-28 -182c-75.333 39.333 -160 59 -254 59
c-126 0 -224.333 -52.667 -295 -158c-62.667 -93.333 -95.334 -214 -98.001 -362l4 2c88.667 87.333 193 131 313 131c133.333 0 238 -42.333 314 -127c73.333 -81.333 110 -189 110 -323zM858.002 444c0 74.667 -20.333 139.001 -61 193.001
c-48 62.667 -109.667 94 -185 94c-82 0 -146.833 -26.833 -194.5 -80.5s-71.5 -122.5 -71.5 -206.5c0 -74.667 21.333 -141.334 64 -200.001c48 -67.333 110.667 -101 188 -101c82 0 146.667 30.667 194 92c44 55.333 66 125 66 209z" />
    <glyph glyph-name="seven" unicode="7" horiz-adv-x="1008" 
d="M928 874l-508 -1259h-225l524 1259h-656v170h865v-170z" />
    <glyph glyph-name="eight" unicode="8" horiz-adv-x="1229" 
d="M1092 385c0 -137.333 -47.333 -242.002 -142 -314.002c-84.667 -64 -198 -96 -340 -96c-130 0 -239 33.333 -327 100c-97.333 73.333 -146 173.333 -146 300c0 182.667 99 308.334 297 377.001v4c-170.667 60 -256 178.667 -256 356c0 112.667 47.333 200 142 262
c82 53.333 182.333 80 301 80c132.667 0 239.667 -34 321 -102c72.667 -60.667 109 -133.667 109 -219c0 -89.333 -22.667 -164 -68 -224c-38.667 -51.333 -100.667 -99.666 -186 -144.999c196.667 -68 295 -194.333 295 -379zM862 1106c0 61.333 -30 108.333 -90 141
c-49.333 27.333 -105.333 41 -168 41c-55.333 0 -106.333 -17 -153 -51c-56 -40.667 -84 -92 -84 -154c0 -83.333 94.667 -171.333 284 -264c70 54 117 94.667 141 122c46.667 52.667 70 107.667 70 165zM895 368.998c0 86.667 -32.667 153.999 -98 201.999
c-16.667 12.667 -87.667 49 -213 109l-168 -115c-54.667 -47.333 -82 -106.666 -82 -177.999c0 -75.333 31 -136 93 -182c56.667 -42.667 124 -64 202 -64c71.333 0 132.333 19.667 183 59c55.333 42.667 83 99 83 169z" />
    <glyph glyph-name="nine" unicode="9" horiz-adv-x="1182" 
d="M1047 383c0 -224.667 -38.6689 -404.334 -116.002 -539.001c-96.667 -169.333 -249.334 -254 -458.001 -254c-128 0 -226.333 15 -295 45l29 183c74.667 -40 159.334 -60 254.001 -60c126.667 0 225.667 52.667 297 158c62.667 92.667 95.334 213.667 98.001 363l-4 -3
c-88.667 -87.333 -193 -131 -313 -131c-133.333 0 -237.666 42.667 -312.999 128c-71.333 80.667 -107 188.334 -107 323.001c0 140 39.333 253.333 118 340c81.333 88.667 191.333 133 330 133c320 0 480 -228.667 480 -686zM830.998 600
c0 75.333 -20.999 142.333 -62.999 201c-48.667 66.667 -111.334 100 -188.001 100c-82 0 -146.333 -30.667 -193 -92c-42 -55.333 -63 -125 -63 -209c0 -74 19.667 -138 59 -192c46 -63.333 106.667 -95 182 -95c82 0 147.333 27.667 196 83
c46.667 53.333 70 121.333 70 204z" />
    <glyph glyph-name="colon" unicode=":" horiz-adv-x="569" 
d="M399 815h-229v229h229v-229zM399 0h-229v229h229v-229z" />
    <glyph glyph-name="semicolon" unicode=";" horiz-adv-x="569" 
d="M399 815h-229v229h229v-229zM399 229l-174 -501h-184l129 501h229z" />
    <glyph glyph-name="less" unicode="&#x3c;" horiz-adv-x="1229" 
d="M1135 -16l-1041 456v156l1041 457v-181l-807 -354l807 -354v-180z" />
    <glyph glyph-name="equal" unicode="=" horiz-adv-x="1229" 
d="M1133 643h-1037v180h1037v-180zM1133 213h-1037v180h1037v-180z" />
    <glyph glyph-name="greater" unicode="&#x3e;" horiz-adv-x="1229" 
d="M1135 440l-1041 -456v180l807 354l-807 354v181l1041 -457v-156z" />
    <glyph glyph-name="question" unicode="?" horiz-adv-x="1024" 
d="M934 1081c0 -88.667 -34.333 -179 -103 -271l-184 -231c-24.667 -40 -37 -87 -37 -141v-37h-192v43c0 64 9 117.333 27 160c16.667 39.333 50 88 100 146c60.667 70.667 98.334 117.667 113.001 141c39.333 59.333 59 118 59 176c0 68 -25.333 120.333 -76 157
c-44.667 33.333 -102 50 -172 50c-126.667 0 -227.667 -27.333 -303 -82l-14 194c104 45.333 217.333 68 340 68c119.333 0 220.666 -31.667 303.999 -95c92 -69.333 138 -162 138 -278zM629 0h-230v229h230v-229z" />
    <glyph glyph-name="at" unicode="@" horiz-adv-x="1638" 
d="M1536 846c0 -174 -61.3311 -317.669 -183.998 -431.002c-100.667 -92.667 -201 -139 -301 -139c-75.333 0 -115 38.333 -119 115h-4c-74 -76.667 -148.333 -115 -223 -115c-84.667 0 -156.5 32.333 -215.5 97s-88.5 141.667 -88.5 231
c0 134.667 40.333 252.334 121 353.001c85.333 107.333 192 161 320 161c100 0 177.667 -45 233 -135l31 107h154l-138 -521c-11.333 -43.333 -16.666 -72 -15.999 -86c1.33301 -34 13.666 -51 36.999 -51c61.333 0 117.666 37.667 168.999 113c54 78.667 81 168.667 81 270
c0 154.667 -53.333 277.334 -160 368.001c-99.333 85.333 -227 128 -383 128c-170.667 0 -310.667 -58 -420 -174c-106.667 -113.333 -160 -255.333 -160 -426c0 -189.333 57 -336.666 171 -441.999c107.333 -100 250.333 -150 429 -150
c181.333 0 329.666 60.667 444.999 182h155c-66 -102 -152.833 -181.833 -260.5 -239.5s-223.5 -86.5 -347.5 -86.5c-218 0 -397.333 64.667 -538 194c-148 136 -222 318 -222 546c0 218 74 397 222 537c142 134.667 318 202 528 202c186 0 345 -56 477 -168
c138 -116.667 207 -263.334 207 -440.001zM1012 777.998c0 49.333 -15.3311 90.334 -45.998 123.001s-68 49 -112 49c-76.667 0 -142.334 -35.333 -197.001 -106c-50 -66 -75 -137 -75 -213c0 -55.333 15 -100.333 45 -135s71 -52 123 -52c71.333 0 133.666 38 186.999 114
c50 69.333 75 142.666 75 219.999z" />
    <glyph glyph-name="A" unicode="A" horiz-adv-x="1480" 
d="M1455 0h-224l-146 360h-699l-145 -360h-216l610 1430h216zM1020 528l-285 709l-283 -709h568z" />
    <glyph glyph-name="B" unicode="B" horiz-adv-x="1251" 
d="M1096 381c0 -254 -181.667 -381.001 -545 -381.001h-381v1430h387c334.667 0 502 -120.333 502 -361c0 -177.333 -98.333 -290.666 -295 -339.999v-4c99.333 -8.66699 179 -43 239 -103c62 -62 93 -142.333 93 -241zM854 1049c0 142 -87.999 213.001 -263.999 213.001
h-215v-443h112c115.333 0 197.666 10.333 246.999 31c80 33.333 120 99.666 120 198.999zM879.001 399c0 168 -123.667 252 -371 252h-133v-483h153c234 0 351 77 351 231z" />
    <glyph glyph-name="C" unicode="C" horiz-adv-x="1251" 
d="M1188 27c-82.667 -34.667 -191.332 -52 -325.999 -52c-227.333 0 -409.666 67.667 -546.999 203s-206 316.333 -206 543c0 218 71.333 395.333 214 532c140.667 134 321 201 541 201c121.333 0 228.666 -20.333 321.999 -61l-17 -199c-90 53.333 -188.333 80 -295 80
c-162.667 0 -295.334 -53 -398.001 -159c-100 -104.667 -150 -238 -150 -400c0 -164.667 52.667 -300 158 -406c102 -102 228.667 -153 380 -153c130 0 234 23 312 69z" />
    <glyph glyph-name="D" unicode="D" horiz-adv-x="1479" 
d="M1354 727c0 -236 -68.333 -417 -205 -543c-132 -122.667 -317.667 -184 -557 -184h-422v1430h422c218.667 0 398.667 -62.333 540 -187c148 -129.333 222 -301.333 222 -516zM1137 719c0 162.667 -50.333 292.667 -151 390c-96 93.333 -220 140 -372 140h-239v-1069h215
c364.667 0 547 179.667 547 539z" />
    <glyph glyph-name="E" unicode="E" 
d="M993 0h-800v1430h800v-181h-596v-418h543v-180h-543v-471h596v-180z" />
    <glyph glyph-name="F" unicode="F" horiz-adv-x="1024" 
d="M930 1249h-555v-418h530v-180h-530v-651h-205v1430h760v-181z" />
    <glyph glyph-name="G" unicode="G" horiz-adv-x="1479" 
d="M1298 39c-123.333 -42.667 -268.667 -64 -436 -64c-227.333 0 -409.666 67.667 -546.999 203s-206 316.333 -206 543c0 218 71.333 395.333 214 532c140.667 134 321 201 541 201c141.333 0 281.333 -24 420 -72l-16 -206c-100.667 65.333 -232 98 -394 98
c-162.667 0 -295.334 -53.333 -398.001 -160c-100 -104.667 -150 -237.667 -150 -399c0 -164.667 52.667 -300 158 -406c102 -102 228.667 -153 380 -153c71.333 0 148 8 230 24v434h-301v168h505v-743z" />
    <glyph glyph-name="H" unicode="H" horiz-adv-x="1479" 
d="M1285 0h-204v651h-684v-651h-204v1430h204v-599h684v599h204v-1430z" />
    <glyph glyph-name="I" unicode="I" horiz-adv-x="569" 
d="M387 0h-205v1430h205v-1430z" />
    <glyph glyph-name="J" unicode="J" horiz-adv-x="797" 
d="M610 369c0 -114.667 -28 -205.333 -84 -272c-68.667 -81.333 -174.334 -122 -317.001 -122c-67.333 0 -122.666 8.33301 -165.999 25v176c37.333 -13.333 80.333 -20 129 -20c87.333 0 149.333 24.667 186 74c32 42.667 48 110.667 48 204v996h204v-1061z" />
    <glyph glyph-name="K" unicode="K" horiz-adv-x="1366" 
d="M1333 0h-299l-637 700v-700h-204v1430h204v-629l611 629h272l-672 -676z" />
    <glyph glyph-name="L" unicode="L" horiz-adv-x="1024" 
d="M983 0h-803v1430h205v-1250h598v-180z" />
    <glyph glyph-name="M" unicode="M" horiz-adv-x="1933" 
d="M1749 0h-205v1237h-4l-473 -1237h-201l-473 1237h-4v-1237h-205v1430h338l449 -1188l440 1188h338v-1430z" />
    <glyph glyph-name="N" unicode="N" horiz-adv-x="1479" 
d="M1298 0h-262l-647 1176h-4v-1176h-205v1430h279l631 -1151h4v1151h204v-1430z" />
    <glyph glyph-name="O" unicode="O" horiz-adv-x="1593" 
d="M1485 715c0 -221.333 -60.333 -399 -181 -533c-124 -138 -293 -207 -507 -207c-214.667 0 -384 69 -508 207c-120 134 -180 311.667 -180 533c0 216.667 60.333 392.667 181 528c125.333 140.667 294.333 211 507 211c212 0 381 -70.333 507 -211
c120.667 -135.333 181 -311.333 181 -528zM1268 715c0 156 -39.334 285.333 -118.001 388c-86 114 -203.667 171 -353 171c-150 0 -268 -57 -354 -171c-78 -102.667 -117 -232 -117 -388s37.333 -285 112 -387c84 -114.667 203.667 -172 359 -172
c154.667 0 274.334 57.333 359.001 172c74.667 102 112 231 112 387z" />
    <glyph glyph-name="P" unicode="P" 
d="M1081 1001c0 -147.333 -51.999 -258.667 -155.999 -334c-88.667 -64 -205.334 -96 -350.001 -96h-200v-571h-205v1430h375c357.333 0 536 -143 536 -429zM864.001 1004c0 81.333 -36.6689 144.667 -110.002 190c-59.333 36.667 -127.666 55 -204.999 55h-174v-497h203
c74.667 0 138.334 18.333 191.001 55c63.333 45.333 95 111 95 197z" />
    <glyph glyph-name="Q" unicode="Q" horiz-adv-x="1593" 
d="M1485 715c0 -160.667 -33.5 -300.333 -100.5 -419s-161.833 -205 -284.5 -259l332 -301h-254l-267 248c-32.667 -6 -70.667 -9 -114 -9c-214.667 0 -384 69 -508 207c-120 134 -180 311.667 -180 533c0 216.667 60.333 392.667 181 528
c125.333 140.667 294.333 211 507 211c212 0 381 -70.333 507 -211c120.667 -135.333 181 -311.333 181 -528zM1268 715.001c0 156 -39.334 285.333 -118.001 388c-86 114 -203.667 171 -353 171c-150 0 -268 -57 -354 -171c-78 -102.667 -117 -232 -117 -388
s37.333 -285 112 -387c84 -114.667 203.667 -172 359 -172c154.667 0 274.334 57.333 359.001 172c74.667 102 112 231 112 387z" />
    <glyph glyph-name="R" unicode="R" horiz-adv-x="1251" 
d="M1190 0l-234.001 -0.000976562l-219 496c-28 63.333 -62 104 -102 122c-25.333 11.333 -71 17 -137 17h-123v-635h-205v1430h350c172.667 0 300.667 -22 384 -66c114 -59.333 171 -166.666 171 -321.999c0 -84.667 -28.333 -157 -85 -217
c-54 -57.333 -124 -93.333 -210 -108v-4c58.667 -22.667 105.334 -70.667 140.001 -144zM857.999 1038c0 140.667 -95.668 211 -287.001 211h-196v-434h174c96.667 0 172.334 20 227.001 60s82 94.333 82 163z" />
    <glyph glyph-name="S" unicode="S" horiz-adv-x="1024" 
d="M928 401c0 -144 -51.3311 -253 -153.998 -327c-90.667 -66 -213.334 -99 -368.001 -99c-74 0 -171.667 20 -293 60l20 190c112.667 -46 211.667 -69 297 -69c69.333 0 130.666 17.667 183.999 53c64.667 43.333 97 103.333 97 180c0 86.667 -53.333 159.667 -160 219
l-295 155c-106.667 75.333 -160 176 -160 302c0 122.667 44.333 219.334 133 290.001c83.333 66 192 99 326 99c107.333 0 209 -17 305 -51l-29 -189c-100.667 40 -190 60 -268 60c-166.667 0 -250 -63.667 -250 -191c0 -72 53.333 -136.667 160 -194
c184.667 -98.667 283 -152.667 295 -162c106.667 -82.667 160 -191.334 160 -326.001z" />
    <glyph glyph-name="T" unicode="T" 
d="M1116 1249h-444v-1249h-205v1249h-444v181h1093v-181z" />
    <glyph glyph-name="U" unicode="U" horiz-adv-x="1479" 
d="M1294 592c0 -199.333 -48.1689 -352 -144.502 -458s-233.166 -159 -410.499 -159s-313.666 52.667 -408.999 158c-97.333 106.667 -146 259.667 -146 459v838h205v-812c0 -308 116.667 -462 350 -462c234 0 351 154 351 462v812h204v-838z" />
    <glyph glyph-name="V" unicode="V" horiz-adv-x="1366" 
d="M1354 1430l-547 -1430h-256l-539 1430h230l440 -1250h4l453 1250h215z" />
    <glyph glyph-name="W" unicode="W" horiz-adv-x="2048" 
d="M2044 1430l-440 -1430h-265l-311 1249h-4l-313 -1249h-275l-432 1430h225l342 -1225h4l306 1225h290l310 -1225h4l342 1225h217z" />
    <glyph glyph-name="X" unicode="X" horiz-adv-x="1366" 
d="M1350 0h-258l-422 606l-408 -606h-246l527 743l-480 687h246l381 -549l379 549h234l-482 -682z" />
    <glyph glyph-name="Y" unicode="Y" horiz-adv-x="1366" 
d="M1343 1430l-557 -832v-598h-204v598l-559 832h239l426 -642l416 642h239z" />
    <glyph glyph-name="Z" unicode="Z" 
d="M1055 0h-989v184l741 1065h-717v181h952v-185l-739 -1065h752v-180z" />
    <glyph glyph-name="bracketleft" unicode="[" horiz-adv-x="682" 
d="M582 -287h-387v1835h387v-143h-207v-1548h207v-144z" />
    <glyph glyph-name="backslash" unicode="\" horiz-adv-x="569" 
d="M621 -25h-181l-491 1479h180z" />
    <glyph glyph-name="bracketright" unicode="]" horiz-adv-x="682" 
d="M487 -287h-387v144h207v1548h-207v143h387v-1835z" />
    <glyph glyph-name="asciicircum" unicode="^" horiz-adv-x="1229" 
d="M1106 602h-184l-308 639l-307 -639h-184l407 828h168z" />
    <glyph glyph-name="underscore" unicode="_" horiz-adv-x="1024" 
d="M1024 -256h-1024v102h1024v-102z" />
    <glyph glyph-name="grave" unicode="`" horiz-adv-x="569" 
d="M420 1190h-137l-269 295h224z" />
    <glyph glyph-name="a" unicode="a" 
d="M985 0h-180v135h-4c-76 -106.667 -184 -160 -324 -160c-118 0 -210 26 -276 78c-71.333 56 -107 138.667 -107 248c0 118.667 56 208.667 168 270c89.333 49.333 195.333 74 318 74c86 0 154 -1.33301 204 -4c0 93.333 -18.667 161.333 -56 204
c-40.667 45.333 -108 68 -202 68c-117.333 0 -218.333 -35.333 -303 -106l-10 164c110 65.333 224.667 98 344 98c146.667 0 254 -36.333 322 -109c65.333 -70 98 -177.667 98 -323v-432c0 -96 2.66699 -164.333 8 -205zM784 406l-0.00195312 92.001
c-13.333 0 -33.666 0.666992 -60.999 2s-47.666 2 -60.999 2c-242 0 -363 -67 -363 -201c0 -51.333 21.333 -93.333 64 -126c38 -29.333 81.667 -44 131 -44c92 0 164 26.333 216 79c49.333 49.333 74 114.666 74 195.999z" />
    <glyph glyph-name="b" unicode="b" horiz-adv-x="1251" 
d="M1157 541c0 -158 -35.333 -288 -106 -390c-80.667 -117.333 -194.667 -176 -342 -176c-162.667 0 -281.667 57.333 -357 172h-4v-147h-184v1536h192v-635h4c69.333 112 185 168 347 168c144 0 257 -53 339 -159c74 -96.667 111 -219.667 111 -369zM952 526
c0 106.667 -21.665 195.001 -64.998 265.001c-50.667 81.333 -124.334 122 -221.001 122c-98.667 0 -176.334 -41 -233.001 -123c-51.333 -73.333 -77 -163.333 -77 -270c0 -100 24.333 -186.667 73 -260c56.667 -86 135 -129 235 -129c94 0 168 45.333 222 136
c44 75.333 66 161.666 66 258.999z" />
    <glyph glyph-name="c" unicode="c" horiz-adv-x="909" 
d="M852 18c-62 -28.667 -142.667 -43 -242 -43c-154.667 0 -282.667 54 -384 162c-98.667 104.667 -148 233 -148 385c0 160 49.167 291.167 147.5 393.5s226.5 153.5 384.5 153.5c88.667 0 166.667 -13.667 234 -41l-17 -160c-72 30 -141.667 45 -209 45
c-102 0 -184.667 -40.333 -248 -121c-58 -74 -87 -164 -87 -270c0 -104.667 27 -193 81 -265c62.667 -84 151.667 -126 267 -126c77.333 0 146.333 19.667 207 59z" />
    <glyph glyph-name="d" unicode="d" horiz-adv-x="1251" 
d="M1087 0h-183.999v147h-4c-75.333 -114.667 -194 -172 -356 -172c-148 0 -262.333 58.667 -343 176c-70.667 102.667 -106 232.667 -106 390c0 149.333 37.333 272.333 112 369c81.333 106 194.333 159 339 159c161.333 0 276.666 -56 345.999 -168h4v635h192v-1536z
M895.001 520c0 106.667 -25.333 196.665 -76 269.998c-57.333 82 -135 123 -233 123c-97.333 0 -171.333 -40.667 -222 -122c-43.333 -69.333 -65 -157.666 -65 -264.999c0 -97.333 22.333 -183.666 67 -258.999c53.333 -90.667 127.333 -136 222 -136
c100 0 178.333 43 235 129c48 73.333 72 160 72 260z" />
    <glyph glyph-name="e" unicode="e" 
d="M1044 479l-745 0.00292969c0 -100.667 34.667 -184.334 104 -251.001c66 -64.667 146 -97 240 -97c58 0 121.667 12.667 191 38c59.333 21.333 103 43.666 131 66.999v-193c-125.333 -45.333 -235.333 -68 -330 -68c-180 0 -316.333 52 -409 156
c-88 97.333 -132 234 -132 410c0 155.333 45 282.166 135 380.499s208.333 147.5 355 147.5c306.667 0 460 -196.667 460 -590zM840 623.003c0 82.667 -22.666 151 -67.999 205c-48 56.667 -112 85 -192 85c-86.667 0 -155.334 -31.333 -206.001 -94
c-41.333 -52 -66.333 -117.333 -75 -196h541z" />
    <glyph glyph-name="f" unicode="f" horiz-adv-x="797" 
d="M768 1548l-8 -155c-22.667 8 -53.334 12 -92.001 12c-77.333 0 -129.666 -24.667 -156.999 -74c-20 -34.667 -30 -92.667 -30 -174v-113h277v-155h-277v-889h-192v889h-246v155h246v97c0 139.333 22.667 241 68 305c54.667 76.667 148.667 115 282 115
c34 0 77 -4.33301 129 -13z" />
    <glyph glyph-name="g" unicode="g" horiz-adv-x="1251" 
d="M1087 45c0 -333.333 -179.332 -500 -537.999 -500c-110 0 -235 24 -375 72l21 178c136.667 -62.667 262 -94 376 -94c101.333 0 180.666 32 237.999 96s86 151.333 86 262v103h-4c-81.333 -108 -198 -162 -350 -162c-142.667 0 -254.667 52 -336 156
c-74 94 -111 213.333 -111 358c0 147.333 38.333 273.333 115 378c86.667 118 204 177 352 177c168 0 282.667 -60 344 -180h4v155h178v-999zM895.001 510c0 115.333 -25.334 209.667 -76.001 283c-55.333 80 -131.666 120 -228.999 120
c-90.667 0 -163.667 -42.333 -219 -127c-48 -75.333 -72 -162.666 -72 -261.999c0 -102 26 -188 78 -258c54.667 -73.333 125.667 -110 213 -110c88.667 0 162 34.667 220 104c56.667 67.333 85 150.666 85 249.999z" />
    <glyph glyph-name="h" unicode="h" horiz-adv-x="1251" 
d="M1087 0l-192.001 -0.000976562v541c0 126.667 -16 218.667 -48 276c-34 62 -91.667 94 -173 96c-105.333 3.33301 -185.666 -35.667 -240.999 -117c-51.333 -75.333 -77 -179.666 -77 -312.999v-483h-192v1536h192v-641h4c73.333 116 185.333 174 336 174
c260.667 0 391 -149.333 391 -448v-621z" />
    <glyph glyph-name="i" unicode="i" horiz-adv-x="569" 
d="M393 1278h-217v217h217v-217zM381 0h-193v1044h193v-1044z" />
    <glyph glyph-name="j" unicode="j" horiz-adv-x="569" 
d="M393 1278h-217v217h217v-217zM381 -37c0 -118 -13 -206.667 -39 -266c-44.667 -101.333 -130 -152 -256 -152c-55.333 0 -95 3 -119 9l6 165c24.667 -4 50.667 -6 78 -6c91.333 0 137 73.667 137 221v1110h193v-1081z" />
    <glyph glyph-name="k" unicode="k" 
d="M1100 0h-277l-467 537v-537h-192v1536h192v-915l420 423h262l-485 -462z" />
    <glyph glyph-name="l" unicode="l" horiz-adv-x="569" 
d="M381 0h-193v1536h193v-1536z" />
    <glyph glyph-name="m" unicode="m" horiz-adv-x="1821" 
d="M1661 0h-193.001v623c0 193.333 -62 290 -186 290c-92 0 -162.333 -40 -211 -120c-42 -70 -63 -159 -63 -267v-526h-193v623c0 193.333 -62 290 -186 290c-92 0 -162.333 -40 -211 -120c-42.667 -70 -64 -159 -64 -267v-526h-192v1044h180v-151h4
c72 117.333 182.667 176 332 176c145.333 0 244.333 -67.667 297 -203c32.667 68 83.667 120.667 153 158c56.667 30 113.334 45 170.001 45c242 0 363 -133 363 -399v-670z" />
    <glyph glyph-name="n" unicode="n" horiz-adv-x="1251" 
d="M1087 0l-192.002 -0.000976562v541c0 126.667 -16 218.667 -48 276c-34 62 -91.667 94 -173 96c-105.333 3.33301 -185.666 -35.667 -240.999 -117c-51.333 -75.333 -77 -179.666 -77 -312.999v-483h-192v1044h186v-165h4c28.667 58 74.334 104.167 137.001 138.5
s131 51.5 205 51.5c260.667 0 391 -149.333 391 -448v-621z" />
    <glyph glyph-name="o" unicode="o" horiz-adv-x="1251" 
d="M1157 522c0 -152 -49.334 -280.333 -148.001 -385c-100.667 -108 -228 -162 -382 -162c-155.333 0 -283.666 54 -384.999 162c-98.667 104.667 -148 233 -148 385c0 160 49.167 291.167 147.5 393.5s226.833 153.5 385.5 153.5c157.333 0 285 -51.167 383 -153.5
s147 -233.5 147 -393.5zM951.999 522c0 105.333 -28.667 195.333 -86 270c-61.333 80.667 -141 121 -239 121c-99.333 0 -180 -40.333 -242 -121c-57.333 -74.667 -86 -164.667 -86 -270c0 -104 26.333 -192.333 79 -265c60 -84 143 -126 249 -126c104.667 0 187 42 247 126
c52 72.667 78 161 78 265z" />
    <glyph glyph-name="p" unicode="p" horiz-adv-x="1251" 
d="M1157 541c0 -158 -35.333 -288 -106 -390c-80.667 -117.333 -194.667 -176 -342 -176c-163.333 0 -279.666 56 -348.999 168h-4v-573h-192v1474h184v-147h4c75.333 114.667 193.666 172 354.999 172c144 0 257 -53 339 -159c74 -96.667 111 -219.667 111 -369zM952 526
c0 106.667 -21.665 195.001 -64.998 265.001c-50.667 81.333 -124.334 122 -221.001 122c-98.667 0 -176.334 -41 -233.001 -123c-51.333 -73.333 -77 -163.333 -77 -270c0 -100 24.333 -186.667 73 -260c56.667 -86 135 -129 235 -129c94 0 168 45.333 222 136
c44 75.333 66 161.666 66 258.999z" />
    <glyph glyph-name="q" unicode="q" horiz-adv-x="1251" 
d="M1087 -430l-191.999 -0.000976562v567h-4c-30 -49.333 -76.333 -88.666 -139 -117.999s-132.334 -44 -209.001 -44c-148 0 -262.333 58.667 -343 176c-70.667 102.667 -106 232.667 -106 390c0 149.333 37.333 272.333 112 369c81.333 106 194.333 159 339 159
c161.333 0 279.333 -58 354 -174h4v149h184v-1474zM895.001 519.999c0 106.667 -25.333 196.665 -76 269.998c-57.333 82 -135 123 -233 123c-97.333 0 -171.333 -40.667 -222 -122c-43.333 -69.333 -65 -157.666 -65 -264.999c0 -97.333 22.333 -183.666 67 -258.999
c53.333 -90.667 127.333 -136 222 -136c100 0 178.333 43 235 129c48 73.333 72 160 72 260z" />
    <glyph glyph-name="r" unicode="r" horiz-adv-x="797" 
d="M748 883c-30 12 -65.665 18 -106.998 18c-86.667 0 -155.834 -38.333 -207.501 -115s-77.5 -180.334 -77.5 -311.001v-475h-192v1044h180v-161h4c26 54.667 64.167 99.334 114.5 134.001s103.166 52 158.499 52c36.667 0 79 -4.66699 127 -14v-172z" />
    <glyph glyph-name="s" unicode="s" horiz-adv-x="797" 
d="M727 301c0 -105.333 -37.334 -187.333 -112.001 -246c-67.333 -53.333 -151.666 -80 -252.999 -80c-119.333 0 -214.666 19.333 -285.999 58l10 172c76 -49.333 156 -74 240 -74c52 0 95.667 11 131 33c43.333 26 65 65 65 117c0 50.667 -39 97.334 -117 140.001
l-218 118c-78 56 -117 125.667 -117 209c0 104 35.333 184.667 106 242c66 52.667 153.333 79 262 79c68 0 148 -13.667 240 -41l-16 -168c-20.667 12.667 -54.334 25 -101.001 37c-44 10.667 -78 16 -102 16c-52.667 0 -95.667 -10.333 -129 -31
c-37.333 -22.667 -56 -54.667 -56 -96c0 -56.667 39.333 -105.334 118 -146.001l218 -112c78 -56 117 -131.667 117 -227z" />
    <glyph glyph-name="t" unicode="t" horiz-adv-x="797" 
d="M735 4c-66.667 -19.333 -121.333 -29 -164 -29c-214 0 -321 101.333 -321 304v610h-236v155h236v242l192 62v-304h277v-155h-277v-572c0 -58 16 -104 48 -138c30 -32 68 -48 114 -48c49.333 0 93 12.333 131 37v-164z" />
    <glyph glyph-name="u" unicode="u" horiz-adv-x="1251" 
d="M1087 0l-186 0.000976562v166h-4c-28 -58.667 -73.5 -105.167 -136.5 -139.5s-131.5 -51.5 -205.5 -51.5c-260.667 0 -391 149.667 -391 449v620h192v-540c0 -126.667 16 -218.667 48 -276c34 -62.667 92 -95 174 -97c105.333 -2.66699 185.333 36.666 240 117.999
c51.333 74.667 77 178.667 77 312v483h192v-1044z" />
    <glyph glyph-name="v" unicode="v" horiz-adv-x="1024" 
d="M1001 1044l-374 -1044h-230l-374 1044h210l283 -851h4l289 851h192z" />
    <glyph glyph-name="w" unicode="w" horiz-adv-x="1706" 
d="M1681 1044l-335 -1044h-224l-270 877h-4l-264 -877h-224l-335 1044h211l239 -864h4l266 864h228l262 -864h4l254 864h188z" />
    <glyph glyph-name="x" unicode="x" horiz-adv-x="1024" 
d="M1004 0h-238l-258 410l-258 -410h-230l377 547l-340 497h240l227 -372l232 372h215l-336 -497z" />
    <glyph glyph-name="y" unicode="y" horiz-adv-x="1024" 
d="M991 1044l-385.001 -1067c-51.333 -142.667 -95.333 -239.667 -132 -291c-68 -94 -157.667 -141 -269 -141c-33.333 0 -77 5 -131 15l12 157c32.667 -10.667 62.667 -16 90 -16c72.667 0 132.334 40.333 179.001 121c34 58 51 103.667 51 137c0 6 -12.333 43 -37 111
l-355 974h211l281 -864h4l287 864h194z" />
    <glyph glyph-name="z" unicode="z" horiz-adv-x="1024" 
d="M936 0h-848v168l602 721h-573v155h796v-167l-602 -721h625v-156z" />
    <glyph glyph-name="braceleft" unicode="{" horiz-adv-x="682" 
d="M643 -287l-160 0.000976562c-55.333 0 -106 22 -152 66c-52.667 49.333 -79 113.333 -79 192v373c0 65.333 -19 118.666 -57 159.999c-34.667 36.667 -74.334 55 -119.001 55v143c44.667 0 84.334 18 119.001 54c38 40 57 90.333 57 151v383c0 78.667 26.333 143 79 193
c46 43.333 96.667 65 152 65h160v-143h-108c-68.667 0 -103 -52 -103 -156v-370c0 -78.667 -24.667 -141 -74 -187c-33.333 -31.333 -71.333 -51 -114 -59v-4c42.667 -5.33301 80.667 -23.333 114 -54c49.333 -46 74 -112 74 -198v-365c0 -103.333 34.333 -155 103 -155h108
v-144z" />
    <glyph glyph-name="bar" unicode="|" horiz-adv-x="455" 
d="M317 -512h-180v2048h180v-2048z" />
    <glyph glyph-name="braceright" unicode="}" horiz-adv-x="682" 
d="M606 559c-44.667 0 -84.334 -18.002 -119.001 -54.002c-38 -39.333 -57 -89.666 -57 -150.999v-383c0 -78.667 -26.333 -142.667 -79 -192c-46 -44 -96.667 -66 -152 -66h-160v144h108c68.667 0 103 51.667 103 155v371c0 78.667 24.667 141 74 187
c33.333 30.667 71.333 50.334 114 59.001v4c-42.667 4.66699 -80.667 22.667 -114 54c-49.333 45.333 -74 111.333 -74 198v364c0 104 -34.333 156 -103 156h-108v143h160c55.333 0 106 -21.667 152 -65c52.667 -50 79 -114.333 79 -193v-372c0 -66 19 -119.333 57 -160
c34.667 -37.333 74.334 -56 119.001 -56v-143z" />
    <glyph glyph-name="asciitilde" unicode="~" horiz-adv-x="1229" 
d="M1087 539c-60.667 -116 -146 -174 -256 -174c-55.333 0 -131 21 -227 63c-114.667 50.667 -184.334 76 -209.001 76c-54.667 0 -114.667 -50 -180 -150l-74 144c60.667 116 146 174 256 174c55.333 0 131.333 -21.333 228 -64c114.667 -50.667 184.334 -76 209.001 -76
c54.667 0 114.667 50 180 150v0z" />
    <glyph glyph-name="asciitilde" unicode="&#x223c;" horiz-adv-x="1229" 
d="M1087 539c-60.667 -116 -146 -174 -256 -174c-55.333 0 -131 21 -227 63c-114.667 50.667 -184.334 76 -209.001 76c-54.667 0 -114.667 -50 -180 -150l-74 144c60.667 116 146 174 256 174c55.333 0 131.333 -21.333 228 -64c114.667 -50.667 184.334 -76 209.001 -76
c54.667 0 114.667 50 180 150v0z" />
    <glyph glyph-name="uni00A0" unicode="&#xa0;" horiz-adv-x="569" 
 />
    <glyph glyph-name="exclamdown" unicode="&#xa1;" horiz-adv-x="797" 
d="M514 815h-229v229h229v-229zM514 -385h-229l26 1028h176z" />
    <glyph glyph-name="cent" unicode="&#xa2;" 
d="M956 18c-62 -28.667 -142.333 -43 -241 -43c-58.667 0 -112.667 8.33301 -162 25l-80 -272h-117l93 319c-84 47.333 -149.5 113 -196.5 197s-70.5 176.667 -70.5 278c0 160 49.167 291.167 147.5 393.5s226.833 153.5 385.5 153.5c12 0 21.333 -0.666992 28 -2l68 231
h117l-72 -243c44 -10 74.667 -19 92 -27l-16 -160c-40.667 17.333 -80.334 29 -119.001 35l-215 -747c44.667 -16.667 90.334 -25 137.001 -25c77.333 0 146.333 19.667 207 59zM698 911c-96 -6.66699 -173 -49.333 -231 -128c-53.333 -72.667 -80 -159.667 -80 -261
c0 -126 37.667 -225.667 113 -299z" />
    <glyph glyph-name="sterling" unicode="&#xa3;" 
d="M1044 1415l-16 -190c-73.333 32.667 -141.666 49 -204.999 49c-207.333 0 -311 -114 -311 -342v-101h330v-118h-330v-533h506v-180h-897v180h186v533h-162v118h162v115c0 152 42.333 273.667 127 365c88 95.333 211 143 369 143c83.333 0 163.666 -13 240.999 -39z" />
    <glyph glyph-name="currency" unicode="&#xa4;" 
d="M1090 299l-103 -104.001l-110 116c-80.667 -69.333 -183.334 -104 -308.001 -104c-124 0 -225 34.667 -303 104l-112 -116l-105 104l115 117c-68.667 80.667 -103 180.334 -103 299.001c0 128 34.333 229 103 303l-115 110l105 107l112 -113c82 67.333 183 101 303 101
c118.667 0 221.334 -33.667 308.001 -101l110 113l103 -107l-111 -110c65.333 -74 98 -175 98 -303c0 -122 -32.667 -221.667 -98 -299zM897 714.999c0 91.333 -31.666 170.833 -94.999 238.5s-141 101.5 -233 101.5c-90.667 0 -167.834 -33.333 -231.501 -100
s-95.5 -146.667 -95.5 -240c0 -94 32 -174.167 96 -240.5s141 -99.5 231 -99.5c92.667 0 171 34 235 102c62 66.667 93 146 93 238z" />
    <glyph glyph-name="yen" unicode="&#xa5;" 
d="M1126 1430l-370 -680h207v-119h-273l-16 -33v-147h289v-119h-289v-332h-205v332h-289v119h289v147l-16 33h-273v119h207l-375 680h228l335 -642l324 642h227z" />
    <glyph glyph-name="brokenbar" unicode="&#xa6;" horiz-adv-x="455" 
d="M317 666h-180v716h180v-716zM317 -358h-180v716h180v-716z" />
    <glyph glyph-name="brokenbar" unicode="&#x443;" horiz-adv-x="455" 
d="M317 666h-180v716h180v-716zM317 -358h-180v716h180v-716z" />
    <glyph glyph-name="section" unicode="&#xa7;" 
d="M989 598c0 -56.667 -12.998 -105.669 -38.998 -147.002c-20 -32.667 -55.333 -69.667 -106 -111c87.333 -56 131 -134 131 -234c0 -119.333 -52 -212 -156 -278c-86.667 -54.667 -189 -82 -307 -82c-124 0 -234 17 -330 51l19 189c91.333 -48 204 -72 338 -72
c64.667 0 119.667 15 165 45c52 34 78 81 78 141c0 57.333 -52.667 106.333 -158 147c-178.667 69.333 -276.667 109 -294 119c-105.333 62.667 -158 149 -158 259c0 108.667 50 193.334 150 254.001c-94.667 52 -142 133 -142 243c0 106 47 189.667 141 251
c81.333 54 177.666 81 288.999 81c93.333 0 191.666 -13 294.999 -39l-18 -186c-86 38 -169.333 57 -250 57c-176 0 -264 -52 -264 -156c0 -65.333 53.333 -119.666 160 -162.999l296 -117c106.667 -60 160 -144 160 -252zM809.002 558.998
c0 70.667 -49.667 128.667 -149 174l-232 90c-50.667 -38.667 -76 -91.667 -76 -159c0 -68.667 50.333 -126 151 -172l232 -86c49.333 56.667 74 107.667 74 153z" />
    <glyph glyph-name="dieresis" unicode="&#xa8;" horiz-adv-x="569" 
d="M549 1204h-193v205h193v-205zM213 1204h-193v205h193v-205z" />
    <glyph glyph-name="copyright" unicode="&#xa9;" horiz-adv-x="1638" 
d="M1559 715c0 -204 -72.333 -378.333 -217 -523s-319 -217 -523 -217c-203.333 0 -377.333 72.333 -522 217s-217 319 -217 523c0 203.333 72.333 377.333 217 522s318.667 217 522 217c204 0 378.333 -72.333 523 -217s217 -318.667 217 -522zM1378 715
c0 170.667 -54.333 313.334 -163 428.001c-107.333 112 -239.333 168 -396 168c-156 0 -287.667 -56 -395 -168c-109.333 -114.667 -164 -257.334 -164 -428.001c0 -171.333 54.667 -314 164 -428c107.333 -112 239 -168 395 -168c156.667 0 289 56.5 397 169.5
s162 255.167 162 426.5zM1192 584c-16 -99.333 -56.8311 -177.5 -122.498 -234.5s-142.834 -85.5 -231.501 -85.5c-126 0 -228 43 -306 129c-76 84 -114 191.333 -114 322s36.333 237 109 319c75.333 84.667 176.666 127 303.999 127c94 0 173.333 -26.333 238 -79
c69.333 -55.333 110.333 -131.333 123 -228h-150c-10 50 -33.833 89.833 -71.5 119.5s-83.167 44.5 -136.5 44.5c-83.333 0 -148.333 -28.667 -195 -86c-44 -53.333 -66 -124.333 -66 -213c0 -91.333 23.833 -166 71.5 -224s112.167 -87 193.5 -87
c55.333 0 101.5 15.5 138.5 46.5s58.833 74.167 65.5 129.5h150z" />
    <glyph glyph-name="ordfeminine" unicode="&#xaa;" horiz-adv-x="739" 
d="M690 811h-171.999v78h-4c-39.333 -62.667 -106.333 -94 -201 -94c-66 0 -123 13.333 -171 40c-63.333 34.667 -95 86.667 -95 156c0 77.333 42.333 134.333 127 171c61.333 26.667 133.666 40 216.999 40c56 0 97.667 -1.33301 125 -4c0 91.333 -53.333 137 -160 137
c-85.333 0 -159 -22.333 -221 -67l-6 129c74.667 38 154.667 57 240 57c105.333 0 182 -16.667 230 -50c56.667 -40 85 -110 85 -210v-262c0 -26.667 1.33301 -53.667 4 -81c2 -22.667 2.66699 -36 2 -40zM516.001 1036v56c-4.66699 0 -16 0.666992 -34 2s-34 2 -48 2
c-146 0 -219 -37 -219 -111c0 -48 40.333 -72 121 -72c120 0 180 41 180 123z" />
    <glyph glyph-name="guillemotleft" unicode="&#xab;" 
d="M991 137h-180l-293 414l293 414h180l-266 -414zM578 137h-181l-293 414l293 414h181l-267 -414z" />
    <glyph glyph-name="logicalnot" unicode="&#xac;" horiz-adv-x="1229" 
d="M1133 213h-181v430h-856v180h1037v-610z" />
    <glyph glyph-name="registered" unicode="&#xae;" horiz-adv-x="1638" 
d="M1559 715c0 -204 -72.333 -378.333 -217 -523s-319 -217 -523 -217c-203.333 0 -377.333 72.333 -522 217s-217 319 -217 523c0 203.333 72.333 377.333 217 522s318.667 217 522 217c204 0 378.333 -72.333 523 -217s217 -318.667 217 -522zM1378 715
c0 170.667 -54.333 313.334 -163 428.001c-107.333 112 -239.333 168 -396 168c-156 0 -287.667 -56 -395 -168c-109.333 -114.667 -164 -257.334 -164 -428.001c0 -171.333 54.667 -314 164 -428c107.333 -112 239 -168 395 -168c156.667 0 289 56.5 397 169.5
s162 255.167 162 426.5zM1161 299h-160l-217 360h-94v-360h-155v838h311c206 0 309 -82 309 -246c0 -137.333 -73 -212.333 -219 -225zM999 903c0 76.667 -56.667 115 -170 115h-139v-240h137c55.333 0 95.333 6.66699 120 20c34.667 18.667 52 53.667 52 105z" />
    <glyph glyph-name="macron" unicode="&#xaf;" horiz-adv-x="1024" 
d="M1024 1540h-1024v102h1024v-102z" />
    <glyph glyph-name="degree" unicode="&#xb0;" horiz-adv-x="819" 
d="M702 1161c0 -80.667 -28.5 -149.667 -85.5 -207s-125.833 -86 -206.5 -86c-81.333 0 -150.5 28.667 -207.5 86s-85.5 126.333 -85.5 207c0 81.333 28.5 150.5 85.5 207.5s126.167 85.5 207.5 85.5c80.667 0 149.5 -28.5 206.5 -85.5s85.5 -126.167 85.5 -207.5zM571 1161
c0 45.333 -15.667 83.666 -47 114.999s-69.333 47 -114 47c-45.333 0 -83.666 -15.667 -114.999 -47s-47 -69.666 -47 -114.999c0 -44.667 15.667 -82.834 47 -114.501s69.666 -47.5 114.999 -47.5c44.667 0 82.667 15.833 114 47.5s47 69.834 47 114.501z" />
    <glyph glyph-name="plusminus" unicode="&#xb1;" horiz-adv-x="1229" 
d="M1133 555h-428v-301h-181v301h-428v180h428v301h181v-301h428v-180zM1133 0h-1037v180h1037v-180z" />
    <glyph glyph-name="uni00B2" unicode="&#xb2;" horiz-adv-x="739" 
d="M676 578h-612.999v155c146.667 121.333 227 188.666 241 201.999c118 111.333 177 199 177 263c0 37.333 -18.667 66.333 -56 87c-31.333 17.333 -67.333 26 -108 26c-76 0 -147 -20 -213 -60l-12 152c80.667 34 166 51 256 51c88 0 160 -18.667 216 -56
c65.333 -44 98 -108 98 -192c0 -74.667 -53.667 -169.667 -161 -285c-90.667 -97.333 -168.334 -162.666 -233.001 -195.999v-4h408v-143z" />
    <glyph glyph-name="uni00B3" unicode="&#xb3;" horiz-adv-x="739" 
d="M676 809c0 -162.667 -126.329 -244 -378.996 -244c-75.333 0 -152.333 11 -231 33l20 156c30 -30 94.333 -45 193 -45c49.333 0 93.666 6.66699 132.999 20c56 18.667 84 48 84 88c0 43.333 -23.333 78 -70 104c-39.333 22 -84.333 33 -135 33h-101v144h95
c46 0 89 9 129 27c48.667 22.667 73 52.334 73 89.001c0 35.333 -23 61.666 -69 78.999c-32.667 12 -70.334 18 -113.001 18c-62 0 -128.333 -15 -199 -45l-8 147c74.667 27.333 158.667 41 252 41c89.333 0 162.666 -18 219.999 -54c65.333 -41.333 98 -100.333 98 -177
c0 -53.333 -21.667 -98 -65 -134c-36.667 -30 -83.334 -50.333 -140.001 -61v-4c142 -19.333 213 -91 213 -215z" />
    <glyph glyph-name="acute" unicode="&#xb4;" horiz-adv-x="569" 
d="M555 1485l-268 -295h-137l182 295h223z" />
    <glyph glyph-name="uni00B5" unicode="&#xb5;" horiz-adv-x="1251" 
d="M1087 0l-186.001 0.000976562v166h-4c-28 -58.667 -73.5 -105.167 -136.5 -139.5s-131.5 -51.5 -205.5 -51.5c-83.333 0 -149.666 13.667 -198.999 41v-446h-192v1474h192v-540c0 -126.667 16 -218.667 48 -276c34 -62.667 92 -95 174 -97
c105.333 -2.66699 185.333 36.666 240 117.999c51.333 74.667 77 178.667 77 312v483h192v-1044z" />
    <glyph glyph-name="paragraph" unicode="&#xb6;" horiz-adv-x="1229" 
d="M1079 -229h-179.999v1515h-235v-1515h-181v911c-134.667 0 -242.334 34.333 -323.001 103c-79.333 66.667 -119 154.667 -119 264c0 254 161 381 483 381h555v-1659z" />
    <glyph glyph-name="periodcentered" unicode="&#xb7;" horiz-adv-x="569" 
d="M406 623c0 -33.333 -11.665 -62.166 -34.998 -86.499s-51.333 -36.5 -84 -36.5s-61.334 12.167 -86.001 36.5s-37 53.166 -37 86.499c0 32 12.167 59.667 36.5 83s53.166 35 86.499 35c32.667 0 60.667 -11.5 84 -34.5s35 -50.833 35 -83.5z" />
    <glyph glyph-name="cedilla" unicode="&#xb8;" horiz-adv-x="569" 
d="M647 -266c0 -63.333 -29.668 -112 -89.001 -146c-49.333 -28.667 -109 -43 -179 -43c-63.333 0 -120.666 14.333 -171.999 43l37 70c50 -20.667 94.333 -31 133 -31c76.667 0 115 31.333 115 94c0 53.333 -31.667 80 -95 80c-26 0 -54 -5.33301 -84 -16l-34 39l131 176
h96l-94 -123l4 -4c18 6.66699 38.333 10 61 10c48 0 88 -13 120 -39c33.333 -28 50 -64.667 50 -110z" />
    <glyph glyph-name="uni00B9" unicode="&#xb9;" horiz-adv-x="739" 
d="M496 578h-181v708l-143 -112l-70 94l228 174h166v-864z" />
    <glyph glyph-name="ordmasculine" unicode="&#xba;" horiz-adv-x="813" 
d="M758 1124c0 -92 -32 -169.333 -96 -232c-66.667 -64.667 -152 -97 -256 -97s-189.333 32.333 -256 97c-64.667 62.667 -97 140 -97 232c0 97.333 32.333 176.666 97 237.999s150 92 256 92s191.167 -30.667 255.5 -92s96.5 -140.666 96.5 -237.999zM590 1124
c0 62 -14.665 111.667 -43.998 149c-32.667 41.333 -79.334 62 -140.001 62s-107.334 -20.667 -140.001 -62c-30 -38 -45 -87.667 -45 -149c0 -140.667 61.667 -211 185 -211c122.667 0 184 70.333 184 211z" />
    <glyph glyph-name="guillemotright" unicode="&#xbb;" 
d="M1034 551l-293 -414h-180l266 414l-266 414h180zM621 551l-293 -414h-181l267 414l-267 414h181z" />
    <glyph glyph-name="onequarter" unicode="&#xbc;" horiz-adv-x="1708" 
d="M1640 170h-106v-170h-180v170h-434v125l376 569h238v-551h106v-143zM1327 1475l-887 -1520h-147l887 1520h147zM461 578h-180v708l-144 -112l-69 94l227 174h166v-864zM1354 313v408h-4l-263 -408h267z" />
    <glyph glyph-name="onehalf" unicode="&#xbd;" horiz-adv-x="1708" 
d="M1640 0h-611.998v156c146 121.333 226 188.333 240 201c118.667 112 178 200 178 264c0 36.667 -19 65.667 -57 87c-30.667 16.667 -66.334 25 -107.001 25c-76 0 -147 -19.667 -213 -59l-12 151c80 34.667 165.333 52 256 52c88 0 160 -19 216 -57
c64.667 -43.333 97 -107 97 -191c0 -74.667 -53.333 -169.667 -160 -285c-90.667 -98 -168.334 -163.667 -233.001 -197v-4h407v-143zM1264 1475l-887 -1520h-148l887 1520h148zM461.002 578h-180v708l-144 -112l-69 94l227 174h166v-864z" />
    <glyph glyph-name="threequarters" unicode="&#xbe;" horiz-adv-x="1708" 
d="M1640 170h-106v-170h-180v170h-434v125l376 569h238v-551h106v-143zM1415 1475l-887 -1520h-147l887 1520h147zM676 809c0 -162.667 -126.329 -244 -378.996 -244c-75.333 0 -152.333 11 -231 33l20 156c30 -30 94.333 -45 193 -45c49.333 0 93.666 6.66699 132.999 20
c56 18.667 84 48 84 88c0 43.333 -23.333 78 -70 104c-39.333 22 -84.333 33 -135 33h-101v144h95c46 0 89 9 129 27c48.667 22.667 73 52.334 73 89.001c0 35.333 -23 61.666 -69 78.999c-32.667 12 -70.334 18 -113.001 18c-62 0 -128.333 -15 -199 -45l-8 147
c74.667 27.333 158.667 41 252 41c89.333 0 162.666 -18 219.999 -54c65.333 -41.333 98 -100.333 98 -177c0 -53.333 -21.667 -98 -65 -134c-36.667 -30 -83.334 -50.333 -140.001 -61v-4c142 -19.333 213 -91 213 -215zM1354 313v408h-4l-263 -408h267z" />
    <glyph glyph-name="questiondown" unicode="&#xbf;" horiz-adv-x="1024" 
d="M625 815h-230v229h230v-229zM872 -342c-104 -45.333 -217.333 -68 -340 -68c-119.333 0 -220.666 31.667 -303.999 95c-92 70 -138 162.667 -138 278c0 89.333 34.333 179.666 103 270.999l184 232c24.667 40 37 86.667 37 140v37h192v-43c0 -64 -9 -117 -27 -159
c-16.667 -39.333 -50 -88 -100 -146c-60.667 -71.333 -98.334 -118.333 -113.001 -141c-39.333 -60 -59 -119 -59 -177c0 -67.333 25.333 -119.666 76 -156.999c44.667 -32.667 102 -49 172 -49c126.667 0 227.667 27.333 303 82z" />
    <glyph glyph-name="Agrave" unicode="&#xc0;" horiz-adv-x="1479" 
d="M1455 0h-224l-146 360h-699l-145 -360h-216l610 1430h216zM1020 528l-285 709l-283 -709h568zM875 1554h-137l-269 295h224z" />
    <glyph glyph-name="Aacute" unicode="&#xc1;" horiz-adv-x="1479" 
d="M1455 0h-224l-146 360h-699l-145 -360h-216l610 1430h216zM1020 528l-285 709l-283 -709h568zM1030 1849l-268 -295h-137l182 295h223z" />
    <glyph glyph-name="Acircumflex" unicode="&#xc2;" horiz-adv-x="1479" 
d="M1455 0h-224l-146 360h-699l-145 -360h-216l610 1430h216zM1020 528l-285 709l-283 -709h568zM1037 1554h-164l-135 201l-133 -201h-162l202 295h187z" />
    <glyph glyph-name="Atilde" unicode="&#xc3;" horiz-adv-x="1479" 
d="M1455 0h-224l-146 360h-699l-145 -360h-216l610 1430h216zM1020 528l-285 709l-283 -709h568zM1123 1794c-21.333 -153.333 -85.668 -230.001 -193.001 -230.001c-36.667 0 -91.5 15.833 -164.5 47.5s-123.167 47.167 -150.5 46.5c-54 4 -85.333 -27.333 -94 -94v0h-94
c21.333 153.333 85.333 230 192 230c36.667 0 91.5 -16 164.5 -48s123.167 -47.667 150.5 -47c54.667 -3.33301 86.334 28.334 95.001 95.001h94z" />
    <glyph glyph-name="Adieresis" unicode="&#xc4;" horiz-adv-x="1479" 
d="M1455 0h-224l-146 360h-699l-145 -360h-216l610 1430h216zM1020 528l-285 709l-283 -709h568zM1024 1568h-193v205h193v-205zM688 1568h-193v205h193v-205z" />
    <glyph glyph-name="Aring" unicode="&#xc5;" horiz-adv-x="1479" 
d="M1455 0h-224l-146 360h-699l-145 -360h-216l610 1430h216zM1020 528l-285 709l-283 -709h568zM969 1726c0 -56.667 -20.833 -105.667 -62.5 -147s-90.5 -62 -146.5 -62c-56.667 0 -105.667 20.5 -147 61.5s-62 90.167 -62 147.5s20.5 106.5 61.5 147.5
s90.167 61.5 147.5 61.5c56 0 104.833 -20.833 146.5 -62.5s62.5 -90.5 62.5 -146.5zM887 1726c0 34 -12.833 63.667 -38.5 89s-55.167 38 -88.5 38c-34 0 -63.667 -12.667 -89 -38s-38 -55 -38 -89s12.667 -63.667 38 -89s55 -38 89 -38c32.667 0 62 13 88 39
s39 55.333 39 88z" />
    <glyph glyph-name="AE" unicode="&#xc6;" horiz-adv-x="1933" 
d="M1788 0h-711l-22 360h-609l-215 -360h-227l864 1430h899v-181h-567l27 -418h504v-180h-494l29 -471h522v-180zM1044 528l-45 758h-4l-450 -758h499z" />
    <glyph glyph-name="Ccedilla" unicode="&#xc7;" horiz-adv-x="1251" 
d="M1188 27c-82.667 -34.667 -191.331 -52 -325.998 -52c-20.667 0 -36.334 1.66699 -47.001 5l-78 -103l4 -4c18.667 6.66699 39.334 10 62.001 10c48 0 87.667 -13 119 -39c34 -28 51 -64.667 51 -110c0 -63.333 -29.667 -112 -89 -146c-49.333 -28.667 -109 -43 -179 -43
c-64 0 -121.667 14.333 -173 43l37 70c50 -20.667 94.333 -31 133 -31c76.667 0 115 31.333 115 94c0 53.333 -31.333 80 -94 80c-26 0 -54 -5.33301 -84 -16l-35 39l119 162c-188.667 27.333 -338.167 106.333 -448.5 237s-165.5 296.667 -165.5 498
c0 218 71.333 395.333 214 532c140.667 134 321 201 541 201c121.333 0 228.666 -20.333 321.999 -61l-17 -199c-90 53.333 -188.333 80 -295 80c-162.667 0 -295.334 -53 -398.001 -159c-100 -104.667 -150 -238 -150 -400c0 -164.667 52.667 -300 158 -406
c102 -102 228.667 -153 380 -153c130 0 234 23 312 69z" />
    <glyph glyph-name="Egrave" unicode="&#xc8;" 
d="M993 0h-800v1430h800v-181h-596v-418h543v-180h-543v-471h596v-180zM695 1554h-137l-269 295h224z" />
    <glyph glyph-name="Eacute" unicode="&#xc9;" 
d="M993 0h-800v1430h800v-181h-596v-418h543v-180h-543v-471h596v-180zM930 1849l-268 -295h-137l182 295h223z" />
    <glyph glyph-name="Ecircumflex" unicode="&#xca;" 
d="M993 0h-800v1430h800v-181h-596v-418h543v-180h-543v-471h596v-180zM882 1554h-164l-135 201l-133 -201h-162l202 295h187z" />
    <glyph glyph-name="Edieresis" unicode="&#xcb;" 
d="M993 0h-800v1430h800v-181h-596v-418h543v-180h-543v-471h596v-180zM849 1568h-193v205h193v-205zM513 1568h-193v205h193v-205z" />
    <glyph glyph-name="Igrave" unicode="&#xcc;" horiz-adv-x="569" 
d="M387 0h-205v1430h205v-1430zM375 1554h-137l-269 295h224z" />
    <glyph glyph-name="Iacute" unicode="&#xcd;" horiz-adv-x="569" 
d="M387 0h-205v1430h205v-1430zM575 1849l-268 -295h-137l182 295h223z" />
    <glyph glyph-name="Icircumflex" unicode="&#xce;" horiz-adv-x="569" 
d="M387 0h-205v1430h205v-1430zM582 1554h-164l-135 201l-133 -201h-162l202 295h187z" />
    <glyph glyph-name="Idieresis" unicode="&#xcf;" horiz-adv-x="569" 
d="M387 0h-205v1430h205v-1430zM549 1568h-193v205h193v-205zM213 1568h-193v205h193v-205z" />
    <glyph glyph-name="Eth" unicode="&#xd0;" horiz-adv-x="1479" 
d="M1354 727c0 -236 -68.333 -417 -205 -543c-132 -122.667 -317.667 -184 -557 -184h-422v700h-139v131h139v599h422c218.667 0 398.667 -62.333 540 -187c148 -129.333 222 -301.333 222 -516zM1137 719c0 154.667 -48.667 281.667 -146 381s-224.333 149 -381 149h-235
v-418h375v-131h-375v-520h215c364.667 0 547 179.667 547 539z" />
    <glyph glyph-name="Ntilde" unicode="&#xd1;" horiz-adv-x="1479" 
d="M1298 0h-262l-647 1176h-4v-1176h-205v1430h279l631 -1151h4v1151h204v-1430zM1143 1794c-21.333 -153.333 -85.668 -230.001 -193.001 -230.001c-36.667 0 -91.5 15.833 -164.5 47.5s-123.167 47.167 -150.5 46.5c-54 4 -85.333 -27.333 -94 -94v0h-94
c21.333 153.333 85.333 230 192 230c36.667 0 91.5 -16 164.5 -48s123.167 -47.667 150.5 -47c54.667 -3.33301 86.334 28.334 95.001 95.001h94z" />
    <glyph glyph-name="Ograve" unicode="&#xd2;" horiz-adv-x="1593" 
d="M1485 715c0 -221.333 -60.333 -399 -181 -533c-124 -138 -293 -207 -507 -207c-214.667 0 -384 69 -508 207c-120 134 -180 311.667 -180 533c0 216.667 60.333 392.667 181 528c125.333 140.667 294.333 211 507 211c212 0 381 -70.333 507 -211
c120.667 -135.333 181 -311.333 181 -528zM1268 715c0 156 -39.334 285.333 -118.001 388c-86 114 -203.667 171 -353 171c-150 0 -268 -57 -354 -171c-78 -102.667 -117 -232 -117 -388s37.333 -285 112 -387c84 -114.667 203.667 -172 359 -172
c154.667 0 274.334 57.333 359.001 172c74.667 102 112 231 112 387zM919.999 1554h-137l-269 295h224z" />
    <glyph glyph-name="Oacute" unicode="&#xd3;" horiz-adv-x="1593" 
d="M1485 715c0 -221.333 -60.333 -399 -181 -533c-124 -138 -293 -207 -507 -207c-214.667 0 -384 69 -508 207c-120 134 -180 311.667 -180 533c0 216.667 60.333 392.667 181 528c125.333 140.667 294.333 211 507 211c212 0 381 -70.333 507 -211
c120.667 -135.333 181 -311.333 181 -528zM1268 715c0 156 -39.334 285.333 -118.001 388c-86 114 -203.667 171 -353 171c-150 0 -268 -57 -354 -171c-78 -102.667 -117 -232 -117 -388s37.333 -285 112 -387c84 -114.667 203.667 -172 359 -172
c154.667 0 274.334 57.333 359.001 172c74.667 102 112 231 112 387zM1110 1849l-268 -295h-137l182 295h223z" />
    <glyph glyph-name="Ocircumflex" unicode="&#xd4;" horiz-adv-x="1593" 
d="M1485 715c0 -221.333 -60.333 -399 -181 -533c-124 -138 -293 -207 -507 -207c-214.667 0 -384 69 -508 207c-120 134 -180 311.667 -180 533c0 216.667 60.333 392.667 181 528c125.333 140.667 294.333 211 507 211c212 0 381 -70.333 507 -211
c120.667 -135.333 181 -311.333 181 -528zM1268 715c0 156 -39.334 285.333 -118.001 388c-86 114 -203.667 171 -353 171c-150 0 -268 -57 -354 -171c-78 -102.667 -117 -232 -117 -388s37.333 -285 112 -387c84 -114.667 203.667 -172 359 -172
c154.667 0 274.334 57.333 359.001 172c74.667 102 112 231 112 387zM1082 1554h-164l-135 201l-133 -201h-162l202 295h187z" />
    <glyph glyph-name="Otilde" unicode="&#xd5;" horiz-adv-x="1593" 
d="M1485 715c0 -221.333 -60.333 -399 -181 -533c-124 -138 -293 -207 -507 -207c-214.667 0 -384 69 -508 207c-120 134 -180 311.667 -180 533c0 216.667 60.333 392.667 181 528c125.333 140.667 294.333 211 507 211c212 0 381 -70.333 507 -211
c120.667 -135.333 181 -311.333 181 -528zM1268 715c0 156 -39.334 285.333 -118.001 388c-86 114 -203.667 171 -353 171c-150 0 -268 -57 -354 -171c-78 -102.667 -117 -232 -117 -388s37.333 -285 112 -387c84 -114.667 203.667 -172 359 -172
c154.667 0 274.334 57.333 359.001 172c74.667 102 112 231 112 387zM1178 1794c-21.333 -153.333 -85.668 -230.001 -193.001 -230.001c-36.667 0 -91.5 15.833 -164.5 47.5s-123.167 47.167 -150.5 46.5c-54 4 -85.333 -27.333 -94 -94v0h-94
c21.333 153.333 85.333 230 192 230c36.667 0 91.5 -16 164.5 -48s123.167 -47.667 150.5 -47c54.667 -3.33301 86.334 28.334 95.001 95.001h94z" />
    <glyph glyph-name="Odieresis" unicode="&#xd6;" horiz-adv-x="1593" 
d="M1485 715c0 -221.333 -60.333 -399 -181 -533c-124 -138 -293 -207 -507 -207c-214.667 0 -384 69 -508 207c-120 134 -180 311.667 -180 533c0 216.667 60.333 392.667 181 528c125.333 140.667 294.333 211 507 211c212 0 381 -70.333 507 -211
c120.667 -135.333 181 -311.333 181 -528zM1268 715c0 156 -39.334 285.333 -118.001 388c-86 114 -203.667 171 -353 171c-150 0 -268 -57 -354 -171c-78 -102.667 -117 -232 -117 -388s37.333 -285 112 -387c84 -114.667 203.667 -172 359 -172
c154.667 0 274.334 57.333 359.001 172c74.667 102 112 231 112 387zM1094 1568h-193v205h193v-205zM757.999 1568h-193v205h193v-205z" />
    <glyph glyph-name="multiply" unicode="&#xd7;" horiz-adv-x="1229" 
d="M1090 170l-127 -127l-349 350l-348 -350l-127 127l348 348l-348 348l127 127l348 -350l349 350l127 -127l-351 -348z" />
    <glyph glyph-name="Oslash" unicode="&#xd8;" horiz-adv-x="1593" 
d="M1485 715c0 -221.333 -60.333 -398.999 -181 -532.999c-124 -138 -293 -207 -507 -207c-164.667 0 -303.334 41.667 -416.001 125l-111 -143l-77 53l116 152c-133.333 133.333 -200 317.666 -200 552.999c0 216.667 60.333 392.667 181 528
c125.333 140.667 294.333 211 507 211c158.667 0 296.334 -42.333 413.001 -127l109 141l74 -57l-111 -145c135.333 -137.333 203 -321 203 -551zM1268 715.001c0 153.333 -38.335 281.667 -115.002 385l-649 -842c76.667 -68 174.334 -102 293.001 -102
c154.667 0 274.334 57.333 359.001 172c74.667 102 112 231 112 387zM1090 1171c-79.333 68.667 -177 103 -293 103c-150 0 -268 -57 -354 -171c-78 -102.667 -117 -232 -117 -388c0 -157.333 37.333 -286.333 112 -387z" />
    <glyph glyph-name="Ugrave" unicode="&#xd9;" horiz-adv-x="1479" 
d="M1294 592c0 -199.333 -48.1689 -352 -144.502 -458s-233.166 -159 -410.499 -159s-313.666 52.667 -408.999 158c-97.333 106.667 -146 259.667 -146 459v838h205v-812c0 -308 116.667 -462 350 -462c234 0 351 154 351 462v812h204v-838zM874.998 1554h-137l-269 295
h224z" />
    <glyph glyph-name="Uacute" unicode="&#xda;" horiz-adv-x="1479" 
d="M1294 592c0 -199.333 -48.1689 -352 -144.502 -458s-233.166 -159 -410.499 -159s-313.666 52.667 -408.999 158c-97.333 106.667 -146 259.667 -146 459v838h205v-812c0 -308 116.667 -462 350 -462c234 0 351 154 351 462v812h204v-838zM1020 1849l-268 -295h-137
l182 295h223z" />
    <glyph glyph-name="Ucircumflex" unicode="&#xdb;" horiz-adv-x="1479" 
d="M1294 592c0 -199.333 -48.1689 -352 -144.502 -458s-233.166 -159 -410.499 -159s-313.666 52.667 -408.999 158c-97.333 106.667 -146 259.667 -146 459v838h205v-812c0 -308 116.667 -462 350 -462c234 0 351 154 351 462v812h204v-838zM1037 1554h-164l-135 201
l-133 -201h-162l202 295h187z" />
    <glyph glyph-name="Udieresis" unicode="&#xdc;" horiz-adv-x="1479" 
d="M1294 592c0 -199.333 -48.1689 -352 -144.502 -458s-233.166 -159 -410.499 -159s-313.666 52.667 -408.999 158c-97.333 106.667 -146 259.667 -146 459v838h205v-812c0 -308 116.667 -462 350 -462c234 0 351 154 351 462v812h204v-838zM1004 1568h-193v205h193v-205z
M667.998 1568h-193v205h193v-205z" />
    <glyph glyph-name="Yacute" unicode="&#xdd;" horiz-adv-x="1366" 
d="M1343 1430l-557 -832v-598h-204v598l-559 832h239l426 -642l416 642h239zM1010 1849l-268 -295h-137l182 295h223z" />
    <glyph glyph-name="Thorn" unicode="&#xde;" 
d="M1081 793c0 -148 -51.999 -259.667 -155.999 -335c-88.667 -64 -205.334 -96 -350.001 -96h-200v-362h-205v1430h205v-209h170c357.333 0 536 -142.667 536 -428zM864.001 795c0 81.333 -36.6689 144.667 -110.002 190c-59.333 36.667 -127.666 55 -204.999 55h-174v-497
h203c74.667 0 138.334 18.333 191.001 55c63.333 45.333 95 111 95 197z" />
    <glyph glyph-name="germandbls" unicode="&#xdf;" horiz-adv-x="1251" 
d="M1147 444c0 -130.667 -39.333 -238.001 -118 -322.001c-83.333 -89.333 -195 -134 -335 -134c-67.333 0 -133.333 9.33301 -198 28v162c52.667 -23.333 106.334 -35 161.001 -35c82 0 149 25 201 75c56 54 84 126.667 84 218c0 111.333 -36 190.333 -108 237
c-60 38.667 -152.333 58 -277 58v156c104 0 181.333 18.333 232 55c58.667 42 88 112.333 88 211c0 69.333 -20 127.666 -60 174.999c-42.667 51.333 -99.334 77 -170.001 77c-104.667 0 -182 -44.333 -232 -133c-39.333 -69.333 -59 -159.666 -59 -270.999v-1001h-192v971
c0 193.333 37.333 338 112 434c82 104 212 156 390 156c108 0 201.667 -33.667 281 -101c89.333 -74.667 134 -175 134 -301c0 -173.333 -79.667 -284.666 -239 -333.999v-4c93.333 -10.667 168.333 -54 225 -130c53.333 -70.667 80 -153 80 -247z" />
    <glyph glyph-name="agrave" unicode="&#xe0;" 
d="M985 0h-180v135h-4c-76 -106.667 -184 -160 -324 -160c-118 0 -210 26 -276 78c-71.333 56 -107 138.667 -107 248c0 118.667 56 208.667 168 270c89.333 49.333 195.333 74 318 74c86 0 154 -1.33301 204 -4c0 93.333 -18.667 161.333 -56 204
c-40.667 45.333 -108 68 -202 68c-117.333 0 -218.333 -35.333 -303 -106l-10 164c110 65.333 224.667 98 344 98c146.667 0 254 -36.333 322 -109c65.333 -70 98 -177.667 98 -323v-432c0 -96 2.66699 -164.333 8 -205zM784 406l-0.00195312 92.001
c-13.333 0 -33.666 0.666992 -60.999 2s-47.666 2 -60.999 2c-242 0 -363 -67 -363 -201c0 -51.333 21.333 -93.333 64 -126c38 -29.333 81.667 -44 131 -44c92 0 164 26.333 216 79c49.333 49.333 74 114.666 74 195.999zM769.998 1190h-137l-269 295h224z" />
    <glyph glyph-name="aacute" unicode="&#xe1;" 
d="M985 0h-180v135h-4c-76 -106.667 -184 -160 -324 -160c-118 0 -210 26 -276 78c-71.333 56 -107 138.667 -107 248c0 118.667 56 208.667 168 270c89.333 49.333 195.333 74 318 74c86 0 154 -1.33301 204 -4c0 93.333 -18.667 161.333 -56 204
c-40.667 45.333 -108 68 -202 68c-117.333 0 -218.333 -35.333 -303 -106l-10 164c110 65.333 224.667 98 344 98c146.667 0 254 -36.333 322 -109c65.333 -70 98 -177.667 98 -323v-432c0 -96 2.66699 -164.333 8 -205zM784 406l-0.00195312 92.001
c-13.333 0 -33.666 0.666992 -60.999 2s-47.666 2 -60.999 2c-242 0 -363 -67 -363 -201c0 -51.333 21.333 -93.333 64 -126c38 -29.333 81.667 -44 131 -44c92 0 164 26.333 216 79c49.333 49.333 74 114.666 74 195.999zM854.998 1485l-268 -295h-137l182 295h223z" />
    <glyph glyph-name="acircumflex" unicode="&#xe2;" 
d="M985 0h-180v135h-4c-76 -106.667 -184 -160 -324 -160c-118 0 -210 26 -276 78c-71.333 56 -107 138.667 -107 248c0 118.667 56 208.667 168 270c89.333 49.333 195.333 74 318 74c86 0 154 -1.33301 204 -4c0 93.333 -18.667 161.333 -56 204
c-40.667 45.333 -108 68 -202 68c-117.333 0 -218.333 -35.333 -303 -106l-10 164c110 65.333 224.667 98 344 98c146.667 0 254 -36.333 322 -109c65.333 -70 98 -177.667 98 -323v-432c0 -96 2.66699 -164.333 8 -205zM784 406l-0.00195312 92.001
c-13.333 0 -33.666 0.666992 -60.999 2s-47.666 2 -60.999 2c-242 0 -363 -67 -363 -201c0 -51.333 21.333 -93.333 64 -126c38 -29.333 81.667 -44 131 -44c92 0 164 26.333 216 79c49.333 49.333 74 114.666 74 195.999zM871.998 1190h-164l-135 201l-133 -201h-162
l202 295h187z" />
    <glyph glyph-name="atilde" unicode="&#xe3;" 
d="M985 0h-180v135h-4c-76 -106.667 -184 -160 -324 -160c-118 0 -210 26 -276 78c-71.333 56 -107 138.667 -107 248c0 118.667 56 208.667 168 270c89.333 49.333 195.333 74 318 74c86 0 154 -1.33301 204 -4c0 93.333 -18.667 161.333 -56 204
c-40.667 45.333 -108 68 -202 68c-117.333 0 -218.333 -35.333 -303 -106l-10 164c110 65.333 224.667 98 344 98c146.667 0 254 -36.333 322 -109c65.333 -70 98 -177.667 98 -323v-432c0 -96 2.66699 -164.333 8 -205zM784 406l-0.00195312 92.001
c-13.333 0 -33.666 0.666992 -60.999 2s-47.666 2 -60.999 2c-242 0 -363 -67 -363 -201c0 -51.333 21.333 -93.333 64 -126c38 -29.333 81.667 -44 131 -44c92 0 164 26.333 216 79c49.333 49.333 74 114.666 74 195.999zM932.998 1430
c-21.333 -153.333 -85.668 -230.001 -193.001 -230.001c-36.667 0 -91.5 15.833 -164.5 47.5s-123.167 47.167 -150.5 46.5c-54 4 -85.333 -27.333 -94 -94v0h-94c21.333 153.333 85.333 230 192 230c36.667 0 91.5 -16 164.5 -48s123.167 -47.667 150.5 -47
c54.667 -3.33301 86.334 28.334 95.001 95.001h94z" />
    <glyph glyph-name="adieresis" unicode="&#xe4;" 
d="M985 0h-180v135h-4c-76 -106.667 -184 -160 -324 -160c-118 0 -210 26 -276 78c-71.333 56 -107 138.667 -107 248c0 118.667 56 208.667 168 270c89.333 49.333 195.333 74 318 74c86 0 154 -1.33301 204 -4c0 93.333 -18.667 161.333 -56 204
c-40.667 45.333 -108 68 -202 68c-117.333 0 -218.333 -35.333 -303 -106l-10 164c110 65.333 224.667 98 344 98c146.667 0 254 -36.333 322 -109c65.333 -70 98 -177.667 98 -323v-432c0 -96 2.66699 -164.333 8 -205zM784 406l-0.00195312 92.001
c-13.333 0 -33.666 0.666992 -60.999 2s-47.666 2 -60.999 2c-242 0 -363 -67 -363 -201c0 -51.333 21.333 -93.333 64 -126c38 -29.333 81.667 -44 131 -44c92 0 164 26.333 216 79c49.333 49.333 74 114.666 74 195.999zM848.998 1204h-193v205h193v-205zM512.998 1204
h-193v205h193v-205z" />
    <glyph glyph-name="aring" unicode="&#xe5;" 
d="M985 0h-180v135h-4c-76 -106.667 -184 -160 -324 -160c-118 0 -210 26 -276 78c-71.333 56 -107 138.667 -107 248c0 118.667 56 208.667 168 270c89.333 49.333 195.333 74 318 74c86 0 154 -1.33301 204 -4c0 93.333 -18.667 161.333 -56 204
c-40.667 45.333 -108 68 -202 68c-117.333 0 -218.333 -35.333 -303 -106l-10 164c110 65.333 224.667 98 344 98c146.667 0 254 -36.333 322 -109c65.333 -70 98 -177.667 98 -323v-432c0 -96 2.66699 -164.333 8 -205zM784 406l-0.00195312 92.001
c-13.333 0 -33.666 0.666992 -60.999 2s-47.666 2 -60.999 2c-242 0 -363 -67 -363 -201c0 -51.333 21.333 -93.333 64 -126c38 -29.333 81.667 -44 131 -44c92 0 164 26.333 216 79c49.333 49.333 74 114.666 74 195.999zM793.998 1362
c0 -56.667 -20.833 -105.667 -62.5 -147s-90.5 -62 -146.5 -62c-56.667 0 -105.667 20.5 -147 61.5s-62 90.167 -62 147.5s20.5 106.5 61.5 147.5s90.167 61.5 147.5 61.5c56 0 104.833 -20.833 146.5 -62.5s62.5 -90.5 62.5 -146.5zM711.998 1362
c0 34 -12.833 63.667 -38.5 89s-55.167 38 -88.5 38c-34 0 -63.667 -12.667 -89 -38s-38 -55 -38 -89s12.667 -63.667 38 -89s55 -38 89 -38c32.667 0 62 13 88 39s39 55.333 39 88z" />
    <glyph glyph-name="ae" unicode="&#xe6;" horiz-adv-x="1821" 
d="M1737 479l-739.999 -0.000976562c0 -97.333 32.5 -179.666 97.5 -246.999s146.5 -101 244.5 -101c102.667 0 199 36.333 289 109v-195c-102 -46.667 -201.667 -70 -299 -70c-241.333 0 -391.333 81.333 -450 244h-5c-20 -78.667 -68.667 -140 -146 -184
c-70 -40 -150.333 -60 -241 -60c-104.667 0 -196 29 -274 87c-86 64 -129 146.333 -129 247c0 127.333 61.333 219.333 184 276c86 40 192.667 60 320 60c20 0 56.333 -2 109 -6c46 -4 82 -5.33301 108 -4c0 185.333 -98.333 278 -295 278
c-95.333 0 -192.333 -35.333 -291 -106l-10 162c105.333 66.667 220.666 100 345.999 100c174 0 294 -60.667 360 -182c68.667 121.333 189.667 182 363 182c164 0 284.667 -60 362 -180c64.667 -100 97 -236.667 97 -410zM1532 622.999
c0 73.333 -22.999 138.667 -68.999 196c-50 62.667 -112.333 94 -187 94c-82.667 0 -149.834 -27.833 -201.501 -83.5s-77.5 -124.5 -77.5 -206.5h535zM805.002 496c-5.33301 0 -28.5 1 -69.5 3s-79.167 3 -114.5 3c-221.333 0 -332 -66.333 -332 -199
c0 -54.667 21.333 -98 64 -130c38 -28 85 -42 141 -42c90 0 164.667 36.333 224 109c58 70.667 87 156 87 256z" />
    <glyph glyph-name="ccedilla" unicode="&#xe7;" horiz-adv-x="909" 
d="M852 18c-62 -28.667 -142.668 -43.001 -242.001 -43.001h-8l-76 -98l4 -4c18.667 6.66699 39.334 10 62.001 10c48 0 87.667 -13 119 -39c34 -28 51 -64.667 51 -110c0 -63.333 -29.667 -112 -89 -146c-49.333 -28.667 -109 -43 -179 -43c-64 0 -121.333 14.333 -172 43
l36 70c50 -20.667 94.667 -31 134 -31c76 0 114 31.333 114 94c0 53.333 -31.333 80 -94 80c-26 0 -54 -5.33301 -84 -16l-35 39l121 162c-129.333 21.333 -234.333 82.333 -315 183s-121 218.334 -121 353.001c0 160 49.167 291.167 147.5 393.5s226.5 153.5 384.5 153.5
c88.667 0 166.667 -13.667 234 -41l-17 -160c-72 30 -141.667 45 -209 45c-102 0 -184.667 -40.333 -248 -121c-58 -74 -87 -164 -87 -270c0 -104.667 27 -193 81 -265c62.667 -84 151.667 -126 267 -126c77.333 0 146.333 19.667 207 59z" />
    <glyph glyph-name="egrave" unicode="&#xe8;" 
d="M1044 479l-745 0.00292969c0 -100.667 34.667 -184.334 104 -251.001c66 -64.667 146 -97 240 -97c58 0 121.667 12.667 191 38c59.333 21.333 103 43.666 131 66.999v-193c-125.333 -45.333 -235.333 -68 -330 -68c-180 0 -316.333 52 -409 156
c-88 97.333 -132 234 -132 410c0 155.333 45 282.166 135 380.499s208.333 147.5 355 147.5c306.667 0 460 -196.667 460 -590zM840 623.003c0 82.667 -22.666 151 -67.999 205c-48 56.667 -112 85 -192 85c-86.667 0 -155.334 -31.333 -206.001 -94
c-41.333 -52 -66.333 -117.333 -75 -196h541zM720.001 1190h-137l-269 295h224z" />
    <glyph glyph-name="eacute" unicode="&#xe9;" 
d="M1044 479l-745 0.00292969c0 -100.667 34.667 -184.334 104 -251.001c66 -64.667 146 -97 240 -97c58 0 121.667 12.667 191 38c59.333 21.333 103 43.666 131 66.999v-193c-125.333 -45.333 -235.333 -68 -330 -68c-180 0 -316.333 52 -409 156
c-88 97.333 -132 234 -132 410c0 155.333 45 282.166 135 380.499s208.333 147.5 355 147.5c306.667 0 460 -196.667 460 -590zM840 623.003c0 82.667 -22.666 151 -67.999 205c-48 56.667 -112 85 -192 85c-86.667 0 -155.334 -31.333 -206.001 -94
c-41.333 -52 -66.333 -117.333 -75 -196h541zM885.001 1485l-268 -295h-137l182 295h223z" />
    <glyph glyph-name="ecircumflex" unicode="&#xea;" 
d="M1044 479l-745 0.00292969c0 -100.667 34.667 -184.334 104 -251.001c66 -64.667 146 -97 240 -97c58 0 121.667 12.667 191 38c59.333 21.333 103 43.666 131 66.999v-193c-125.333 -45.333 -235.333 -68 -330 -68c-180 0 -316.333 52 -409 156
c-88 97.333 -132 234 -132 410c0 155.333 45 282.166 135 380.499s208.333 147.5 355 147.5c306.667 0 460 -196.667 460 -590zM840 623.003c0 82.667 -22.666 151 -67.999 205c-48 56.667 -112 85 -192 85c-86.667 0 -155.334 -31.333 -206.001 -94
c-41.333 -52 -66.333 -117.333 -75 -196h541zM882.001 1190h-164l-135 201l-133 -201h-162l202 295h187z" />
    <glyph glyph-name="edieresis" unicode="&#xeb;" 
d="M1044 479l-745 0.00292969c0 -100.667 34.667 -184.334 104 -251.001c66 -64.667 146 -97 240 -97c58 0 121.667 12.667 191 38c59.333 21.333 103 43.666 131 66.999v-193c-125.333 -45.333 -235.333 -68 -330 -68c-180 0 -316.333 52 -409 156
c-88 97.333 -132 234 -132 410c0 155.333 45 282.166 135 380.499s208.333 147.5 355 147.5c306.667 0 460 -196.667 460 -590zM840 623.003c0 82.667 -22.666 151 -67.999 205c-48 56.667 -112 85 -192 85c-86.667 0 -155.334 -31.333 -206.001 -94
c-41.333 -52 -66.333 -117.333 -75 -196h541zM849.001 1204h-193v205h193v-205zM513.001 1204h-193v205h193v-205z" />
    <glyph glyph-name="igrave" unicode="&#xec;" horiz-adv-x="569" 
d="M381 0h-193v1044h193v-1044zM380 1190h-137l-269 295h224z" />
    <glyph glyph-name="iacute" unicode="&#xed;" horiz-adv-x="569" 
d="M381 0h-193v1044h193v-1044zM595 1485l-268 -295h-137l182 295h223z" />
    <glyph glyph-name="icircumflex" unicode="&#xee;" horiz-adv-x="569" 
d="M381 0h-193v1044h193v-1044zM582 1190h-164l-135 201l-133 -201h-162l202 295h187z" />
    <glyph glyph-name="idieresis" unicode="&#xef;" horiz-adv-x="569" 
d="M381 0h-193v1044h193v-1044zM549 1204h-193v205h193v-205zM213 1204h-193v205h193v-205z" />
    <glyph glyph-name="eth" unicode="&#xf0;" horiz-adv-x="1251" 
d="M1157 522c0 -152 -49.334 -280.335 -148.001 -385.002c-100.667 -108 -228 -162 -382 -162c-155.333 0 -283.666 54 -384.999 162c-98.667 104.667 -148 233 -148 385c0 160 49.167 291.167 147.5 393.5s226.833 153.5 385.5 153.5c64.667 0 122 -15 172 -45h4
c-64 86 -138.333 159.667 -223 221l-265 -141l-94 108l225 121c-74.667 46 -160 85.667 -256 119l148 109c102.667 -37.333 196 -82.666 280 -135.999l250 136l95 -109l-213 -115c122 -93.333 218.333 -205.666 289 -336.999c78.667 -146.667 118 -306 118 -478z
M951.999 521.998c0 105.333 -28.667 195.333 -86 270c-61.333 80.667 -141 121 -239 121c-99.333 0 -180 -40.333 -242 -121c-57.333 -74.667 -86 -164.667 -86 -270c0 -104 26.333 -192.333 79 -265c60 -84 143 -126 249 -126c104.667 0 187 42 247 126
c52 72.667 78 161 78 265z" />
    <glyph glyph-name="eth" unicode="&#x445;" horiz-adv-x="1251" 
d="M1157 522c0 -152 -49.334 -280.335 -148.001 -385.002c-100.667 -108 -228 -162 -382 -162c-155.333 0 -283.666 54 -384.999 162c-98.667 104.667 -148 233 -148 385c0 160 49.167 291.167 147.5 393.5s226.833 153.5 385.5 153.5c64.667 0 122 -15 172 -45h4
c-64 86 -138.333 159.667 -223 221l-265 -141l-94 108l225 121c-74.667 46 -160 85.667 -256 119l148 109c102.667 -37.333 196 -82.666 280 -135.999l250 136l95 -109l-213 -115c122 -93.333 218.333 -205.666 289 -336.999c78.667 -146.667 118 -306 118 -478z
M951.999 521.998c0 105.333 -28.667 195.333 -86 270c-61.333 80.667 -141 121 -239 121c-99.333 0 -180 -40.333 -242 -121c-57.333 -74.667 -86 -164.667 -86 -270c0 -104 26.333 -192.333 79 -265c60 -84 143 -126 249 -126c104.667 0 187 42 247 126
c52 72.667 78 161 78 265z" />
    <glyph glyph-name="ntilde" unicode="&#xf1;" horiz-adv-x="1251" 
d="M1087 0l-192.002 -0.000976562v541c0 126.667 -16 218.667 -48 276c-34 62 -91.667 94 -173 96c-105.333 3.33301 -185.666 -35.667 -240.999 -117c-51.333 -75.333 -77 -179.666 -77 -312.999v-483h-192v1044h186v-165h4c28.667 58 74.334 104.167 137.001 138.5
s131 51.5 205 51.5c260.667 0 391 -149.333 391 -448v-621zM1023 1430c-21.333 -153.333 -85.668 -230.001 -193.001 -230.001c-36.667 0 -91.5 15.833 -164.5 47.5s-123.167 47.167 -150.5 46.5c-54 4 -85.333 -27.333 -94 -94v0h-94c21.333 153.333 85.333 230 192 230
c36.667 0 91.5 -16 164.5 -48s123.167 -47.667 150.5 -47c54.667 -3.33301 86.334 28.334 95.001 95.001h94z" />
    <glyph glyph-name="ograve" unicode="&#xf2;" horiz-adv-x="1251" 
d="M1157 522c0 -152 -49.334 -280.333 -148.001 -385c-100.667 -108 -228 -162 -382 -162c-155.333 0 -283.666 54 -384.999 162c-98.667 104.667 -148 233 -148 385c0 160 49.167 291.167 147.5 393.5s226.833 153.5 385.5 153.5c157.333 0 285 -51.167 383 -153.5
s147 -233.5 147 -393.5zM951.999 522c0 105.333 -28.667 195.333 -86 270c-61.333 80.667 -141 121 -239 121c-99.333 0 -180 -40.333 -242 -121c-57.333 -74.667 -86 -164.667 -86 -270c0 -104 26.333 -192.333 79 -265c60 -84 143 -126 249 -126c104.667 0 187 42 247 126
c52 72.667 78 161 78 265zM779.999 1190h-137l-269 295h224z" />
    <glyph glyph-name="oacute" unicode="&#xf3;" horiz-adv-x="1251" 
d="M1157 522c0 -152 -49.334 -280.333 -148.001 -385c-100.667 -108 -228 -162 -382 -162c-155.333 0 -283.666 54 -384.999 162c-98.667 104.667 -148 233 -148 385c0 160 49.167 291.167 147.5 393.5s226.833 153.5 385.5 153.5c157.333 0 285 -51.167 383 -153.5
s147 -233.5 147 -393.5zM951.999 522c0 105.333 -28.667 195.333 -86 270c-61.333 80.667 -141 121 -239 121c-99.333 0 -180 -40.333 -242 -121c-57.333 -74.667 -86 -164.667 -86 -270c0 -104 26.333 -192.333 79 -265c60 -84 143 -126 249 -126c104.667 0 187 42 247 126
c52 72.667 78 161 78 265zM914.999 1485l-268 -295h-137l182 295h223z" />
    <glyph glyph-name="ocircumflex" unicode="&#xf4;" horiz-adv-x="1251" 
d="M1157 522c0 -152 -49.334 -280.333 -148.001 -385c-100.667 -108 -228 -162 -382 -162c-155.333 0 -283.666 54 -384.999 162c-98.667 104.667 -148 233 -148 385c0 160 49.167 291.167 147.5 393.5s226.833 153.5 385.5 153.5c157.333 0 285 -51.167 383 -153.5
s147 -233.5 147 -393.5zM951.999 522c0 105.333 -28.667 195.333 -86 270c-61.333 80.667 -141 121 -239 121c-99.333 0 -180 -40.333 -242 -121c-57.333 -74.667 -86 -164.667 -86 -270c0 -104 26.333 -192.333 79 -265c60 -84 143 -126 249 -126c104.667 0 187 42 247 126
c52 72.667 78 161 78 265zM921.999 1190h-164l-135 201l-133 -201h-162l202 295h187z" />
    <glyph glyph-name="otilde" unicode="&#xf5;" horiz-adv-x="1251" 
d="M1157 522c0 -152 -49.334 -280.333 -148.001 -385c-100.667 -108 -228 -162 -382 -162c-155.333 0 -283.666 54 -384.999 162c-98.667 104.667 -148 233 -148 385c0 160 49.167 291.167 147.5 393.5s226.833 153.5 385.5 153.5c157.333 0 285 -51.167 383 -153.5
s147 -233.5 147 -393.5zM951.999 522c0 105.333 -28.667 195.333 -86 270c-61.333 80.667 -141 121 -239 121c-99.333 0 -180 -40.333 -242 -121c-57.333 -74.667 -86 -164.667 -86 -270c0 -104 26.333 -192.333 79 -265c60 -84 143 -126 249 -126c104.667 0 187 42 247 126
c52 72.667 78 161 78 265zM992.999 1430c-21.333 -153.333 -85.668 -230.001 -193.001 -230.001c-36.667 0 -91.5 15.833 -164.5 47.5s-123.167 47.167 -150.5 46.5c-54 4 -85.333 -27.333 -94 -94v0h-94c21.333 153.333 85.333 230 192 230c36.667 0 91.5 -16 164.5 -48
s123.167 -47.667 150.5 -47c54.667 -3.33301 86.334 28.334 95.001 95.001h94z" />
    <glyph glyph-name="odieresis" unicode="&#xf6;" horiz-adv-x="1251" 
d="M1157 522c0 -152 -49.334 -280.333 -148.001 -385c-100.667 -108 -228 -162 -382 -162c-155.333 0 -283.666 54 -384.999 162c-98.667 104.667 -148 233 -148 385c0 160 49.167 291.167 147.5 393.5s226.833 153.5 385.5 153.5c157.333 0 285 -51.167 383 -153.5
s147 -233.5 147 -393.5zM951.999 522c0 105.333 -28.667 195.333 -86 270c-61.333 80.667 -141 121 -239 121c-99.333 0 -180 -40.333 -242 -121c-57.333 -74.667 -86 -164.667 -86 -270c0 -104 26.333 -192.333 79 -265c60 -84 143 -126 249 -126c104.667 0 187 42 247 126
c52 72.667 78 161 78 265zM898.999 1204h-193v205h193v-205zM562.999 1204h-193v205h193v-205z" />
    <glyph glyph-name="divide" unicode="&#xf7;" horiz-adv-x="1229" 
d="M772 942c0 -39.333 -15.667 -75.167 -47 -107.5s-67 -48.5 -107 -48.5c-43.333 0 -80.666 15.5 -111.999 46.5s-47 67.5 -47 109.5c0 43.333 15.5 80.5 46.5 111.5s67.833 46.5 110.5 46.5c41.333 0 77.666 -15.833 108.999 -47.5s47 -68.5 47 -110.5zM1133 427.999
h-1037v180h1037v-180zM772 93.999c0 -39.333 -15.667 -75.332 -47 -107.999s-67 -49 -107 -49c-43.333 0 -80.666 15.667 -111.999 47s-47 68 -47 110c0 43.333 15.5 80.166 46.5 110.499s67.833 45.5 110.5 45.5c41.333 0 77.666 -15.5 108.999 -46.5s47 -67.5 47 -109.5z
" />
    <glyph glyph-name="oslash" unicode="&#xf8;" horiz-adv-x="1251" 
d="M1157 522c0 -152 -49.333 -280.334 -148 -385.001c-100.667 -108 -228 -162 -382 -162c-121.333 0 -227.333 34.333 -318 103l-116 -141l-62 51l117 145c-102.667 104.667 -154 234.334 -154 389.001c0 160 49.167 291.167 147.5 393.5s226.833 153.5 385.5 153.5
c122.667 0 227 -31.333 313 -94l109 133l61 -51l-109 -133c104 -102 156 -236 156 -402zM825 835.999c-54 51.333 -120 77 -198 77c-99.333 0 -180 -40.333 -242 -121c-57.333 -74.667 -86 -164.667 -86 -270c0 -95.333 22.667 -177.333 68 -246zM952 521.999
c0 95.333 -24.333 179.333 -73 252l-461 -563c55.333 -53.333 125 -80 209 -80c104.667 0 187 42 247 126c52 72.667 78 161 78 265z" />
    <glyph glyph-name="ugrave" unicode="&#xf9;" horiz-adv-x="1251" 
d="M1087 0l-186 0.000976562v166h-4c-28 -58.667 -73.5 -105.167 -136.5 -139.5s-131.5 -51.5 -205.5 -51.5c-260.667 0 -391 149.667 -391 449v620h192v-540c0 -126.667 16 -218.667 48 -276c34 -62.667 92 -95 174 -97c105.333 -2.66699 185.333 36.666 240 117.999
c51.333 74.667 77 178.667 77 312v483h192v-1044zM760 1190h-137l-269 295h224z" />
    <glyph glyph-name="uacute" unicode="&#xfa;" horiz-adv-x="1251" 
d="M1087 0l-186 0.000976562v166h-4c-28 -58.667 -73.5 -105.167 -136.5 -139.5s-131.5 -51.5 -205.5 -51.5c-260.667 0 -391 149.667 -391 449v620h192v-540c0 -126.667 16 -218.667 48 -276c34 -62.667 92 -95 174 -97c105.333 -2.66699 185.333 36.666 240 117.999
c51.333 74.667 77 178.667 77 312v483h192v-1044zM915 1485l-268 -295h-137l182 295h223z" />
    <glyph glyph-name="ucircumflex" unicode="&#xfb;" horiz-adv-x="1251" 
d="M1087 0l-186 0.000976562v166h-4c-28 -58.667 -73.5 -105.167 -136.5 -139.5s-131.5 -51.5 -205.5 -51.5c-260.667 0 -391 149.667 -391 449v620h192v-540c0 -126.667 16 -218.667 48 -276c34 -62.667 92 -95 174 -97c105.333 -2.66699 185.333 36.666 240 117.999
c51.333 74.667 77 178.667 77 312v483h192v-1044zM912 1190h-164l-135 201l-133 -201h-162l202 295h187z" />
    <glyph glyph-name="udieresis" unicode="&#xfc;" horiz-adv-x="1251" 
d="M1087 0l-186 0.000976562v166h-4c-28 -58.667 -73.5 -105.167 -136.5 -139.5s-131.5 -51.5 -205.5 -51.5c-260.667 0 -391 149.667 -391 449v620h192v-540c0 -126.667 16 -218.667 48 -276c34 -62.667 92 -95 174 -97c105.333 -2.66699 185.333 36.666 240 117.999
c51.333 74.667 77 178.667 77 312v483h192v-1044zM879 1204h-193v205h193v-205zM543 1204h-193v205h193v-205z" />
    <glyph glyph-name="yacute" unicode="&#xfd;" horiz-adv-x="1024" 
d="M991 1044l-385.001 -1067c-51.333 -142.667 -95.333 -239.667 -132 -291c-68 -94 -157.667 -141 -269 -141c-33.333 0 -77 5 -131 15l12 157c32.667 -10.667 62.667 -16 90 -16c72.667 0 132.334 40.333 179.001 121c34 58 51 103.667 51 137c0 6 -12.333 43 -37 111
l-355 974h211l281 -864h4l287 864h194zM814.999 1485l-268 -295h-137l182 295h223z" />
    <glyph glyph-name="thorn" unicode="&#xfe;" horiz-adv-x="1251" 
d="M1157 541c0 -158 -35.334 -288 -106.001 -390c-80.667 -117.333 -194.667 -176 -342 -176c-163.333 0 -279.666 56 -348.999 168h-4v-573h-192v1966h192v-635h4c69.333 112 185 168 347 168c144 0 257 -53 339 -159c74 -96.667 111 -219.667 111 -369zM951.999 526
c0 106.667 -21.665 195.001 -64.998 265.001c-50.667 81.333 -124.334 122 -221.001 122c-98.667 0 -176.334 -41 -233.001 -123c-51.333 -73.333 -77 -163.333 -77 -270c0 -100 24.333 -186.667 73 -260c56.667 -86 135 -129 235 -129c94 0 168 45.333 222 136
c44 75.333 66 161.666 66 258.999z" />
    <glyph glyph-name="ydieresis" unicode="&#xff;" horiz-adv-x="1024" 
d="M991 1044l-385.001 -1067c-51.333 -142.667 -95.333 -239.667 -132 -291c-68 -94 -157.667 -141 -269 -141c-33.333 0 -77 5 -131 15l12 157c32.667 -10.667 62.667 -16 90 -16c72.667 0 132.334 40.333 179.001 121c34 58 51 103.667 51 137c0 6 -12.333 43 -37 111
l-355 974h211l281 -864h4l287 864h194zM798.999 1204h-193v205h193v-205zM462.999 1204h-193v205h193v-205z" />
    <glyph glyph-name="Amacron" unicode="&#x100;" horiz-adv-x="1479" 
d="M1455 0h-224l-146 360h-699l-145 -360h-216l610 1430h216zM1020 528l-285 709l-283 -709h568zM1038 1624h-606v118h606v-118z" />
    <glyph glyph-name="amacron" unicode="&#x101;" 
d="M985 0h-180v135h-4c-76 -106.667 -184 -160 -324 -160c-118 0 -210 26 -276 78c-71.333 56 -107 138.667 -107 248c0 118.667 56 208.667 168 270c89.333 49.333 195.333 74 318 74c86 0 154 -1.33301 204 -4c0 93.333 -18.667 161.333 -56 204
c-40.667 45.333 -108 68 -202 68c-117.333 0 -218.333 -35.333 -303 -106l-10 164c110 65.333 224.667 98 344 98c146.667 0 254 -36.333 322 -109c65.333 -70 98 -177.667 98 -323v-432c0 -96 2.66699 -164.333 8 -205zM784 406l-0.00195312 92.001
c-13.333 0 -33.666 0.666992 -60.999 2s-47.666 2 -60.999 2c-242 0 -363 -67 -363 -201c0 -51.333 21.333 -93.333 64 -126c38 -29.333 81.667 -44 131 -44c92 0 164 26.333 216 79c49.333 49.333 74 114.666 74 195.999zM877.998 1260h-606v118h606v-118z" />
    <glyph glyph-name="Abreve" unicode="&#x102;" horiz-adv-x="1479" 
d="M1455 0h-224l-146 360h-699l-145 -360h-216l610 1430h216zM1020 528l-285 709l-283 -709h568zM1050 1843c-9.33301 -88 -41.834 -156.5 -97.501 -205.5s-128.167 -73.5 -217.5 -73.5s-162 24.5 -218 73.5s-88.667 117.5 -98 205.5h101
c20.667 -106.667 92.334 -160 215.001 -160c122 0 193.667 53.333 215 160h100z" />
    <glyph glyph-name="abreve" unicode="&#x103;" 
d="M985 0h-180v135h-4c-76 -106.667 -184 -160 -324 -160c-118 0 -210 26 -276 78c-71.333 56 -107 138.667 -107 248c0 118.667 56 208.667 168 270c89.333 49.333 195.333 74 318 74c86 0 154 -1.33301 204 -4c0 93.333 -18.667 161.333 -56 204
c-40.667 45.333 -108 68 -202 68c-117.333 0 -218.333 -35.333 -303 -106l-10 164c110 65.333 224.667 98 344 98c146.667 0 254 -36.333 322 -109c65.333 -70 98 -177.667 98 -323v-432c0 -96 2.66699 -164.333 8 -205zM784 406l-0.00195312 92.001
c-13.333 0 -33.666 0.666992 -60.999 2s-47.666 2 -60.999 2c-242 0 -363 -67 -363 -201c0 -51.333 21.333 -93.333 64 -126c38 -29.333 81.667 -44 131 -44c92 0 164 26.333 216 79c49.333 49.333 74 114.666 74 195.999zM859.998 1479
c-9.33301 -88 -41.834 -156.5 -97.501 -205.5s-128.167 -73.5 -217.5 -73.5s-162 24.5 -218 73.5s-88.667 117.5 -98 205.5h101c20.667 -106.667 92.334 -160 215.001 -160c122 0 193.667 53.333 215 160h100z" />
    <glyph glyph-name="Aogonek" unicode="&#x104;" horiz-adv-x="1479" 
d="M1408 -294c-56.667 -83.333 -134.666 -125 -233.999 -125c-112 0 -168 56 -168 168c0 84 74.333 169.333 223 256l-144 355h-700l-145 -360h-215l610 1430h215l604 -1430h-130c-108 -88 -162 -169 -162 -243c0 -62.667 22.333 -94 67 -94
c45.333 0 83.666 19.667 114.999 59zM1020 528l-285 709l-284 -709h569z" />
    <glyph glyph-name="aogonek" unicode="&#x105;" 
d="M980 -290c-56.667 -83.333 -134.665 -125 -233.998 -125c-112 0 -168 56 -168 168c0 85.333 75.667 171.333 227 258v124h-4c-76 -106.667 -184 -160 -324 -160c-115.333 0 -206 25 -272 75c-74 55.333 -111 139 -111 251c0 118.667 56 208.667 168 270
c90 49.333 196 74 318 74c86 0 154 -1.33301 204 -4c0 94.667 -19 163 -57 205c-40.667 44.667 -107.667 67 -201 67c-117.333 0 -218.333 -35.333 -303 -106l-10 164c110 65.333 224.667 98 344 98c145.333 0 251.666 -35.5 318.999 -106.5s101 -179.5 101 -325.5v-432
c0 -96 2.66699 -164.333 8 -205h-94c-104.667 -86 -157 -165.667 -157 -239c0 -62.667 22.333 -94 67 -94c45.333 0 83.666 19.667 114.999 59zM784.002 406l-0.00195312 92c-13.333 0 -33.666 0.666992 -60.999 2s-47.666 2 -60.999 2c-242 0 -363 -67 -363 -201
c0 -50 20.333 -91.333 61 -124c38 -30.667 82.667 -46 134 -46c87.333 0 157.5 24.333 210.5 73s79.5 116 79.5 202z" />
    <glyph glyph-name="Cacute" unicode="&#x106;" horiz-adv-x="1251" 
d="M1188 27c-82.667 -34.667 -191.332 -52 -325.999 -52c-227.333 0 -409.666 67.667 -546.999 203s-206 316.333 -206 543c0 218 71.333 395.333 214 532c140.667 134 321 201 541 201c121.333 0 228.666 -20.333 321.999 -61l-17 -199c-90 53.333 -188.333 80 -295 80
c-162.667 0 -295.334 -53 -398.001 -159c-100 -104.667 -150 -238 -150 -400c0 -164.667 52.667 -300 158 -406c102 -102 228.667 -153 380 -153c130 0 234 23 312 69zM1080 1849l-268 -295h-137l182 295h223z" />
    <glyph glyph-name="cacute" unicode="&#x107;" horiz-adv-x="909" 
d="M852 18c-62 -28.667 -142.667 -43 -242 -43c-154.667 0 -282.667 54 -384 162c-98.667 104.667 -148 233 -148 385c0 160 49.167 291.167 147.5 393.5s226.5 153.5 384.5 153.5c88.667 0 166.667 -13.667 234 -41l-17 -160c-72 30 -141.667 45 -209 45
c-102 0 -184.667 -40.333 -248 -121c-58 -74 -87 -164 -87 -270c0 -104.667 27 -193 81 -265c62.667 -84 151.667 -126 267 -126c77.333 0 146.333 19.667 207 59zM835 1485l-268 -295h-137l182 295h223z" />
    <glyph glyph-name="Ccircumflex" unicode="&#x108;" horiz-adv-x="1251" 
d="M1188 27c-82.667 -34.667 -191.332 -52 -325.999 -52c-227.333 0 -409.666 67.667 -546.999 203s-206 316.333 -206 543c0 218 71.333 395.333 214 532c140.667 134 321 201 541 201c121.333 0 228.666 -20.333 321.999 -61l-17 -199c-90 53.333 -188.333 80 -295 80
c-162.667 0 -295.334 -53 -398.001 -159c-100 -104.667 -150 -238 -150 -400c0 -164.667 52.667 -300 158 -406c102 -102 228.667 -153 380 -153c130 0 234 23 312 69zM1082 1554h-164l-135 201l-133 -201h-162l202 295h187z" />
    <glyph glyph-name="ccircumflex" unicode="&#x109;" horiz-adv-x="909" 
d="M852 18c-62 -28.667 -142.667 -43 -242 -43c-154.667 0 -282.667 54 -384 162c-98.667 104.667 -148 233 -148 385c0 160 49.167 291.167 147.5 393.5s226.5 153.5 384.5 153.5c88.667 0 166.667 -13.667 234 -41l-17 -160c-72 30 -141.667 45 -209 45
c-102 0 -184.667 -40.333 -248 -121c-58 -74 -87 -164 -87 -270c0 -104.667 27 -193 81 -265c62.667 -84 151.667 -126 267 -126c77.333 0 146.333 19.667 207 59zM862 1190h-164l-135 201l-133 -201h-162l202 295h187z" />
    <glyph glyph-name="Cdotaccent" unicode="&#x10a;" horiz-adv-x="1251" 
d="M1188 27c-82.667 -34.667 -191.332 -52 -325.999 -52c-227.333 0 -409.666 67.667 -546.999 203s-206 316.333 -206 543c0 218 71.333 395.333 214 532c140.667 134 321 201 541 201c121.333 0 228.666 -20.333 321.999 -61l-17 -199c-90 53.333 -188.333 80 -295 80
c-162.667 0 -295.334 -53 -398.001 -159c-100 -104.667 -150 -238 -150 -400c0 -164.667 52.667 -300 158 -406c102 -102 228.667 -153 380 -153c130 0 234 23 312 69zM881.002 1568h-193v205h193v-205z" />
    <glyph glyph-name="cdotaccent" unicode="&#x10b;" horiz-adv-x="909" 
d="M852 18c-62 -28.667 -142.667 -43 -242 -43c-154.667 0 -282.667 54 -384 162c-98.667 104.667 -148 233 -148 385c0 160 49.167 291.167 147.5 393.5s226.5 153.5 384.5 153.5c88.667 0 166.667 -13.667 234 -41l-17 -160c-72 30 -141.667 45 -209 45
c-102 0 -184.667 -40.333 -248 -121c-58 -74 -87 -164 -87 -270c0 -104.667 27 -193 81 -265c62.667 -84 151.667 -126 267 -126c77.333 0 146.333 19.667 207 59zM681 1204h-193v205h193v-205z" />
    <glyph glyph-name="Ccaron" unicode="&#x10c;" horiz-adv-x="1251" 
d="M1188 27c-82.667 -34.667 -191.332 -52 -325.999 -52c-227.333 0 -409.666 67.667 -546.999 203s-206 316.333 -206 543c0 218 71.333 395.333 214 532c140.667 134 321 201 541 201c121.333 0 228.666 -20.333 321.999 -61l-17 -199c-90 53.333 -188.333 80 -295 80
c-162.667 0 -295.334 -53 -398.001 -159c-100 -104.667 -150 -238 -150 -400c0 -164.667 52.667 -300 158 -406c102 -102 228.667 -153 380 -153c130 0 234 23 312 69zM1082 1849l-203 -295h-186l-205 295h164l135 -201l133 201h162z" />
    <glyph glyph-name="ccaron" unicode="&#x10d;" horiz-adv-x="909" 
d="M852 18c-62 -28.667 -142.667 -43 -242 -43c-154.667 0 -282.667 54 -384 162c-98.667 104.667 -148 233 -148 385c0 160 49.167 291.167 147.5 393.5s226.5 153.5 384.5 153.5c88.667 0 166.667 -13.667 234 -41l-17 -160c-72 30 -141.667 45 -209 45
c-102 0 -184.667 -40.333 -248 -121c-58 -74 -87 -164 -87 -270c0 -104.667 27 -193 81 -265c62.667 -84 151.667 -126 267 -126c77.333 0 146.333 19.667 207 59zM842 1485l-203 -295h-186l-205 295h164l135 -201l133 201h162z" />
    <glyph glyph-name="Dcaron" unicode="&#x10e;" horiz-adv-x="1479" 
d="M1354 727c0 -236 -68.333 -417 -205 -543c-132 -122.667 -317.667 -184 -557 -184h-422v1430h422c218.667 0 398.667 -62.333 540 -187c148 -129.333 222 -301.333 222 -516zM1137 719c0 162.667 -50.333 292.667 -151 390c-96 93.333 -220 140 -372 140h-239v-1069h215
c364.667 0 547 179.667 547 539zM932 1849l-203 -295h-186l-205 295h164l135 -201l133 201h162z" />
    <glyph glyph-name="dcaron" unicode="&#x10f;" horiz-adv-x="1315" 
d="M903 0l0.000976562 147h-4c-75.333 -114.667 -194 -172 -356 -172c-148 0 -262.333 58.667 -343 176c-70.667 102.667 -106 232.667 -106 390c0 149.333 37.333 272.333 112 369c81.333 106 194.333 159 339 159c161.333 0 276.666 -56 345.999 -168h4v635h192v-1536
h-184zM295.001 526c0 -96.667 22.999 -183 68.999 -259c54.667 -90.667 129.334 -136 224.001 -136c100 0 178.333 43 235 129c48 73.333 72 160 72 260c0 106.667 -25.333 196.667 -76 270c-57.333 82 -135 123 -233 123c-97.333 0 -172 -40.667 -224 -122
c-44.667 -70 -67 -158.333 -67 -265zM1194 1348v188h199v-143c0 -152 -68.333 -228 -205 -228v76c68 0 104 35.667 108 107h-102z" />
    <glyph glyph-name="Dcroat" unicode="&#x110;" horiz-adv-x="1479" 
d="M1354 727c0 -236 -68.333 -417 -205 -543c-132 -122.667 -317.667 -184 -557 -184h-422v700h-139v131h139v599h422c218.667 0 398.667 -62.333 540 -187c148 -129.333 222 -301.333 222 -516zM1137 719c0 154.667 -48.667 281.667 -146 381s-224.333 149 -381 149h-235
v-418h375v-131h-375v-520h215c364.667 0 547 179.667 547 539z" />
    <glyph glyph-name="dcroat" unicode="&#x111;" horiz-adv-x="1321" 
d="M895 520c0 106 -24.332 195.333 -72.999 268c-56.667 83.333 -135.334 125 -236.001 125c-99.333 0 -174.333 -41.667 -225 -125c-41.333 -68.667 -62 -156 -62 -262c0 -96.667 22 -182.667 66 -258c52.667 -91.333 127 -137 223 -137c100 0 178.333 43 235 129
c48 72 72 158.667 72 260zM1087 1311h188.999v-119h-189v-1192h-184v147c-33.333 -45.333 -77 -83.333 -131 -114c-67.333 -38.667 -143.666 -58 -228.999 -58c-148 0 -262 59 -342 177c-71.333 103.333 -107 233 -107 389c0 150 36.667 273 110 369
c81.333 106 195 159 341 159c162 0 278.333 -56 349 -168l1 291h-250v119h250v225h192v-225z" />
    <glyph glyph-name="Emacron" unicode="&#x112;" 
d="M993 0h-800v1430h800v-181h-596v-418h543v-180h-543v-471h596v-180zM908 1624h-606v118h606v-118z" />
    <glyph glyph-name="emacron" unicode="&#x113;" 
d="M1044 479l-745 0.00292969c0 -100.667 34.667 -184.334 104 -251.001c66 -64.667 146 -97 240 -97c58 0 121.667 12.667 191 38c59.333 21.333 103 43.666 131 66.999v-193c-125.333 -45.333 -235.333 -68 -330 -68c-180 0 -316.333 52 -409 156
c-88 97.333 -132 234 -132 410c0 155.333 45 282.166 135 380.499s208.333 147.5 355 147.5c306.667 0 460 -196.667 460 -590zM840 623.003c0 82.667 -22.666 151 -67.999 205c-48 56.667 -112 85 -192 85c-86.667 0 -155.334 -31.333 -206.001 -94
c-41.333 -52 -66.333 -117.333 -75 -196h541zM898.001 1260h-606v118h606v-118z" />
    <glyph glyph-name="Ebreve" unicode="&#x114;" 
d="M993 0h-800v1430h800v-181h-596v-418h543v-180h-543v-471h596v-180zM920 1843c-9.33301 -88 -41.834 -156.5 -97.501 -205.5s-128.167 -73.5 -217.5 -73.5s-162 24.5 -218 73.5s-88.667 117.5 -98 205.5h101c20.667 -106.667 92.334 -160 215.001 -160
c122 0 193.667 53.333 215 160h100z" />
    <glyph glyph-name="ebreve" unicode="&#x115;" 
d="M1044 479l-745 0.00292969c0 -100.667 34.667 -184.334 104 -251.001c66 -64.667 146 -97 240 -97c58 0 121.667 12.667 191 38c59.333 21.333 103 43.666 131 66.999v-193c-125.333 -45.333 -235.333 -68 -330 -68c-180 0 -316.333 52 -409 156
c-88 97.333 -132 234 -132 410c0 155.333 45 282.166 135 380.499s208.333 147.5 355 147.5c306.667 0 460 -196.667 460 -590zM840 623.003c0 82.667 -22.666 151 -67.999 205c-48 56.667 -112 85 -192 85c-86.667 0 -155.334 -31.333 -206.001 -94
c-41.333 -52 -66.333 -117.333 -75 -196h541zM900.001 1479c-9.33301 -88 -41.834 -156.5 -97.501 -205.5s-128.167 -73.5 -217.5 -73.5s-162 24.5 -218 73.5s-88.667 117.5 -98 205.5h101c20.667 -106.667 92.334 -160 215.001 -160c122 0 193.667 53.333 215 160h100z" />
    <glyph glyph-name="Edotaccent" unicode="&#x116;" 
d="M993 0h-800v1430h800v-181h-596v-418h543v-180h-543v-471h596v-180zM681 1568h-193v205h193v-205z" />
    <glyph glyph-name="edotaccent" unicode="&#x117;" 
d="M1044 479l-745 0.00292969c0 -100.667 34.667 -184.334 104 -251.001c66 -64.667 146 -97 240 -97c58 0 121.667 12.667 191 38c59.333 21.333 103 43.666 131 66.999v-193c-125.333 -45.333 -235.333 -68 -330 -68c-180 0 -316.333 52 -409 156
c-88 97.333 -132 234 -132 410c0 155.333 45 282.166 135 380.499s208.333 147.5 355 147.5c306.667 0 460 -196.667 460 -590zM840 623.003c0 82.667 -22.666 151 -67.999 205c-48 56.667 -112 85 -192 85c-86.667 0 -155.334 -31.333 -206.001 -94
c-41.333 -52 -66.333 -117.333 -75 -196h541zM671.001 1204h-193v205h193v-205z" />
    <glyph glyph-name="Eogonek" unicode="&#x118;" 
d="M193 0v1430h800v-181h-596v-418h543v-180h-543v-471h596v-180h-116c-116.667 -90.667 -175 -174.667 -175 -252c0 -62.667 22.667 -94 68 -94c44.667 0 83 19.667 115 59l63 -16c-56 -83.333 -133.667 -125 -233 -125c-112 0 -168 56 -168 168
c0 84.667 76.333 171.334 229 260.001h-583z" />
    <glyph glyph-name="eogonek" unicode="&#x119;" 
d="M299 623h541.001c0 82.667 -22.667 151 -68 205c-48 56.667 -112 85 -192 85c-86.667 0 -155.334 -31.333 -206.001 -94c-41.333 -52 -66.333 -117.333 -75 -196zM1044 479l-745.001 0.00195312c0 -100.667 34.667 -184.334 104 -251.001c66 -64.667 146 -97 240 -97
c58 0 121.667 12.667 191 38c59.333 21.333 103 43.666 131 66.999v-193c-25.333 -9.33301 -68.333 -23.666 -129 -42.999c-116 -90.667 -174 -174.667 -174 -252c0 -62.667 22.333 -94 67 -94s83 19.667 115 59l63 -16c-56 -83.333 -133.667 -125 -233 -125
c-112 0 -168 56 -168 168c0 77.333 65.333 157.333 196 240c-13.333 -3.33301 -35.666 -5 -66.999 -5c-180 0 -316.333 52 -409 156c-88 97.333 -132 234 -132 410c0 155.333 45 282.166 135 380.499s208.333 147.5 355 147.5c306.667 0 460 -196.667 460 -590z" />
    <glyph glyph-name="Ecaron" unicode="&#x11a;" 
d="M993 0h-800v1430h800v-181h-596v-418h543v-180h-543v-471h596v-180zM872 1849l-203 -295h-186l-205 295h164l135 -201l133 201h162z" />
    <glyph glyph-name="ecaron" unicode="&#x11b;" 
d="M1044 479l-745 0.00292969c0 -100.667 34.667 -184.334 104 -251.001c66 -64.667 146 -97 240 -97c58 0 121.667 12.667 191 38c59.333 21.333 103 43.666 131 66.999v-193c-125.333 -45.333 -235.333 -68 -330 -68c-180 0 -316.333 52 -409 156
c-88 97.333 -132 234 -132 410c0 155.333 45 282.166 135 380.499s208.333 147.5 355 147.5c306.667 0 460 -196.667 460 -590zM840 623.003c0 82.667 -22.666 151 -67.999 205c-48 56.667 -112 85 -192 85c-86.667 0 -155.334 -31.333 -206.001 -94
c-41.333 -52 -66.333 -117.333 -75 -196h541zM872.001 1485l-203 -295h-186l-205 295h164l135 -201l133 201h162z" />
    <glyph glyph-name="Gcircumflex" unicode="&#x11c;" horiz-adv-x="1479" 
d="M1298 39c-123.333 -42.667 -268.667 -64 -436 -64c-227.333 0 -409.666 67.667 -546.999 203s-206 316.333 -206 543c0 218 71.333 395.333 214 532c140.667 134 321 201 541 201c141.333 0 281.333 -24 420 -72l-16 -206c-100.667 65.333 -232 98 -394 98
c-162.667 0 -295.334 -53.333 -398.001 -160c-100 -104.667 -150 -237.667 -150 -399c0 -164.667 52.667 -300 158 -406c102 -102 228.667 -153 380 -153c71.333 0 148 8 230 24v434h-301v168h505v-743zM1112 1554h-164l-135 201l-133 -201h-162l202 295h187z" />
    <glyph glyph-name="gcircumflex" unicode="&#x11d;" horiz-adv-x="1251" 
d="M1087 45c0 -333.333 -179.332 -500 -537.999 -500c-110 0 -235 24 -375 72l21 178c136.667 -62.667 262 -94 376 -94c101.333 0 180.666 32 237.999 96s86 151.333 86 262v103h-4c-81.333 -108 -198 -162 -350 -162c-142.667 0 -254.667 52 -336 156
c-74 94 -111 213.333 -111 358c0 147.333 38.333 273.333 115 378c86.667 118 204 177 352 177c168 0 282.667 -60 344 -180h4v155h178v-999zM895.001 510c0 115.333 -25.334 209.667 -76.001 283c-55.333 80 -131.666 120 -228.999 120
c-90.667 0 -163.667 -42.333 -219 -127c-48 -75.333 -72 -162.666 -72 -261.999c0 -102 26 -188 78 -258c54.667 -73.333 125.667 -110 213 -110c88.667 0 162 34.667 220 104c56.667 67.333 85 150.666 85 249.999zM932 1190h-164l-135 201l-133 -201h-162l202 295h187z
" />
    <glyph glyph-name="Gbreve" unicode="&#x11e;" horiz-adv-x="1479" 
d="M1298 39c-123.333 -42.667 -268.667 -64 -436 -64c-227.333 0 -409.666 67.667 -546.999 203s-206 316.333 -206 543c0 218 71.333 395.333 214 532c140.667 134 321 201 541 201c141.333 0 281.333 -24 420 -72l-16 -206c-100.667 65.333 -232 98 -394 98
c-162.667 0 -295.334 -53.333 -398.001 -160c-100 -104.667 -150 -237.667 -150 -399c0 -164.667 52.667 -300 158 -406c102 -102 228.667 -153 380 -153c71.333 0 148 8 230 24v434h-301v168h505v-743zM1130 1843c-9.33301 -88 -41.834 -156.5 -97.501 -205.5
s-128.167 -73.5 -217.5 -73.5s-162 24.5 -218 73.5s-88.667 117.5 -98 205.5h101c20.667 -106.667 92.334 -160 215.001 -160c122 0 193.667 53.333 215 160h100z" />
    <glyph glyph-name="gbreve" unicode="&#x11f;" horiz-adv-x="1251" 
d="M1087 45c0 -333.333 -179.332 -500 -537.999 -500c-110 0 -235 24 -375 72l21 178c136.667 -62.667 262 -94 376 -94c101.333 0 180.666 32 237.999 96s86 151.333 86 262v103h-4c-81.333 -108 -198 -162 -350 -162c-142.667 0 -254.667 52 -336 156
c-74 94 -111 213.333 -111 358c0 147.333 38.333 273.333 115 378c86.667 118 204 177 352 177c168 0 282.667 -60 344 -180h4v155h178v-999zM895.001 510c0 115.333 -25.334 209.667 -76.001 283c-55.333 80 -131.666 120 -228.999 120
c-90.667 0 -163.667 -42.333 -219 -127c-48 -75.333 -72 -162.666 -72 -261.999c0 -102 26 -188 78 -258c54.667 -73.333 125.667 -110 213 -110c88.667 0 162 34.667 220 104c56.667 67.333 85 150.666 85 249.999zM930 1479c-9.33301 -88 -41.834 -156.5 -97.501 -205.5
s-128.167 -73.5 -217.5 -73.5s-162 24.5 -218 73.5s-88.667 117.5 -98 205.5h101c20.667 -106.667 92.334 -160 215.001 -160c122 0 193.667 53.333 215 160h100z" />
    <glyph glyph-name="Gdotaccent" unicode="&#x120;" horiz-adv-x="1479" 
d="M1298 39c-123.333 -42.667 -268.667 -64 -436 -64c-227.333 0 -409.666 67.667 -546.999 203s-206 316.333 -206 543c0 218 71.333 395.333 214 532c140.667 134 321 201 541 201c141.333 0 281.333 -24 420 -72l-16 -206c-100.667 65.333 -232 98 -394 98
c-162.667 0 -295.334 -53.333 -398.001 -160c-100 -104.667 -150 -237.667 -150 -399c0 -164.667 52.667 -300 158 -406c102 -102 228.667 -153 380 -153c71.333 0 148 8 230 24v434h-301v168h505v-743zM910.999 1568h-193v205h193v-205z" />
    <glyph glyph-name="gdotaccent" unicode="&#x121;" horiz-adv-x="1251" 
d="M1087 45c0 -333.333 -179.332 -500 -537.999 -500c-110 0 -235 24 -375 72l21 178c136.667 -62.667 262 -94 376 -94c101.333 0 180.666 32 237.999 96s86 151.333 86 262v103h-4c-81.333 -108 -198 -162 -350 -162c-142.667 0 -254.667 52 -336 156
c-74 94 -111 213.333 -111 358c0 147.333 38.333 273.333 115 378c86.667 118 204 177 352 177c168 0 282.667 -60 344 -180h4v155h178v-999zM895.001 510c0 115.333 -25.334 209.667 -76.001 283c-55.333 80 -131.666 120 -228.999 120
c-90.667 0 -163.667 -42.333 -219 -127c-48 -75.333 -72 -162.666 -72 -261.999c0 -102 26 -188 78 -258c54.667 -73.333 125.667 -110 213 -110c88.667 0 162 34.667 220 104c56.667 67.333 85 150.666 85 249.999zM711 1204h-193v205h193v-205z" />
    <glyph glyph-name="Gcommaaccent" unicode="&#x122;" horiz-adv-x="1479" 
d="M1298 39c-123.333 -42.667 -268.667 -64 -436 -64c-227.333 0 -409.666 67.667 -546.999 203s-206 316.333 -206 543c0 218 71.333 395.333 214 532c140.667 134 321 201 541 201c141.333 0 281.333 -24 420 -72l-16 -206c-100.667 65.333 -232 98 -394 98
c-162.667 0 -295.334 -53.333 -398.001 -160c-100 -104.667 -150 -237.667 -150 -399c0 -164.667 52.667 -300 158 -406c102 -102 228.667 -153 380 -153c71.333 0 148 8 230 24v434h-301v168h505v-743zM711.999 -281v189h199v-144c0 -151.333 -68.333 -227 -205 -227v76
c68.667 0 105 35.333 109 106h-103z" />
    <glyph glyph-name="gcommaaccent" unicode="&#x123;" horiz-adv-x="1251" 
d="M1087 1044l0.000976562 -999c0 -333.333 -179.333 -500 -538 -500c-110 0 -235 24 -375 72l21 178c136.667 -62.667 262 -94 376 -94c101.333 0 180.666 32 237.999 96s86 151.333 86 262v103h-4c-81.333 -108 -198 -162 -350 -162c-142.667 0 -254.667 52 -336 156
c-74 94 -111 213.333 -111 358c0 147.333 38.333 273.333 115 378c86.667 118 204 177 352 177c168 0 282.667 -60 344 -180h4v155h178zM590.001 156c88.667 0 161.999 34.668 219.999 104.001c56.667 67.333 85 150.666 85 249.999c0 115.333 -25.333 209.666 -76 282.999
c-55.333 80 -131.666 120 -228.999 120c-90.667 0 -163.667 -42.333 -219 -127c-48 -75.333 -72 -162.666 -72 -261.999c0 -102 26 -188 78 -258c54.667 -73.333 125.667 -110 213 -110zM754 1395v-189h-199v144c0 151.333 68.333 227 205 227v-76
c-68.667 0 -105 -35.333 -109 -106h103z" />
    <glyph glyph-name="Hcircumflex" unicode="&#x124;" horiz-adv-x="1479" 
d="M1285 0h-204v651h-684v-651h-204v1430h204v-599h684v599h204v-1430zM1062 1554h-164l-135 201l-133 -201h-162l202 295h187z" />
    <glyph glyph-name="hcircumflex" unicode="&#x125;" horiz-adv-x="1251" 
d="M1087 0l-192.001 -0.000976562v541c0 126.667 -16 218.667 -48 276c-34 62 -91.667 94 -173 96c-105.333 3.33301 -185.666 -35.667 -240.999 -117c-51.333 -75.333 -77 -179.666 -77 -312.999v-483h-192v1536h192v-641h4c73.333 116 185.333 174 336 174
c260.667 0 391 -149.333 391 -448v-621zM551.999 1654h-164l-135 201l-133 -201h-162l202 295h187z" />
    <glyph glyph-name="Hbar" unicode="&#x126;" horiz-adv-x="1602" 
d="M1143 831v218h-684v-218h684zM1348 0h-205v651h-684v-651h-205v1049h-191v143h191v238h205v-238h684v238h205v-238h190v-143h-190v-1049z" />
    <glyph glyph-name="hbar" unicode="&#x127;" horiz-adv-x="1278" 
d="M190 1192h-189.999v119h190v225h193v-225h287v-119h-287v-297c78 116 191.333 174 340 174c260.667 0 391 -149.333 391 -448v-621h-192v541c0 110.667 -11 192.667 -33 246c-33.333 84 -96.333 126 -189 126c-112.667 0 -196.334 -45.333 -251.001 -136
c-44 -74.667 -66 -172.667 -66 -294v-483h-193v1192z" />
    <glyph glyph-name="Itilde" unicode="&#x128;" horiz-adv-x="569" 
d="M387 0h-205v1430h205v-1430zM633 1794c-21.333 -153.333 -85.668 -230.001 -193.001 -230.001c-36.667 0 -91.5 15.833 -164.5 47.5s-123.167 47.167 -150.5 46.5c-54 4 -85.333 -27.333 -94 -94v0h-94c21.333 153.333 85.333 230 192 230c36.667 0 91.5 -16 164.5 -48
s123.167 -47.667 150.5 -47c54.667 -3.33301 86.334 28.334 95.001 95.001h94z" />
    <glyph glyph-name="itilde" unicode="&#x129;" horiz-adv-x="569" 
d="M381 0h-193v1044h193v-1044zM643 1430c-21.333 -153.333 -85.668 -230.001 -193.001 -230.001c-36.667 0 -91.5 15.833 -164.5 47.5s-123.167 47.167 -150.5 46.5c-54 4 -85.333 -27.333 -94 -94v0h-94c21.333 153.333 85.333 230 192 230c36.667 0 91.5 -16 164.5 -48
s123.167 -47.667 150.5 -47c54.667 -3.33301 86.334 28.334 95.001 95.001h94z" />
    <glyph glyph-name="Imacron" unicode="&#x12a;" horiz-adv-x="569" 
d="M387 0h-205v1430h205v-1430zM588 1624h-606v118h606v-118z" />
    <glyph glyph-name="imacron" unicode="&#x12b;" horiz-adv-x="569" 
d="M381 0h-193v1044h193v-1044zM588 1260h-606v118h606v-118z" />
    <glyph glyph-name="Ibreve" unicode="&#x12c;" horiz-adv-x="569" 
d="M387 0h-205v1430h205v-1430zM600 1843c-9.33301 -88 -41.834 -156.5 -97.501 -205.5s-128.167 -73.5 -217.5 -73.5s-162 24.5 -218 73.5s-88.667 117.5 -98 205.5h101c20.667 -106.667 92.334 -160 215.001 -160c122 0 193.667 53.333 215 160h100z" />
    <glyph glyph-name="ibreve" unicode="&#x12d;" horiz-adv-x="569" 
d="M381 0h-193v1044h193v-1044zM600 1479c-9.33301 -88 -41.834 -156.5 -97.501 -205.5s-128.167 -73.5 -217.5 -73.5s-162 24.5 -218 73.5s-88.667 117.5 -98 205.5h101c20.667 -106.667 92.334 -160 215.001 -160c122 0 193.667 53.333 215 160h100z" />
    <glyph glyph-name="Iogonek" unicode="&#x12e;" horiz-adv-x="569" 
d="M182 0v1430h205v-1430h-31c-116 -90.667 -174 -174.667 -174 -252c0 -62.667 22.667 -94 68 -94c44.667 0 83 19.667 115 59l63 -16c-56 -83.333 -133.667 -125 -233 -125c-112 0 -168 56 -168 168c0 84.667 76.333 171.334 229 260.001h-74z" />
    <glyph glyph-name="iogonek" unicode="&#x12f;" horiz-adv-x="569" 
d="M393 1475v-218h-217v218h217zM188 0v1044h193v-1044h-35c-116 -92.667 -174 -176.667 -174 -252c0 -62.667 22.667 -94 68 -94c44.667 0 82.667 19.667 114 59l64 -16c-56 -83.333 -134 -125 -234 -125c-112 0 -168 56 -168 168c0 84.667 76.667 171.334 230 260.001h-58
z" />
    <glyph glyph-name="Idotaccent" unicode="&#x130;" horiz-adv-x="569" 
d="M387 0h-205v1430h205v-1430zM381 1568h-193v205h193v-205z" />
    <glyph glyph-name="dotlessi" unicode="&#x131;" horiz-adv-x="569" 
d="M381 0h-193v1044h193v-1044z" />
    <glyph glyph-name="IJ" unicode="&#x132;" horiz-adv-x="1349" 
d="M387 0h-205v1430h205v-1430zM1150 369c0 -114.667 -28 -205.333 -84 -272c-68.667 -81.333 -174.334 -122 -317.001 -122c-67.333 0 -122.666 8.33301 -165.999 25v176c37.333 -13.333 80.333 -20 129 -20c87.333 0 149.333 24.667 186 74c32 42.667 48 110.667 48 204
v996h204v-1061z" />
    <glyph glyph-name="ij" unicode="&#x133;" 
d="M393 1278h-217v217h217v-217zM381 0h-193v1044h193v-1044zM951 1278h-217v217h217v-217zM939 -37c0 -118 -13 -206.667 -39 -266c-44.667 -101.333 -130 -152 -256 -152c-55.333 0 -95 3 -119 9l6 165c24.667 -4 50.667 -6 78 -6c91.333 0 137 73.667 137 221v1110h193
v-1081z" />
    <glyph glyph-name="Jcircumflex" unicode="&#x134;" horiz-adv-x="797" 
d="M610 369c0 -114.667 -28 -205.333 -84 -272c-68.667 -81.333 -174.334 -122 -317.001 -122c-67.333 0 -122.666 8.33301 -165.999 25v176c37.333 -13.333 80.333 -20 129 -20c87.333 0 149.333 24.667 186 74c32 42.667 48 110.667 48 204v996h204v-1061zM822 1554h-164
l-135 201l-133 -201h-162l202 295h187z" />
    <glyph glyph-name="jcircumflex" unicode="&#x135;" horiz-adv-x="569" 
d="M381 -37c0 -118 -13 -206.667 -39 -266c-44.667 -101.333 -130 -152 -256 -152c-55.333 0 -95 3 -119 9l6 165c24.667 -4 50.667 -6 78 -6c91.333 0 137 73.667 137 221v1110h193v-1081zM582 1190h-164l-135 201l-133 -201h-162l202 295h187z" />
    <glyph glyph-name="Kcommaaccent" unicode="&#x136;" horiz-adv-x="1366" 
d="M1333 0h-299l-637 700v-700h-204v1430h204v-629l611 629h272l-672 -676zM612 -281v189h199v-144c0 -151.333 -68.333 -227 -205 -227v76c68.667 0 105 35.333 109 106h-103z" />
    <glyph glyph-name="kcommaaccent" unicode="&#x137;" 
d="M1100 0h-277l-467 537v-537h-192v1536h192v-915l420 423h262l-485 -462zM512 -281v189h199v-144c0 -151.333 -68.333 -227 -205 -227v76c68.667 0 105 35.333 109 106h-103z" />
    <glyph glyph-name="kgreenlandic" unicode="&#x138;" horiz-adv-x="1141" 
d="M1102 0h-279l-467 524v-524h-192v1044h192v-434l422 434h262l-487 -475z" />
    <glyph glyph-name="Lacute" unicode="&#x139;" horiz-adv-x="1024" 
d="M983 0h-803v1430h205v-1250h598v-180zM635 1849l-268 -295h-137l182 295h223z" />
    <glyph glyph-name="lacute" unicode="&#x13a;" horiz-adv-x="569" 
d="M381 0h-193v1536h193v-1536zM575 1949l-268 -295h-137l182 295h223z" />
    <glyph glyph-name="Lcommaaccent" unicode="&#x13b;" horiz-adv-x="1024" 
d="M983 0h-803v1430h205v-1250h598v-180zM512 -281v189h199v-144c0 -151.333 -68.333 -227 -205 -227v76c68.667 0 105 35.333 109 106h-103z" />
    <glyph glyph-name="lcommaaccent" unicode="&#x13c;" horiz-adv-x="569" 
d="M381 0h-193v1536h193v-1536zM202 -281v189h199v-144c0 -151.333 -68.333 -227 -205 -227v76c68.667 0 105 35.333 109 106h-103z" />
    <glyph glyph-name="Lcaron" unicode="&#x13d;" horiz-adv-x="1024" 
d="M180 0v1430h205v-1250h598v-180h-803zM582 1241v189h198v-144c0 -151.333 -68.333 -227 -205 -227v76c68.667 0 105 35.333 109 106h-102z" />
    <glyph glyph-name="lcaron" unicode="&#x13e;" horiz-adv-x="608" 
d="M188 0v1536h193v-1536h-193zM487 1348v188h199v-143c0 -152 -68.333 -228 -205 -228v76c68.667 0 105 35.667 109 107h-103z" />
    <glyph glyph-name="Ldot" unicode="&#x13f;" horiz-adv-x="1024" 
d="M983 0h-803v1430h205v-1250h598v-180zM863 819c0 -33.333 -11.5 -62.166 -34.5 -86.499s-51.167 -36.5 -84.5 -36.5s-62.166 12.167 -86.499 36.5s-36.5 53.166 -36.5 86.499c0 32.667 12.167 60.5 36.5 83.5s53.166 34.5 86.499 34.5c32.667 0 60.667 -11.5 84 -34.5
s35 -50.833 35 -83.5z" />
    <glyph glyph-name="ldot" unicode="&#x140;" horiz-adv-x="802" 
d="M381 0h-193v1536h193v-1536zM762 819c0 -33.333 -11.5 -62.166 -34.5 -86.499s-51.167 -36.5 -84.5 -36.5s-62.166 12.167 -86.499 36.5s-36.5 53.166 -36.5 86.499c0 32.667 12.167 60.5 36.5 83.5s53.166 34.5 86.499 34.5c32.667 0 60.667 -11.5 84 -34.5
s35 -50.833 35 -83.5z" />
    <glyph glyph-name="Lslash" unicode="&#x141;" horiz-adv-x="1024" 
d="M983 0h-803v483l-131 -77v147l131 78v799h205v-680l401 235v-147l-401 -236v-422h598v-180z" />
    <glyph glyph-name="lslash" unicode="&#x142;" horiz-adv-x="569" 
d="M512 952l-131 -104v-848h-193v696l-131 -104v145l131 105v694h193v-543l131 105v-146z" />
    <glyph glyph-name="Nacute" unicode="&#x143;" horiz-adv-x="1479" 
d="M1298 0h-262l-647 1176h-4v-1176h-205v1430h279l631 -1151h4v1151h204v-1430zM1080 1849l-268 -295h-137l182 295h223z" />
    <glyph glyph-name="nacute" unicode="&#x144;" horiz-adv-x="1251" 
d="M1087 0l-192.002 -0.000976562v541c0 126.667 -16 218.667 -48 276c-34 62 -91.667 94 -173 96c-105.333 3.33301 -185.666 -35.667 -240.999 -117c-51.333 -75.333 -77 -179.666 -77 -312.999v-483h-192v1044h186v-165h4c28.667 58 74.334 104.167 137.001 138.5
s131 51.5 205 51.5c260.667 0 391 -149.333 391 -448v-621zM914.998 1485l-268 -295h-137l182 295h223z" />
    <glyph glyph-name="Ncommaaccent" unicode="&#x145;" horiz-adv-x="1479" 
d="M1298 0h-262l-647 1176h-4v-1176h-205v1430h279l631 -1151h4v1151h204v-1430zM612 -281v189h199v-144c0 -151.333 -68.333 -227 -205 -227v76c68.667 0 105 35.333 109 106h-103z" />
    <glyph glyph-name="ncommaaccent" unicode="&#x146;" horiz-adv-x="1251" 
d="M1087 0l-192.002 -0.000976562v541c0 126.667 -16 218.667 -48 276c-34 62 -91.667 94 -173 96c-105.333 3.33301 -185.666 -35.667 -240.999 -117c-51.333 -75.333 -77 -179.666 -77 -312.999v-483h-192v1044h186v-165h4c28.667 58 74.334 104.167 137.001 138.5
s131 51.5 205 51.5c260.667 0 391 -149.333 391 -448v-621zM511.998 -281.001v189h199v-144c0 -151.333 -68.333 -227 -205 -227v76c68.667 0 105 35.333 109 106h-103z" />
    <glyph glyph-name="Ncaron" unicode="&#x147;" horiz-adv-x="1479" 
d="M1298 0h-262l-647 1176h-4v-1176h-205v1430h279l631 -1151h4v1151h204v-1430zM1102 1849l-203 -295h-186l-205 295h164l135 -201l133 201h162z" />
    <glyph glyph-name="ncaron" unicode="&#x148;" horiz-adv-x="1251" 
d="M1087 0l-192.002 -0.000976562v541c0 126.667 -16 218.667 -48 276c-34 62 -91.667 94 -173 96c-105.333 3.33301 -185.666 -35.667 -240.999 -117c-51.333 -75.333 -77 -179.666 -77 -312.999v-483h-192v1044h186v-165h4c28.667 58 74.334 104.167 137.001 138.5
s131 51.5 205 51.5c260.667 0 391 -149.333 391 -448v-621zM941.998 1485l-203 -295h-186l-205 295h164l135 -201l133 201h162z" />
    <glyph glyph-name="napostrophe" unicode="&#x149;" horiz-adv-x="1421" 
d="M334 0l-0.00195312 1044h186v-165h4c28.667 58 74.334 104.167 137.001 138.5s131 51.5 205 51.5c260.667 0 391 -149.333 391 -448v-621h-192v541c0 126.667 -16 218.667 -48 276c-34 62 -91.667 94 -173 96c-105.333 3.33301 -185.666 -35.667 -240.999 -117
c-51.333 -75.333 -77 -179.666 -77 -312.999v-483h-192zM41.998 1149v189h198v-144c0 -151.333 -68 -227 -204 -227v76c68 0 104 35.333 108 106h-102z" />
    <glyph glyph-name="Eng" unicode="&#x14a;" horiz-adv-x="1479" 
d="M1298 1430l0.00195312 -1516c0 -99.333 -32.333 -177.666 -97 -234.999c-62.667 -54.667 -144.334 -82 -245.001 -82c-48.667 0 -95.667 6.66699 -141 20v147c35.333 -16 81.666 -24 138.999 -24c93.333 0 140 69.667 140 209v14l-709 1161v-1124h-205v1430h230
l684 -1125v1125h204z" />
    <glyph glyph-name="eng" unicode="&#x14b;" horiz-adv-x="1251" 
d="M895 541c0 110.667 -10.667 192.667 -32 246c-33.333 84 -96.333 126 -189 126c-112.667 0 -196.334 -45.333 -251.001 -136c-44.667 -74.667 -67 -172.667 -67 -294v-483h-192v1044h186v-165c31.333 60 80 107.333 146 142c62 32 128.667 48 200 48
c260.667 0 391 -149.333 391 -448v-707c0 -100 -27.167 -177.833 -81.5 -233.5s-131.5 -83.5 -231.5 -83.5c-49.333 0 -96.333 6.66699 -141 20v147c36.667 -16 76.334 -24 119.001 -24c58.667 0 98.667 21.333 120 64c15.333 30 23 78.333 23 145v592z" />
    <glyph glyph-name="Omacron" unicode="&#x14c;" horiz-adv-x="1593" 
d="M1485 715c0 -221.333 -60.333 -399 -181 -533c-124 -138 -293 -207 -507 -207c-214.667 0 -384 69 -508 207c-120 134 -180 311.667 -180 533c0 216.667 60.333 392.667 181 528c125.333 140.667 294.333 211 507 211c212 0 381 -70.333 507 -211
c120.667 -135.333 181 -311.333 181 -528zM1268 715c0 156 -39.334 285.333 -118.001 388c-86 114 -203.667 171 -353 171c-150 0 -268 -57 -354 -171c-78 -102.667 -117 -232 -117 -388s37.333 -285 112 -387c84 -114.667 203.667 -172 359 -172
c154.667 0 274.334 57.333 359.001 172c74.667 102 112 231 112 387zM1088 1624h-606v118h606v-118z" />
    <glyph glyph-name="omacron" unicode="&#x14d;" horiz-adv-x="1251" 
d="M1157 522c0 -152 -49.334 -280.333 -148.001 -385c-100.667 -108 -228 -162 -382 -162c-155.333 0 -283.666 54 -384.999 162c-98.667 104.667 -148 233 -148 385c0 160 49.167 291.167 147.5 393.5s226.833 153.5 385.5 153.5c157.333 0 285 -51.167 383 -153.5
s147 -233.5 147 -393.5zM951.999 522c0 105.333 -28.667 195.333 -86 270c-61.333 80.667 -141 121 -239 121c-99.333 0 -180 -40.333 -242 -121c-57.333 -74.667 -86 -164.667 -86 -270c0 -104 26.333 -192.333 79 -265c60 -84 143 -126 249 -126c104.667 0 187 42 247 126
c52 72.667 78 161 78 265zM927.999 1260h-606v118h606v-118z" />
    <glyph glyph-name="Obreve" unicode="&#x14e;" horiz-adv-x="1593" 
d="M1485 715c0 -221.333 -60.333 -399 -181 -533c-124 -138 -293 -207 -507 -207c-214.667 0 -384 69 -508 207c-120 134 -180 311.667 -180 533c0 216.667 60.333 392.667 181 528c125.333 140.667 294.333 211 507 211c212 0 381 -70.333 507 -211
c120.667 -135.333 181 -311.333 181 -528zM1268 715c0 156 -39.334 285.333 -118.001 388c-86 114 -203.667 171 -353 171c-150 0 -268 -57 -354 -171c-78 -102.667 -117 -232 -117 -388s37.333 -285 112 -387c84 -114.667 203.667 -172 359 -172
c154.667 0 274.334 57.333 359.001 172c74.667 102 112 231 112 387zM1120 1843c-9.33301 -88 -41.834 -156.5 -97.501 -205.5s-128.167 -73.5 -217.5 -73.5s-162 24.5 -218 73.5s-88.667 117.5 -98 205.5h101c20.667 -106.667 92.334 -160 215.001 -160
c122 0 193.667 53.333 215 160h100z" />
    <glyph glyph-name="obreve" unicode="&#x14f;" horiz-adv-x="1251" 
d="M1157 522c0 -152 -49.334 -280.333 -148.001 -385c-100.667 -108 -228 -162 -382 -162c-155.333 0 -283.666 54 -384.999 162c-98.667 104.667 -148 233 -148 385c0 160 49.167 291.167 147.5 393.5s226.833 153.5 385.5 153.5c157.333 0 285 -51.167 383 -153.5
s147 -233.5 147 -393.5zM951.999 522c0 105.333 -28.667 195.333 -86 270c-61.333 80.667 -141 121 -239 121c-99.333 0 -180 -40.333 -242 -121c-57.333 -74.667 -86 -164.667 -86 -270c0 -104 26.333 -192.333 79 -265c60 -84 143 -126 249 -126c104.667 0 187 42 247 126
c52 72.667 78 161 78 265zM939.999 1479c-9.33301 -88 -41.834 -156.5 -97.501 -205.5s-128.167 -73.5 -217.5 -73.5s-162 24.5 -218 73.5s-88.667 117.5 -98 205.5h101c20.667 -106.667 92.334 -160 215.001 -160c122 0 193.667 53.333 215 160h100z" />
    <glyph glyph-name="Ohungarumlaut" unicode="&#x150;" horiz-adv-x="1593" 
d="M1485 715c0 -221.333 -60.333 -399 -181 -533c-124 -138 -293 -207 -507 -207c-214.667 0 -384 69 -508 207c-120 134 -180 311.667 -180 533c0 216.667 60.333 392.667 181 528c125.333 140.667 294.333 211 507 211c212 0 381 -70.333 507 -211
c120.667 -135.333 181 -311.333 181 -528zM1268 715c0 156 -39.334 285.333 -118.001 388c-86 114 -203.667 171 -353 171c-150 0 -268 -57 -354 -171c-78 -102.667 -117 -232 -117 -388s37.333 -285 112 -387c84 -114.667 203.667 -172 359 -172
c154.667 0 274.334 57.333 359.001 172c74.667 102 112 231 112 387zM1281 1849l-268 -295h-137l182 295h223zM910.999 1849l-269 -295h-137l182 295h224z" />
    <glyph glyph-name="ohungarumlaut" unicode="&#x151;" horiz-adv-x="1251" 
d="M1157 522c0 -152 -49.334 -280.333 -148.001 -385c-100.667 -108 -228 -162 -382 -162c-155.333 0 -283.666 54 -384.999 162c-98.667 104.667 -148 233 -148 385c0 160 49.167 291.167 147.5 393.5s226.833 153.5 385.5 153.5c157.333 0 285 -51.167 383 -153.5
s147 -233.5 147 -393.5zM951.999 522c0 105.333 -28.667 195.333 -86 270c-61.333 80.667 -141 121 -239 121c-99.333 0 -180 -40.333 -242 -121c-57.333 -74.667 -86 -164.667 -86 -270c0 -104 26.333 -192.333 79 -265c60 -84 143 -126 249 -126c104.667 0 187 42 247 126
c52 72.667 78 161 78 265zM1121 1485l-268 -295h-137l182 295h223zM750.999 1485l-269 -295h-137l182 295h224z" />
    <glyph glyph-name="OE" unicode="&#x152;" horiz-adv-x="1933" 
d="M1806 0l-594 0.000976562c-35.333 0 -88.5 -2 -159.5 -6s-124.167 -6 -159.5 -6c-232.667 0 -420.334 65.333 -563.001 196c-147.333 135.333 -221 318.333 -221 549c0 215.333 73 387.666 219 516.999c144 128 333.667 192 569 192c33.333 0 83.333 -2 150 -6
s116.334 -6 149.001 -6h596v-181h-578v-418h537v-180h-537v-471h592v-180zM1010 180.001v1069c-54.667 8.66699 -96.334 13 -125.001 13c-174.667 0 -311 -45.333 -409 -136c-100 -92.667 -150 -223.667 -150 -393c0 -176.667 52.333 -316 157 -418
c100.667 -98 235.334 -147 404.001 -147c49.333 0 90.333 4 123 12z" />
    <glyph glyph-name="oe" unicode="&#x153;" horiz-adv-x="1933" 
d="M1849 479l-739.001 0.000976562c0 -97.333 32.5 -179.666 97.5 -246.999s146.5 -101 244.5 -101c102.667 0 199 36.333 289 109v-195c-102 -46.667 -201.667 -70 -299 -70c-218 0 -361.333 75.333 -430 226c-35.333 -76.667 -94.333 -134.667 -177 -174
c-70 -34.667 -147.667 -52 -233 -52c-158 0 -284.667 52 -380 156c-92 101.333 -138 231.666 -138 390.999c0 147.333 46 273.666 138 378.999c98.667 112 225.334 168 380.001 168c202.667 0 341.334 -68.333 416.001 -205c65.333 136.667 189.666 205 372.999 205
c164 0 284.667 -60 362 -180c64 -100 96 -236.667 96 -410zM1645 623.001c0 73.333 -22.999 138.667 -68.999 196c-50 62.667 -112.333 94 -187 94c-82.667 0 -149.834 -27.833 -201.501 -83.5s-77.5 -124.5 -77.5 -206.5h535zM918 522.002
c0 98.667 -25.333 185.334 -76 260.001c-58.667 87.333 -138 131 -238 131c-100.667 0 -180.667 -43.667 -240 -131c-50 -74.667 -75 -161.334 -75 -260.001c0 -111.333 24 -201.666 72 -270.999c55.333 -80 136.333 -120 243 -120c95.333 0 173 42 233 126
c54 75.333 81 163.666 81 264.999z" />
    <glyph glyph-name="Racute" unicode="&#x154;" horiz-adv-x="1251" 
d="M1190 0l-234.001 -0.000976562l-219 496c-28 63.333 -62 104 -102 122c-25.333 11.333 -71 17 -137 17h-123v-635h-205v1430h350c172.667 0 300.667 -22 384 -66c114 -59.333 171 -166.666 171 -321.999c0 -84.667 -28.333 -157 -85 -217
c-54 -57.333 -124 -93.333 -210 -108v-4c58.667 -22.667 105.334 -70.667 140.001 -144zM857.999 1038c0 140.667 -95.668 211 -287.001 211h-196v-434h174c96.667 0 172.334 20 227.001 60s82 94.333 82 163zM879.998 1849l-268 -295h-137l182 295h223z" />
    <glyph glyph-name="racute" unicode="&#x155;" horiz-adv-x="797" 
d="M748 883c-30 12 -65.665 18 -106.998 18c-86.667 0 -155.834 -38.333 -207.501 -115s-77.5 -180.334 -77.5 -311.001v-475h-192v1044h180v-161h4c26 54.667 64.167 99.334 114.5 134.001s103.166 52 158.499 52c36.667 0 79 -4.66699 127 -14v-172zM755.002 1485
l-268 -295h-137l182 295h223z" />
    <glyph glyph-name="Rcommaaccent" unicode="&#x156;" horiz-adv-x="1251" 
d="M1190 0l-234.001 -0.000976562l-219 496c-28 63.333 -62 104 -102 122c-25.333 11.333 -71 17 -137 17h-123v-635h-205v1430h350c172.667 0 300.667 -22 384 -66c114 -59.333 171 -166.666 171 -321.999c0 -84.667 -28.333 -157 -85 -217
c-54 -57.333 -124 -93.333 -210 -108v-4c58.667 -22.667 105.334 -70.667 140.001 -144zM857.999 1038c0 140.667 -95.668 211 -287.001 211h-196v-434h174c96.667 0 172.334 20 227.001 60s82 94.333 82 163zM511.998 -281.001v189h199v-144
c0 -151.333 -68.333 -227 -205 -227v76c68.667 0 105 35.333 109 106h-103z" />
    <glyph glyph-name="rcommaaccent" unicode="&#x157;" horiz-adv-x="797" 
d="M748 883c-30 12 -65.665 18 -106.998 18c-86.667 0 -155.834 -38.333 -207.501 -115s-77.5 -180.334 -77.5 -311.001v-475h-192v1044h180v-161h4c26 54.667 64.167 99.334 114.5 134.001s103.166 52 158.499 52c36.667 0 79 -4.66699 127 -14v-172zM212.002 -281v189h199
v-144c0 -151.333 -68.333 -227 -205 -227v76c68.667 0 105 35.333 109 106h-103z" />
    <glyph glyph-name="Rcaron" unicode="&#x158;" horiz-adv-x="1251" 
d="M1190 0l-234.001 -0.000976562l-219 496c-28 63.333 -62 104 -102 122c-25.333 11.333 -71 17 -137 17h-123v-635h-205v1430h350c172.667 0 300.667 -22 384 -66c114 -59.333 171 -166.666 171 -321.999c0 -84.667 -28.333 -157 -85 -217
c-54 -57.333 -124 -93.333 -210 -108v-4c58.667 -22.667 105.334 -70.667 140.001 -144zM857.999 1038c0 140.667 -95.668 211 -287.001 211h-196v-434h174c96.667 0 172.334 20 227.001 60s82 94.333 82 163zM831.998 1849l-203 -295h-186l-205 295h164l135 -201l133 201
h162z" />
    <glyph glyph-name="rcaron" unicode="&#x159;" horiz-adv-x="797" 
d="M748 883c-30 12 -65.665 18 -106.998 18c-86.667 0 -155.834 -38.333 -207.501 -115s-77.5 -180.334 -77.5 -311.001v-475h-192v1044h180v-161h4c26 54.667 64.167 99.334 114.5 134.001s103.166 52 158.499 52c36.667 0 79 -4.66699 127 -14v-172zM772.002 1485
l-203 -295h-186l-205 295h164l135 -201l133 201h162z" />
    <glyph glyph-name="Sacute" unicode="&#x15a;" horiz-adv-x="1024" 
d="M928 401c0 -144 -51.3311 -253 -153.998 -327c-90.667 -66 -213.334 -99 -368.001 -99c-74 0 -171.667 20 -293 60l20 190c112.667 -46 211.667 -69 297 -69c69.333 0 130.666 17.667 183.999 53c64.667 43.333 97 103.333 97 180c0 86.667 -53.333 159.667 -160 219
l-295 155c-106.667 75.333 -160 176 -160 302c0 122.667 44.333 219.334 133 290.001c83.333 66 192 99 326 99c107.333 0 209 -17 305 -51l-29 -189c-100.667 40 -190 60 -268 60c-166.667 0 -250 -63.667 -250 -191c0 -72 53.333 -136.667 160 -194
c184.667 -98.667 283 -152.667 295 -162c106.667 -82.667 160 -191.334 160 -326.001zM780.002 1849l-268 -295h-137l182 295h223z" />
    <glyph glyph-name="sacute" unicode="&#x15b;" horiz-adv-x="797" 
d="M727 301c0 -105.333 -37.334 -187.333 -112.001 -246c-67.333 -53.333 -151.666 -80 -252.999 -80c-119.333 0 -214.666 19.333 -285.999 58l10 172c76 -49.333 156 -74 240 -74c52 0 95.667 11 131 33c43.333 26 65 65 65 117c0 50.667 -39 97.334 -117 140.001
l-218 118c-78 56 -117 125.667 -117 209c0 104 35.333 184.667 106 242c66 52.667 153.333 79 262 79c68 0 148 -13.667 240 -41l-16 -168c-20.667 12.667 -54.334 25 -101.001 37c-44 10.667 -78 16 -102 16c-52.667 0 -95.667 -10.333 -129 -31
c-37.333 -22.667 -56 -54.667 -56 -96c0 -56.667 39.333 -105.334 118 -146.001l218 -112c78 -56 117 -131.667 117 -227zM674.999 1485l-268 -295h-137l182 295h223z" />
    <glyph glyph-name="Scircumflex" unicode="&#x15c;" horiz-adv-x="1024" 
d="M928 401c0 -144 -51.3311 -253 -153.998 -327c-90.667 -66 -213.334 -99 -368.001 -99c-74 0 -171.667 20 -293 60l20 190c112.667 -46 211.667 -69 297 -69c69.333 0 130.666 17.667 183.999 53c64.667 43.333 97 103.333 97 180c0 86.667 -53.333 159.667 -160 219
l-295 155c-106.667 75.333 -160 176 -160 302c0 122.667 44.333 219.334 133 290.001c83.333 66 192 99 326 99c107.333 0 209 -17 305 -51l-29 -189c-100.667 40 -190 60 -268 60c-166.667 0 -250 -63.667 -250 -191c0 -72 53.333 -136.667 160 -194
c184.667 -98.667 283 -152.667 295 -162c106.667 -82.667 160 -191.334 160 -326.001zM807.002 1554h-164l-135 201l-133 -201h-162l202 295h187z" />
    <glyph glyph-name="scircumflex" unicode="&#x15d;" horiz-adv-x="797" 
d="M727 301c0 -105.333 -37.334 -187.333 -112.001 -246c-67.333 -53.333 -151.666 -80 -252.999 -80c-119.333 0 -214.666 19.333 -285.999 58l10 172c76 -49.333 156 -74 240 -74c52 0 95.667 11 131 33c43.333 26 65 65 65 117c0 50.667 -39 97.334 -117 140.001
l-218 118c-78 56 -117 125.667 -117 209c0 104 35.333 184.667 106 242c66 52.667 153.333 79 262 79c68 0 148 -13.667 240 -41l-16 -168c-20.667 12.667 -54.334 25 -101.001 37c-44 10.667 -78 16 -102 16c-52.667 0 -95.667 -10.333 -129 -31
c-37.333 -22.667 -56 -54.667 -56 -96c0 -56.667 39.333 -105.334 118 -146.001l218 -112c78 -56 117 -131.667 117 -227zM701.999 1190h-164l-135 201l-133 -201h-162l202 295h187z" />
    <glyph glyph-name="Scedilla" unicode="&#x15e;" horiz-adv-x="1024" 
d="M647 -266c0 -64 -30 -112.999 -90 -146.999c-49.333 -28 -108.666 -42 -177.999 -42c-63.333 0 -120.666 14.333 -171.999 43l37 70c50 -20.667 94.333 -31 133 -31c76.667 0 115 31.333 115 94c0 53.333 -31.667 80 -95 80c-26 0 -54 -5.33301 -84 -16l-34 39l113 151
c-72.667 2.66699 -165.667 22.667 -279 60l20 190c112.667 -46 211.667 -69 297 -69c69.333 0 130.666 17.667 183.999 53c64.667 43.333 97 103.333 97 180c0 88.667 -53.333 161.667 -160 219l-295 155c-106.667 75.333 -160 176 -160 302c0 126.667 46 225 138 295
c83.333 62.667 190.333 94 321 94c107.333 0 209 -17 305 -51l-29 -189c-100.667 40 -190 60 -268 60c-166.667 0 -250 -63.667 -250 -191c0 -72 53.333 -136.667 160 -194c185.333 -99.333 283.666 -153.333 294.999 -162c106.667 -82.667 160 -191.334 160 -326.001
c0 -143.333 -51.333 -252.333 -154 -327c-74 -53.333 -168.667 -85.333 -284 -96l-78 -101l4 -4c18 6.66699 38.333 10 61 10c48 0 87.667 -12.667 119 -38c34 -27.333 51 -64.333 51 -111z" />
    <glyph glyph-name="scedilla" unicode="&#x15f;" horiz-adv-x="797" 
d="M568 -266c0 -64 -29.999 -113.001 -89.999 -147.001c-49.333 -28 -108.666 -42 -177.999 -42c-63.333 0 -120.666 14.333 -171.999 43l37 70c50 -20.667 94.333 -31 133 -31c76.667 0 115 31.333 115 94c0 53.333 -31.667 80 -95 80c-26 0 -54 -5.33301 -84 -16l-34 39
l113 152c-96.667 4.66699 -175.667 23.667 -237 57l10 172c76 -49.333 156 -74 240 -74c53.333 0 97.666 11.333 132.999 34c42 26.667 63 65.334 63 116.001s-39 97.334 -117 140.001l-218 118c-78 56 -117 125.667 -117 209c0 106 35.667 187 107 243
c65.333 52 152.333 78 261 78c68 0 148 -13.667 240 -41l-16 -168c-21.333 13.333 -53.833 25.5 -97.5 36.5s-78.834 16.5 -105.501 16.5c-48 0 -88.667 -9 -122 -27c-42 -22.667 -63 -56 -63 -100c0 -56.667 39.333 -105.334 118 -146.001l218 -112
c78 -56 117 -131.667 117 -227c0 -105.333 -37.333 -187.333 -112 -246c-56.667 -44.667 -125.334 -70.667 -206.001 -78l-76 -100l4 -4c18 6.66699 38.333 10 61 10c48 0 87.667 -12.667 119 -38c34 -27.333 51 -64.333 51 -111z" />
    <glyph glyph-name="Scaron" unicode="&#x160;" horiz-adv-x="1024" 
d="M928 401c0 -144 -51.3311 -253 -153.998 -327c-90.667 -66 -213.334 -99 -368.001 -99c-74 0 -171.667 20 -293 60l20 190c112.667 -46 211.667 -69 297 -69c69.333 0 130.666 17.667 183.999 53c64.667 43.333 97 103.333 97 180c0 86.667 -53.333 159.667 -160 219
l-295 155c-106.667 75.333 -160 176 -160 302c0 122.667 44.333 219.334 133 290.001c83.333 66 192 99 326 99c107.333 0 209 -17 305 -51l-29 -189c-100.667 40 -190 60 -268 60c-166.667 0 -250 -63.667 -250 -191c0 -72 53.333 -136.667 160 -194
c184.667 -98.667 283 -152.667 295 -162c106.667 -82.667 160 -191.334 160 -326.001zM857.002 1849l-203 -295h-186l-205 295h164l135 -201l133 201h162z" />
    <glyph glyph-name="scaron" unicode="&#x161;" horiz-adv-x="797" 
d="M727 301c0 -105.333 -37.334 -187.333 -112.001 -246c-67.333 -53.333 -151.666 -80 -252.999 -80c-119.333 0 -214.666 19.333 -285.999 58l10 172c76 -49.333 156 -74 240 -74c52 0 95.667 11 131 33c43.333 26 65 65 65 117c0 50.667 -39 97.334 -117 140.001
l-218 118c-78 56 -117 125.667 -117 209c0 104 35.333 184.667 106 242c66 52.667 153.333 79 262 79c68 0 148 -13.667 240 -41l-16 -168c-20.667 12.667 -54.334 25 -101.001 37c-44 10.667 -78 16 -102 16c-52.667 0 -95.667 -10.333 -129 -31
c-37.333 -22.667 -56 -54.667 -56 -96c0 -56.667 39.333 -105.334 118 -146.001l218 -112c78 -56 117 -131.667 117 -227zM731.999 1485l-203 -295h-186l-205 295h164l135 -201l133 201h162z" />
    <glyph glyph-name="Tcommaaccent" unicode="&#x162;" 
d="M1116 1249h-444v-1249h-205v1249h-444v181h1093v-181zM472 -281v189h199v-144c0 -151.333 -68.333 -227 -205 -227v76c68.667 0 105 35.333 109 106h-103z" />
    <glyph glyph-name="tcommaaccent" unicode="&#x163;" horiz-adv-x="797" 
d="M735 4c-66.667 -19.333 -121.333 -29 -164 -29c-214 0 -321 101.333 -321 304v610h-236v155h236v242l192 62v-304h277v-155h-277v-572c0 -58 16 -104 48 -138c30 -32 68 -48 114 -48c49.333 0 93 12.333 131 37v-164zM472.001 -281v189h199v-144
c0 -151.333 -68.333 -227 -205 -227v76c68.667 0 105 35.333 109 106h-103z" />
    <glyph glyph-name="Tcaron" unicode="&#x164;" 
d="M1116 1249h-444v-1249h-205v1249h-444v181h1093v-181zM862 1849l-203 -295h-186l-205 295h164l135 -201l133 201h162z" />
    <glyph glyph-name="tcaron" unicode="&#x165;" horiz-adv-x="797" 
d="M719 1044l0.000976562 -155h-277v-572c0 -58 16 -104 48 -138c30 -32 68 -48 114 -48c49.333 0 93 12.333 131 37v-164c-66.667 -19.333 -121.334 -29 -164.001 -29c-214 0 -321 101.333 -321 304v610h-236v155h236v242l192 62v-304h277zM549.001 1348v188h199v-143
c0 -152 -68.333 -228 -205 -228v76c68 0 104 35.667 108 107h-102z" />
    <glyph glyph-name="Tbar" unicode="&#x166;" 
d="M1116 1249h-444v-323h289v-131h-289v-795h-205v795h-300v131h300v323h-444v181h1093v-181z" />
    <glyph glyph-name="tbar" unicode="&#x167;" horiz-adv-x="797" 
d="M712 575h-269.998v-258c0 -52.667 13.667 -96 41 -130c29.333 -37.333 69.666 -56 120.999 -56c49.333 0 93 12.333 131 37v-164c-66.667 -19.333 -121.334 -29 -164.001 -29c-214 0 -321 101.333 -321 304v296h-239v131h239v183h-236v155h236v242l192 62v-304h277v-155
h-277v-183h270v-131z" />
    <glyph glyph-name="Utilde" unicode="&#x168;" horiz-adv-x="1479" 
d="M1294 592c0 -199.333 -48.1689 -352 -144.502 -458s-233.166 -159 -410.499 -159s-313.666 52.667 -408.999 158c-97.333 106.667 -146 259.667 -146 459v838h205v-812c0 -308 116.667 -462 350 -462c234 0 351 154 351 462v812h204v-838zM1108 1794
c-21.333 -153.333 -85.668 -230.001 -193.001 -230.001c-36.667 0 -91.5 15.833 -164.5 47.5s-123.167 47.167 -150.5 46.5c-54 4 -85.333 -27.333 -94 -94v0h-94c21.333 153.333 85.333 230 192 230c36.667 0 91.5 -16 164.5 -48s123.167 -47.667 150.5 -47
c54.667 -3.33301 86.334 28.334 95.001 95.001h94z" />
    <glyph glyph-name="utilde" unicode="&#x169;" horiz-adv-x="1251" 
d="M1087 0l-186 0.000976562v166h-4c-28 -58.667 -73.5 -105.167 -136.5 -139.5s-131.5 -51.5 -205.5 -51.5c-260.667 0 -391 149.667 -391 449v620h192v-540c0 -126.667 16 -218.667 48 -276c34 -62.667 92 -95 174 -97c105.333 -2.66699 185.333 36.666 240 117.999
c51.333 74.667 77 178.667 77 312v483h192v-1044zM993 1430c-21.333 -153.333 -85.668 -230.001 -193.001 -230.001c-36.667 0 -91.5 15.833 -164.5 47.5s-123.167 47.167 -150.5 46.5c-54 4 -85.333 -27.333 -94 -94v0h-94c21.333 153.333 85.333 230 192 230
c36.667 0 91.5 -16 164.5 -48s123.167 -47.667 150.5 -47c54.667 -3.33301 86.334 28.334 95.001 95.001h94z" />
    <glyph glyph-name="Umacron" unicode="&#x16a;" horiz-adv-x="1479" 
d="M1294 592c0 -199.333 -48.1689 -352 -144.502 -458s-233.166 -159 -410.499 -159s-313.666 52.667 -408.999 158c-97.333 106.667 -146 259.667 -146 459v838h205v-812c0 -308 116.667 -462 350 -462c234 0 351 154 351 462v812h204v-838zM1068 1624h-606v118h606v-118z
" />
    <glyph glyph-name="umacron" unicode="&#x16b;" horiz-adv-x="1251" 
d="M1087 0l-186 0.000976562v166h-4c-28 -58.667 -73.5 -105.167 -136.5 -139.5s-131.5 -51.5 -205.5 -51.5c-260.667 0 -391 149.667 -391 449v620h192v-540c0 -126.667 16 -218.667 48 -276c34 -62.667 92 -95 174 -97c105.333 -2.66699 185.333 36.666 240 117.999
c51.333 74.667 77 178.667 77 312v483h192v-1044zM938 1260h-606v118h606v-118z" />
    <glyph glyph-name="Ubreve" unicode="&#x16c;" horiz-adv-x="1479" 
d="M1294 592c0 -199.333 -48.1689 -352 -144.502 -458s-233.166 -159 -410.499 -159s-313.666 52.667 -408.999 158c-97.333 106.667 -146 259.667 -146 459v838h205v-812c0 -308 116.667 -462 350 -462c234 0 351 154 351 462v812h204v-838zM1080 1843
c-9.33301 -88 -41.834 -156.5 -97.501 -205.5s-128.167 -73.5 -217.5 -73.5s-162 24.5 -218 73.5s-88.667 117.5 -98 205.5h101c20.667 -106.667 92.334 -160 215.001 -160c122 0 193.667 53.333 215 160h100z" />
    <glyph glyph-name="ubreve" unicode="&#x16d;" horiz-adv-x="1251" 
d="M1087 0l-186 0.000976562v166h-4c-28 -58.667 -73.5 -105.167 -136.5 -139.5s-131.5 -51.5 -205.5 -51.5c-260.667 0 -391 149.667 -391 449v620h192v-540c0 -126.667 16 -218.667 48 -276c34 -62.667 92 -95 174 -97c105.333 -2.66699 185.333 36.666 240 117.999
c51.333 74.667 77 178.667 77 312v483h192v-1044zM950 1479c-9.33301 -88 -41.834 -156.5 -97.501 -205.5s-128.167 -73.5 -217.5 -73.5s-162 24.5 -218 73.5s-88.667 117.5 -98 205.5h101c20.667 -106.667 92.334 -160 215.001 -160c122 0 193.667 53.333 215 160h100z" />
    <glyph glyph-name="Uring" unicode="&#x16e;" horiz-adv-x="1479" 
d="M1294 592c0 -199.333 -48.1689 -352 -144.502 -458s-233.166 -159 -410.499 -159s-313.666 52.667 -408.999 158c-97.333 106.667 -146 259.667 -146 459v838h205v-812c0 -308 116.667 -462 350 -462c234 0 351 154 351 462v812h204v-838zM973.998 1726
c0 -56.667 -20.833 -105.667 -62.5 -147s-90.5 -62 -146.5 -62c-56.667 0 -105.667 20.5 -147 61.5s-62 90.167 -62 147.5s20.5 106.5 61.5 147.5s90.167 61.5 147.5 61.5c56 0 104.833 -20.833 146.5 -62.5s62.5 -90.5 62.5 -146.5zM891.998 1726
c0 34 -12.833 63.667 -38.5 89s-55.167 38 -88.5 38c-34 0 -63.667 -12.667 -89 -38s-38 -55 -38 -89s12.667 -63.667 38 -89s55 -38 89 -38c32.667 0 62 13 88 39s39 55.333 39 88z" />
    <glyph glyph-name="uring" unicode="&#x16f;" horiz-adv-x="1251" 
d="M1087 0l-186 0.000976562v166h-4c-28 -58.667 -73.5 -105.167 -136.5 -139.5s-131.5 -51.5 -205.5 -51.5c-260.667 0 -391 149.667 -391 449v620h192v-540c0 -126.667 16 -218.667 48 -276c34 -62.667 92 -95 174 -97c105.333 -2.66699 185.333 36.666 240 117.999
c51.333 74.667 77 178.667 77 312v483h192v-1044zM844 1362c0 -56.667 -20.833 -105.667 -62.5 -147s-90.5 -62 -146.5 -62c-56.667 0 -105.667 20.5 -147 61.5s-62 90.167 -62 147.5s20.5 106.5 61.5 147.5s90.167 61.5 147.5 61.5c56 0 104.833 -20.833 146.5 -62.5
s62.5 -90.5 62.5 -146.5zM762 1362c0 34 -12.833 63.667 -38.5 89s-55.167 38 -88.5 38c-34 0 -63.667 -12.667 -89 -38s-38 -55 -38 -89s12.667 -63.667 38 -89s55 -38 89 -38c32.667 0 62 13 88 39s39 55.333 39 88z" />
    <glyph glyph-name="Uhungarumlaut" unicode="&#x170;" horiz-adv-x="1479" 
d="M1294 592c0 -199.333 -48.1689 -352 -144.502 -458s-233.166 -159 -410.499 -159s-313.666 52.667 -408.999 158c-97.333 106.667 -146 259.667 -146 459v838h205v-812c0 -308 116.667 -462 350 -462c234 0 351 154 351 462v812h204v-838zM1241 1849l-268 -295h-137
l182 295h223zM870.998 1849l-269 -295h-137l182 295h224z" />
    <glyph glyph-name="uhungarumlaut" unicode="&#x171;" horiz-adv-x="1251" 
d="M1087 0l-186 0.000976562v166h-4c-28 -58.667 -73.5 -105.167 -136.5 -139.5s-131.5 -51.5 -205.5 -51.5c-260.667 0 -391 149.667 -391 449v620h192v-540c0 -126.667 16 -218.667 48 -276c34 -62.667 92 -95 174 -97c105.333 -2.66699 185.333 36.666 240 117.999
c51.333 74.667 77 178.667 77 312v483h192v-1044zM1101 1485l-268 -295h-137l182 295h223zM731 1485l-269 -295h-137l182 295h224z" />
    <glyph glyph-name="Uogonek" unicode="&#x172;" horiz-adv-x="1479" 
d="M389 1430l-0.000976562 -812.001c0 -308 116.667 -462 350 -462c234 0 351 154 351 462v812h204v-838c0 -268 -86.667 -449.667 -260 -545c-78.667 -43.333 -134.667 -80.333 -168 -111c-57.333 -52 -86 -110.667 -86 -176c0 -62.667 22.667 -94 68 -94
c44.667 0 83 20 115 60l63 -17c-56 -83.333 -133.667 -125 -233 -125c-112 0 -168 56 -168 168c0 72.667 60 149.334 180 230.001c-11.333 -2.66699 -21.333 -4.5 -30 -5.5s-20.667 -1.5 -36 -1.5c-177.333 0 -313.666 52.667 -408.999 158
c-97.333 106.667 -146 259.667 -146 459v838h205z" />
    <glyph glyph-name="uogonek" unicode="&#x173;" horiz-adv-x="1251" 
d="M1072 -293c-56.667 -83.333 -134.666 -124.997 -233.999 -124.997c-112 0 -168 56 -168 168c0 85.333 77 172 231 260v156h-4c-29.333 -60.667 -77 -108.334 -143 -143.001c-60.667 -32 -127 -48 -199 -48c-260.667 0 -391 149.667 -391 449v620h192v-540
c0 -108.667 11 -190.334 33 -245.001c34 -83.333 97 -126 189 -128c113.333 -2.66699 197 42.666 251 135.999c44 74.667 66 172.667 66 294v483h192v-1044h-100c-107.333 -87.333 -161 -168 -161 -242c0 -62.667 22.333 -94 67 -94c45.333 0 83.666 19.667 114.999 59z" />
    <glyph glyph-name="Wcircumflex" unicode="&#x174;" horiz-adv-x="2048" 
d="M2044 1430l-440 -1430h-265l-311 1249h-4l-313 -1249h-275l-432 1430h225l342 -1225h4l306 1225h290l310 -1225h4l342 1225h217zM1332 1554h-164l-135 201l-133 -201h-162l202 295h187z" />
    <glyph glyph-name="wcircumflex" unicode="&#x175;" horiz-adv-x="1706" 
d="M1681 1044l-335 -1044h-224l-270 877h-4l-264 -877h-224l-335 1044h211l239 -864h4l266 864h228l262 -864h4l254 864h188zM1162 1190h-164l-135 201l-133 -201h-162l202 295h187z" />
    <glyph glyph-name="Ycircumflex" unicode="&#x176;" horiz-adv-x="1366" 
d="M1343 1430l-557 -832v-598h-204v598l-559 832h239l426 -642l416 642h239zM982 1554h-164l-135 201l-133 -201h-162l202 295h187z" />
    <glyph glyph-name="ycircumflex" unicode="&#x177;" horiz-adv-x="1024" 
d="M991 1044l-385.001 -1067c-51.333 -142.667 -95.333 -239.667 -132 -291c-68 -94 -157.667 -141 -269 -141c-33.333 0 -77 5 -131 15l12 157c32.667 -10.667 62.667 -16 90 -16c72.667 0 132.334 40.333 179.001 121c34 58 51 103.667 51 137c0 6 -12.333 43 -37 111
l-355 974h211l281 -864h4l287 864h194zM831.999 1190h-164l-135 201l-133 -201h-162l202 295h187z" />
    <glyph glyph-name="Ydieresis" unicode="&#x178;" horiz-adv-x="1366" 
d="M1343 1430l-557 -832v-598h-204v598l-559 832h239l426 -642l416 642h239zM954 1568h-193v205h193v-205zM618 1568h-193v205h193v-205z" />
    <glyph glyph-name="Zacute" unicode="&#x179;" 
d="M1055 0h-989v184l741 1065h-717v181h952v-185l-739 -1065h752v-180zM855 1849l-268 -295h-137l182 295h223z" />
    <glyph glyph-name="zacute" unicode="&#x17a;" horiz-adv-x="1024" 
d="M936 0h-848v168l602 721h-573v155h796v-167l-602 -721h625v-156zM795 1485l-268 -295h-137l182 295h223z" />
    <glyph glyph-name="Zdotaccent" unicode="&#x17b;" 
d="M1055 0h-989v184l741 1065h-717v181h952v-185l-739 -1065h752v-180zM681 1568h-193v205h193v-205z" />
    <glyph glyph-name="zdotaccent" unicode="&#x17c;" horiz-adv-x="1024" 
d="M936 0h-848v168l602 721h-573v155h796v-167l-602 -721h625v-156zM611 1204h-193v205h193v-205z" />
    <glyph glyph-name="Zcaron" unicode="&#x17d;" 
d="M1055 0h-989v184l741 1065h-717v181h952v-185l-739 -1065h752v-180zM857 1849l-203 -295h-186l-205 295h164l135 -201l133 201h162z" />
    <glyph glyph-name="zcaron" unicode="&#x17e;" horiz-adv-x="1024" 
d="M936 0h-848v168l602 721h-573v155h796v-167l-602 -721h625v-156zM832 1485l-203 -295h-186l-205 295h164l135 -201l133 201h162z" />
    <glyph glyph-name="longs" unicode="&#x17f;" horiz-adv-x="797" 
d="M768 1548l-7.99902 -155.001c-22.667 8 -53.334 12 -92.001 12c-76.667 0 -129 -24.667 -157 -74c-20 -35.333 -30 -93.333 -30 -174v-1157h-192v889h-246v155h246v97c0 138.667 22.667 240.334 68 305.001c54.667 76.667 148.667 115 282 115c34 0 77 -4.33301 129 -13z
" />
    <glyph glyph-name="florin" unicode="&#x192;" 
d="M1071 1438l-29 -164c-38 8 -66 12 -84 12c-68 0 -117 -21 -147 -63c-19.333 -28 -37 -82 -53 -162l-43 -213h258l-29 -143h-258l-141 -754c-26.667 -140 -59.667 -236.667 -99 -290c-56 -77.333 -147.333 -116 -274 -116c-38 0 -72.667 3.66699 -104 11l32 165
c16.667 -5.33301 37.334 -8 62.001 -8c58.667 0 102 22.667 130 68c18.667 29.333 34.667 79 48 149l145 775h-229l27 143h229l43 223c23.333 122 56.666 211 99.999 267c58.667 77.333 147.667 116 267 116c12 0 61.667 -5.33301 149 -16z" />
    <glyph glyph-name="uni01F4" unicode="&#x1f4;" horiz-adv-x="1479" 
d="M1298 39c-123.333 -42.667 -268.667 -64 -436 -64c-227.333 0 -409.666 67.667 -546.999 203s-206 316.333 -206 543c0 218 71.333 395.333 214 532c140.667 134 321 201 541 201c141.333 0 281.333 -24 420 -72l-16 -206c-100.667 65.333 -232 98 -394 98
c-162.667 0 -295.334 -53.333 -398.001 -160c-100 -104.667 -150 -237.667 -150 -399c0 -164.667 52.667 -300 158 -406c102 -102 228.667 -153 380 -153c71.333 0 148 8 230 24v434h-301v168h505v-743zM1105 1849l-268 -295h-137l182 295h223z" />
    <glyph glyph-name="uni01F5" unicode="&#x1f5;" horiz-adv-x="1251" 
d="M1087 45c0 -333.333 -179.332 -500 -537.999 -500c-110 0 -235 24 -375 72l21 178c136.667 -62.667 262 -94 376 -94c101.333 0 180.666 32 237.999 96s86 151.333 86 262v103h-4c-81.333 -108 -198 -162 -350 -162c-142.667 0 -254.667 52 -336 156
c-74 94 -111 213.333 -111 358c0 147.333 38.333 273.333 115 378c86.667 118 204 177 352 177c168 0 282.667 -60 344 -180h4v155h178v-999zM895.001 510c0 115.333 -25.334 209.667 -76.001 283c-55.333 80 -131.666 120 -228.999 120
c-90.667 0 -163.667 -42.333 -219 -127c-48 -75.333 -72 -162.666 -72 -261.999c0 -102 26 -188 78 -258c54.667 -73.333 125.667 -110 213 -110c88.667 0 162 34.667 220 104c56.667 67.333 85 150.666 85 249.999zM935 1485l-268 -295h-137l182 295h223z" />
    <glyph glyph-name="AEacute" unicode="&#x1fc;" horiz-adv-x="1933" 
d="M1788 0h-711l-22 360h-609l-215 -360h-227l864 1430h899v-181h-567l27 -418h504v-180h-494l29 -471h522v-180zM1044 528l-45 758h-4l-450 -758h499zM1410 1849l-268 -295h-137l182 295h223z" />
    <glyph glyph-name="aeacute" unicode="&#x1fd;" horiz-adv-x="1821" 
d="M1737 479l-739.999 -0.000976562c0 -97.333 32.5 -179.666 97.5 -246.999s146.5 -101 244.5 -101c102.667 0 199 36.333 289 109v-195c-102 -46.667 -201.667 -70 -299 -70c-241.333 0 -391.333 81.333 -450 244h-5c-20 -78.667 -68.667 -140 -146 -184
c-70 -40 -150.333 -60 -241 -60c-104.667 0 -196 29 -274 87c-86 64 -129 146.333 -129 247c0 127.333 61.333 219.333 184 276c86 40 192.667 60 320 60c20 0 56.333 -2 109 -6c46 -4 82 -5.33301 108 -4c0 185.333 -98.333 278 -295 278
c-95.333 0 -192.333 -35.333 -291 -106l-10 162c105.333 66.667 220.666 100 345.999 100c174 0 294 -60.667 360 -182c68.667 121.333 189.667 182 363 182c164 0 284.667 -60 362 -180c64.667 -100 97 -236.667 97 -410zM1532 622.999
c0 73.333 -22.999 138.667 -68.999 196c-50 62.667 -112.333 94 -187 94c-82.667 0 -149.834 -27.833 -201.501 -83.5s-77.5 -124.5 -77.5 -206.5h535zM805.002 496c-5.33301 0 -28.5 1 -69.5 3s-79.167 3 -114.5 3c-221.333 0 -332 -66.333 -332 -199
c0 -54.667 21.333 -98 64 -130c38 -28 85 -42 141 -42c90 0 164.667 36.333 224 109c58 70.667 87 156 87 256zM1245 1485l-268 -295h-137l182 295h223z" />
    <glyph glyph-name="Oslashacute" unicode="&#x1fe;" horiz-adv-x="1593" 
d="M1485 715c0 -221.333 -60.333 -398.999 -181 -532.999c-124 -138 -293 -207 -507 -207c-164.667 0 -303.334 41.667 -416.001 125l-111 -143l-77 53l116 152c-133.333 133.333 -200 317.666 -200 552.999c0 216.667 60.333 392.667 181 528
c125.333 140.667 294.333 211 507 211c158.667 0 296.334 -42.333 413.001 -127l109 141l74 -57l-111 -145c135.333 -137.333 203 -321 203 -551zM1268 715.001c0 153.333 -38.335 281.667 -115.002 385l-649 -842c76.667 -68 174.334 -102 293.001 -102
c154.667 0 274.334 57.333 359.001 172c74.667 102 112 231 112 387zM1090 1171c-79.333 68.667 -177 103 -293 103c-150 0 -268 -57 -354 -171c-78 -102.667 -117 -232 -117 -388c0 -157.333 37.333 -286.333 112 -387zM1120 1849l-268 -295h-137l182 295h223z" />
    <glyph glyph-name="oslashacute" unicode="&#x1ff;" horiz-adv-x="1251" 
d="M1157 522c0 -152 -49.333 -280.334 -148 -385.001c-100.667 -108 -228 -162 -382 -162c-121.333 0 -227.333 34.333 -318 103l-116 -141l-62 51l117 145c-102.667 104.667 -154 234.334 -154 389.001c0 160 49.167 291.167 147.5 393.5s226.833 153.5 385.5 153.5
c122.667 0 227 -31.333 313 -94l109 133l61 -51l-109 -133c104 -102 156 -236 156 -402zM825 835.999c-54 51.333 -120 77 -198 77c-99.333 0 -180 -40.333 -242 -121c-57.333 -74.667 -86 -164.667 -86 -270c0 -95.333 22.667 -177.333 68 -246zM952 521.999
c0 95.333 -24.333 179.333 -73 252l-461 -563c55.333 -53.333 125 -80 209 -80c104.667 0 187 42 247 126c52 72.667 78 161 78 265zM945 1485l-268 -295h-137l182 295h223z" />
    <glyph glyph-name="Scommaaccent" unicode="&#x218;" horiz-adv-x="1024" 
d="M928 401c0 -144 -51.3311 -253 -153.998 -327c-90.667 -66 -213.334 -99 -368.001 -99c-74 0 -171.667 20 -293 60l20 190c112.667 -46 211.667 -69 297 -69c69.333 0 130.666 17.667 183.999 53c64.667 43.333 97 103.333 97 180c0 86.667 -53.333 159.667 -160 219
l-295 155c-106.667 75.333 -160 176 -160 302c0 122.667 44.333 219.334 133 290.001c83.333 66 192 99 326 99c107.333 0 209 -17 305 -51l-29 -189c-100.667 40 -190 60 -268 60c-166.667 0 -250 -63.667 -250 -191c0 -72 53.333 -136.667 160 -194
c184.667 -98.667 283 -152.667 295 -162c106.667 -82.667 160 -191.334 160 -326.001zM382.002 -281v189h199v-144c0 -151.333 -68.333 -227 -205 -227v76c68.667 0 105 35.333 109 106h-103z" />
    <glyph glyph-name="scommaaccent" unicode="&#x219;" horiz-adv-x="797" 
d="M727 301c0 -105.333 -37.334 -187.333 -112.001 -246c-67.333 -53.333 -151.666 -80 -252.999 -80c-119.333 0 -214.666 19.333 -285.999 58l10 172c76 -49.333 156 -74 240 -74c52 0 95.667 11 131 33c43.333 26 65 65 65 117c0 50.667 -39 97.334 -117 140.001
l-218 118c-78 56 -117 125.667 -117 209c0 104 35.333 184.667 106 242c66 52.667 153.333 79 262 79c68 0 148 -13.667 240 -41l-16 -168c-20.667 12.667 -54.334 25 -101.001 37c-44 10.667 -78 16 -102 16c-52.667 0 -95.667 -10.333 -129 -31
c-37.333 -22.667 -56 -54.667 -56 -96c0 -56.667 39.333 -105.334 118 -146.001l218 -112c78 -56 117 -131.667 117 -227zM281.999 -281v189h199v-144c0 -151.333 -68.333 -227 -205 -227v76c68.667 0 105 35.333 109 106h-103z" />
    <glyph glyph-name="uni0259" unicode="&#x259;" 
d="M1044 504c0 -154 -42.6699 -279.332 -128.003 -375.999c-89.333 -102 -209.666 -153 -360.999 -153c-307.333 0 -461 196.667 -461 590h746c0 99.333 -32.667 182.166 -98 248.499s-147.333 99.5 -246 99.5c-58 0 -121.667 -12 -191 -36
c-59.333 -21.333 -103 -44 -131 -68v192c68.667 24.667 111 39 127 43c60.667 16.667 128.334 25 203.001 25c178.667 0 314.334 -50 407.001 -150c88.667 -96.667 133 -235 133 -415zM839.997 422.001l-540.999 -0.000976562c0 -83.333 22.333 -151.666 67 -204.999
c47.333 -57.333 111.666 -86 192.999 -86c82 0 148.333 28.667 199 86c46 52.667 73.333 121 82 205z" />
    <glyph glyph-name="circumflex" unicode="&#x2c6;" horiz-adv-x="569" 
d="M582 1190h-164l-135 201l-133 -201h-162l202 295h187z" />
    <glyph glyph-name="caron" unicode="&#x2c7;" horiz-adv-x="569" 
d="M582 1485l-203 -295h-186l-205 295h164l135 -201l133 201h162z" />
    <glyph glyph-name="uni02C9" unicode="&#x2c9;" horiz-adv-x="569" 
d="M588 1260h-606v118h606v-118z" />
    <glyph glyph-name="breve" unicode="&#x2d8;" horiz-adv-x="569" 
d="M600 1479c-9.33301 -88 -41.834 -156.5 -97.501 -205.5s-128.167 -73.5 -217.5 -73.5s-162 24.5 -218 73.5s-88.667 117.5 -98 205.5h101c20.667 -106.667 92.334 -160 215.001 -160c122 0 193.667 53.333 215 160h100z" />
    <glyph glyph-name="dotaccent" unicode="&#x2d9;" horiz-adv-x="569" 
d="M381 1204h-193v205h193v-205z" />
    <glyph glyph-name="ring" unicode="&#x2da;" horiz-adv-x="569" 
d="M494 1362c0 -56.667 -20.833 -105.667 -62.5 -147s-90.5 -62 -146.5 -62c-56.667 0 -105.667 20.5 -147 61.5s-62 90.167 -62 147.5s20.5 106.5 61.5 147.5s90.167 61.5 147.5 61.5c56 0 104.833 -20.833 146.5 -62.5s62.5 -90.5 62.5 -146.5zM412 1362
c0 34 -12.833 63.667 -38.5 89s-55.167 38 -88.5 38c-34 0 -63.667 -12.667 -89 -38s-38 -55 -38 -89s12.667 -63.667 38 -89s55 -38 89 -38c32.667 0 62 13 88 39s39 55.333 39 88z" />
    <glyph glyph-name="ogonek" unicode="&#x2db;" horiz-adv-x="569" 
d="M541 -305c-56.667 -83.333 -134.666 -125 -233.999 -125c-112 0 -168 56 -168 168c0 86 78 173.333 234 262h98c-117.333 -92 -176 -176.667 -176 -254c0 -62.667 22.333 -94 67 -94c45.333 0 83.666 19.667 114.999 59z" />
    <glyph glyph-name="tilde" unicode="&#x2dc;" horiz-adv-x="569" 
d="M633 1430c-21.333 -153.333 -85.668 -230.001 -193.001 -230.001c-36.667 0 -91.5 15.833 -164.5 47.5s-123.167 47.167 -150.5 46.5c-54 4 -85.333 -27.333 -94 -94v0h-94c21.333 153.333 85.333 230 192 230c36.667 0 91.5 -16 164.5 -48s123.167 -47.667 150.5 -47
c54.667 -3.33301 86.334 28.334 95.001 95.001h94z" />
    <glyph glyph-name="hungarumlaut" unicode="&#x2dd;" horiz-adv-x="569" 
d="M741 1485l-268 -295h-137l182 295h223zM371 1485l-269 -295h-137l182 295h224z" />
    <glyph glyph-name="uni0374" unicode="&#x374;" horiz-adv-x="643" 
d="M143 858l189 572h215l-287 -572h-117z" />
    <glyph glyph-name="uni0375" unicode="&#x375;" horiz-adv-x="643" 
d="M143 0l189 571h215l-287 -571h-117z" />
    <glyph glyph-name="uni037A" unicode="&#x37a;" horiz-adv-x="1214" 
d="M813 -377c-46.667 -26 -96.333 -39 -149 -39c-55.333 0 -93 19.667 -113 59c-15.333 28 -23 72.667 -23 134v106h148v-53c0 -72.667 19 -109 57 -109c26 0 52.667 7.66699 80 23v-121z" />
    <glyph glyph-name="uni037E" unicode="&#x37e;" horiz-adv-x="569" 
d="M41 -272l129 501h229l-174 -501h-184zM399 1044v-229h-229v229h229z" />
    <glyph glyph-name="tonos" unicode="&#x384;" horiz-adv-x="190" 
d="M-326 1192l-24 315h190l-24 -315h-142z" />
    <glyph glyph-name="dieresistonos" unicode="&#x385;" horiz-adv-x="1229" 
d="M977 1204h-193v205h193v-205zM795 1546l-174 -344h-138l88 344h224zM434 1204h-192v205h192v-205z" />
    <glyph glyph-name="Alphatonos" unicode="&#x386;" horiz-adv-x="1479" 
d="M1455 0h-224l-146 360h-699l-145 -360h-216l610 1430h216zM1020 528l-285 709l-283 -709h568zM406 1427l-269 -294h-137l182 294h224z" />
    <glyph glyph-name="anoteleia" unicode="&#x387;" horiz-adv-x="569" 
d="M164 936c0 32.667 12.167 60.667 36.5 84s53.166 35 86.499 35c32.667 0 60.667 -11.667 84 -35s35 -51.333 35 -84c0 -33.333 -11.667 -62.166 -35 -86.499s-51.333 -36.5 -84 -36.5c-33.333 0 -62.166 12.167 -86.499 36.5s-36.5 53.166 -36.5 86.499z" />
    <glyph glyph-name="Epsilontonos" unicode="&#x388;" horiz-adv-x="1507" 
d="M1362 0h-801v1430h801v-181h-596v-418h543v-180h-543v-471h596v-180zM406 1427l-269 -294h-137l182 294h224z" />
    <glyph glyph-name="Etatonos" unicode="&#x389;" horiz-adv-x="1847" 
d="M1655 0h-205v651h-684v-651h-205v1430h205v-599h684v599h205v-1430zM406 1427l-269 -294h-137l182 294h224z" />
    <glyph glyph-name="Iotatonos" unicode="&#x38a;" horiz-adv-x="938" 
d="M406 1427l-269 -294h-137l182 294h224zM756 0h-205v1430h205v-1430z" />
    <glyph glyph-name="Omicrontonos" unicode="&#x38c;" horiz-adv-x="1839" 
d="M1731 715c0 -220 -59.3359 -396.667 -178.003 -530c-123.333 -140 -293.666 -210 -510.999 -210s-387.666 69.667 -510.999 209c-118 133.333 -177 310.333 -177 531c0 217.333 59.667 393.333 179 528c124.667 140.667 294.334 211 509.001 211
c213.333 0 383 -70.667 509 -212c120 -135.333 180 -311 180 -527zM405.997 1427l-269 -294h-137l182 294h224zM1513 715c0 156 -38.335 285.333 -115.002 388c-85.333 114 -204 171 -356 171c-151.333 0 -269.666 -57 -354.999 -171c-77.333 -102.667 -116 -232 -116 -388
c0 -160 37.667 -290.333 113 -391c84 -112 203.333 -168 358 -168s274.334 57.333 359.001 172c74.667 102 112 231 112 387z" />
    <glyph glyph-name="Upsilontonos" unicode="&#x38e;" horiz-adv-x="1878" 
d="M1855 1430l-557 -832v-598h-204v598l-559 832h239l426 -642l416 642h239zM406 1427l-269 -294h-137l182 294h224z" />
    <glyph glyph-name="Omegatonos" unicode="&#x38f;" horiz-adv-x="1862" 
d="M1753 0h-557.001v180c224 114.667 336 314 336 598c0 150.667 -39 270 -117 358c-82 92 -197.333 138 -346 138c-151.333 0 -266.666 -45.667 -345.999 -137c-75.333 -86 -113 -205.667 -113 -359c0 -281.333 110.667 -480.666 332 -597.999v-180h-553v180h340
c-224 125.333 -336 326 -336 602c0 205.333 61.333 368.666 184 489.999s286.667 182 492 182c204.667 0 369.167 -61 493.5 -183s186.5 -285 186.5 -489c0 -276 -112 -475.333 -336 -598h340v-184zM405.999 1427l-269 -294h-137l182 294h224z" />
    <glyph glyph-name="iotadieresistonos" unicode="&#x390;" horiz-adv-x="569" 
d="M381 0h-193v1044h193v-1044zM657 1204h-193v205h193v-205zM475 1546l-174 -344h-138l88 344h224zM114 1204h-192v205h192v-205z" />
    <glyph glyph-name="Alpha" unicode="&#x391;" horiz-adv-x="1479" 
d="M1455 0h-224l-146 360h-699l-145 -360h-216l610 1430h216zM1020 528l-285 709l-283 -709h568z" />
    <glyph glyph-name="Beta" unicode="&#x392;" horiz-adv-x="1251" 
d="M1096 381c0 -254 -181.667 -381.001 -545 -381.001h-381v1430h387c334.667 0 502 -120.333 502 -361c0 -177.333 -98.333 -290.666 -295 -339.999v-4c99.333 -8.66699 179 -43 239 -103c62 -62 93 -142.333 93 -241zM854 1049c0 142 -87.999 213.001 -263.999 213.001
h-215v-443h112c115.333 0 197.666 10.333 246.999 31c80 33.333 120 99.666 120 198.999zM879.001 399c0 168 -123.667 252 -371 252h-133v-483h153c234 0 351 77 351 231z" />
    <glyph glyph-name="Gamma" unicode="&#x393;" horiz-adv-x="981" 
d="M928 1249h-553v-1249h-205v1430h758v-181z" />
    <glyph glyph-name="Delta" unicode="&#x394;" horiz-adv-x="1479" 
d="M1454 0h-1429l610 1430h217zM1159 180l-422 1057l-422 -1057h844z" />
    <glyph glyph-name="Epsilon" unicode="&#x395;" 
d="M993 0h-800v1430h800v-181h-596v-418h543v-180h-543v-471h596v-180z" />
    <glyph glyph-name="Zeta" unicode="&#x396;" 
d="M1055 0h-989v184l741 1065h-717v181h952v-185l-739 -1065h752v-180z" />
    <glyph glyph-name="Eta" unicode="&#x397;" horiz-adv-x="1479" 
d="M1285 0h-204v651h-684v-651h-204v1430h204v-599h684v599h204v-1430z" />
    <glyph glyph-name="Theta" unicode="&#x398;" horiz-adv-x="1593" 
d="M1485 717c0 -219.333 -59 -396.333 -177 -531c-124 -140.667 -294.333 -211 -511 -211c-218.667 0 -389.334 70 -512.001 210c-117.333 133.333 -176 310.666 -176 531.999c0 216.667 59.667 392.334 179 527.001c124.667 140 294.334 210 509.001 210
c214 0 383.667 -70 509 -210c119.333 -134 179 -309.667 179 -527zM1268 717c0 153.333 -38.999 281.667 -116.999 385c-86.667 114.667 -203.334 172 -350.001 172h-13c-147.333 0 -263.333 -57.667 -348 -173c-76 -103.333 -114 -231.333 -114 -384
c0 -157.333 36.667 -286.333 110 -387c84.667 -116 205 -174 361 -174c154 0 273.333 57.333 358 172c75.333 102 113 231.667 113 389zM1128 655.001h-667v172h667v-172z" />
    <glyph glyph-name="Iota" unicode="&#x399;" horiz-adv-x="569" 
d="M387 0h-205v1430h205v-1430z" />
    <glyph glyph-name="Kappa" unicode="&#x39a;" horiz-adv-x="1366" 
d="M1333 0h-299l-637 700v-700h-204v1430h204v-629l611 629h272l-672 -676z" />
    <glyph glyph-name="Lambda" unicode="&#x39b;" horiz-adv-x="1479" 
d="M1454 0h-221l-496 1237l-495 -1237h-217l610 1430h217z" />
    <glyph glyph-name="Mu" unicode="&#x39c;" horiz-adv-x="1933" 
d="M1749 0h-205v1237h-4l-473 -1237h-201l-473 1237h-4v-1237h-205v1430h338l449 -1188l440 1188h338v-1430z" />
    <glyph glyph-name="Nu" unicode="&#x39d;" horiz-adv-x="1479" 
d="M1298 0h-262l-647 1176h-4v-1176h-205v1430h279l631 -1151h4v1151h204v-1430z" />
    <glyph glyph-name="Xi" unicode="&#x39e;" horiz-adv-x="1212" 
d="M1114 1249h-1020v181h1020v-181zM1016 651h-828v180h828v-180zM1130 0h-1048v180h1048v-180z" />
    <glyph glyph-name="Omicron" unicode="&#x39f;" horiz-adv-x="1593" 
d="M1485 715c0 -221.333 -60.333 -399 -181 -533c-124 -138 -293 -207 -507 -207c-214.667 0 -384 69 -508 207c-120 134 -180 311.667 -180 533c0 216.667 60.333 392.667 181 528c125.333 140.667 294.333 211 507 211c212 0 381 -70.333 507 -211
c120.667 -135.333 181 -311.333 181 -528zM1268 715c0 156 -39.334 285.333 -118.001 388c-86 114 -203.667 171 -353 171c-150 0 -268 -57 -354 -171c-78 -102.667 -117 -232 -117 -388s37.333 -285 112 -387c84 -114.667 203.667 -172 359 -172
c154.667 0 274.334 57.333 359.001 172c74.667 102 112 231 112 387z" />
    <glyph glyph-name="Pi" unicode="&#x3a0;" horiz-adv-x="1479" 
d="M1286 0h-205v1249h-684v-1249h-204v1430h1093v-1430z" />
    <glyph glyph-name="Rho" unicode="&#x3a1;" 
d="M1081 1001c0 -147.333 -51.999 -258.667 -155.999 -334c-88.667 -64 -205.334 -96 -350.001 -96h-200v-571h-205v1430h375c357.333 0 536 -143 536 -429zM864.001 1004c0 81.333 -36.6689 144.667 -110.002 190c-59.333 36.667 -127.666 55 -204.999 55h-174v-497h203
c74.667 0 138.334 18.333 191.001 55c63.333 45.333 95 111 95 197z" />
    <glyph glyph-name="Sigma" unicode="&#x3a3;" horiz-adv-x="1141" 
d="M1057 0h-991v184l458 545l-438 516v185h950v-181h-717l447 -520l-463 -549h754v-180z" />
    <glyph glyph-name="Tau" unicode="&#x3a4;" 
d="M1116 1249h-444v-1249h-205v1249h-444v181h1093v-181z" />
    <glyph glyph-name="Upsilon" unicode="&#x3a5;" horiz-adv-x="1366" 
d="M1343 1430l-557 -832v-598h-204v598l-559 832h239l426 -642l416 642h239z" />
    <glyph glyph-name="Phi" unicode="&#x3a6;" horiz-adv-x="1569" 
d="M1466 713c0 -154.667 -59.6689 -281.667 -179.002 -381c-112.667 -92.667 -248 -139 -406 -139v-193h-193v193c-158 0 -293.333 46.333 -406 139c-120 98.667 -180 225.667 -180 381c0 169.333 55.667 306.333 167 411c108.667 102.667 248.334 154 419.001 154v152h193
v-152c170.667 0 310.334 -51.333 419.001 -154c110.667 -104.667 166 -241.667 166 -411zM1253 733c0 234.667 -123.999 364.333 -371.999 389v-774c113.333 0 203.666 35.667 270.999 107s101 164 101 278zM687.999 347.999v774c-248.667 -25.333 -373 -155 -373 -389
c0 -112.667 34.167 -205 102.5 -277s158.5 -108 270.5 -108z" />
    <glyph glyph-name="Chi" unicode="&#x3a7;" horiz-adv-x="1366" 
d="M1350 0h-258l-422 606l-408 -606h-246l527 743l-480 687h246l381 -549l379 549h234l-482 -682z" />
    <glyph glyph-name="Psi" unicode="&#x3a8;" horiz-adv-x="1786" 
d="M1612 868c0 -199.333 -53.667 -345.334 -161 -438.001c-100 -87.333 -251.333 -131 -454 -131v-299h-204v299c-204.667 0 -357 43 -457 129c-108 92.667 -162 239.334 -162 440.001v562h205v-582c0 -248.667 138 -373 414 -373v955h204v-955
c134.667 10.667 233 40 295 88c76.667 59.333 115 154.333 115 285v582h205v-562z" />
    <glyph glyph-name="Omega" unicode="&#x3a9;" horiz-adv-x="1581" 
d="M1473 0h-558.001v180c224 114.667 336 314 336 598c0 150.667 -39 270 -117 358c-81.333 92 -196.666 138 -345.999 138c-151.333 0 -266.666 -45.667 -345.999 -137c-74.667 -86 -112 -205.667 -112 -359c0 -281.333 110.667 -480.666 332 -597.999v-180h-553v180h340
c-224 125.333 -336 326 -336 602c0 205.333 61.167 368.666 183.5 489.999s286.166 182 491.499 182c204.667 0 369.167 -61 493.5 -183s186.5 -285 186.5 -489c0 -276 -111.667 -475.333 -335 -598l340 -4v-180z" />
    <glyph glyph-name="Iotadieresis" unicode="&#x3aa;" horiz-adv-x="569" 
d="M387 0h-205v1430h205v-1430zM549 1568h-193v205h193v-205zM213 1568h-193v205h193v-205z" />
    <glyph glyph-name="Upsilondieresis" unicode="&#x3ab;" horiz-adv-x="1366" 
d="M1343 1430l-557 -832v-598h-204v598l-559 832h239l426 -642l416 642h239zM954 1568h-193v205h193v-205zM618 1568h-193v205h193v-205z" />
    <glyph glyph-name="alphatonos" unicode="&#x3ac;" horiz-adv-x="1251" 
d="M1087 0h-184.001v147c-33.333 -45.333 -77 -83.333 -131 -114c-67.333 -38.667 -143.666 -58 -228.999 -58c-148 0 -262 59 -342 177c-71.333 103.333 -107 233 -107 389c0 150 36.667 273 110 369c81.333 106 195 159 341 159c162 0 277.333 -56 346 -168l4 143h192
v-1044zM894.999 520c0 106 -24.332 195.333 -72.999 268c-56.667 83.333 -135.334 125 -236.001 125c-99.333 0 -174.333 -41.667 -225 -125c-41.333 -68.667 -62 -156 -62 -262c0 -96.667 22 -182.667 66 -258c52.667 -91.333 127 -137 223 -137c100 0 178.333 43 235 129
c48 72 72 158.667 72 260zM890 1487l-266 -295h-139l184 295h221z" />
    <glyph glyph-name="epsilontonos" unicode="&#x3ad;" horiz-adv-x="950" 
d="M868 35c-98.667 -40 -210.667 -59.999 -336 -59.999c-122 0 -220.333 21 -295 63c-95.333 52.667 -143 135.667 -143 249c0 62.667 23 119 69 169c44 47.333 97.667 78.333 161 93c-56 11.333 -102.167 38.166 -138.5 80.499s-54.5 91.833 -54.5 148.5
c0 98.667 40 173.667 120 225c68 44 153.667 66 257 66c135.333 0 252.666 -20.333 351.999 -61l-22 -164c-77.333 46 -180.666 69 -309.999 69c-128 0 -192 -46.333 -192 -139c0 -54.667 26.667 -95 80 -121c41.333 -20 92.333 -30 153 -30h144v-144h-156
c-169.333 0 -254 -58.667 -254 -176c0 -58.667 26.667 -103.667 80 -135c42 -24.667 93.333 -37 154 -37c87.333 0 195 26.667 323 80zM790 1487l-266 -295h-139l184 295h221z" />
    <glyph glyph-name="etatonos" unicode="&#x3ae;" horiz-adv-x="1251" 
d="M1087 -430h-191.999v971c0 110.667 -10.667 192.667 -32 246c-33.333 84 -96.333 126 -189 126c-112.667 0 -196.334 -45.333 -251.001 -136c-44.667 -74.667 -67 -172.667 -67 -294v-483h-192v1044h186v-165c31.333 60 80 107.333 146 142c62 32 128.667 48 200 48
c260.667 0 391 -149.333 391 -448v-1051zM890.001 1487l-266 -295h-139l184 295h221z" />
    <glyph glyph-name="iotatonos" unicode="&#x3af;" horiz-adv-x="569" 
d="M381 0h-193v1044h193v-1044zM590 1487l-266 -295h-139l184 295h221z" />
    <glyph glyph-name="upsilondieresistonos" unicode="&#x3b0;" horiz-adv-x="1229" 
d="M1065 430c0 -142.667 -39.499 -254.167 -118.499 -334.5s-189.833 -120.5 -332.5 -120.5c-140.667 0 -250.834 40.5 -330.501 121.5s-119.5 192.167 -119.5 333.5v614h192v-606c0 -204.667 86 -307 258 -307s258 102.333 258 307v606h193v-614zM1017 1204h-193v205h193
v-205zM835.001 1546l-174 -344h-138l88 344h224zM474.001 1204h-192v205h192v-205z" />
    <glyph glyph-name="alpha" unicode="&#x3b1;" horiz-adv-x="1251" 
d="M1087 0h-184.001v147c-33.333 -45.333 -77 -83.333 -131 -114c-67.333 -38.667 -143.666 -58 -228.999 -58c-148 0 -262 59 -342 177c-71.333 103.333 -107 233 -107 389c0 150 36.667 273 110 369c81.333 106 195 159 341 159c162 0 277.333 -56 346 -168l4 143h192
v-1044zM894.999 520c0 106 -24.332 195.333 -72.999 268c-56.667 83.333 -135.334 125 -236.001 125c-99.333 0 -174.333 -41.667 -225 -125c-41.333 -68.667 -62 -156 -62 -262c0 -96.667 22 -182.667 66 -258c52.667 -91.333 127 -137 223 -137c100 0 178.333 43 235 129
c48 72 72 158.667 72 260z" />
    <glyph glyph-name="beta" unicode="&#x3b2;" horiz-adv-x="1241" 
d="M1147 463c0 -137.333 -40.334 -252.001 -121.001 -344.001c-84 -96 -194 -144 -330 -144c-158 0 -271.333 59 -340 177v-582h-192v1401c0 188.667 31.333 329.334 94 422.001c76 112 203.667 168 383 168c108.667 0 202.334 -29.333 281.001 -88
c92.667 -70 139 -167 139 -291c0 -167.333 -76.667 -276 -230 -326c91.333 -13.333 167.333 -59.333 228 -138c58.667 -76 88 -161 88 -255zM941.999 454.999c0 204.667 -123.668 307 -371.001 307h-47v156h47c190 0 285 85.333 285 256c0 68 -22 123.5 -66 166.5
s-100.333 64.5 -169 64.5c-176.667 0 -265 -133.667 -265 -401v-500c0 -89.333 24 -170 72 -242c58 -87.333 135 -131 231 -131c86.667 0 156.334 33 209.001 99c49.333 61.333 74 136.333 74 225z" />
    <glyph glyph-name="gamma" unicode="&#x3b3;" horiz-adv-x="1024" 
d="M1001 1044l-395 -1073v-401h-192v405l-391 1069h208l283 -872l295 872h192z" />
    <glyph glyph-name="delta" unicode="&#x3b4;" horiz-adv-x="1210" 
d="M731 907c-36 7.33301 -69.335 11 -100.002 11c-117.333 0 -204.666 -44.667 -261.999 -134c-46.667 -71.333 -70 -158.666 -70 -261.999c0 -110 23 -199.667 69 -269c54 -81.333 133.333 -122 238 -122c104 0 183 41 237 123c45.333 69.333 68 158.666 68 267.999
c0 54.667 -8 108.667 -24 162c-21.333 70 -55.666 127.333 -102.999 172zM566.998 1061l-370.001 350.002v139h790v-155h-526l379 -346c184 -168.667 276 -344.334 276 -527.001c0 -154.667 -45.667 -283.334 -137 -386.001c-95.333 -107.333 -219.666 -161 -372.999 -161
c-154.667 0 -279.667 53 -375 159c-91.333 102 -137 231.333 -137 388c0 142 39.667 264.333 119 367c88.667 114.667 206.667 172 354 172z" />
    <glyph glyph-name="epsilon" unicode="&#x3b5;" horiz-adv-x="950" 
d="M868 35c-98.667 -40 -210.667 -59.999 -336 -59.999c-122 0 -220.333 21 -295 63c-95.333 52.667 -143 135.667 -143 249c0 62.667 23 119 69 169c44 47.333 97.667 78.333 161 93c-56 11.333 -102.167 38.166 -138.5 80.499s-54.5 91.833 -54.5 148.5
c0 98.667 40 173.667 120 225c68 44 153.667 66 257 66c135.333 0 252.666 -20.333 351.999 -61l-22 -164c-77.333 46 -180.666 69 -309.999 69c-128 0 -192 -46.333 -192 -139c0 -54.667 26.667 -95 80 -121c41.333 -20 92.333 -30 153 -30h144v-144h-156
c-169.333 0 -254 -58.667 -254 -176c0 -58.667 26.667 -103.667 80 -135c42 -24.667 93.333 -37 154 -37c87.333 0 195 26.667 323 80z" />
    <glyph glyph-name="zeta" unicode="&#x3b6;" horiz-adv-x="866" 
d="M979 1419c-158 -89.333 -308.332 -229.334 -450.999 -420.001c-152.667 -203.333 -229 -380 -229 -530c0 -108.667 23.833 -188 71.5 -238s125.5 -75 233.5 -75c204.667 0 307 -86.667 307 -260c0 -110 -34 -207.667 -102 -293l-168 32
c74 62.667 111 139.334 111 230.001c0 90 -59 135 -177 135c-162.667 0 -282.334 34 -359.001 102c-81.333 71.333 -122 186 -122 344c0 157.333 71.667 335.333 215 534c124 172 262 310.333 414 415h-539v155h795v-131z" />
    <glyph glyph-name="eta" unicode="&#x3b7;" horiz-adv-x="1251" 
d="M1087 -430h-191.999v971c0 110.667 -10.667 192.667 -32 246c-33.333 84 -96.333 126 -189 126c-112.667 0 -196.334 -45.333 -251.001 -136c-44.667 -74.667 -67 -172.667 -67 -294v-483h-192v1044h186v-165c31.333 60 80 107.333 146 142c62 32 128.667 48 200 48
c260.667 0 391 -149.333 391 -448v-1051z" />
    <glyph glyph-name="theta" unicode="&#x3b8;" horiz-adv-x="1159" 
d="M1065 770c0 -213.333 -31.333 -388 -94 -524c-83.333 -180.667 -214.333 -271 -393 -271c-177.333 0 -307.333 89.667 -390 269c-62.667 136.667 -94 312 -94 526c0 210.667 31.333 384 94 520c83.333 180.667 213.333 271 390 271c178.667 0 309.667 -89.667 393 -269
c62.667 -134.667 94 -308.667 94 -522zM856 877c0 128.667 -21.001 243.334 -63.001 344.001c-52 122.667 -123.667 184 -215 184c-89.333 0 -159.666 -61.333 -210.999 -184c-42.667 -100.667 -64 -215.334 -64 -344.001h553zM859.999 721h-560.999
c0 -144.667 17.667 -269 53 -373c49.333 -144.667 124.666 -217 225.999 -217c102 0 177.667 71.667 227 215c36.667 107.333 55 232.333 55 375z" />
    <glyph glyph-name="iota" unicode="&#x3b9;" horiz-adv-x="569" 
d="M381 0h-193v1044h193v-1044z" />
    <glyph glyph-name="kappa" unicode="&#x3ba;" horiz-adv-x="1141" 
d="M1102 0h-279l-467 524v-524h-192v1044h192v-434l422 434h262l-487 -475z" />
    <glyph glyph-name="lambda" unicode="&#x3bb;" horiz-adv-x="1001" 
d="M969 0h-193l-274 877l-279 -877h-209l406 1130l-131 420h176z" />
    <glyph glyph-name="mu" unicode="&#x3bc;" horiz-adv-x="1251" 
d="M1087 0l-186.001 0.000976562v166h-4c-28 -58.667 -73.5 -105.167 -136.5 -139.5s-131.5 -51.5 -205.5 -51.5c-83.333 0 -149.666 13.667 -198.999 41v-446h-192v1474h192v-540c0 -126.667 16 -218.667 48 -276c34 -62.667 92 -95 174 -97
c105.333 -2.66699 185.333 36.666 240 117.999c51.333 74.667 77 178.667 77 312v483h192v-1044z" />
    <glyph glyph-name="nu" unicode="&#x3bd;" horiz-adv-x="1024" 
d="M1001 1044l-374 -1044h-230l-374 1044h210l283 -851h4l289 851h192z" />
    <glyph glyph-name="xi" unicode="&#x3be;" horiz-adv-x="958" 
d="M983 -170c-11.333 -81.333 -43.332 -157 -95.999 -227l-168 32c26.667 23.333 50.667 54.333 72 93c24 45.333 36 85.333 36 120c0 97.333 -61.333 146 -184 146c-165.333 0 -295 34.667 -389 104c-106.667 78 -160 196.333 -160 355c0 108 40.333 205 121 291
c78 83.333 171.667 133 281 149c-180.667 47.333 -271 138 -271 272c0 56.667 21 106.667 63 150c38.667 39.333 86.667 66 144 80h-256v155h819v-155h-213c-240 0 -360 -74.667 -360 -224c0 -143.333 131 -215 393 -215h107v-155h-250
c-94.667 0 -177.334 -26.667 -248.001 -80c-83.333 -62.667 -125 -144.667 -125 -246c0 -212.667 124.333 -319 373 -319c92.667 0 167 -22 223 -66c61.333 -48 92 -117 92 -207v-24c-2.66699 -14 -4 -23.667 -4 -29z" />
    <glyph glyph-name="omicron" unicode="&#x3bf;" horiz-adv-x="1251" 
d="M1157 522c0 -152 -49.334 -280.333 -148.001 -385c-100.667 -108 -228 -162 -382 -162c-155.333 0 -283.666 54 -384.999 162c-98.667 104.667 -148 233 -148 385c0 160 49.167 291.167 147.5 393.5s226.833 153.5 385.5 153.5c157.333 0 285 -51.167 383 -153.5
s147 -233.5 147 -393.5zM951.999 522c0 105.333 -28.667 195.333 -86 270c-61.333 80.667 -141 121 -239 121c-99.333 0 -180 -40.333 -242 -121c-57.333 -74.667 -86 -164.667 -86 -270c0 -104 26.333 -192.333 79 -265c60 -84 143 -126 249 -126c104.667 0 187 42 247 126
c52 72.667 78 161 78 265z" />
    <glyph glyph-name="pi" unicode="&#x3c0;" horiz-adv-x="1188" 
d="M1024 0h-193v889h-475v-889h-192v1044h860v-1044z" />
    <glyph glyph-name="rho" unicode="&#x3c1;" horiz-adv-x="1249" 
d="M1155 541c0 -157.333 -35.333 -286.999 -106 -388.999c-82 -118 -196.667 -177 -344 -177c-160.667 0 -277 56 -349 168l-4 -573h-188v901c0 165.333 37.333 299.666 112 402.999c94.667 130 237.667 195 429 195c144.667 0 258 -53 340 -159
c73.333 -96.667 110 -219.667 110 -369zM950 528.001c0 106.667 -20.333 194 -61 262c-50 82 -125 123 -225 123c-96.667 0 -174.667 -43.667 -234 -131c-52 -76.667 -78 -164 -78 -262c0 -98.667 24 -184.667 72 -258c56.667 -87.333 135 -131 235 -131
c96 0 170.667 43.667 224 131c44.667 74 67 162.667 67 266z" />
    <glyph glyph-name="sigma1" unicode="&#x3c2;" horiz-adv-x="995" 
d="M938 1020l-16 -159.998c-80.667 35.333 -157.334 53 -230.001 53c-126.667 0 -225.667 -31.333 -297 -94c-74.667 -66.667 -112 -162.334 -112 -287.001c0 -155.333 76.333 -265.666 229 -330.999c156.667 -67.333 255.667 -119.333 297 -156c48 -42 72 -102 72 -180
c0 -46 -11.667 -95.333 -35 -148c-10 -22.667 -32 -61.334 -66 -116.001l-164 30c67.333 73.333 101 137.666 101 192.999c0 46.667 -9.66699 81.334 -29 104.001c-26 30.667 -78 58.667 -156 84c-302.667 98.667 -454 272 -454 520c0 175.333 58.333 310.666 175 405.999
c108 87.333 251.667 131 431 131c100.667 0 185.334 -16.333 254.001 -49z" />
    <glyph glyph-name="sigma" unicode="&#x3c3;" horiz-adv-x="1282" 
d="M1233 889l-275 0.00195312c114.667 -80.667 172 -206.334 172 -377.001c0 -151.333 -47.667 -278 -143 -380c-98 -104.667 -222.333 -157 -373 -157s-275 51.667 -373 155s-147 230.666 -147 381.999c0 156.667 47.667 284.5 143 383.5s221 148.5 377 148.5h619v-155z
M926 512.002c0 101.333 -25.999 187.333 -77.999 258c-58 79.333 -136 119 -234 119s-176.333 -39.333 -235 -118c-53.333 -70.667 -80 -157 -80 -259c0 -104 24.667 -190.667 74 -260c56.667 -80.667 137 -121 241 -121c101.333 0 180.666 40.333 237.999 121
c49.333 69.333 74 156 74 260z" />
    <glyph glyph-name="tau" unicode="&#x3c4;" horiz-adv-x="938" 
d="M918 889h-353v-889h-192v889h-353v155h898v-155z" />
    <glyph glyph-name="upsilon" unicode="&#x3c5;" horiz-adv-x="1229" 
d="M1065 430c0 -142.667 -39.499 -254.167 -118.499 -334.5s-189.833 -120.5 -332.5 -120.5c-140.667 0 -250.834 40.5 -330.501 121.5s-119.5 192.167 -119.5 333.5v614h192v-606c0 -204.667 86 -307 258 -307s258 102.333 258 307v606h193v-614z" />
    <glyph glyph-name="phi" unicode="&#x3c6;" horiz-adv-x="1446" 
d="M1352 524c0 -160.667 -48.334 -291.668 -145.001 -393.001c-98.667 -104 -228 -156 -388 -156v-405h-192v405c-168.667 0 -300.667 54.333 -396 163c-91.333 103.333 -137 240.333 -137 411c0 117.333 36.667 225.333 110 324c76 101.333 170.333 164 283 188l29 -168
c-69.333 -24.667 -123.666 -70 -162.999 -136c-36 -61.333 -54 -130.666 -54 -207.999c0 -260.667 109.333 -400 328 -418v928c56.667 6.66699 116.667 10 180 10c144.667 0 266 -39.667 364 -119c120.667 -96.667 181 -238.667 181 -426zM1147 540.999
c0 106.667 -27.333 194 -82 262c-59.333 73.333 -141.333 110 -246 110v-782c113.333 0 198.333 41.667 255 125c48.667 71.333 73 166.333 73 285z" />
    <glyph glyph-name="chi" unicode="&#x3c7;" horiz-adv-x="1024" 
d="M631 348l373 -778h-238l-256 584l-260 -584h-230l379 760l-342 714h240l223 -524l236 524h215z" />
    <glyph glyph-name="psi" unicode="&#x3c8;" horiz-adv-x="1532" 
d="M1372 430c0 -147.333 -48.665 -261.333 -145.998 -342c-90.667 -75.333 -211.334 -113 -362.001 -113v-405h-192v405c-150.667 0 -271.334 37.667 -362.001 113c-97.333 80.667 -146 194.667 -146 342v614h192v-606c0 -95.333 28.667 -171 86 -227s134 -84 230 -84v1180
h192v-1180c97.333 0 174.333 27.667 231 83s85 131.333 85 228v606h192v-614z" />
    <glyph glyph-name="omega" unicode="&#x3c9;" horiz-adv-x="1528" 
d="M1434 471c0 -135.333 -30.3311 -248.665 -90.998 -339.998c-68 -104 -162.667 -156 -284 -156c-158.667 0 -257 68.333 -295 205c-16.667 -66 -53.334 -117.333 -110.001 -154c-52 -34 -113.667 -51 -185 -51c-121.333 0 -216.333 52 -285 156
c-60 91.333 -90 204.666 -90 339.999c0 114 14.333 216.333 43 307c18.667 59.333 57.667 148 117 266h207c-113.333 -179.333 -170 -364.333 -170 -555c0 -92 13 -170.333 39 -235c32.667 -82 83 -123 151 -123c126 0 189 87.333 189 262v410h188v-410
c0 -174.667 63 -262 189 -262c67.333 0 117.666 41 150.999 123c26 63.333 39 141.666 39 234.999c0 194 -56.667 379 -170 555h207c60.667 -120.667 99.667 -208.667 117 -264c28.667 -91.333 43 -194.333 43 -309z" />
    <glyph glyph-name="iotadieresis" unicode="&#x3ca;" horiz-adv-x="569" 
d="M381 0h-193v1044h193v-1044zM549 1204h-193v205h193v-205zM213 1204h-193v205h193v-205z" />
    <glyph glyph-name="upsilondieresis" unicode="&#x3cb;" horiz-adv-x="1229" 
d="M1065 430c0 -142.667 -39.499 -254.167 -118.499 -334.5s-189.833 -120.5 -332.5 -120.5c-140.667 0 -250.834 40.5 -330.501 121.5s-119.5 192.167 -119.5 333.5v614h192v-606c0 -204.667 86 -307 258 -307s258 102.333 258 307v606h193v-614zM909.001 1204h-193v205
h193v-205zM573.001 1204h-193v205h193v-205z" />
    <glyph glyph-name="omicrontonos" unicode="&#x3cc;" horiz-adv-x="1251" 
d="M1157 522c0 -152 -49.334 -280.333 -148.001 -385c-100.667 -108 -228 -162 -382 -162c-155.333 0 -283.666 54 -384.999 162c-98.667 104.667 -148 233 -148 385c0 160 49.167 291.167 147.5 393.5s226.833 153.5 385.5 153.5c157.333 0 285 -51.167 383 -153.5
s147 -233.5 147 -393.5zM951.999 522c0 105.333 -28.667 195.333 -86 270c-61.333 80.667 -141 121 -239 121c-99.333 0 -180 -40.333 -242 -121c-57.333 -74.667 -86 -164.667 -86 -270c0 -104 26.333 -192.333 79 -265c60 -84 143 -126 249 -126c104.667 0 187 42 247 126
c52 72.667 78 161 78 265zM889.999 1487l-266 -295h-139l184 295h221z" />
    <glyph glyph-name="upsilontonos" unicode="&#x3cd;" horiz-adv-x="1229" 
d="M1065 430c0 -142.667 -39.499 -254.167 -118.499 -334.5s-189.833 -120.5 -332.5 -120.5c-140.667 0 -250.834 40.5 -330.501 121.5s-119.5 192.167 -119.5 333.5v614h192v-606c0 -204.667 86 -307 258 -307s258 102.333 258 307v606h193v-614zM890.001 1487l-266 -295
h-139l184 295h221z" />
    <glyph glyph-name="omegatonos" unicode="&#x3ce;" horiz-adv-x="1528" 
d="M1434 471c0 -135.333 -30.3311 -248.665 -90.998 -339.998c-68 -104 -162.667 -156 -284 -156c-158.667 0 -257 68.333 -295 205c-16.667 -66 -53.334 -117.333 -110.001 -154c-52 -34 -113.667 -51 -185 -51c-121.333 0 -216.333 52 -285 156
c-60 91.333 -90 204.666 -90 339.999c0 114 14.333 216.333 43 307c18.667 59.333 57.667 148 117 266h207c-113.333 -179.333 -170 -364.333 -170 -555c0 -92 13 -170.333 39 -235c32.667 -82 83 -123 151 -123c126 0 189 87.333 189 262v410h188v-410
c0 -174.667 63 -262 189 -262c67.333 0 117.666 41 150.999 123c26 63.333 39 141.666 39 234.999c0 194 -56.667 379 -170 555h207c60.667 -120.667 99.667 -208.667 117 -264c28.667 -91.333 43 -194.333 43 -309zM1040 1487l-266 -295h-139l184 295h221z" />
    <glyph glyph-name="uni03D0" unicode="&#x3d0;" horiz-adv-x="1145" 
d="M1063 422c0 -128 -46.665 -235 -139.998 -321c-90.667 -84 -200.334 -126 -329.001 -126c-181.333 0 -313.666 81.667 -396.999 245c-64.667 125.333 -97 288.333 -97 489c0 213.333 45 399 135 557c109.333 192 263 288 461 288c116.667 0 204 -34.667 262 -104
c33.333 -40 50 -89 50 -147c0 -98.667 -41.333 -176.334 -124 -233.001c-72.667 -50 -160.334 -75 -263.001 -75c-70.667 0 -126.667 5.66699 -168 17c-12 2.66699 -43.667 14.334 -95 35.001c-39.333 -115.333 -59 -241 -59 -377c43.333 55.333 100.666 98.333 171.999 129
c58 24.667 112.667 37 164 37c120.667 0 222.167 -39 304.5 -117s123.5 -177 123.5 -297zM788.002 1368c-21.333 22 -54.668 33 -100.001 33c-71.333 0 -140.333 -37.333 -207 -112c-28.667 -32 -51.667 -66.333 -69 -103c58.667 -26 127.334 -39 206.001 -39
c74 0 128 20.333 162 61c27.333 27.333 41 58 41 92c0 27.333 -11 50 -33 68zM858 416c0 75.333 -24.1689 139.166 -72.502 191.499s-110.166 78.5 -185.499 78.5c-131.333 0 -227.666 -72.333 -288.999 -217c0 -101.333 25.333 -182.333 76 -243
c54 -64.667 130.333 -97 229 -97c74 0 134 30 180 90c41.333 54.667 62 120.334 62 197.001z" />
    <glyph glyph-name="theta1" unicode="&#x3d1;" horiz-adv-x="1102" 
d="M782 733c0 146.667 -19.333 281.667 -58 405c-56 178 -141.667 267 -257 267c-109.333 0 -164 -78.667 -164 -236c0 -146 33.333 -251.667 100 -317c80.667 -79.333 207 -119 379 -119zM965 567c0 -167.333 -28.6689 -301.335 -86.002 -402.002
c-71.333 -126.667 -184 -190 -338 -190c-62 0 -112 6.33301 -150 19c-59.333 19.333 -107 52 -143 98s-73 129.333 -111 250c-9.33301 30 -27.666 45 -54.999 45h-45v197h49c94 0 157.333 -43.667 190 -131l82 -230c26 -36.667 51.667 -61.167 77 -73.5
s61.333 -18.5 108 -18.5c92 0 158 54 198 162c27.333 73.333 41 165.333 41 276c-190 0 -348.333 48.667 -475 146c-139.333 106.667 -209 252 -209 436c0 110.667 30 204.334 90 281.001c68 86 160.333 129 277 129c118.667 0 221 -44.667 307 -134
c66.667 -68 117.334 -177.667 152.001 -329c27.333 -119.333 41 -241.666 41 -366.999h116v-164h-116z" />
    <glyph glyph-name="Upsilon1" unicode="&#x3d2;" horiz-adv-x="1366" 
d="M786 0h-204.002v401c0 205.333 -32.333 386.333 -97 543c-87.333 213.333 -219.666 320 -396.999 320v166h12c300.667 0 495.334 -192.667 584.001 -578c90 385.333 284.667 578 584 578h12v-166c-176.667 0 -309 -106.667 -397 -320
c-64.667 -156.667 -97 -337.667 -97 -543v-401z" />
    <glyph glyph-name="uni03D3" unicode="&#x3d3;" horiz-adv-x="1770" 
d="M406 1427l-269 -294h-137l182 294h224zM1670 1264c-176.667 0 -309.001 -106.667 -397.001 -320c-64.667 -156.667 -97 -337.667 -97 -543v-401h-204v401c0 204.667 -32.333 385.667 -97 543c-88 213.333 -220.333 320 -397 320v166h12
c300.667 0 495.334 -192.667 584.001 -578c90 385.333 284.667 578 584 578h12v-166z" />
    <glyph glyph-name="uni03D4" unicode="&#x3d4;" horiz-adv-x="1366" 
d="M786 0h-204.002v401c0 205.333 -32.333 386.333 -97 543c-87.333 213.333 -219.666 320 -396.999 320v166h12c300.667 0 495.334 -192.667 584.001 -578c90 385.333 284.667 578 584 578h12v-166c-176.667 0 -309 -106.667 -397 -320
c-64.667 -156.667 -97 -337.667 -97 -543v-401zM953.998 1568h-193v205h193v-205zM617.998 1568h-193v205h193v-205z" />
    <glyph glyph-name="phi1" unicode="&#x3d5;" horiz-adv-x="1446" 
d="M627 131v444.001c0 230 -58 339.333 -174 328c-70 0 -116 -46.333 -138 -139c-10.667 -46.667 -16 -118.334 -16 -215.001c0 -260.667 109.333 -400 328 -418zM819 559.001v-428c113.333 0 198.333 41.667 255 125c48.667 71.333 73 166.333 73 285v51
c0 88 -7 153.333 -21 196c-24 76.667 -68.333 115 -133 115c-116 10.667 -174 -104 -174 -344zM725 840.001c8 96.667 47.667 162.667 119 198c40.667 20.667 96.667 31 168 31c124.667 0 216 -63.667 274 -191c44 -94.667 66 -212.667 66 -354
c0 -159.333 -48.667 -290 -146 -392c-99.333 -104.667 -228.333 -157 -387 -157v-405h-192v405c-168.667 0 -300.667 54.333 -396 163c-91.333 103.333 -137 240.333 -137 411c0 138 25.333 254 76 348c61.333 114.667 149.333 172 264 172
c73.333 0 129.333 -9.66699 168 -29c70 -34 111 -100.667 123 -200z" />
    <glyph glyph-name="omega1" unicode="&#x3d6;" horiz-adv-x="1653" 
d="M264 909h-27.999c-54.667 0 -107.334 -10.667 -158.001 -32c-17.333 -7.33301 -37.333 -19 -60 -35v155c10.667 8 21.667 15 33 21c64 31.333 144 47 240 47h1349v-156h-225c62.667 -136 94 -282 94 -438c0 -135.333 -30 -248.666 -90 -339.999
c-68 -104 -162.667 -156 -284 -156c-158.667 0 -257 68.333 -295 205c-17.333 -66 -54 -117.333 -110 -154c-52 -34 -113.667 -51 -185 -51c-122 0 -217 52 -285 156c-60 91.333 -90 204.666 -90 339.999c0 153.333 31.333 299.333 94 438zM1219 909l-758 0.000976562
c-62.667 -131.333 -94 -271.333 -94 -420c0 -92 13 -170.333 39 -235c32.667 -82 83 -123 151 -123c125.333 0 188 87.333 188 262v307h189v-307c0 -174.667 62.667 -262 188 -262c67.333 0 118 41 152 123c26 63.333 39 141.666 39 234.999c0 152 -31.333 292 -94 420z" />
    <glyph glyph-name="uni03DA" unicode="&#x3da;" horiz-adv-x="1221" 
d="M1145 1395l-16.999 -185.001c-88.667 49.333 -184.667 74 -288 74c-168 0 -302 -47 -402 -141c-102 -96 -153 -227 -153 -393c0 -303.333 140 -495.333 420 -576l225 -61c103.333 -46.667 155 -119 155 -217c0 -232.667 -157 -349 -471 -349
c-52.667 0 -131 9.66699 -235 29l16 170c67.333 -28.667 137 -43 209 -43c88 0 153.333 6.66699 196 20c74 24 111 70 111 138c0 44 -23 78 -69 102c-28.667 14.667 -73.667 28.334 -135 41.001c-418 86 -627 336.667 -627 752c0 217.333 71.333 389.333 214 516
c136 121.333 314.333 182 535 182c117.333 0 222.666 -19.667 315.999 -59z" />
    <glyph glyph-name="uni03DC" unicode="&#x3dc;" horiz-adv-x="1024" 
d="M170 0v1430h760v-181h-555v-356h407v-180h-407v-713h-205z" />
    <glyph glyph-name="uni03DE" unicode="&#x3de;" horiz-adv-x="934" 
d="M913 788l-229 -788h-174l178 623l-651 4l229 803l172 -3l-178 -636z" />
    <glyph glyph-name="uni03E0" unicode="&#x3e0;" horiz-adv-x="1755" 
d="M1292 762l-366.002 -340l-119 88l389 373l-49 51l-90 78l-410 -383l-129 94l404 381c-122 73.333 -259.333 129.333 -412 168c-125.333 31.333 -245.333 47 -360 47v135h47c200.667 0 403.334 -43.333 608.001 -130c208.667 -88.667 379.334 -205.667 512.001 -351
c199.333 -218.667 299 -478 299 -778c0 -60.667 -5.66699 -125.667 -17 -195h-169c16 72.667 24 145.667 24 219c0 200 -54 381 -162 543z" />
    <glyph glyph-name="uni03F0" unicode="&#x3f0;" horiz-adv-x="1159" 
d="M1083 1020l-106.002 -172.002c-76 -120.667 -125.333 -193 -148 -217l-2 -84v-117c0 -168 51.333 -249.333 154 -244l111 7l-7 -175c-58 -27.333 -114.667 -41 -170 -41c-79.333 0 -141.666 33 -186.999 99c-47.333 68.667 -71 167 -71 295c0 25.333 0.666992 52 2 80
l3 28c-46.667 -38 -104.334 -89.667 -173.001 -155c0 -87.333 -27.667 -153.666 -83 -198.999l-175 -141l-153 59l96 162c72 117.333 120.333 187.666 145 210.999l7 110c0.666992 18.667 1 36.667 1 54c0 94.667 -13.333 166.334 -40 215.001
c-19.333 44.667 -59.666 67 -120.999 67l-94 -18l4 194c83.333 22 139.333 33 168 33c104.667 0 175.667 -58.333 213 -175c21.333 -68.667 32 -170 32 -304v-23c30 26.667 59.667 51.334 89 74.001c6.66699 5.33301 37.334 27.333 92.001 66
c7.33301 55.333 14.333 93.333 21 114c11.333 37.333 31 70.333 59 99l139 143z" />
    <glyph glyph-name="uni03F1" unicode="&#x3f1;" horiz-adv-x="1249" 
d="M950 528c0 108 -21 196.332 -63 264.999c-50 80 -124.333 120 -223 120c-96.667 0 -174.667 -43.667 -234 -131c-52 -76.667 -78 -164 -78 -262c0 -100 24 -186 72 -258c58 -87.333 136.333 -131 235 -131c95.333 0 170 43.667 224 131
c44.667 72.667 67 161.334 67 266.001zM754 -252.001l272 0.000976562v-168h-256c-224 0 -381 57.333 -471 172c-45.333 57.333 -79.333 135.333 -102 234c-25.333 107.333 -37 227.333 -35 360l2 125c2.66699 168.667 40 303 112 403c94 130 237 195 429 195
c145.333 0 258.666 -53 339.999 -159c73.333 -96.667 110 -219.667 110 -369c0 -156.667 -35.333 -286.334 -106 -389.001c-81.333 -118 -196 -177 -344 -177c-158.667 0 -275 56 -349 168c0 -165.333 33 -275 99 -329c52.667 -44 152.334 -66 299.001 -66z" />
    <glyph glyph-name="uni2002" unicode="&#x2002;" horiz-adv-x="1024" 
 />
    <glyph glyph-name="uni2003" unicode="&#x2003;" horiz-adv-x="2048" 
 />
    <glyph glyph-name="uni2004" unicode="&#x2004;" horiz-adv-x="683" 
 />
    <glyph glyph-name="uni2005" unicode="&#x2005;" horiz-adv-x="512" 
 />
    <glyph glyph-name="uni2006" unicode="&#x2006;" horiz-adv-x="341" 
 />
    <glyph glyph-name="uni2007" unicode="&#x2007;" 
 />
    <glyph glyph-name="uni2008" unicode="&#x2008;" horiz-adv-x="569" 
 />
    <glyph glyph-name="uni2009" unicode="&#x2009;" horiz-adv-x="410" 
 />
    <glyph glyph-name="uni200A" unicode="&#x200a;" horiz-adv-x="171" 
 />
    <glyph glyph-name="uni200B" unicode="&#x200b;" horiz-adv-x="0" 
 />
    <glyph glyph-name="afii61664" unicode="&#x200c;" horiz-adv-x="0" 
d="M39 -244h-81v1543h81v-1543z" />
    <glyph glyph-name="afii301" unicode="&#x200d;" horiz-adv-x="0" 
d="M197 1466l-155 -155l148 -149l-44 -44l-107 107v-1469h-81v1471l-109 -109l-45 44l149 149l-156 155l45 45l155 -156l155 156z" />
    <glyph glyph-name="afii299" unicode="&#x200e;" horiz-adv-x="0" 
d="M452 1266l-204 -205l-45 45l128 127h-292v-1477h-81v1543h373l-129 146l45 45l204 -215l-4 -4z" />
    <glyph glyph-name="afii300" unicode="&#x200f;" horiz-adv-x="0" 
d="M42 -244h-81v1477h-292l128 -127l-45 -45l-204 205l5 5l-4 4l204 215l45 -45l-129 -142l373 -4v-1543z" />
    <glyph glyph-name="endash" unicode="&#x2013;" horiz-adv-x="1024" 
d="M1024 479h-1024v144h1024v-144z" />
    <glyph glyph-name="emdash" unicode="&#x2014;" horiz-adv-x="2048" 
d="M2048 479h-2048v144h2048v-144z" />
    <glyph glyph-name="quoteleft" unicode="&#x2018;" horiz-adv-x="569" 
d="M463 1430l-129 -502h-228l175 502h182z" />
    <glyph glyph-name="quoteright" unicode="&#x2019;" horiz-adv-x="569" 
d="M463 1430l-180 -502h-177l127 502h230z" />
    <glyph glyph-name="quotesinglbase" unicode="&#x201a;" horiz-adv-x="569" 
d="M463 229l-174 -501h-183l130 501h227z" />
    <glyph glyph-name="quotedblleft" unicode="&#x201c;" 
d="M942 1430l-131 -502h-225l172 502h184zM553 1430l-127 -502h-229l176 502h180z" />
    <glyph glyph-name="quotedblright" unicode="&#x201d;" 
d="M942 1430l-174 -502h-182l129 502h227zM553 1430l-174 -502h-182l129 502h227z" />
    <glyph glyph-name="quotedblbase" unicode="&#x201e;" 
d="M942 229l-174 -501h-182l129 501h227zM553 229l-174 -501h-182l129 501h227z" />
    <glyph glyph-name="dagger" unicode="&#x2020;" 
d="M1001 928h-342v-928h-180v928h-342v143h342v359h180v-359h342v-143z" />
    <glyph glyph-name="daggerdbl" unicode="&#x2021;" 
d="M1001 332h-342v-332h-180v332h-342v143h342v479h-342v144h342v332h180v-332h342v-144h-342v-479h342v-143z" />
    <glyph glyph-name="bullet" unicode="&#x2022;" horiz-adv-x="1024" 
d="M870 715c0 -100 -34.833 -184.833 -104.5 -254.5s-154.167 -104.5 -253.5 -104.5s-183.5 34.667 -252.5 104s-103.5 154.333 -103.5 255c0 99.333 34.5 183.5 103.5 252.5s153.167 103.5 252.5 103.5s183.833 -34.5 253.5 -103.5s104.5 -153.167 104.5 -252.5z" />
    <glyph glyph-name="ellipsis" unicode="&#x2026;" horiz-adv-x="2048" 
d="M1821 0h-230v229h230v-229zM1139 0h-230v229h230v-229zM457 0h-230v229h230v-229z" />
    <glyph glyph-name="perthousand" unicode="&#x2030;" horiz-adv-x="2048" 
d="M2042 385c0 -118 -21.666 -212 -64.999 -282c-52.667 -85.333 -133.334 -128 -242.001 -128c-109.333 0 -190 42.667 -242 128c-44 70 -66 164 -66 282c0 273.333 102.667 410 308 410c204.667 0 307 -136.667 307 -410zM1350 385c0 -118 -22 -212 -66 -282
c-52 -85.333 -132.667 -128 -242 -128c-108.667 0 -189 42.667 -241 128c-44 70 -66 164 -66 282c0 273.333 102.333 410 307 410c205.333 0 308 -136.667 308 -410zM1194 1475l-887 -1520h-147l887 1520h147zM621.001 1044c0 -117.333 -21.999 -211.333 -65.999 -282
c-52 -84.667 -132.667 -127 -242 -127c-108.667 0 -189.334 42.333 -242.001 127c-43.333 70.667 -65 164.667 -65 282c0 273.333 102.333 410 307 410c205.333 0 308 -136.667 308 -410zM1862 385c0 80 -4.33301 136 -13 168c-18 65.333 -56 98 -114 98
c-84.667 0 -127 -88.667 -127 -266s42.333 -266 127 -266s127 88.667 127 266zM1169 385c0 80 -4 136 -12 168c-18 65.333 -56.333 98 -115 98c-84.667 0 -127 -88.667 -127 -266s42.333 -266 127 -266s127 88.667 127 266zM440.002 1044c0 80.667 -4 136.667 -12 168
c-18 66 -56.333 99 -115 99c-84.667 0 -127 -89 -127 -267c0 -177.333 42.333 -266 127 -266s127 88.667 127 266z" />
    <glyph glyph-name="guilsinglleft" unicode="&#x2039;" horiz-adv-x="569" 
d="M514 137h-180l-293 414l293 414h180l-266 -414z" />
    <glyph glyph-name="guilsinglright" unicode="&#x203a;" horiz-adv-x="569" 
d="M528 551l-292 -414h-181l267 414l-267 414h181z" />
    <glyph glyph-name="fraction" unicode="&#x2044;" horiz-adv-x="342" 
d="M688 1475l-887 -1520h-147l887 1520h147z" />
    <glyph glyph-name="fraction" unicode="&#x2215;" horiz-adv-x="342" 
d="M688 1475l-887 -1520h-147l887 1520h147z" />
    <glyph glyph-name="Euro" unicode="&#x20ac;" 
d="M1192 1401l-41.001 -169.999c-68 36.667 -152.667 55 -254 55c-117.333 0 -216.666 -34.333 -297.999 -103c-78 -65.333 -133 -156 -165 -272h651l-26 -110h-649c-2.66699 -28.667 -4 -57.334 -4 -86.001s1.33301 -57.334 4 -86.001h612l-25 -111h-563
c30 -113.333 84.667 -202.666 164 -267.999c83.333 -68.667 182.333 -103 297 -103c98 0 183.333 17.333 256 52l12 -179c-74.667 -30 -169.334 -45 -284.001 -45c-174 0 -320.667 48 -440 144s-196.666 229 -231.999 399h-195l27 111h154c-3.33301 29.333 -5 58.333 -5 87
s1.66699 57 5 85h-181l27 110h170c36.667 166 115 298 235 396s265 147 435 147c120 0 224.333 -17.667 313 -53z" />
    <glyph glyph-name="Ifraktur" unicode="&#x2111;" horiz-adv-x="1154" 
d="M1072 1236c-25.333 -18 -59.6689 -53.667 -103.002 -107c-64.667 -78.667 -97 -146 -97 -202c0 -52.667 21.167 -134.667 63.5 -246s63.5 -196 63.5 -254c0 -112.667 -47.333 -215.334 -142 -308.001c-98 -96 -208 -140 -330 -132c-38.667 2.66699 -84 24.5 -136 65.5
s-97.333 61.5 -136 61.5c-20.667 0 -51 -12.333 -91 -37c-28.667 -18 -49 -32.333 -61 -43l-25 21c88.667 121.333 159.334 182 212.001 182c33.333 0 89 -28 167 -84s138.333 -84 181 -84c68 0 120 35 156 105c29.333 57.333 44 126.333 44 207
c0 49.333 -14.5 116.333 -43.5 201s-43.5 155.667 -43.5 213c0 121.333 52 234 156 338c-93.333 -61.333 -170.333 -92 -231 -92c-33.333 0 -85.166 18.5 -155.499 55.5s-124.166 55.5 -161.499 55.5c-60.667 0 -91 -38 -91 -114c0 -38 22.833 -84.833 68.5 -140.5
s68.5 -107.834 68.5 -156.501c0 -61.333 -58.667 -126 -176 -194l-32 40c68 33.333 102 70 102 110c0 36.667 -23.667 84.5 -71 143.5s-71 108.167 -71 147.5c0 32.667 34.667 84.334 104 155.001c61.333 62.667 108 102.334 140 119.001
c90 -42.667 153.333 -70.667 190 -84c55.333 -19.333 109 -29 161 -29c51.333 0 115.666 18.333 192.999 55l105 58z" />
    <glyph glyph-name="weierstrass" unicode="&#x2118;" horiz-adv-x="1157" 
d="M1062 567c0 -123.333 -37.6689 -248.002 -113.002 -374.002c-86.667 -143.333 -188 -215 -304 -215c-33.333 0 -61.666 9.5 -84.999 28.5s-35 44.833 -35 77.5c0 52.667 25 79 75 79c48 0 72 -24.667 72 -74c0 -14 -5 -29.667 -15 -47c15.333 -12 24.333 -18 27 -18
c66 0 124.333 69.333 175 208c41.333 114 62 211.667 62 293c0 94 -35.667 141 -107 141c-125.333 0 -274.666 -119 -447.999 -357l11 -33l29 -72c38 -93.333 57 -175.666 57 -246.999c0 -80.667 -21.333 -152.667 -64 -216c-48.667 -70.667 -111.667 -106 -189 -106
c-98 0 -147 56.667 -147 170c0 106.667 64.333 249 193 427l-10 26c-44 106.667 -66 192.667 -66 258c0 146 98 266 294 360l17 -24c-127.333 -72.667 -191 -169 -191 -289c0 -43.333 14 -105.666 42 -186.999l8 -24c220.667 287.333 402.334 431 545.001 431
c57.333 0 100.666 -22.667 129.999 -68c24.667 -38 37 -87.333 37 -148zM352.998 -109.002c0 62 -22.667 150.999 -68 266.999l-12 31c-109.333 -157.333 -164 -282.333 -164 -375c0 -90 34 -135 102 -135c46 0 82.333 25 109 75c22 40.667 33 86.334 33 137.001z" />
    <glyph glyph-name="Rfraktur" unicode="&#x211c;" horiz-adv-x="1573" 
d="M1505 193c-123.333 -100.667 -207.999 -179.333 -253.999 -236c-50 44 -110.667 146 -182 306l-31 70c-19.333 44.667 -51 109 -95 193c-42 7.33301 -79.667 11 -113 11c-37.333 0 -82.666 -4 -135.999 -12c-54.667 -164.667 -129.334 -299.667 -224.001 -405
c31.333 3.33301 58.666 5 81.999 5c73.333 0 138 -9 194 -27c-44 -34.667 -76.667 -81.667 -98 -141c-66.667 20.667 -145.334 31 -236.001 31c-56.667 0 -123.334 -10.333 -200.001 -31l66 133c80.667 15.333 140.334 52 179.001 110c76 113.333 114 270.333 114 471
c0 143.333 -21.833 260.333 -65.5 351s-99.5 136 -167.5 136c-28 0 -50.667 -10 -68 -30s-26 -44 -26 -72c0 -38 19.333 -76 58 -114l46 -46l36 -35c24.667 -24 37 -51.667 37 -83c0 -44 -43 -112 -129 -204l-40 36c29.333 32.667 44 62.667 44 90
c0 32 -18.667 63.667 -56 95l-54 45c-56.667 48 -85 101.667 -85 161c92.667 132 206.667 224.333 342 277c132.667 -18 224.667 -101.333 276 -250c72.667 102 174 185.333 304 250c42.667 -24.667 77.334 -74 104.001 -148l31 -88c15.333 -44.667 41 -72 77 -82v-57
c-86.667 -50.667 -195.667 -123.667 -327 -219l-85 -61c98.667 22.667 183.667 34 255 34c22 -30 53 -89.333 93 -178l42 -92c50 -111.333 94.333 -191 133 -239c38.667 20.667 80 48 124 82zM1068 890.001c-32.667 34 -56.668 72.333 -72.001 115l-13 34
c-11.333 31.333 -26.333 59.333 -45 84c-73.333 -30 -140.666 -82.333 -201.999 -157c10 -64 15 -119 15 -165c0 -54.667 -11.333 -120 -34 -196c39.333 38 92.333 83.333 159 136l89 70l70 54z" />
    <glyph glyph-name="trademark" unicode="&#x2122;" horiz-adv-x="2028" 
d="M1917 578h-156v651h-4l-239 -651h-127l-240 651h-4v-651h-156v852h242l223 -576l219 576h242v-852zM791 1286h-263v-708h-155v708h-262v144h680v-144z" />
    <glyph glyph-name="uni2126" unicode="&#x2126;" horiz-adv-x="1530" 
d="M1421 0l-543.998 -0.000976562v389c109.333 20.667 192 70.667 248 150c52.667 74 79 168 79 282c0 128.667 -41.333 236.334 -124 323.001s-188 130 -316 130c-128.667 0 -233.834 -43.167 -315.501 -129.5s-122.5 -194.166 -122.5 -323.499
c0 -246.667 108.333 -390.667 325 -432v-389h-542v168h378v119c-120 35.333 -213.667 103.666 -281 204.999c-64.667 96.667 -97 209 -97 337c0 182 64 332.333 192 451c125.333 116 279.666 174 462.999 174c184.667 0 339.667 -57.333 465 -172
c128 -118.667 192 -269.667 192 -453c0 -132 -31.667 -245 -95 -339c-66.667 -100 -162 -167.667 -286 -203v-119h381v-168z" />
    <glyph glyph-name="aleph" unicode="&#x2135;" horiz-adv-x="1385" 
d="M1224 1141c-34 -228.667 -138.667 -435.667 -314 -621c128 -122 222 -252 282 -390l-124 -155h-64v29c0 98 -45 200.333 -135 307c-52 62.667 -136 141.667 -252 237l-63 52l-48 44l-79 70c-5.33301 4.66699 -22.333 21 -51 49c-49.333 -96.667 -74 -201.667 -74 -315
c0 -84 13 -167.667 39 -251h178l-60 -197h-341l63 197c-8 54 -12 96 -12 126c0 159.333 54.667 321.333 164 486c-68 80 -118.667 160.667 -152 242l127 158h57c-3.33301 -22.667 -5 -39.667 -5 -51c0 -109.333 104 -251.333 312 -426l102 -86l64 -58l29 -26
c88 122 136.667 263.667 146 425h-164l-37 43l72 228h64v-74h241z" />
    <glyph glyph-name="arrowleft" unicode="&#x2190;" horiz-adv-x="2048" 
d="M1920 466h-1554l198 -260v-50l-435 344v32l435 344v-50l-198 -260h1554v-100z" />
    <glyph glyph-name="arrowup" unicode="&#x2191;" horiz-adv-x="2048" 
d="M1393 798h-50l-260 198v-1423h-100v1423l-260 -198h-50l344 435h32z" />
    <glyph glyph-name="arrowright" unicode="&#x2192;" horiz-adv-x="2048" 
d="M1982 500l-435 -344v50l198 260h-1653v100h1653l-198 260v50l435 -344v-32z" />
    <glyph glyph-name="arrowdown" unicode="&#x2193;" horiz-adv-x="2048" 
d="M1393 63l-344 -435h-32l-344 435h50l260 -198v1518h100v-1518l260 198h50z" />
    <glyph glyph-name="arrowboth" unicode="&#x2194;" horiz-adv-x="2048" 
d="M1920 501l-435 -345v50l198 260h-1317l198 -260v-50l-435 344v32l435 344v-50l-198 -260h1317l-198 260v50l435 -337v-38z" />
    <glyph glyph-name="carriagereturn" unicode="&#x21b5;" horiz-adv-x="1924" 
d="M1702 197h-1280l198 -260v-50l-435 344v32l435 344v-50l-198 -260h1182v1183h98v-1283z" />
    <glyph glyph-name="arrowdblleft" unicode="&#x21d0;" horiz-adv-x="1635" 
d="M189 503l525 -420l52 66l-181 144h862v84h-966l-158 126l158 126h966v84h-862l181 145l-52 65z" />
    <glyph glyph-name="arrowdblup" unicode="&#x21d1;" horiz-adv-x="1343" 
d="M1091 734l-65 -53l-145 181v-862h-84v966l-126 159l-125 -159v-966h-84v862l-145 -181l-65 53l419 524z" />
    <glyph glyph-name="arrowdblright" unicode="&#x21d2;" horiz-adv-x="1635" 
d="M1447 503l-525 -420l-52 66l181 144h-862v84h966l158 126l-158 126h-966v84h862l-181 145l52 65z" />
    <glyph glyph-name="arrowdbldown" unicode="&#x21d3;" horiz-adv-x="1343" 
d="M1090 524l-419 -524l-419 524l65 53l145 -180v861h84v-966l125 -158l125 158v966h84v-861l145 180z" />
    <glyph glyph-name="arrowdblboth" unicode="&#x21d4;" horiz-adv-x="2097" 
d="M1908 503l-524 -420l-53 66l181 144h-926l180 -144l-53 -66l-524 420l524 420l53 -65l-180 -145h926l-181 145l53 65zM1774 503l-157 126h-1137l-157 -126l157 -126h1137z" />
    <glyph glyph-name="universal" unicode="&#x2200;" horiz-adv-x="1557" 
d="M1377 1325l-524 -1325h-150l-523 1325h116l142 -363h679l143 363h117zM1083 874h-610l306 -767z" />
    <glyph glyph-name="partialdiff" unicode="&#x2202;" horiz-adv-x="1077" 
d="M252 1235l-96.001 115.001c102.667 84.667 211.667 127 327 127c188.667 0 332 -86 430 -258c66 -115.333 99 -275.333 99 -480c0 -172.667 -20.667 -317 -62 -433c-78 -220.667 -221.333 -331 -430 -331c-130.667 0 -236 47 -316 141
c-74.667 87.333 -112 194.666 -112 321.999c0 136 42 245 126 327c78.667 77.333 176.667 116 294 116c120.667 0 226.334 -47.333 317.001 -142c6.66699 211.333 -27.333 368 -102 470c-60 81.333 -139.333 122 -238 122c-71.333 0 -150.333 -32 -237 -96zM822.999 580.001
c-88 106 -184 159 -288 159c-78.667 0 -142.334 -27.667 -191.001 -83c-50.667 -56.667 -76 -132 -76 -226c0 -101.333 27.333 -181 82 -239c48.667 -50.667 107.334 -76 176.001 -76c92.667 0 166.667 47.333 222 142c50 87.333 75 195 75 323z" />
    <glyph glyph-name="existential" unicode="&#x2203;" horiz-adv-x="1348" 
d="M1078 0h-808v102h700v516h-678v102h678v502h-700v103h808v-1325z" />
    <glyph glyph-name="emptyset" unicode="&#x2205;" horiz-adv-x="1876" 
d="M1626 660c0 -190.667 -66.999 -352.5 -200.999 -485.5s-296.333 -199.5 -487 -199.5c-170 0 -320.667 55.667 -452 167l-139 -136l-65 65l139 137c-114 133.333 -171 284.333 -171 453c0 190 67 351.5 201 484.5s296 199.5 486 199.5
c167.333 0 318.666 -56.333 453.999 -169l138 137l65 -65l-139 -138c114 -133.333 171 -283.333 171 -450zM1534 660c0 142 -47.666 270.333 -142.999 385l-841 -836c113.333 -94.667 242.666 -142 387.999 -142c165.333 0 306 57.667 422 173s174 255.333 174 420z
M1325 1110c-116.667 95.333 -245.667 143 -387 143c-165.333 0 -306 -57.333 -422 -172s-174 -254.667 -174 -420c0 -144.667 48 -274 144 -388z" />
    <glyph glyph-name="uni2206" unicode="&#x2206;" horiz-adv-x="1389" 
d="M782 1458l584 -1458h-1341l563 1458h194zM682 1255l-408 -1085h832z" />
    <glyph glyph-name="gradient" unicode="&#x2207;" horiz-adv-x="1363" 
d="M1293 1333l-609 -1345l-554 1345h1163zM1172 1254h-827l394 -951z" />
    <glyph glyph-name="element" unicode="&#x2208;" horiz-adv-x="1628" 
d="M1406 0l-592 -0.000976562c-165.333 0 -305.333 57.333 -420 172s-172 254.667 -172 420c0 164.667 57.5 304.5 172.5 419.5s254.833 172.5 419.5 172.5h592v-99h-592c-126 0 -236.833 -42.667 -332.5 -128s-148.5 -190.333 -158.5 -315h1083v-99h-1083
c9.33301 -125.333 62 -230.666 158 -315.999s207 -128 333 -128h592v-99z" />
    <glyph glyph-name="notelement" unicode="&#x2209;" horiz-adv-x="1628" 
d="M1406 0l-592 -0.00195312l-74 -222h-104l77 231c-142.667 24.667 -260.167 91.834 -352.5 201.501s-138.5 236.834 -138.5 381.501c0 164.667 57.5 304.5 172.5 419.5s254.833 172.5 419.5 172.5h291l74 223h104l-74 -223h197v-99h-230l-148 -443h378v-99h-411l-148 -444
h559v-99zM1072 1085h-258c-126 0 -236.833 -42.667 -332.5 -128s-148.5 -190.333 -158.5 -315h601zM891 542.998h-568.001c8.66699 -113.333 53.334 -211 134.001 -293c78 -79.333 174 -128.333 288 -147z" />
    <glyph glyph-name="suchthat" unicode="&#x220b;" horiz-adv-x="1628" 
d="M1406 592c0 -165.333 -57.333 -305.332 -172 -419.999s-254.667 -172 -420 -172h-592v99h592c126 0 237 42.667 333 128s148.667 190.666 158 315.999h-1083v99h1083c-9.33301 125.333 -62 230.5 -158 315.5s-207 127.5 -333 127.5h-592v99h592
c165.333 0 305.333 -57.333 420 -172s172 -254.667 172 -420z" />
    <glyph glyph-name="product" unicode="&#x220f;" horiz-adv-x="1544" 
d="M1382 1606v-2044h-184v1876h-848v-1876h-184v2044h1216z" />
    <glyph glyph-name="summation" unicode="&#x2211;" horiz-adv-x="1282" 
d="M1206 1610v-168h-884l596 -846l-635 -866h948v-168h-1180v149l647 883l-618 868v148h1126z" />
    <glyph glyph-name="minus" unicode="&#x2212;" horiz-adv-x="1229" 
d="M1133 428h-1037v180h1037v-180z" />
    <glyph glyph-name="asteriskmath" unicode="&#x2217;" horiz-adv-x="868" 
d="M758 268l-39 -66l-250 143v-284h-80v284l-230 -143l-42 66l238 144l-245 133l40 73l239 -129v268h80v-273l239 134l38 -73l-229 -133z" />
    <glyph glyph-name="uni2219" unicode="&#x2219;" horiz-adv-x="569" 
d="M406 623c0 -33.333 -11.665 -62.166 -34.998 -86.499s-51.333 -36.5 -84 -36.5s-61.334 12.167 -86.001 36.5s-37 53.166 -37 86.499c0 32 12.167 59.667 36.5 83s53.166 35 86.499 35c32.667 0 60.667 -11.5 84 -34.5s35 -50.833 35 -83.5z" />
    <glyph glyph-name="radical" unicode="&#x221a;" horiz-adv-x="1055" 
d="M1077 1610l-432 -2048h-176l-324 671l-98 -47l-67 144l253 119l295 -621l365 1782h184z" />
    <glyph glyph-name="proportional" unicode="&#x221d;" horiz-adv-x="1098" 
d="M1058 246c-23.333 3.33301 -57 13.001 -101 29.001s-74 29.333 -90 40c-27.333 18 -56 48 -86 90c-32.667 46 -54 89.333 -64 130c-75.333 -155.333 -183.333 -233 -324 -233c-102.667 0 -186 36.333 -250 109c-62 70 -93 156.667 -93 260c0 96.667 26.333 180 79 250
c58 77.333 134 116 228 116c70 0 129.667 -22.667 179 -68c37.333 -33.333 75.333 -87 114 -161c40 96.667 92.667 171 158 223c74.667 59.333 158 89 250 89v-88c-42 -6.66699 -90 -34.334 -144 -83.001c-43.333 -39.333 -99.333 -154 -168 -344
c36.667 -102.667 87.5 -175.167 152.5 -217.5s118.167 -63.5 159.5 -63.5v-78zM621 731.001c-60 143.333 -148.999 214.999 -266.999 214.999c-76 0 -137 -27.333 -183 -82c-44 -51.333 -66 -115.666 -66 -192.999c0 -73.333 19.333 -138.333 58 -195
c44 -64 101.333 -96 172 -96c77.333 0 141.666 41.667 192.999 125c28.667 46 59.667 121.333 93 226z" />
    <glyph glyph-name="infinity" unicode="&#x221e;" horiz-adv-x="1638" 
d="M821 621c72 78.667 129.001 133 171.001 163c70.667 50.667 144 76 220 76c94.667 0 171.667 -31 231 -93s89 -142.333 89 -241c0 -101.333 -29.333 -183.666 -88 -246.999s-135.334 -95 -230.001 -95c-125.333 0 -256.333 75.333 -393 226
c-94 -84.667 -153.333 -135.334 -178 -152.001c-70 -48 -143 -72 -219 -72c-93.333 0 -170 31.167 -230 93.5s-90 142.5 -90 240.5c0 100 29.5 181.333 88.5 244s134.833 94 227.5 94c77.333 0 152 -25 224 -75c44.667 -30.667 103.667 -84.667 177 -162zM918.001 518
c110.667 -117.333 210.333 -176.001 299 -176.001c50 0 90 16.333 120 49s45 75.667 45 129c0 54.667 -15.5 98.334 -46.5 131.001s-72.167 49 -123.5 49c-74.667 0 -172.667 -60.667 -294 -182zM719 517.999l-14.001 13.999c-112 112 -207.667 168 -287 168
c-46 0 -84.5 -17.167 -115.5 -51.5s-46.5 -77.166 -46.5 -128.499c0 -52.667 15.333 -95.167 46 -127.5s71.334 -48.5 122.001 -48.5c86.667 0 185 58 295 174z" />
    <glyph glyph-name="angle" unicode="&#x2220;" horiz-adv-x="1628" 
d="M1406 0h-1184l1184 1184v-139l-944 -946h944v-99z" />
    <glyph glyph-name="logicaland" unicode="&#x2227;" horiz-adv-x="1628" 
d="M1406 0h-110l-483 962l-481 -962h-110l592 1184z" />
    <glyph glyph-name="logicalor" unicode="&#x2228;" horiz-adv-x="1628" 
d="M1406 1184l-592 -1184l-592 1184h110l483 -962l481 962h110z" />
    <glyph glyph-name="intersection" unicode="&#x2229;" horiz-adv-x="1628" 
d="M1390 0h-99v592c0 137.333 -47.833 253.833 -143.5 349.5s-212.167 143.5 -349.5 143.5c-136.667 0 -253 -48 -349 -144s-144 -212.333 -144 -349v-592h-99v592c0 165.333 57.333 305.333 172 420s254.667 172 420 172c164.667 0 304.5 -57.5 419.5 -172.5
s172.5 -254.833 172.5 -419.5v-592z" />
    <glyph glyph-name="union" unicode="&#x222a;" horiz-adv-x="1628" 
d="M1406 592c0 -164.667 -57.5 -304.5 -172.5 -419.5s-254.833 -172.5 -419.5 -172.5c-165.333 -0 -305.333 57.333 -420 172s-172 254.667 -172 420v592h99v-592c0 -136.667 48 -253 144 -349s212.333 -144 349 -144c137.333 0 253.833 47.833 349.5 143.5
s143.5 212.167 143.5 349.5v592h99v-592z" />
    <glyph glyph-name="integral" unicode="&#x222b;" 
d="M934 1585l-16 -168.001c-30.667 12.667 -65.667 19 -105 19c-99.333 0 -149 -67 -149 -201v-1323c0 -105.333 -23 -188.666 -69 -249.999c-51.333 -69.333 -128 -104 -230 -104c-71.333 0 -124.666 7.33301 -159.999 22l14 168c30 -12 65 -18 105 -18
c99.333 0 149 66.667 149 200v1323c0 236.667 100.333 355 301 355c71.333 0 124.666 -7.66699 159.999 -23z" />
    <glyph glyph-name="therefore" unicode="&#x2234;" horiz-adv-x="1501" 
d="M851 923c0 -28 -9.83301 -51.833 -29.5 -71.5s-43.5 -29.5 -71.5 -29.5s-51.667 9.83301 -71 29.5s-29 43.5 -29 71.5c0 27.333 9.83301 50.833 29.5 70.5s43.167 29.5 70.5 29.5c28 0 51.833 -9.66699 71.5 -29s29.5 -43 29.5 -71zM1301 96
c0 -28 -9.83301 -51.833 -29.5 -71.5s-43.5 -29.5 -71.5 -29.5s-51.667 9.83301 -71 29.5s-29 43.5 -29 71.5c0 27.333 9.83301 50.833 29.5 70.5s43.167 29.5 70.5 29.5c28 0 51.833 -9.66699 71.5 -29s29.5 -43 29.5 -71zM401 93c0 -28 -9.83301 -51.833 -29.5 -71.5
s-43.5 -29.5 -71.5 -29.5s-51.667 9.83301 -71 29.5s-29 43.5 -29 71.5c0 27.333 9.83301 50.833 29.5 70.5s43.167 29.5 70.5 29.5c28 0 51.833 -9.66699 71.5 -29s29.5 -43 29.5 -71z" />
    <glyph glyph-name="congruent" unicode="&#x2245;" horiz-adv-x="1365" 
d="M1222 1206c-1.33301 -81.333 -23.667 -148.667 -67 -202c-47.333 -58.667 -110.333 -88 -189 -88c-44.667 0 -108 15.333 -190 46l-181 75c-102 42 -175.333 63 -220 63c-100 0 -162 -61.333 -186 -184h-47c2 79.333 23 146 63 200c45.333 60 106 90 182 90
c63.333 0 190 -40 380 -120c101.333 -42.667 175.333 -64 222 -64c53.333 0 97 17.667 131 53c32 33.333 50.333 77 55 131h47zM1222 621.999h-1080v108h1080v-108zM1222 236.999h-1080v108h1080v-108z" />
    <glyph glyph-name="approxequal" unicode="&#x2248;" horiz-adv-x="1229" 
d="M1161 879c-21.333 -212 -115.333 -318 -282 -318c-44 0 -139.667 25.333 -287 76c-139.333 48 -226 72 -260 72c-36 0 -67.167 -14.167 -93.5 -42.5s-43.166 -65.5 -50.499 -111.5h-122c6.66699 88 32 161 76 219c51.333 66.667 120 100 206 100
c43.333 0 139.666 -24.333 288.999 -73c136.667 -45.333 224 -68 262 -68c78 0 126.333 48.667 145 146h117zM1161 489c-21.333 -211.333 -115.333 -317 -282 -317c-44 0 -139.667 25.333 -287 76c-139.333 47.333 -226 71 -260 71c-36 0 -67.167 -14 -93.5 -42
s-43.166 -65 -50.499 -111h-122c6.66699 88 32 161 76 219c51.333 66.667 120 100 206 100c43.333 0 139.666 -24.333 288.999 -73c136.667 -45.333 224 -68 262 -68c78 0 126.333 48.333 145 145h117z" />
    <glyph glyph-name="notequal" unicode="&#x2260;" horiz-adv-x="1229" 
d="M453 393l131 252h-488v170h576l157 307l150 -78l-119 -229h273v-170h-361l-131 -252h492v-172h-580l-158 -303l-149 76l119 227h-269v172h357z" />
    <glyph glyph-name="equivalence" unicode="&#x2261;" horiz-adv-x="1365" 
d="M1222 1002h-1080v108h1080v-108zM1222 622h-1080v108h1080v-108zM1222 237h-1080v108h1080v-108z" />
    <glyph glyph-name="lessequal" unicode="&#x2264;" horiz-adv-x="1229" 
d="M96 551v176l1037 375v-182l-801 -281l801 -274v-183zM96 106h1037v-172h-1037v172z" />
    <glyph glyph-name="greaterequal" unicode="&#x2265;" horiz-adv-x="1229" 
d="M1133 551l-1037 -369v183l803 274l-803 281v182l1037 -375v-176zM1133 106v-172h-1037v172h1037z" />
    </font>
</defs>
</svg>
