<?xml version="1.0" standalone="no"?>
<!DOCTYPE svg PUBLIC "-//W3C//DTD SVG 1.1//EN" "http://www.w3.org/Graphics/SVG/1.1/DTD/svg11.dtd" >
<svg>
<metadata>
Created by FontForge 20090914 at Fri Feb 24 03:29:43 2012
 By www-data
Copyright (c) 1988, 1990 Adobe Systems Incorporated.  All Rights Reserved.Frutiger is a registered trademark of Linotype AG and/or its subsidiaries.
</metadata>
<defs>
<font id="FrutigerBold" horiz-adv-x="556" >
  <font-face 
    font-family="Frutiger"
    font-weight="400"
    font-stretch="normal"
    units-per-em="1000"
    panose-1="0 0 4 0 0 0 0 0 0 0"
    ascent="800"
    descent="-200"
    x-height="515"
    cap-height="698"
    bbox="-166 -222.001 1000 935"
    underline-thickness="50"
    underline-position="-75"
    unicode-range="U+0020-U+F002"
  />
<missing-glyph horiz-adv-x="500" 
d="M63 0v779h375v-779h-375zM125 63h250v654h-250v-654z" />
    <glyph glyph-name=".notdef" horiz-adv-x="500" 
d="M63 0v779h375v-779h-375zM125 63h250v654h-250v-654z" />
    <glyph glyph-name="space" unicode=" " horiz-adv-x="278" 
 />
    <glyph glyph-name="exclam" unicode="!" horiz-adv-x="389" 
d="M137 205l-19 493h154l-21 -493h-114zM125 0v140h140v-140h-140z" />
    <glyph glyph-name="quotedbl" unicode="&#x22;" horiz-adv-x="481" 
d="M271 448v250h122v-250h-122zM88 448v250h122v-250h-122z" />
    <glyph glyph-name="numbersign" unicode="#" 
d="M494 285v-80h-92l-29 -205h-88l29 205h-102l-30 -205h-88l29 205h-90v80h101l17 128h-88v80h100l28 205h89l-28 -205h102l28 205h88l-28 -205h81v-80h-93l-17 -128h81zM342 413h-102l-17 -128h102z" />
    <glyph glyph-name="dollar" unicode="$" 
d="M259 434v156c-36.667 -16.667 -55 -45.667 -55 -87c0 -27.333 18.333 -50.333 55 -69zM306 265v-153c38.667 16.667 58 42 58 76c0 32 -19.333 57.667 -58 77zM259 782h47.001v-72c59.333 0 113.666 -8.33301 162.999 -25l-13 -115c-46 20 -93.333 30 -142 30
c-3.33301 0 -6 -0.333008 -8 -1v-185c68 -26.667 113 -49 135 -67c46 -36 69 -85.333 69 -148c0 -62 -19.667 -111 -59 -147c-35.333 -32.667 -83.666 -52.667 -144.999 -60v-82h-47v79c-2.66699 -0.666992 -6.33398 -1 -11.001 -1c-46 0 -105.667 9 -179 27l13 126
c52.667 -28.667 105.334 -43 158.001 -43c8 0 14.333 0.666992 19 2v187c-66.667 26 -111.334 48 -134.001 66c-44.667 35.333 -67 83.333 -67 144c0 64 20 114.667 60 152c35.333 32 82.333 51.667 141 59v74z" />
    <glyph glyph-name="percent" unicode="%" horiz-adv-x="1000" 
d="M729 68c41.333 0 62 34.667 62 104s-20.667 104 -62 104c-42.667 0 -64 -34.667 -64 -104s21.333 -104 64 -104zM245 -22l432 742h82l-432 -742h-82zM274 342c-53.333 0 -94.666 16.167 -123.999 48.5s-44 77.5 -44 135.5s14.667 103.167 44 135.5
s70.666 48.5 123.999 48.5s94.333 -16.167 123 -48.5s43 -77.5 43 -135.5s-14.333 -103.167 -43 -135.5s-69.667 -48.5 -123 -48.5zM274 422c41.333 0 62 34.667 62 104s-20.667 104 -62 104c-42.667 0 -64 -34.667 -64 -104s21.333 -104 64 -104zM729 -12
c-53.333 0 -94.666 16.167 -123.999 48.5s-44 77.5 -44 135.5s14.667 103.167 44 135.5s70.666 48.5 123.999 48.5s94.333 -16.167 123 -48.5s43 -77.5 43 -135.5s-14.333 -103.167 -43 -135.5s-69.667 -48.5 -123 -48.5z" />
    <glyph glyph-name="ampersand" unicode="&#x26;" horiz-adv-x="722" 
d="M434 134l-155.001 172.999c-56.667 -29.333 -85 -66.666 -85 -111.999c0 -30 11.333 -54.667 34 -74s50.667 -29 84 -29c52.667 0 93.334 14 122.001 42zM309.999 438.999c22 11.333 41.667 25.333 59 42c21.333 20.667 32 40.334 32 59.001
c0 23.333 -7.5 41.166 -22.5 53.499s-33.167 18.5 -54.5 18.5c-22 0 -40.333 -6 -55 -18c-16.667 -13.333 -25 -32 -25 -56c0 -16.667 7.66699 -34.667 23 -54c4.66699 -6 19 -21 43 -45zM387.999 366.999l127.998 -139.999c26.667 30.667 41.334 81.334 44.001 152.001h122
c-4 -93.333 -33.667 -173 -89 -239l125 -140h-172l-47 62c-48.667 -49.333 -112 -74 -190 -74c-72 0 -130.667 17.333 -176 52c-48.667 37.333 -73 87.666 -73 150.999c0 44 10.667 80.667 32 110c23.333 32 61.666 59.333 114.999 82
c-35.333 33.333 -58.333 57.666 -69 72.999c-18.667 27.333 -28 59 -28 95c0 49.333 23 89 69 119c40.667 26.667 88.334 40 143.001 40s100.334 -12.333 137.001 -37c42.667 -28 64 -68.333 64 -121c0 -44 -13 -81.333 -39 -112c-19.333 -22.667 -51.333 -47 -96 -73z" />
    <glyph glyph-name="quotesingle" unicode="'" horiz-adv-x="278" 
d="M78 448v250h122v-250h-122z" />
    <glyph glyph-name="parenleft" unicode="(" horiz-adv-x="333" 
d="M199 756l127 0.000976562c-48.667 -77.333 -83.667 -146 -105 -206c-26.667 -75.333 -40 -156 -40 -242c0 -146 48.333 -295.333 145 -448h-127c-106.667 145.333 -160 294.666 -160 447.999c0 87.333 14.333 168 43 242c24 63.333 63 132 117 206z" />
    <glyph glyph-name="parenright" unicode=")" horiz-adv-x="333" 
d="M133 -140h-125.999c96.667 154.667 145 304 145 448c0 85.333 -13.667 166 -41 242c-20.667 59.333 -55.334 128 -104.001 206h126c54 -75.333 93.333 -144 118 -206c28.667 -74.667 43 -155.334 43 -242.001c0 -151.333 -53.667 -300.666 -161 -447.999z" />
    <glyph glyph-name="asterisk" unicode="*" 
d="M484 506l-139 -31l96 -107l-92 -66l-71 124l-76 -124l-91 66l98 107l-137 31l33 104l133 -57l-16 145h114l-17 -144l133 56z" />
    <glyph glyph-name="plus" unicode="+" horiz-adv-x="600" 
d="M248 305v201h104v-201h202v-104h-202v-201h-104v201h-202v104h202z" />
    <glyph glyph-name="comma" unicode="," horiz-adv-x="278" 
d="M23 -110l64 250h145l-91 -250h-118z" />
    <glyph glyph-name="hyphen" unicode="-" horiz-adv-x="333" 
d="M298 214h-263v110h263v-110z" />
    <glyph glyph-name="hyphen" unicode="&#x2010;" horiz-adv-x="333" 
d="M298 214h-263v110h263v-110z" />
    <glyph glyph-name="period" unicode="." horiz-adv-x="278" 
d="M69 0v140h140v-140h-140z" />
    <glyph glyph-name="slash" unicode="/" horiz-adv-x="389" 
d="M21 -12l244 722h104l-244 -722h-104z" />
    <glyph glyph-name="zero" unicode="0" 
d="M277 92c45.333 0 75.666 31.667 90.999 95c8.66699 34 13 87.333 13 160c0 73.333 -4.33301 127.666 -13 162.999c-15.333 64 -45.666 96 -90.999 96c-44 0 -73.667 -32 -89 -96c-8.66699 -35.333 -13 -89.666 -13 -162.999c0 -72.667 4 -126 12 -160
c15.333 -63.333 45.333 -95 90 -95zM277 -12c-161.333 0 -242 119.667 -242 359c0 102.667 16.667 185 50 247c41.333 77.333 105.333 116 192 116c162.667 0 244 -121 244 -363c0 -100 -15.333 -180 -46 -240c-40.667 -79.333 -106.667 -119 -198 -119z" />
    <glyph glyph-name="one" unicode="1" 
d="M79 534l204 164h124v-698h-140v539l-118 -96z" />
    <glyph glyph-name="two" unicode="2" 
d="M505 0l-464 0.000976562v117l107 100c56 54.667 99.667 103 131 145c42.667 57.333 64 105.333 64 144c0 30 -12 53.667 -36 71c-20.667 15.333 -46.667 23 -78 23c-50 0 -103.667 -18.667 -161 -56l-11 116c65.333 33.333 134.333 50 207 50
c68 0 121.5 -17.333 160.5 -52s58.5 -85.334 58.5 -152.001c0 -64.667 -29.667 -135 -89 -211c-28.667 -37.333 -86.667 -99 -174 -185h285v-110z" />
    <glyph glyph-name="three" unicode="3" 
d="M45 11l8 119.001c54 -21.333 105.667 -32 155 -32c35.333 0 67 7.66699 95 23c34.667 18.667 52 44 52 76c0 72.667 -51.333 109 -154 109h-68v110h64c103.333 0 155 30.667 155 92s-40 92 -120 92c-54 0 -106.333 -12.333 -157 -37l-8 112
c59.333 23.333 124.333 35 195 35c58 0 107 -11.333 147 -34c55.333 -30.667 83 -79 83 -145c0 -78.667 -43.333 -134.334 -130 -167.001v-2c43.333 -6 76.333 -24.167 99 -54.5s34 -67.5 34 -111.5c0 -74.667 -30 -130 -90 -166c-46.667 -28 -105.667 -42 -177 -42
c-68.667 0 -129.667 7.66699 -183 23z" />
    <glyph glyph-name="four" unicode="4" 
d="M142 249h175v303h-2zM16 145v113l261 440h174v-449h89v-104h-89v-145h-134v145h-301z" />
    <glyph glyph-name="five" unicode="5" 
d="M490 698l-0.000976562 -104h-269l-3 -149c24.667 4.66699 46 7 64 7c60 0 109.667 -15.333 149 -46c50.667 -38.667 76 -99 76 -181c0 -68.667 -22.667 -124.667 -68 -168c-49.333 -46 -117.333 -69 -204 -69c-52.667 0 -107 6.66699 -163 20l3 125
c56.667 -23.333 104.334 -35 143.001 -35c41.333 0 75.333 9.33301 102 28c31.333 22 47 53.667 47 95c0 42 -16.667 73.333 -50 94c-28 18 -64.667 27 -110 27c-43.333 0 -85 -6.33301 -125 -19l7 375h401z" />
    <glyph glyph-name="six" unicode="6" 
d="M478 685l-18.002 -113c-43.333 18.667 -84 28 -122 28c-55.333 0 -97.666 -23 -126.999 -69c-24 -37.333 -37 -86.333 -39 -147l2 -2c32 46.667 77 70 135 70c64.667 0 115.334 -19.333 152.001 -58c34.667 -38 52 -89.667 52 -155c0 -78 -19 -138.667 -57 -182
c-40 -46 -98.333 -69 -175 -69c-158 0 -237 108.333 -237 325c0 111.333 19.667 201 59 269c48.667 85.333 124.667 128 228 128c50.667 0 99.667 -8.33301 147 -25zM277.998 348c-32 0 -56.002 -13.333 -72.002 -40c-14.667 -23.333 -22 -54 -22 -92
c0 -36 7.66699 -65 23 -87c16.667 -24.667 41.334 -37 74.001 -37c30.667 0 54 13 70 39c14.667 22.667 22 51.334 22 86.001c0 37.333 -7.33301 67.666 -22 90.999c-17.333 26.667 -41.666 40 -72.999 40z" />
    <glyph glyph-name="seven" unicode="7" 
d="M50 588v110h450v-116l-248 -582h-152l259 588h-309z" />
    <glyph glyph-name="eight" unicode="8" 
d="M291 417c20 7.33301 37.999 20.832 53.999 40.499s24 39.834 24 60.501c0 26 -7.83301 47.167 -23.5 63.5s-36.5 24.5 -62.5 24.5c-27.333 0 -50.666 -7 -69.999 -21c-21.333 -15.333 -32 -36.333 -32 -63c0 -42.667 36.667 -77.667 110 -105zM386.999 374.999v-1
c89.333 -42 134 -103 134 -183c0 -67.333 -22.667 -118.666 -68 -153.999c-42 -32.667 -99.333 -49 -172 -49s-130.667 15.667 -174 47c-48 35.333 -72 86.666 -72 153.999c0 74 42.667 131.667 128 173v2c-77.333 34 -116 88 -116 162c0 60 21 106.333 63 139
c39.333 30 92.333 45 159 45s121 -13.333 163 -40c47.333 -30 71 -72.667 71 -128c0 -33.333 -9.66699 -65 -29 -95c-21.333 -33.333 -50.333 -57.333 -87 -72zM263.999 305.999c-59.333 -28.667 -89 -66.998 -89 -114.998c0 -28.667 10.5 -52.334 31.5 -71.001
s45.833 -28 74.5 -28s52.5 8.5 71.5 25.5s28.5 39.5 28.5 67.5c0 55.333 -39 95.666 -117 120.999z" />
    <glyph glyph-name="nine" unicode="9" 
d="M79 13l18.002 113.001c43.333 -18.667 84 -28 122 -28c55.333 0 97.666 23 126.999 69c24 37.333 37 86.333 39 147l-2 2c-31.333 -46.667 -76.333 -70 -135 -70c-64.667 0 -114.834 19.167 -150.501 57.5s-53.5 90.166 -53.5 155.499c0 78 19 138.667 57 182
c40 46 98.333 69 175 69c158 0 237 -108.333 237 -325c0 -111.333 -19.667 -201 -59 -269c-48.667 -85.333 -124.667 -128 -228 -128c-50.667 0 -99.667 8.33301 -147 25zM279.002 350.001c32 0 56.335 13.333 73.002 40c14 23.333 21 54 21 92c0 36 -7.66699 65 -23 87
c-16.667 24.667 -41.334 37 -74.001 37c-30.667 0 -54 -13 -70 -39c-14.667 -22.667 -22 -51.334 -22 -86.001c0 -37.333 7.33301 -67.666 22 -90.999c17.333 -26.667 41.666 -40 72.999 -40z" />
    <glyph glyph-name="colon" unicode=":" horiz-adv-x="278" 
d="M69 375v140h140v-140h-140zM69 0v140h140v-140h-140z" />
    <glyph glyph-name="semicolon" unicode=";" horiz-adv-x="278" 
d="M23 -110l64 250h145l-91 -250h-118zM69 375v140h140v-140h-140z" />
    <glyph glyph-name="less" unicode="&#x3c;" horiz-adv-x="600" 
d="M554 94v-102l-508 218v86l508 218v-102l-373 -159z" />
    <glyph glyph-name="equal" unicode="=" horiz-adv-x="600" 
d="M554 414v-104h-508v104h508zM554 196v-104h-508v104h508z" />
    <glyph glyph-name="greater" unicode="&#x3e;" horiz-adv-x="600" 
d="M46 94l373 159l-373 159v102l508 -218v-86l-508 -218v102z" />
    <glyph glyph-name="question" unicode="?" horiz-adv-x="500" 
d="M61 566l-11 111c74 22 140 33 198 33c64 0 116.333 -13.667 157 -41c47.333 -32 71 -78 71 -138c0 -38.667 -15.667 -78 -47 -118l-84 -97c-29.333 -38 -42.333 -75.333 -39 -112h-123c0 54 12.667 101.333 38 142c5.33301 8.66699 29 37 71 85
c25.333 29.333 38 57.333 38 84c0 30.667 -12 54 -36 70c-20.667 14 -47 21 -79 21c-44.667 0 -96 -13.333 -154 -40zM175 0v140h140v-140h-140z" />
    <glyph glyph-name="at" unicode="@" horiz-adv-x="800" 
d="M415 446c-31.333 0 -57.833 -13.334 -79.5 -40.001s-32.5 -56 -32.5 -88c0 -24 6.66699 -43.667 20 -59s31.666 -23 54.999 -23c30.667 0 57.334 13.667 80.001 41c20.667 26.667 31 56.334 31 89.001c0 24 -6.83301 43.333 -20.5 58s-31.5 22 -53.5 22zM631 142.999
l84.998 0.00195312c-70 -103.333 -175.333 -155 -316 -155c-95.333 0 -177.666 30 -246.999 90c-77.333 67.333 -116 157.666 -116 270.999c0 100.667 36.833 186 110.5 256s165.834 105 276.501 105c90 0 166.667 -23.333 230 -70c72.667 -54 109 -128.667 109 -224
c0 -90 -33.667 -162 -101 -216c-52 -41.333 -102.333 -62 -151 -62c-35.333 0 -53.333 17.333 -54 52h-2c-30.667 -34.667 -64.334 -52 -101.001 -52c-42.667 0 -79.167 15.667 -109.5 47s-45.5 70.666 -45.5 117.999c0 66 20.167 122.667 60.5 170s88.833 71 145.5 71
c48.667 0 87.334 -21.333 116.001 -64l12 48h84l-55 -243c-4.66699 -20.667 -7 -32 -7 -34c0 -10 5 -15 15 -15c28.667 0 53.667 14 75 42c25.333 32.667 38 77.667 38 135c0 74 -28.333 128.667 -85 164c-44.667 27.333 -102.667 41 -174 41
c-81.333 0 -148.833 -26.667 -202.5 -80s-80.5 -116.333 -80.5 -189c0 -77.333 24.5 -141.5 73.5 -192.5s110.833 -76.5 185.5 -76.5c104 0 181 21 231 63z" />
    <glyph glyph-name="A" unicode="A" horiz-adv-x="722" 
d="M459 270l-101 288h-2l-101 -288h204zM9 0l272 698h158l274 -698h-155l-60 160h-283l-61 -160h-145z" />
    <glyph glyph-name="B" unicode="B" horiz-adv-x="611" 
d="M221 312v-202h66c96 0 144 32.333 144 97c0 70 -48 105 -144 105h-66zM221 588v-172h57c88 0 132 28.333 132 85c0 36 -14.333 60.667 -43 74c-20 8.66699 -50.667 13 -92 13h-54zM81 0v698h244c60 0 108.667 -10.667 146 -32c52.667 -30 79 -79 79 -147
c0 -40.667 -12.667 -75 -38 -103s-59 -45.667 -101 -53v-2c47.333 -4.66699 85.833 -21.667 115.5 -51s44.5 -65.333 44.5 -108c0 -77.333 -30 -133 -90 -167c-41.333 -23.333 -93.333 -35 -156 -35h-244z" />
    <glyph glyph-name="C" unicode="C" horiz-adv-x="611" 
d="M583 127l5.99902 -117c-62 -14.667 -115 -22 -159 -22c-117.333 0 -209.333 28.667 -276 86c-71.333 60.667 -107 148.334 -107 263.001c0 118.667 34 210.5 102 275.5s161.667 97.5 281 97.5c56 0 108.667 -9.66699 158 -29l-10 -118
c-43.333 24.667 -93.666 37 -150.999 37c-70.667 0 -127.334 -23.833 -170.001 -71.5s-64 -108.167 -64 -181.5c0 -72.667 21.333 -132.334 64 -179.001s100.334 -70 173.001 -70c64.667 0 115.667 9.66699 153 29z" />
    <glyph glyph-name="D" unicode="D" horiz-adv-x="722" 
d="M81 0v698h191c268.667 0 403 -116.333 403 -349s-134.333 -349 -403 -349h-191zM221 588v-478.001h78c62 0 115 21 159 63c47.333 44.667 71 103.334 71 176.001s-23.667 131.667 -71 177c-44 41.333 -97 62 -159 62h-78z" />
    <glyph glyph-name="E" unicode="E" 
d="M81 0v698h412v-110h-272v-172h249v-110h-249v-196h274v-110h-414z" />
    <glyph glyph-name="F" unicode="F" horiz-adv-x="500" 
d="M81 0v698h388v-110h-248v-172h236v-110h-236v-306h-140z" />
    <glyph glyph-name="G" unicode="G" horiz-adv-x="722" 
d="M635 681l-9.00195 -118c-53.333 24.667 -113.333 37 -180 37c-79.333 0 -142 -24.333 -188 -73c-43.333 -46 -65 -106 -65 -180c0 -72.667 21.333 -132.334 64 -179.001s100.334 -70 173.001 -70c34.667 0 65.334 3.33301 92.001 10v182h-148v110h282v-376
c-88.667 -24 -164 -36 -226 -36c-117.333 0 -209.333 28.667 -276 86c-71.333 60.667 -107 148.334 -107 263.001c0 118.667 34 210.5 102 275.5s161.667 97.5 281 97.5c72 0 140.333 -9.66699 205 -29z" />
    <glyph glyph-name="H" unicode="H" horiz-adv-x="722" 
d="M81 0v698h140v-282h280v282h140v-698h-140v306h-280v-306h-140z" />
    <glyph glyph-name="I" unicode="I" horiz-adv-x="278" 
d="M69 0v698h140v-698h-140z" />
    <glyph glyph-name="J" unicode="J" horiz-adv-x="389" 
d="M22 1l0.000976562 121c22 -8 44.333 -12 67 -12c40 0 66.667 14.333 80 43c7.33301 16 11 42.667 11 80v465h140v-532c0 -44.667 -14 -83.667 -42 -117c-34.667 -40.667 -84.334 -61 -149.001 -61c-37.333 0 -73 4.33301 -107 13z" />
    <glyph glyph-name="K" unicode="K" horiz-adv-x="667" 
d="M81 0v698h140v-300l252 300h172l-287 -329l299 -369h-183l-251 324h-2v-324h-140z" />
    <glyph glyph-name="L" unicode="L" horiz-adv-x="500" 
d="M81 0v698h140v-588h271v-110h-411z" />
    <glyph glyph-name="M" unicode="M" horiz-adv-x="944" 
d="M81 0v698h224l166 -529h2l166 529h224v-698h-134v576h-2l-188 -576h-134l-188 576l-2 -2v-574h-134z" />
    <glyph glyph-name="N" unicode="N" horiz-adv-x="722" 
d="M74 0v698h172l266 -522h2v522h134v-698h-171l-267 522h-2v-522h-134z" />
    <glyph glyph-name="O" unicode="O" horiz-adv-x="778" 
d="M47 351c0 109.333 29.833 196.5 89.5 261.5s143.834 97.5 252.501 97.5c107.333 0 191.666 -33.333 252.999 -100c59.333 -64.667 89 -151 89 -259c0 -108.667 -29.333 -195.667 -88 -261c-61.333 -68 -146 -102 -254 -102c-109.333 0 -194.333 33.667 -255 101
c-58 64.667 -87 152 -87 262zM193 351c0 -70.667 14.665 -128.667 43.998 -174c34.667 -52.667 85.334 -79 152.001 -79s117.334 26.333 152.001 79c29.333 45.333 44 103.333 44 174c0 68.667 -15.333 125.667 -46 171c-35.333 52 -85.333 78 -150 78
s-114.667 -26 -150 -78c-30.667 -45.333 -46 -102.333 -46 -171z" />
    <glyph glyph-name="P" unicode="P" 
d="M209 588v-213h49c88.667 0 133 34.667 133 104c0 72.667 -44.333 109 -133 109h-49zM69 0v698h177c194 0 291 -70.333 291 -211c0 -76.667 -26 -134 -78 -172c-46 -33.333 -109.667 -50 -191 -50h-59v-265h-140z" />
    <glyph glyph-name="Q" unicode="Q" horiz-adv-x="778" 
d="M713 -132h-169l-122 122c-6.66699 -1.33301 -17.667 -2 -33 -2c-109.333 0 -194.333 33.667 -255 101c-58 64.667 -87 152 -87 262c0 109.333 29.833 196.5 89.5 261.5s143.834 97.5 252.501 97.5c107.333 0 191.666 -33.333 252.999 -100
c59.333 -64.667 89 -151 89 -259c0 -76 -15.167 -142.5 -45.5 -199.5s-73.833 -99.167 -130.5 -126.5zM193 351c0 -70.667 14.665 -128.667 43.998 -174c34.667 -52.667 85.334 -79 152.001 -79s117.334 26.333 152.001 79c29.333 45.333 44 103.333 44 174
c0 68.667 -15.333 125.667 -46 171c-35.333 52 -85.333 78 -150 78s-114.667 -26 -150 -78c-30.667 -45.333 -46 -102.333 -46 -171z" />
    <glyph glyph-name="R" unicode="R" horiz-adv-x="611" 
d="M209 588l-0.000976562 -188h46c98.667 0 148 32.333 148 97c0 37.333 -16 63 -48 77c-21.333 9.33301 -54.666 14 -99.999 14h-46zM68.999 0l-0.000976562 698.001h151c107.333 0 181 -7.33301 221 -22c72 -26 108 -81.667 108 -167c0 -42 -13 -78 -39 -108
s-61 -48 -105 -54v-2c30.667 -2.66699 55.334 -26.667 74.001 -72l112 -273h-156l-84 218c-10.667 27.333 -22 45.666 -34 54.999c-14 11.333 -35 17 -63 17h-45v-290h-140z" />
    <glyph glyph-name="S" unicode="S" 
d="M469 685l-13.0029 -115c-46 20 -93.333 30 -142 30c-29.333 0 -53.666 -6.66699 -72.999 -20c-24.667 -16.667 -37 -42.334 -37 -77.001c0 -31.333 26.333 -58.333 79 -81c84.667 -35.333 134 -57.666 148 -66.999c52.667 -36.667 79 -88.667 79 -156
c0 -72 -26 -126.333 -78 -163c-46 -32 -107.333 -48 -184 -48c-46 0 -105.667 9 -179 27l13 126c52.667 -28.667 105.334 -43 158.001 -43c30.667 0 58 7 82 21c28 17.333 42 40.333 42 69c0 35.333 -26.333 64.666 -79 87.999
c-91.333 40.667 -140.666 63.334 -147.999 68.001c-52.667 36 -79 87 -79 153c0 72.667 25.333 127.667 76 165c43.333 32 99.333 48 168 48c61.333 0 117 -8.33301 167 -25z" />
    <glyph glyph-name="T" unicode="T" 
d="M208 0v588h-200v110h540v-110h-200v-588h-140z" />
    <glyph glyph-name="U" unicode="U" horiz-adv-x="722" 
d="M76 252v446h140v-403c0 -131.333 48.333 -197 145 -197s145 65.667 145 197v403h140v-446c0 -176 -95 -264 -285 -264s-285 88 -285 264z" />
    <glyph glyph-name="V" unicode="V" horiz-adv-x="667" 
d="M250 0l-240 698h150l179 -548h2l177 548h139l-235 -698h-172z" />
    <glyph glyph-name="W" unicode="W" horiz-adv-x="1000" 
d="M195 0l-185 698h147l130 -558h2l119 558h190l123 -558h2l131 558h136l-182 -698h-180l-126 558h-2l-124 -558h-181z" />
    <glyph glyph-name="X" unicode="X" horiz-adv-x="667" 
d="M10 0l229 363l-208 335h162l146 -249l149 249h150l-210 -335l229 -363h-165l-161 272l-163 -272h-158z" />
    <glyph glyph-name="Y" unicode="Y" horiz-adv-x="667" 
d="M266 0v276l-255 422h164l165 -293l168 293h148l-250 -422v-276h-140z" />
    <glyph glyph-name="Z" unicode="Z" 
d="M36 0v114l328 474h-315v110h464v-114l-331 -474h338v-110h-484z" />
    <glyph glyph-name="bracketleft" unicode="[" horiz-adv-x="333" 
d="M72 -140v896h224v-98h-96v-700h96v-98h-224z" />
    <glyph glyph-name="backslash" unicode="\" horiz-adv-x="389" 
d="M264 -12l-244 722h104l244 -722h-104z" />
    <glyph glyph-name="bracketright" unicode="]" horiz-adv-x="333" 
d="M37 756h224v-896h-224v98h96v700h-96v98z" />
    <glyph glyph-name="asciicircum" unicode="^" horiz-adv-x="600" 
d="M170 313h-104l187 385h94l187 -385h-104l-130 280z" />
    <glyph glyph-name="underscore" unicode="_" horiz-adv-x="500" 
d="M500 -125h-500v50h500v-50z" />
    <glyph glyph-name="grave" unicode="`" horiz-adv-x="278" 
d="M166 731l83 -146h-83l-137 146h137z" />
    <glyph glyph-name="a" unicode="a" 
d="M96 373l-4.00293 114.997c56.667 26 116.334 39 179.001 39c78 0 134.5 -17.167 169.5 -51.5s52.5 -89.5 52.5 -165.5v-66c0 -34.667 0.666992 -77.667 2 -129c0.666992 -36 2.66699 -74.333 6 -115h-118c-1.33301 6.66699 -3.33301 32.334 -6 77.001h-2
c-15.333 -27.333 -37.666 -49 -66.999 -65s-60 -24 -92 -24c-48.667 0 -90 13.333 -124 40c-37.333 28.667 -56 66.334 -56 113.001c0 69.333 29.333 118.333 88 147c40.667 20 98.334 30 173.001 30h74c0 40.667 -9.16699 69.334 -27.5 86.001s-47.833 25 -88.5 25
c-56.667 0 -109.667 -18.667 -159 -56zM163.997 148.997c0 -42 28.333 -63 85 -63c53.333 0 90 24.667 110 74c8 20.667 12 46.667 12 78h-58c-99.333 0 -149 -29.667 -149 -89z" />
    <glyph glyph-name="b" unicode="b" horiz-adv-x="611" 
d="M204 259c0 -43.333 8.66504 -80.333 25.998 -111c20.667 -37.333 51.334 -56 92.001 -56c40 0 70 19 90 57c15.333 30 23 66.667 23 110c0 42.667 -7.66699 78.667 -23 108c-19.333 37.333 -48.666 56 -87.999 56s-70 -18.333 -92 -55c-18.667 -30.667 -28 -67 -28 -109z
M68.998 0l0.000976562 750h134v-301h2c39.333 52 90.666 78 153.999 78c74 0 129.667 -27 167 -81c32.667 -46.667 49 -109 49 -187s-16.333 -140.667 -49 -188c-37.333 -55.333 -93 -83 -167 -83c-70 0 -122.667 25 -158 75h-2v-63h-130z" />
    <glyph glyph-name="c" unicode="c" horiz-adv-x="444" 
d="M415 510l-12 -106c-27.333 12.667 -57.666 19 -90.999 19c-41.333 0 -74.333 -15 -99 -45s-37 -69.333 -37 -118c0 -50 11.333 -90 34 -120c24.667 -32 59.667 -48 105 -48c32 0 66.333 8 103 24l6 -111c-36.667 -11.333 -81.334 -17 -134.001 -17
c-82 0 -145.333 25.667 -190 77c-42.667 48.667 -64 113.667 -64 195c0 77.333 21.333 140.333 64 189c45.333 52 107 78 185 78c48.667 0 92 -5.66699 130 -17z" />
    <glyph glyph-name="d" unicode="d" horiz-adv-x="611" 
d="M176 259c0 -43.333 7.99805 -80 23.998 -110c19.333 -38 49 -57 89 -57c40.667 0 71.334 18.667 92.001 56c17.333 30.667 26 67.667 26 111c0 42 -9.33301 78.333 -28 109c-22 36.667 -52.667 55 -92 55s-68.666 -18.667 -87.999 -56
c-15.333 -29.333 -23 -65.333 -23 -108zM411.998 0l0.000976562 58h-2c-37.333 -46.667 -90 -70 -158 -70c-74 0 -129.667 27.667 -167 83c-32.667 47.333 -49 110 -49 188s16.333 140.333 49 187c37.333 54 93 81 167 81c63.333 0 114.666 -24 153.999 -72h2v295h134v-750
h-130z" />
    <glyph glyph-name="e" unicode="e" 
d="M164 308h228c-4.66699 80.667 -41 121 -109 121c-72 0 -111.667 -40.333 -119 -121zM482 138l-0.00195312 -109.001c-49.333 -27.333 -108.333 -41 -177 -41c-85.333 0 -151.5 23.333 -198.5 70s-70.5 112.334 -70.5 197.001c0 78.667 20 142.667 60 192
c42.667 53.333 102.334 80 179.001 80c90 0 154.667 -29.333 194 -88c34 -50 51 -124.333 51 -223h-356c2.66699 -40.667 17.334 -72.5 44.001 -95.5s61 -34.5 103 -34.5c52 0 109 17.333 171 52z" />
    <glyph glyph-name="f" unicode="f" horiz-adv-x="389" 
d="M118 0v417h-99v98h99v72c0 52.667 14.333 95 43 127s69 48 121 48c33.333 0 66 -3.66699 98 -11l-11 -111c-20.667 12 -40 18 -58 18c-39.333 0 -59 -26.333 -59 -79v-64h117v-98h-117v-417h-134z" />
    <glyph glyph-name="g" unicode="g" horiz-adv-x="611" 
d="M290 104c40 0 70.332 15.666 90.999 46.999c18 28 27 65.333 27 112s-9 84.334 -27 113.001c-19.333 31.333 -47.666 47 -84.999 47c-42 0 -73.333 -17.333 -94 -52c-17.333 -28.667 -26 -65.667 -26 -111c0 -39.333 9.33301 -74 28 -104c21.333 -34.667 50 -52 86 -52z
M413.999 514.999h127.999v-465c0 -181.333 -90.667 -272 -272 -272c-63.333 0 -122.666 11.667 -177.999 35l11 114c56 -30 106 -45 150 -45c65.333 0 109.666 22.333 132.999 67c14.667 28 22 72.333 22 133h-2c-13.333 -23.333 -33.666 -42.333 -60.999 -57
c-30 -16.667 -63 -25 -99 -25c-71.333 0 -125.333 26 -162 78c-32 46 -48 106.667 -48 182c0 70 17 130 51 180c40 58 95.667 87 167 87s124 -27.333 158 -82h2v70z" />
    <glyph glyph-name="h" unicode="h" horiz-adv-x="611" 
d="M69 0v749.999h134v-305h2c37.333 54.667 91.333 82 162 82c58.667 0 103 -19 133 -57c28 -35.333 42 -83.666 42 -144.999v-325h-134v275c0 45.333 -3.66699 78 -11 98c-12.667 33.333 -38 50 -76 50c-43.333 0 -75 -20.333 -95 -61c-15.333 -30 -23 -66.667 -23 -110
v-252h-134z" />
    <glyph glyph-name="i" unicode="i" horiz-adv-x="278" 
d="M72 0v515h134v-515h-134zM72 609v128h134v-128h-134z" />
    <glyph glyph-name="j" unicode="j" horiz-adv-x="278" 
d="M-15 -214l5 96c37.333 2 61 10.333 71 25c7.33301 10.667 11 35 11 73v535h134v-553c0 -122.667 -51.667 -184 -155 -184c-26 0 -48 2.66699 -66 8zM72 609v128h134v-128h-134z" />
    <glyph glyph-name="k" unicode="k" 
d="M72 0v750h134v-441h2l160 206h158l-192 -230l216 -285h-170l-172 250h-2v-250h-134z" />
    <glyph glyph-name="l" unicode="l" horiz-adv-x="278" 
d="M72 0v750h134v-750h-134z" />
    <glyph glyph-name="m" unicode="m" horiz-adv-x="889" 
d="M67 0v515.002h125v-72h2c37.333 56 88.333 84 153 84c74 0 124.667 -30.333 152 -91c14.667 29.333 37.667 52.333 69 69c28 14.667 58.667 22 92 22c108.667 0 163 -67.333 163 -202v-325h-134v307c0 35.333 -3.33301 60.666 -10 75.999c-10.667 26.667 -33 40 -67 40
c-66.667 0 -100 -57.667 -100 -173v-250h-134v307c0 35.333 -3.33301 60.666 -10 75.999c-10.667 26.667 -33 40 -67 40c-66.667 0 -100 -57.667 -100 -173v-250h-134z" />
    <glyph glyph-name="n" unicode="n" horiz-adv-x="611" 
d="M69 0v514.999h127v-70h2c38.667 54.667 95 82 169 82c58.667 0 103 -19 133 -57c28 -35.333 42 -83.666 42 -144.999v-325h-134v275c0 45.333 -3.66699 78 -11 98c-12.667 33.333 -38 50 -76 50c-43.333 0 -75 -20.333 -95 -61c-15.333 -30 -23 -66.667 -23 -110v-252
h-134z" />
    <glyph glyph-name="o" unicode="o" horiz-adv-x="611" 
d="M36 254c0 83.333 25.999 149.999 77.999 199.999c49.333 48.667 113 73 191 73s142.5 -24.667 193.5 -74s76.5 -115.666 76.5 -198.999c0 -76.667 -23.667 -139.334 -71 -188.001c-49.333 -52 -115.666 -78 -198.999 -78c-82.667 0 -148.667 26 -198 78
c-47.333 48.667 -71 111.334 -71 188.001zM175.999 269.999c0 -118.667 42.999 -178 128.999 -178c86.667 0 130 59.333 130 178c0 42.667 -10.667 78 -32 106c-24 31.333 -56.667 47 -98 47s-73.666 -16 -96.999 -48c-21.333 -28 -32 -63 -32 -105z" />
    <glyph glyph-name="p" unicode="p" horiz-adv-x="611" 
d="M69 -210l-0.000976562 725h128v-73h2c34 56.667 87.333 85 160 85c74 0 129.667 -27 167 -81c32.667 -46.667 49 -109 49 -187s-16.333 -140.667 -49 -188c-38 -55.333 -94.667 -83 -170 -83c-61.333 0 -111.666 23.667 -150.999 71h-2v-269h-134zM323.999 423
c-39.333 0 -70.002 -18.333 -92.002 -55c-18.667 -30.667 -28 -67 -28 -109c0 -43.333 8.66699 -80.333 26 -111c20.667 -37.333 51.334 -56 92.001 -56c40 0 70 19 90 57c15.333 30 23 66.667 23 110c0 42.667 -7.66699 78.667 -23 108
c-19.333 37.333 -48.666 56 -87.999 56z" />
    <glyph glyph-name="q" unicode="q" horiz-adv-x="611" 
d="M408 -210l-0.000976562 269h-2c-39.333 -47.333 -89.666 -71 -150.999 -71c-75.333 0 -132 27.667 -170 83c-32.667 47.333 -49 110 -49 188s16.333 140.333 49 187c38 54 94.667 81 170 81c70.667 0 123 -28.333 157 -85h2v73h128v-725h-134zM286.999 423
c-39.333 0 -68.668 -18.667 -88.001 -56c-15.333 -29.333 -23 -65.333 -23 -108c0 -43.333 8 -80 24 -110c19.333 -38 49 -57 89 -57c40.667 0 71.334 18.667 92.001 56c17.333 30.667 26 67.667 26 111c0 42 -9.33301 78.333 -28 109c-22 36.667 -52.667 55 -92 55z" />
    <glyph glyph-name="r" unicode="r" horiz-adv-x="389" 
d="M72 0v515h119v-117h2c3.33301 28 17.666 55.667 42.999 83c28.667 30.667 61.334 46 98.001 46c18 0 31.667 -1.33301 41 -4v-135c-12.667 7.33301 -32.667 11 -60 11c-47.333 0 -79 -25.667 -95 -77c-9.33301 -28.667 -14 -73 -14 -133v-189h-134z" />
    <glyph glyph-name="s" unicode="s" horiz-adv-x="444" 
d="M384 508l-8.99902 -101.003c-42.667 14.667 -82.667 22 -120 22c-52.667 0 -79 -19 -79 -57c0 -20.667 20 -37.667 60 -51c60 -19.333 97.667 -34.333 113 -45c40 -26.667 60 -66.667 60 -120c0 -56 -22.333 -99 -67 -129c-38.667 -26 -88.334 -39 -149.001 -39
c-46 0 -96.667 7.33301 -152 22l8 110c45.333 -22.667 89.333 -34 132 -34c22 0 41 4.33301 57 13c20.667 10.667 31 27.334 31 50.001c0 26.667 -20 46.667 -60 60c-66.667 22.667 -104.334 36.334 -113.001 41.001c-40 24.667 -60 63.667 -60 117
c0 52.667 20.667 93.334 62 122.001c36.667 25.333 83.334 38 140.001 38c38 0 86.667 -6.33301 146 -19z" />
    <glyph glyph-name="t" unicode="t" horiz-adv-x="389" 
d="M113 155v262h-99v98h99v103l134 43v-146h119v-98h-119v-240c0 -56.667 21 -85 63 -85c26 0 46.333 4.66699 61 14l4 -106c-28 -8 -61 -12 -99 -12c-52 0 -92.167 14.833 -120.5 44.5s-42.5 70.5 -42.5 122.5z" />
    <glyph glyph-name="u" unicode="u" horiz-adv-x="611" 
d="M542 515v-515h-127v70h-2c-44.667 -54.667 -101 -82 -169 -82c-58.667 0 -103 19.333 -133 58c-28 34.667 -42 82.667 -42 144v325h134v-275c0 -45.333 3.66699 -78 11 -98c12.667 -33.333 38 -50 76 -50c43.333 0 75 20.333 95 61c15.333 30 23 66.667 23 110v252h134z
" />
    <glyph glyph-name="v" unicode="v" 
d="M203 0l-191 515h144l128 -375h2l124 375h134l-190 -515h-151z" />
    <glyph glyph-name="w" unicode="w" horiz-adv-x="889" 
d="M185 0l-174 515h142l114 -381h2l104 381h156l112 -381h2l107 381h128l-158 -515h-158l-112 393h-2l-110 -393h-153z" />
    <glyph glyph-name="x" unicode="x" 
d="M186 270l-159 245h158l101 -168l99 168h142l-154 -245l174 -270h-160l-115 192l-116 -192h-147z" />
    <glyph glyph-name="y" unicode="y" 
d="M159 515l124 -376h2l124 376h136l-193 -511c-30.667 -81.333 -54.334 -133.333 -71.001 -156c-34 -46.667 -81.667 -70 -143 -70c-31.333 0 -63 4.66699 -95 14l9 99c17.333 -6 40.333 -9 69 -9c26.667 0 47.834 8.33301 63.501 25s23.5 39 23.5 67l-197 541h148z" />
    <glyph glyph-name="z" unicode="z" horiz-adv-x="500" 
d="M47 411v104h408v-110l-256 -301h265v-104h-428v109l261 302h-250z" />
    <glyph glyph-name="braceleft" unicode="{" horiz-adv-x="333" 
d="M18 265l-0.000976562 86.002c22 0 40.333 6.66699 55 20c18 16 27 40.333 27 73v177c0 43.333 15.667 77.333 47 102c27.333 22 61 33 101 33h75v-80h-45c-21.333 0 -35.666 -7.66699 -42.999 -23c-4.66699 -9.33301 -7 -26 -7 -50v-173
c0 -74 -37.333 -114.333 -112 -121v-2c74.667 -6.66699 112 -49.334 112 -128.001v-166c0 -24 2.33301 -40.667 7 -50c6.66699 -15.333 21 -23 43 -23h45v-80h-75c-40.667 0 -74.667 11 -102 33c-30.667 24.667 -46 58.667 -46 102v170c0 35.333 -9 61.666 -27 78.999
c-14.667 14 -33 21 -55 21z" />
    <glyph glyph-name="bar" unicode="|" horiz-adv-x="222" 
d="M59 -12v762h104v-762h-104z" />
    <glyph glyph-name="braceright" unicode="}" horiz-adv-x="333" 
d="M315 351l-0.000976562 -86.002c-22 0 -40.333 -7 -55 -21c-18 -17.333 -27 -43.666 -27 -78.999v-170c0 -44 -15 -78 -45 -102c-27.333 -22 -61.666 -33 -102.999 -33h-75v80h45c22 0 36.333 7.66699 43 23c4.66699 9.33301 7 26 7 50v166
c0 78.667 37.333 121.334 112 128.001v2c-74.667 6.66699 -112 47 -112 121v173c0 24 -2.33301 40.667 -7 50c-7.33301 15.333 -21.666 23 -42.999 23h-45v80h75c41.333 0 75.666 -11 102.999 -33c30 -24 45 -58 45 -102v-177c0 -32.667 9 -57 27 -73
c14.667 -13.333 33 -20 55 -20z" />
    <glyph glyph-name="asciitilde" unicode="~" horiz-adv-x="600" 
d="M105 164l-35.999 88c30.667 58.667 71 88 121 88c33.333 0 72.333 -11.333 117 -34c47.333 -24 82.333 -36 105 -36c24 0 51.667 24 83 72l36 -88c-34.667 -58.667 -73 -88 -115 -88c-32.667 0 -71.334 11.667 -116.001 35s-81 35 -109 35c-35.333 0 -64 -24 -86 -72z
" />
    <glyph glyph-name="exclamdown" unicode="&#xa1;" horiz-adv-x="389" 
d="M117 -183l21 493h111l22 -493h-154zM123 375v140h140v-140h-140z" />
    <glyph glyph-name="cent" unicode="&#xa2;" 
d="M258 145l85 278.001c-36 -4.66699 -64.5 -21.834 -85.5 -51.501s-31.5 -66.834 -31.5 -111.501c0 -47.333 10.667 -85.666 32 -114.999zM401 608.001h57.999l-28 -91c8 -0.666992 19.333 -3 34 -7l-12 -106c-17.333 8 -34.666 13.333 -51.999 16l-97 -315
c16.667 -8.66699 37 -13 61 -13c32 0 66.333 8 103 24l6 -111c-36.667 -11.333 -81.334 -17 -134.001 -17c-27.333 0 -50.666 2.66699 -69.999 8l-27 -86h-58l32 104c-87.333 43.333 -131 125.333 -131 246c0 77.333 21.333 140.333 64 189c45.333 52 107 78 185 78
c18.667 0 32 -0.666992 40 -2z" />
    <glyph glyph-name="sterling" unicode="&#xa3;" 
d="M54 0l-0.000976562 104h88v219h-76v80h76v84c0 66 23 119.667 69 161s103 62 171 62c48.667 0 92 -5.66699 130 -17l-7 -110c-41.333 11.333 -73.666 17 -96.999 17c-41.333 0 -73.333 -13.333 -96 -40c-20 -23.333 -30 -53.333 -30 -90v-67h147v-80h-147v-219h223v-104
h-451z" />
    <glyph glyph-name="currency" unicode="&#xa4;" 
d="M479 611l58.999 -59l-58 -58c30.667 -42.667 46 -90 46 -142c0 -51.333 -15.333 -99.333 -46 -144l58 -58l-59 -59l-58 58c-44 -30.667 -91.667 -46 -143 -46s-99 15.333 -143 46l-58 -58l-59 59l58 58c-30.667 43.333 -46 91 -46 143c0 51.333 15.333 99 46 143l-58 58
l59 59l58 -58c42.667 30.667 90.334 46 143.001 46c51.333 0 99 -15.333 143 -46zM139.999 351c0 -39.333 13.5 -73.166 40.5 -101.499s59.5 -42.5 97.5 -42.5s70.5 14.167 97.5 42.5s40.5 62.166 40.5 101.499s-13.5 73.166 -40.5 101.499s-59.5 42.5 -97.5 42.5
s-70.5 -14.167 -97.5 -42.5s-40.5 -62.166 -40.5 -101.499z" />
    <glyph glyph-name="yen" unicode="&#xa5;" 
d="M567 698l-173 -329h98v-80h-140l-7 -13v-49h147v-80h-147v-147h-134v147h-147v80h147v49l-8 13h-139v80h100l-174 329h141l151 -308l154 308h131z" />
    <glyph glyph-name="brokenbar" unicode="&#xa6;" horiz-adv-x="222" 
d="M59 -12v275h104v-275h-104zM59 475v275h104v-275h-104z" />
    <glyph glyph-name="section" unicode="&#xa7;" 
d="M170 309c0 -26.667 24 -50.667 72 -72l109 -46c24 20.667 36 45.667 36 75c0 28.667 -20 52 -60 70l-121 47c-24 -17.333 -36 -42 -36 -74zM451 690l-11 -109c-44 16.667 -91.667 25 -143 25c-62.667 0 -94.667 -22.667 -96 -68c-0.666992 -27.333 24 -51 74 -71
c86.667 -34 133.334 -53 140.001 -57c50.667 -30 76 -71 76 -123c0 -58 -24.667 -100.667 -74 -128c45.333 -26.667 68 -64.667 68 -114c0 -56 -23.333 -101 -70 -135c-42 -30.667 -92.333 -46 -151 -46c-44.667 0 -106.334 9.66699 -185.001 29l9 114
c63.333 -26 119.333 -39 168 -39c67.333 0 101 23 101 69c0 26.667 -25 50.334 -75 71.001c-88 34.667 -135 54 -141 58c-50 29.333 -75 69 -75 119c0 59.333 25.667 104.333 77 135c-46.667 32 -70 71.667 -70 119c0 55.333 23.333 98.666 70 129.999
c40.667 27.333 90 41 148 41c36 0 89.333 -6.66699 160 -20z" />
    <glyph glyph-name="dieresis" unicode="&#xa8;" horiz-adv-x="278" 
d="M184 725h116v-116h-116v116zM94 609h-116v116h116v-116z" />
    <glyph glyph-name="copyright" unicode="&#xa9;" horiz-adv-x="800" 
d="M657 349c0 82 -24.667 149.333 -74 202s-110.333 79 -183 79c-73.333 0 -134.5 -26.333 -183.5 -79s-73.5 -120 -73.5 -202c0 -82.667 24.5 -150.167 73.5 -202.5s110.167 -78.5 183.5 -78.5c72.667 0 133.667 26.333 183 79s74 120 74 202zM506 291l82.998 0.000976562
c-7.33301 -47.333 -27.166 -84.5 -59.499 -111.5s-70.833 -40.5 -115.5 -40.5c-60.667 0 -110 20.667 -148 62c-37.333 39.333 -56 89.666 -56 150.999c0 62 18.167 113 54.5 153s85.5 60 147.5 60c46 0 84.833 -13 116.5 -39s50.834 -63 57.501 -111h-80
c-8.66699 46.667 -40 70 -94 70c-32.667 0 -58.167 -12 -76.5 -36s-27.5 -56 -27.5 -96c0 -38 9.83301 -69.833 29.5 -95.5s45.167 -38.5 76.5 -38.5c56 0 86.667 24 92 72zM38.998 349.001c0 99.333 35.333 184.333 106 255s155.667 106 255 106s184.333 -35.333 255 -106
s106 -155.667 106 -255s-35.333 -184.333 -106 -255s-155.667 -106 -255 -106s-184.333 35.333 -255 106s-106 155.667 -106 255z" />
    <glyph glyph-name="ordfeminine" unicode="&#xaa;" horiz-adv-x="361" 
d="M333 392h-84.001l-3 42h-2c-14 -33.333 -45.333 -50 -94 -50c-32 0 -59 6.66699 -81 20c-27.333 15.333 -41 38 -41 68c0 74.667 59 112 177 112h37c0 44 -24.333 66 -73 66c-36 0 -71 -10.333 -105 -31v66c32.667 16.667 72.667 25 120 25
c50.667 0 87.334 -10.333 110.001 -31s34 -55.667 34 -105c0 -76 1.66699 -136.667 5 -182zM113.999 477c0 -22 17.333 -33 52 -33c24 0 42.833 8.16699 56.5 24.5s20.5 36.833 20.5 61.5h-30c-66 0 -99 -17.667 -99 -53z" />
    <glyph glyph-name="guillemotleft" unicode="&#xab;" 
d="M272 269l118 205h126l-110 -205l110 -205h-126zM49 269l118 205h126l-110 -205l110 -205h-126z" />
    <glyph glyph-name="logicalnot" unicode="&#xac;" horiz-adv-x="600" 
d="M450 108v202h-404v104h508v-306h-104z" />
    <glyph glyph-name="minus" unicode="&#xad;" horiz-adv-x="600" 
d="M554 201h-508v104h508v-104z" />
    <glyph glyph-name="minus" unicode="&#x2212;" horiz-adv-x="600" 
d="M554 201h-508v104h508v-104z" />
    <glyph glyph-name="registered" unicode="&#xae;" horiz-adv-x="800" 
d="M39 349c0 99.333 35.333 184.333 106 255s155.667 106 255 106s184.333 -35.333 255 -106s106 -155.667 106 -255s-35.333 -184.333 -106 -255s-155.667 -106 -255 -106s-184.333 35.333 -255 106s-106 155.667 -106 255zM143 349c0 -82.667 24.5 -150.167 73.5 -202.5
s110.167 -78.5 183.5 -78.5c72.667 0 133.667 26.333 183 79s74 120 74 202s-24.667 149.333 -74 202s-110.333 79 -183 79c-73.333 0 -134.5 -26.333 -183.5 -79s-73.5 -120 -73.5 -202zM255 150l0.000976562 400.999h151c53.333 0 92.666 -8.66699 117.999 -26
c28 -19.333 42 -50.666 42 -93.999c0 -65.333 -35.333 -101 -106 -107l106 -174h-88l-96 170h-41v-170h-86zM341.001 385.999h70c22.667 0 39 3 49 9c13.333 7.33301 20 22 20 44c0 30.667 -26 46 -78 46h-61v-99z" />
    <glyph glyph-name="macron" unicode="&#xaf;" horiz-adv-x="278" 
d="M283 618h-288v80h288v-80z" />
    <glyph glyph-name="macron" unicode="&#x2c9;" horiz-adv-x="278" 
d="M283 618h-288v80h288v-80z" />
    <glyph glyph-name="degree" unicode="&#xb0;" horiz-adv-x="400" 
d="M200 637c-26 0 -47.167 -8.16699 -63.5 -24.5s-24.5 -37.5 -24.5 -63.5s8.16699 -47.167 24.5 -63.5s37.5 -24.5 63.5 -24.5s47.167 8.16699 63.5 24.5s24.5 37.5 24.5 63.5s-8.16699 47.167 -24.5 63.5s-37.5 24.5 -63.5 24.5zM200 710c44.667 0 82.667 -15.667 114 -47
s47 -69.333 47 -114c0 -45.333 -15.5 -83.5 -46.5 -114.5s-69.167 -46.5 -114.5 -46.5c-46.667 0 -85.167 15.167 -115.5 45.5s-45.5 68.833 -45.5 115.5c0 44.667 15.667 82.667 47 114s69.333 47 114 47z" />
    <glyph glyph-name="plusminus" unicode="&#xb1;" horiz-adv-x="600" 
d="M248 374v132h104v-132h202v-104h-202v-133h-104v133h-202v104h202zM46 0v104h508v-104h-508z" />
    <glyph glyph-name="twosuperior" unicode="&#xb2;" horiz-adv-x="361" 
d="M332 282h-302v82c26.667 9.33301 62.667 38 108 86c50.667 54 76 94.667 76 122c0 34.667 -20.333 52 -61 52c-38 0 -73 -11.333 -105 -34l-7 87c41.333 22 86.333 33 135 33c46 0 82.333 -10 109 -30c30 -22 45 -55 45 -99c0 -37.333 -20.333 -79 -61 -125
c-36.667 -41.333 -72.667 -70 -108 -86v-2h171v-86z" />
    <glyph glyph-name="threesuperior" unicode="&#xb3;" horiz-adv-x="361" 
d="M46 604l-5 82.001c46 16 89 24 129 24s74.667 -7.33301 104 -22c36.667 -18.667 55 -45.667 55 -81c0 -56 -27.667 -91 -83 -105v-2c28 -2 49.833 -12 65.5 -30s23.5 -40 23.5 -66c0 -43.333 -20.333 -76.333 -61 -99c-34 -19.333 -74.667 -29 -122 -29
c-40.667 0 -82.667 5.66699 -126 17l5 83c45.333 -13.333 81.333 -20 108 -20c20.667 0 39.167 4.5 55.5 13.5s24.5 21.5 24.5 37.5c0 32.667 -24.333 49 -73 49c-24 0 -42.667 -1 -56 -3v84c6 0.666992 14.333 0.666992 25 0c14.667 -0.666992 25.667 -1 33 -1
c16.667 0 32 3.66699 46 11c16.667 9.33301 25 21.666 25 36.999c0 30.667 -21.333 46 -64 46s-79 -8.66699 -109 -26z" />
    <glyph glyph-name="acute" unicode="&#xb4;" horiz-adv-x="278" 
d="M29 585l83 146h137l-137 -146h-83z" />
    <glyph glyph-name="mu" unicode="&#xb5;" horiz-adv-x="611" 
d="M69 -210v725h134v-275c0 -45.333 3.66699 -78 11 -98c12.667 -33.333 38 -50 76 -50c43.333 0 75 20.333 95 61c15.333 30 23 66.667 23 110v252h134v-515h-127v70h-2c-8.66699 -20.667 -22.667 -39 -42 -55c-22 -18 -45 -27 -69 -27c-44 0 -76.333 11.333 -97 34h-2
v-232h-134z" />
    <glyph glyph-name="mu" unicode="&#x3bc;" horiz-adv-x="611" 
d="M69 -210v725h134v-275c0 -45.333 3.66699 -78 11 -98c12.667 -33.333 38 -50 76 -50c43.333 0 75 20.333 95 61c15.333 30 23 66.667 23 110v252h134v-515h-127v70h-2c-8.66699 -20.667 -22.667 -39 -42 -55c-22 -18 -45 -27 -69 -27c-44 0 -76.333 11.333 -97 34h-2
v-232h-134z" />
    <glyph glyph-name="paragraph" unicode="&#xb6;" horiz-adv-x="620" 
d="M221 -124l0.000976562 465c-68.667 0 -122.334 15.833 -161.001 47.5s-58 74.167 -58 127.5c0 121.333 80 182 240 182h293v-822h-104v742h-106v-742h-104z" />
    <glyph glyph-name="periodcentered" unicode="&#xb7;" horiz-adv-x="278" 
d="M139 207c-22.667 0 -41.167 7.16699 -55.5 21.5s-21.5 32.833 -21.5 55.5s7.16699 41.167 21.5 55.5s32.833 21.5 55.5 21.5s41.167 -7.16699 55.5 -21.5s21.5 -32.833 21.5 -55.5s-7.16699 -41.167 -21.5 -55.5s-32.833 -21.5 -55.5 -21.5z" />
    <glyph glyph-name="periodcentered" unicode="&#x2219;" horiz-adv-x="278" 
d="M139 207c-22.667 0 -41.167 7.16699 -55.5 21.5s-21.5 32.833 -21.5 55.5s7.16699 41.167 21.5 55.5s32.833 21.5 55.5 21.5s41.167 -7.16699 55.5 -21.5s21.5 -32.833 21.5 -55.5s-7.16699 -41.167 -21.5 -55.5s-32.833 -21.5 -55.5 -21.5z" />
    <glyph glyph-name="cedilla" unicode="&#xb8;" horiz-adv-x="278" 
d="M75 -201l20.001 54c32 -10 55.333 -15 70 -15c35.333 0 53 11.667 53 35c0 24 -14.667 36 -44 36c-11.333 0 -25.333 -3 -42 -9l-15 26l59 74h63l-46 -53l2 -2c24 4 37.667 6 41 6c21.333 0 40 -6 56 -18s24 -29 24 -51c0 -35.333 -13.333 -62.333 -40 -81
c-22.667 -15.333 -51 -23 -85 -23c-46.667 0 -85.334 7 -116.001 21z" />
    <glyph glyph-name="onesuperior" unicode="&#xb9;" horiz-adv-x="361" 
d="M12 604l139 100h94v-422h-104v320l-77 -59z" />
    <glyph glyph-name="ordmasculine" unicode="&#xba;" horiz-adv-x="397" 
d="M200 710c49.333 0 91.001 -15.001 125.001 -45.001s51 -69 51 -117c0 -50 -16.833 -89.833 -50.5 -119.5s-75.834 -44.5 -126.501 -44.5s-93 15 -127 45s-51 69.667 -51 119c0 48.667 18 88.334 54 119.001c34 28.667 75.667 43 125 43zM202.001 649.999
c-55.333 0 -83 -34 -83 -102c0 -69.333 27 -104 81 -104c52 0 78 34.667 78 104c0 28 -5.66699 51 -17 69c-13.333 22 -33 33 -59 33z" />
    <glyph glyph-name="guillemotright" unicode="&#xbb;" 
d="M284 269l-118 -205h-126l110 205l-110 205h126zM507 269l-118 -205h-126l110 205l-110 205h126z" />
    <glyph glyph-name="onequarter" unicode="&#xbc;" horiz-adv-x="834" 
d="M164 -22l417 742h82l-417 -742h-82zM20 604l139 100h94v-422h-104v320l-77 -59zM540 159h116v171h-2zM455 79v85l180 258h125v-263h48v-80h-48v-79h-104v79h-201z" />
    <glyph glyph-name="onehalf" unicode="&#xbd;" horiz-adv-x="834" 
d="M134 -22l417 742h82l-417 -742h-82zM10 603l139 101h94v-422h-104v320l-77 -60zM499 0v82c26.667 9.33301 62.667 38 108 86c50.667 54 76 94.667 76 122c0 34.667 -20.333 52 -61 52c-38 0 -73 -11.333 -105 -34l-7 87c41.333 22 86.333 33 135 33
c46 0 82.333 -10 109 -30c30 -22 45 -55 45 -99c0 -37.333 -20.333 -79 -61 -125c-36.667 -41.333 -72.667 -70 -108 -86v-2h171v-86h-302z" />
    <glyph glyph-name="threequarters" unicode="&#xbe;" horiz-adv-x="834" 
d="M176 -22l417 742h82l-417 -742h-82zM34 604l-5 82.001c46 16 89 24 129 24s74.667 -7.33301 104 -22c36.667 -18.667 55 -45.667 55 -81c0 -56 -27.667 -91 -83 -105v-2c28 -2 49.833 -12 65.5 -30s23.5 -40 23.5 -66c0 -43.333 -20.333 -76.333 -61 -99
c-34 -19.333 -74.667 -29 -122 -29c-40.667 0 -82.667 5.66699 -126 17l5 83c45.333 -13.333 83.333 -20 114 -20c20.667 0 39.167 4.5 55.5 13.5s24.5 21.5 24.5 37.5c0 32.667 -26.333 49 -79 49c-24 0 -42.667 -1 -56 -3v84c6 0.666992 14.333 0.666992 25 0
c14.667 -0.666992 25.667 -1 33 -1c19.333 0 36.333 3.66699 51 11c17.333 9.33301 26 21.666 26 36.999c0 30.667 -23.333 46 -70 46c-42.667 0 -79 -8.66699 -109 -26zM668 159.001v171h-2l-112 -171h114zM772 79.001v-79h-104v79h-201v85l180 258h125v-263h48v-80h-48z
" />
    <glyph glyph-name="questiondown" unicode="&#xbf;" horiz-adv-x="500" 
d="M439 -51l11.001 -111c-51.333 -22 -117.333 -33 -198 -33c-64.667 0 -117.334 13.667 -158.001 41c-46.667 31.333 -70 77.333 -70 138c0 38.667 15.667 78 47 118l84 97c29.333 38 42.333 75.333 39 112h123c0 -70 -24.333 -132.333 -73 -187c-32 -36 -49 -55 -51 -57
c-15.333 -22 -23 -44.333 -23 -67c0 -31.333 12.667 -55 38 -71c20 -13.333 45.667 -20 77 -20c52.667 0 104 13.333 154 40zM324.001 515v-140h-140v140h140z" />
    <glyph glyph-name="Agrave" unicode="&#xc0;" horiz-adv-x="722" 
d="M459 270l-101 288h-2l-101 -288h204zM9 0l272 698h158l274 -698h-155l-60 160h-283l-61 -160h-145zM360 889l83 -146h-83l-137 146h137z" />
    <glyph glyph-name="Aacute" unicode="&#xc1;" horiz-adv-x="722" 
d="M459 270l-101 288h-2l-101 -288h204zM9 0l272 698h158l274 -698h-155l-60 160h-283l-61 -160h-145zM279 743l83 146h137l-137 -146h-83z" />
    <glyph glyph-name="Acircumflex" unicode="&#xc2;" horiz-adv-x="722" 
d="M459 270l-101 288h-2l-101 -288h204zM9 0l272 698h158l274 -698h-155l-60 160h-283l-61 -160h-145zM313 889h101l105 -146h-89l-68 86l-70 -86h-89z" />
    <glyph glyph-name="Atilde" unicode="&#xc3;" horiz-adv-x="722" 
d="M459 270l-101 288h-2l-101 -288h204zM9 0l272 698h158l274 -698h-155l-60 160h-283l-61 -160h-145zM238 761h-54.002c0 31.333 9.83301 59.333 29.5 84s43.834 37 72.501 37c19.333 0 46.333 -6.66699 81 -20c38 -14.667 62.333 -22 73 -22c29.333 0 44 16.333 44 49h54
c0 -34.667 -8.66699 -63.5 -26 -86.5s-41 -34.5 -71 -34.5c-26.667 0 -55.667 6.16699 -87 18.5s-53.666 18.5 -66.999 18.5c-16 0 -28.167 -4.5 -36.5 -13.5s-12.5 -19.167 -12.5 -30.5z" />
    <glyph glyph-name="Adieresis" unicode="&#xc4;" horiz-adv-x="722" 
d="M459 270l-101 288h-2l-101 -288h204zM9 0l272 698h158l274 -698h-155l-60 160h-283l-61 -160h-145zM406 883h116v-116h-116v116zM316 767h-116v116h116v-116z" />
    <glyph glyph-name="Aring" unicode="&#xc5;" horiz-adv-x="722" 
d="M459 270l-101 288h-2l-101 -288h204zM9 0l272 698h158l274 -698h-155l-60 160h-283l-61 -160h-145zM255 828c0 29.333 10.667 54.5 32 75.5s46.333 31.5 75 31.5c29.333 0 54.333 -10.5 75 -31.5s31 -46.167 31 -75.5s-10.333 -54.333 -31 -75s-45.667 -31 -75 -31
s-54.5 10.333 -75.5 31s-31.5 45.667 -31.5 75zM309 828c0 -14.667 5.16699 -27 15.5 -37s22.833 -15 37.5 -15s27 5 37 15s15 22.333 15 37s-5 27.167 -15 37.5s-22.333 15.5 -37 15.5s-27.167 -5 -37.5 -15s-15.5 -22.667 -15.5 -38z" />
    <glyph glyph-name="AE" unicode="&#xc6;" horiz-adv-x="944" 
d="M503 270l-23 324h-2l-173 -324h198zM9 0l382 698h499v-110h-271l14 -172h235v-110h-223l16 -196h233v-110h-369l-12 160h-268l-86 -160h-150z" />
    <glyph glyph-name="Ccedilla" unicode="&#xc7;" horiz-adv-x="611" 
d="M583 127l5.99902 -117c-62 -14.667 -115 -22 -159 -22c-117.333 0 -209.333 28.667 -276 86c-71.333 60.667 -107 148.334 -107 263.001c0 118.667 34 210.5 102 275.5s161.667 97.5 281 97.5c56 0 108.667 -9.66699 158 -29l-10 -118
c-43.333 24.667 -93.666 37 -150.999 37c-70.667 0 -127.334 -23.833 -170.001 -71.5s-64 -108.167 -64 -181.5c0 -72.667 21.333 -132.334 64 -179.001s100.334 -70 173.001 -70c64.667 0 115.667 9.66699 153 29zM261.999 -201l20.001 54c32 -10 55.333 -15 70 -15
c35.333 0 53 11.667 53 35c0 24 -14.667 36 -44 36c-11.333 0 -25.333 -3 -42 -9l-15 26l59 74h63l-46 -53l2 -2c24 4 37.667 6 41 6c21.333 0 40 -6 56 -18s24 -29 24 -51c0 -35.333 -13.333 -62.333 -40 -81c-22.667 -15.333 -51 -23 -85 -23
c-46.667 0 -85.334 7 -116.001 21z" />
    <glyph glyph-name="Egrave" unicode="&#xc8;" 
d="M81 0v698h412v-110h-272v-172h249v-110h-249v-196h274v-110h-414zM277 889l83 -146h-83l-137 146h137z" />
    <glyph glyph-name="Eacute" unicode="&#xc9;" 
d="M81 0v698h412v-110h-272v-172h249v-110h-249v-196h274v-110h-414zM196 743l83 146h137l-137 -146h-83z" />
    <glyph glyph-name="Ecircumflex" unicode="&#xca;" 
d="M81 0v698h412v-110h-272v-172h249v-110h-249v-196h274v-110h-414zM230 889h101l105 -146h-89l-68 86l-70 -86h-89z" />
    <glyph glyph-name="Edieresis" unicode="&#xcb;" 
d="M81 0v698h412v-110h-272v-172h249v-110h-249v-196h274v-110h-414zM323 883h116v-116h-116v116zM233 767h-116v116h116v-116z" />
    <glyph glyph-name="Igrave" unicode="&#xcc;" horiz-adv-x="278" 
d="M69 0v698h140v-698h-140zM138 889l83 -146h-83l-137 146h137z" />
    <glyph glyph-name="Iacute" unicode="&#xcd;" horiz-adv-x="278" 
d="M69 0v698h140v-698h-140zM57 743l83 146h137l-137 -146h-83z" />
    <glyph glyph-name="Icircumflex" unicode="&#xce;" horiz-adv-x="278" 
d="M69 0v698h140v-698h-140zM91 889h101l105 -146h-89l-68 86l-70 -86h-89z" />
    <glyph glyph-name="Idieresis" unicode="&#xcf;" horiz-adv-x="278" 
d="M69 0v698h140v-698h-140zM184 883h116v-116h-116v116zM94 767h-116v116h116v-116z" />
    <glyph glyph-name="Eth" unicode="&#xd0;" horiz-adv-x="722" 
d="M81 0v336h-64v86h64v276h191c268.667 0 403 -116.333 403 -349s-134.333 -349 -403 -349h-191zM221 336v-226.001h78c62 0 115 21 159 63c47.333 44.667 71 103.334 71 176.001s-23.667 131.667 -71 177c-44 41.333 -97 62 -159 62h-78v-166h146v-86h-146z" />
    <glyph glyph-name="Ntilde" unicode="&#xd1;" horiz-adv-x="722" 
d="M74 0v698h172l266 -522h2v522h134v-698h-171l-267 522h-2v-522h-134zM238 761h-54.002c0 31.333 9.83301 59.333 29.5 84s43.834 37 72.501 37c19.333 0 46.333 -6.66699 81 -20c38 -14.667 62.333 -22 73 -22c29.333 0 44 16.333 44 49h54
c0 -34.667 -8.66699 -63.5 -26 -86.5s-41 -34.5 -71 -34.5c-26.667 0 -55.667 6.16699 -87 18.5s-53.666 18.5 -66.999 18.5c-16 0 -28.167 -4.5 -36.5 -13.5s-12.5 -19.167 -12.5 -30.5z" />
    <glyph glyph-name="Ograve" unicode="&#xd2;" horiz-adv-x="778" 
d="M47 351c0 109.333 29.833 196.5 89.5 261.5s143.834 97.5 252.501 97.5c107.333 0 191.666 -33.333 252.999 -100c59.333 -64.667 89 -151 89 -259c0 -108.667 -29.333 -195.667 -88 -261c-61.333 -68 -146 -102 -254 -102c-109.333 0 -194.333 33.667 -255 101
c-58 64.667 -87 152 -87 262zM193 351c0 -70.667 14.665 -128.667 43.998 -174c34.667 -52.667 85.334 -79 152.001 -79s117.334 26.333 152.001 79c29.333 45.333 44 103.333 44 174c0 68.667 -15.333 125.667 -46 171c-35.333 52 -85.333 78 -150 78
s-114.667 -26 -150 -78c-30.667 -45.333 -46 -102.333 -46 -171zM387.998 889l83 -146h-83l-137 146h137z" />
    <glyph glyph-name="Oacute" unicode="&#xd3;" horiz-adv-x="778" 
d="M47 351c0 109.333 29.833 196.5 89.5 261.5s143.834 97.5 252.501 97.5c107.333 0 191.666 -33.333 252.999 -100c59.333 -64.667 89 -151 89 -259c0 -108.667 -29.333 -195.667 -88 -261c-61.333 -68 -146 -102 -254 -102c-109.333 0 -194.333 33.667 -255 101
c-58 64.667 -87 152 -87 262zM193 351c0 -70.667 14.665 -128.667 43.998 -174c34.667 -52.667 85.334 -79 152.001 -79s117.334 26.333 152.001 79c29.333 45.333 44 103.333 44 174c0 68.667 -15.333 125.667 -46 171c-35.333 52 -85.333 78 -150 78
s-114.667 -26 -150 -78c-30.667 -45.333 -46 -102.333 -46 -171zM306.998 743l83 146h137l-137 -146h-83z" />
    <glyph glyph-name="Ocircumflex" unicode="&#xd4;" horiz-adv-x="778" 
d="M47 351c0 109.333 29.833 196.5 89.5 261.5s143.834 97.5 252.501 97.5c107.333 0 191.666 -33.333 252.999 -100c59.333 -64.667 89 -151 89 -259c0 -108.667 -29.333 -195.667 -88 -261c-61.333 -68 -146 -102 -254 -102c-109.333 0 -194.333 33.667 -255 101
c-58 64.667 -87 152 -87 262zM193 351c0 -70.667 14.665 -128.667 43.998 -174c34.667 -52.667 85.334 -79 152.001 -79s117.334 26.333 152.001 79c29.333 45.333 44 103.333 44 174c0 68.667 -15.333 125.667 -46 171c-35.333 52 -85.333 78 -150 78
s-114.667 -26 -150 -78c-30.667 -45.333 -46 -102.333 -46 -171zM340.998 889h101l105 -146h-89l-68 86l-70 -86h-89z" />
    <glyph glyph-name="Otilde" unicode="&#xd5;" horiz-adv-x="778" 
d="M47 351c0 109.333 29.833 196.5 89.5 261.5s143.834 97.5 252.501 97.5c107.333 0 191.666 -33.333 252.999 -100c59.333 -64.667 89 -151 89 -259c0 -108.667 -29.333 -195.667 -88 -261c-61.333 -68 -146 -102 -254 -102c-109.333 0 -194.333 33.667 -255 101
c-58 64.667 -87 152 -87 262zM193 351c0 -70.667 14.665 -128.667 43.998 -174c34.667 -52.667 85.334 -79 152.001 -79s117.334 26.333 152.001 79c29.333 45.333 44 103.333 44 174c0 68.667 -15.333 125.667 -46 171c-35.333 52 -85.333 78 -150 78
s-114.667 -26 -150 -78c-30.667 -45.333 -46 -102.333 -46 -171zM265.998 761h-54.002c0 31.333 9.83301 59.333 29.5 84s43.834 37 72.501 37c19.333 0 46.333 -6.66699 81 -20c38 -14.667 62.333 -22 73 -22c29.333 0 44 16.333 44 49h54
c0 -34.667 -8.66699 -63.5 -26 -86.5s-41 -34.5 -71 -34.5c-26.667 0 -55.667 6.16699 -87 18.5s-53.666 18.5 -66.999 18.5c-16 0 -28.167 -4.5 -36.5 -13.5s-12.5 -19.167 -12.5 -30.5z" />
    <glyph glyph-name="Odieresis" unicode="&#xd6;" horiz-adv-x="778" 
d="M47 351c0 109.333 29.833 196.5 89.5 261.5s143.834 97.5 252.501 97.5c107.333 0 191.666 -33.333 252.999 -100c59.333 -64.667 89 -151 89 -259c0 -108.667 -29.333 -195.667 -88 -261c-61.333 -68 -146 -102 -254 -102c-109.333 0 -194.333 33.667 -255 101
c-58 64.667 -87 152 -87 262zM193 351c0 -70.667 14.665 -128.667 43.998 -174c34.667 -52.667 85.334 -79 152.001 -79s117.334 26.333 152.001 79c29.333 45.333 44 103.333 44 174c0 68.667 -15.333 125.667 -46 171c-35.333 52 -85.333 78 -150 78
s-114.667 -26 -150 -78c-30.667 -45.333 -46 -102.333 -46 -171zM433.998 883h116v-116h-116v116zM343.998 767h-116v116h116v-116z" />
    <glyph glyph-name="multiply" unicode="&#xd7;" horiz-adv-x="600" 
d="M228 253l-162 162l72 72l162 -162l162 162l72 -72l-163 -162l163 -162l-72 -72l-162 163l-162 -163l-72 72z" />
    <glyph glyph-name="Oslash" unicode="&#xd8;" horiz-adv-x="778" 
d="M228 194l281 362c-32.667 29.333 -72.667 44 -120 44c-64.667 0 -114.667 -26 -150 -78c-30.667 -45.333 -46 -102.333 -46 -171c0 -62 11.667 -114.333 35 -157zM546 509l-282.001 -363.001c32 -32 73.667 -48 125 -48c66.667 0 117.334 26.333 152.001 79
c29.333 45.333 44 103.333 44 174c0 62.667 -13 115.334 -39 158.001zM640.999 726.999l44.999 -36.999l-54 -70c66 -64.667 99 -154.334 99 -269.001c0 -108.667 -29.333 -195.667 -88 -261c-61.333 -68 -146 -102 -254 -102c-81.333 0 -149.333 19 -204 57l-57 -74l-45 36
l59 76c-63.333 62 -95 151.333 -95 268c0 109.333 29.833 196.5 89.5 261.5s143.834 97.5 252.501 97.5c76.667 0 142.667 -17.667 198 -53z" />
    <glyph glyph-name="Ugrave" unicode="&#xd9;" horiz-adv-x="722" 
d="M76 252v446h140v-403c0 -131.333 48.333 -197 145 -197s145 65.667 145 197v403h140v-446c0 -176 -95 -264 -285 -264s-285 88 -285 264zM360 889l83 -146h-83l-137 146h137z" />
    <glyph glyph-name="Uacute" unicode="&#xda;" horiz-adv-x="722" 
d="M76 252v446h140v-403c0 -131.333 48.333 -197 145 -197s145 65.667 145 197v403h140v-446c0 -176 -95 -264 -285 -264s-285 88 -285 264zM279 743l83 146h137l-137 -146h-83z" />
    <glyph glyph-name="Ucircumflex" unicode="&#xdb;" horiz-adv-x="722" 
d="M76 252v446h140v-403c0 -131.333 48.333 -197 145 -197s145 65.667 145 197v403h140v-446c0 -176 -95 -264 -285 -264s-285 88 -285 264zM313 889h101l105 -146h-89l-68 86l-70 -86h-89z" />
    <glyph glyph-name="Udieresis" unicode="&#xdc;" horiz-adv-x="722" 
d="M76 252v446h140v-403c0 -131.333 48.333 -197 145 -197s145 65.667 145 197v403h140v-446c0 -176 -95 -264 -285 -264s-285 88 -285 264zM406 883h116v-116h-116v116zM316 767h-116v116h116v-116z" />
    <glyph glyph-name="Yacute" unicode="&#xdd;" horiz-adv-x="667" 
d="M266 0v276l-255 422h164l165 -293l168 293h148l-250 -422v-276h-140zM252 743l83 146h137l-137 -146h-83z" />
    <glyph glyph-name="Thorn" unicode="&#xde;" 
d="M209 0h-140v698h140v-116h37c194 0 291 -70.667 291 -212c0 -76.667 -26 -134 -78 -172c-46 -32.667 -109.667 -49 -191 -49h-59v-149zM209 472v-213h49c88.667 0 133 34.667 133 104c0 72.667 -44.333 109 -133 109h-49z" />
    <glyph glyph-name="germandbls" unicode="&#xdf;" horiz-adv-x="611" 
d="M206 0l-134 -0.000976562v505c0 78 20.667 139.667 62 185c42.667 48 104 72 184 72c60.667 0 112.334 -15.333 155.001 -46c48 -34.667 72 -80.667 72 -138c0 -94.667 -44.333 -153.667 -133 -177v-2c50 -6.66699 90.667 -27.167 122 -61.5s47 -75.166 47 -122.499
c0 -67.333 -21.833 -121 -65.5 -161s-99.834 -60 -168.501 -60c-16 0 -45 3.66699 -87 11l4 104c20.667 -7.33301 44 -11 70 -11c71.333 0 107 43.667 107 131c0 75.333 -52.333 113 -157 113v104c80.667 0 121 36.333 121 109c0 30 -7.5 54.667 -22.5 74
s-37.167 29 -66.5 29c-36 0 -64 -15 -84 -45c-17.333 -26.667 -26 -59 -26 -97v-516z" />
    <glyph glyph-name="agrave" unicode="&#xe0;" 
d="M96 373l-4.00293 114.997c56.667 26 116.334 39 179.001 39c78 0 134.5 -17.167 169.5 -51.5s52.5 -89.5 52.5 -165.5v-66c0 -34.667 0.666992 -77.667 2 -129c0.666992 -36 2.66699 -74.333 6 -115h-118c-1.33301 6.66699 -3.33301 32.334 -6 77.001h-2
c-15.333 -27.333 -37.666 -49 -66.999 -65s-60 -24 -92 -24c-48.667 0 -90 13.333 -124 40c-37.333 28.667 -56 66.334 -56 113.001c0 69.333 29.333 118.333 88 147c40.667 20 98.334 30 173.001 30h74c0 40.667 -9.16699 69.334 -27.5 86.001s-47.833 25 -88.5 25
c-56.667 0 -109.667 -18.667 -159 -56zM163.997 148.997c0 -42 28.333 -63 85 -63c53.333 0 90 24.667 110 74c8 20.667 12 46.667 12 78h-58c-99.333 0 -149 -29.667 -149 -89zM259.997 730.997l83 -146h-83l-137 146h137z" />
    <glyph glyph-name="aacute" unicode="&#xe1;" 
d="M96 373l-4.00293 114.997c56.667 26 116.334 39 179.001 39c78 0 134.5 -17.167 169.5 -51.5s52.5 -89.5 52.5 -165.5v-66c0 -34.667 0.666992 -77.667 2 -129c0.666992 -36 2.66699 -74.333 6 -115h-118c-1.33301 6.66699 -3.33301 32.334 -6 77.001h-2
c-15.333 -27.333 -37.666 -49 -66.999 -65s-60 -24 -92 -24c-48.667 0 -90 13.333 -124 40c-37.333 28.667 -56 66.334 -56 113.001c0 69.333 29.333 118.333 88 147c40.667 20 98.334 30 173.001 30h74c0 40.667 -9.16699 69.334 -27.5 86.001s-47.833 25 -88.5 25
c-56.667 0 -109.667 -18.667 -159 -56zM163.997 148.997c0 -42 28.333 -63 85 -63c53.333 0 90 24.667 110 74c8 20.667 12 46.667 12 78h-58c-99.333 0 -149 -29.667 -149 -89zM203.997 584.997l83 146h137l-137 -146h-83z" />
    <glyph glyph-name="acircumflex" unicode="&#xe2;" 
d="M96 373l-4.00293 114.997c56.667 26 116.334 39 179.001 39c78 0 134.5 -17.167 169.5 -51.5s52.5 -89.5 52.5 -165.5v-66c0 -34.667 0.666992 -77.667 2 -129c0.666992 -36 2.66699 -74.333 6 -115h-118c-1.33301 6.66699 -3.33301 32.334 -6 77.001h-2
c-15.333 -27.333 -37.666 -49 -66.999 -65s-60 -24 -92 -24c-48.667 0 -90 13.333 -124 40c-37.333 28.667 -56 66.334 -56 113.001c0 69.333 29.333 118.333 88 147c40.667 20 98.334 30 173.001 30h74c0 40.667 -9.16699 69.334 -27.5 86.001s-47.833 25 -88.5 25
c-56.667 0 -109.667 -18.667 -159 -56zM163.997 148.997c0 -42 28.333 -63 85 -63c53.333 0 90 24.667 110 74c8 20.667 12 46.667 12 78h-58c-99.333 0 -149 -29.667 -149 -89zM229.997 730.997h101l105 -146h-89l-68 86l-70 -86h-89z" />
    <glyph glyph-name="atilde" unicode="&#xe3;" 
d="M96 373l-4.00293 114.997c56.667 26 116.334 39 179.001 39c78 0 134.5 -17.167 169.5 -51.5s52.5 -89.5 52.5 -165.5v-66c0 -34.667 0.666992 -77.667 2 -129c0.666992 -36 2.66699 -74.333 6 -115h-118c-1.33301 6.66699 -3.33301 32.334 -6 77.001h-2
c-15.333 -27.333 -37.666 -49 -66.999 -65s-60 -24 -92 -24c-48.667 0 -90 13.333 -124 40c-37.333 28.667 -56 66.334 -56 113.001c0 69.333 29.333 118.333 88 147c40.667 20 98.334 30 173.001 30h74c0 40.667 -9.16699 69.334 -27.5 86.001s-47.833 25 -88.5 25
c-56.667 0 -109.667 -18.667 -159 -56zM163.997 148.997c0 -42 28.333 -63 85 -63c53.333 0 90 24.667 110 74c8 20.667 12 46.667 12 78h-58c-99.333 0 -149 -29.667 -149 -89zM154.997 602.997h-54.002c0 31.333 9.83301 59.333 29.5 84s43.834 37 72.501 37
c19.333 0 46.333 -6.66699 81 -20c38 -14.667 62.333 -22 73 -22c29.333 0 44 16.333 44 49h54c0 -34.667 -8.66699 -63.5 -26 -86.5s-41 -34.5 -71 -34.5c-26.667 0 -55.667 6.16699 -87 18.5s-53.666 18.5 -66.999 18.5c-16 0 -28.167 -4.5 -36.5 -13.5
s-12.5 -19.167 -12.5 -30.5z" />
    <glyph glyph-name="adieresis" unicode="&#xe4;" 
d="M96 373l-4.00293 114.997c56.667 26 116.334 39 179.001 39c78 0 134.5 -17.167 169.5 -51.5s52.5 -89.5 52.5 -165.5v-66c0 -34.667 0.666992 -77.667 2 -129c0.666992 -36 2.66699 -74.333 6 -115h-118c-1.33301 6.66699 -3.33301 32.334 -6 77.001h-2
c-15.333 -27.333 -37.666 -49 -66.999 -65s-60 -24 -92 -24c-48.667 0 -90 13.333 -124 40c-37.333 28.667 -56 66.334 -56 113.001c0 69.333 29.333 118.333 88 147c40.667 20 98.334 30 173.001 30h74c0 40.667 -9.16699 69.334 -27.5 86.001s-47.833 25 -88.5 25
c-56.667 0 -109.667 -18.667 -159 -56zM163.997 148.997c0 -42 28.333 -63 85 -63c53.333 0 90 24.667 110 74c8 20.667 12 46.667 12 78h-58c-99.333 0 -149 -29.667 -149 -89zM322.997 724.997h116v-116h-116v116zM232.997 608.997h-116v116h116v-116z" />
    <glyph glyph-name="aring" unicode="&#xe5;" 
d="M96 373l-4.00293 114.997c56.667 26 116.334 39 179.001 39c78 0 134.5 -17.167 169.5 -51.5s52.5 -89.5 52.5 -165.5v-66c0 -34.667 0.666992 -77.667 2 -129c0.666992 -36 2.66699 -74.333 6 -115h-118c-1.33301 6.66699 -3.33301 32.334 -6 77.001h-2
c-15.333 -27.333 -37.666 -49 -66.999 -65s-60 -24 -92 -24c-48.667 0 -90 13.333 -124 40c-37.333 28.667 -56 66.334 -56 113.001c0 69.333 29.333 118.333 88 147c40.667 20 98.334 30 173.001 30h74c0 40.667 -9.16699 69.334 -27.5 86.001s-47.833 25 -88.5 25
c-56.667 0 -109.667 -18.667 -159 -56zM163.997 148.997c0 -42 28.333 -63 85 -63c53.333 0 90 24.667 110 74c8 20.667 12 46.667 12 78h-58c-99.333 0 -149 -29.667 -149 -89zM171.997 684.997c0 29.333 10.667 54.5 32 75.5s46.333 31.5 75 31.5
c29.333 0 54.333 -10.5 75 -31.5s31 -46.167 31 -75.5s-10.333 -54.333 -31 -75s-45.667 -31 -75 -31s-54.5 10.333 -75.5 31s-31.5 45.667 -31.5 75zM225.997 684.997c0 -14.667 5.16699 -27 15.5 -37s22.833 -15 37.5 -15s27 5 37 15s15 22.333 15 37s-5 27.167 -15 37.5
s-22.333 15.5 -37 15.5s-27.167 -5 -37.5 -15s-15.5 -22.667 -15.5 -38z" />
    <glyph glyph-name="ae" unicode="&#xe6;" horiz-adv-x="889" 
d="M499 308h226.001c0 34.667 -8.33301 62.667 -25 84c-18.667 24.667 -45.334 37 -80.001 37c-38 0 -67.667 -11.5 -89 -34.5s-32 -51.833 -32 -86.5zM818.001 138l0.000976562 -109.001c-49.333 -27.333 -108.333 -41 -177 -41c-100.667 0 -172.667 31 -216 93
c-18.667 -30.667 -46.334 -54.334 -83.001 -71.001c-34 -15.333 -70.333 -22.666 -109 -21.999c-55.333 0.666992 -100.333 12.334 -135 35.001c-41.333 26.667 -62 66 -62 118c0 64.667 28.333 112 85 142c44 23.333 101.667 35 173 35h77c0 38 -9 66.167 -27 84.5
s-48.667 27.5 -92 27.5c-56 0 -109 -19 -159 -57l-4 115c56.667 26 117.667 39 183 39c40 0 71.667 -3.66699 95 -11c29.333 -10 56 -28 80 -54c41.333 43.333 100 65 176 65c153.333 0 230 -103.667 230 -311h-354c0 -40.667 14 -72.5 42 -95.5s63.333 -34.5 106 -34.5
c52 0 109 17.333 171 52zM164.002 140.999c0 -15.333 6.83301 -28.333 20.5 -39s32.167 -16 55.5 -16c46.667 0 80.667 12.667 102 38c19.333 24 29 62 29 114h-58c-99.333 0 -149 -32.333 -149 -97z" />
    <glyph glyph-name="ccedilla" unicode="&#xe7;" horiz-adv-x="444" 
d="M415 510l-12 -106c-27.333 12.667 -57.666 19 -90.999 19c-41.333 0 -74.333 -15 -99 -45s-37 -69.333 -37 -118c0 -50 11.333 -90 34 -120c24.667 -32 59.667 -48 105 -48c32 0 66.333 8 103 24l6 -111c-36.667 -11.333 -81.334 -17 -134.001 -17
c-82 0 -145.333 25.667 -190 77c-42.667 48.667 -64 113.667 -64 195c0 77.333 21.333 140.333 64 189c45.333 52 107 78 185 78c48.667 0 92 -5.66699 130 -17zM158 -201l20.001 54c32 -10 55.333 -15 70 -15c35.333 0 53 11.667 53 35c0 24 -14.667 36 -44 36
c-11.333 0 -25.333 -3 -42 -9l-15 26l59 74h63l-46 -53l2 -2c24 4 37.667 6 41 6c21.333 0 40 -6 56 -18s24 -29 24 -51c0 -35.333 -13.333 -62.333 -40 -81c-22.667 -15.333 -51 -23 -85 -23c-46.667 0 -85.334 7 -116.001 21z" />
    <glyph glyph-name="egrave" unicode="&#xe8;" 
d="M164 308h228c-4.66699 80.667 -41 121 -109 121c-72 0 -111.667 -40.333 -119 -121zM482 138l-0.00195312 -109.001c-49.333 -27.333 -108.333 -41 -177 -41c-85.333 0 -151.5 23.333 -198.5 70s-70.5 112.334 -70.5 197.001c0 78.667 20 142.667 60 192
c42.667 53.333 102.334 80 179.001 80c90 0 154.667 -29.333 194 -88c34 -50 51 -124.333 51 -223h-356c2.66699 -40.667 17.334 -72.5 44.001 -95.5s61 -34.5 103 -34.5c52 0 109 17.333 171 52zM259.998 730.999l83 -146h-83l-137 146h137z" />
    <glyph glyph-name="eacute" unicode="&#xe9;" 
d="M164 308h228c-4.66699 80.667 -41 121 -109 121c-72 0 -111.667 -40.333 -119 -121zM482 138l-0.00195312 -109.001c-49.333 -27.333 -108.333 -41 -177 -41c-85.333 0 -151.5 23.333 -198.5 70s-70.5 112.334 -70.5 197.001c0 78.667 20 142.667 60 192
c42.667 53.333 102.334 80 179.001 80c90 0 154.667 -29.333 194 -88c34 -50 51 -124.333 51 -223h-356c2.66699 -40.667 17.334 -72.5 44.001 -95.5s61 -34.5 103 -34.5c52 0 109 17.333 171 52zM203.998 584.999l83 146h137l-137 -146h-83z" />
    <glyph glyph-name="ecircumflex" unicode="&#xea;" 
d="M164 308h228c-4.66699 80.667 -41 121 -109 121c-72 0 -111.667 -40.333 -119 -121zM482 138l-0.00195312 -109.001c-49.333 -27.333 -108.333 -41 -177 -41c-85.333 0 -151.5 23.333 -198.5 70s-70.5 112.334 -70.5 197.001c0 78.667 20 142.667 60 192
c42.667 53.333 102.334 80 179.001 80c90 0 154.667 -29.333 194 -88c34 -50 51 -124.333 51 -223h-356c2.66699 -40.667 17.334 -72.5 44.001 -95.5s61 -34.5 103 -34.5c52 0 109 17.333 171 52zM229.998 730.999h101l105 -146h-89l-68 86l-70 -86h-89z" />
    <glyph glyph-name="edieresis" unicode="&#xeb;" 
d="M164 308h228c-4.66699 80.667 -41 121 -109 121c-72 0 -111.667 -40.333 -119 -121zM482 138l-0.00195312 -109.001c-49.333 -27.333 -108.333 -41 -177 -41c-85.333 0 -151.5 23.333 -198.5 70s-70.5 112.334 -70.5 197.001c0 78.667 20 142.667 60 192
c42.667 53.333 102.334 80 179.001 80c90 0 154.667 -29.333 194 -88c34 -50 51 -124.333 51 -223h-356c2.66699 -40.667 17.334 -72.5 44.001 -95.5s61 -34.5 103 -34.5c52 0 109 17.333 171 52zM322.998 724.999h116v-116h-116v116zM232.998 608.999h-116v116h116v-116z
" />
    <glyph glyph-name="igrave" unicode="&#xec;" horiz-adv-x="278" 
d="M206 0h-134v515h134v-515zM121 731l83 -146h-83l-137 146h137z" />
    <glyph glyph-name="iacute" unicode="&#xed;" horiz-adv-x="278" 
d="M206 0h-134v515h134v-515zM65 585l83 146h137l-137 -146h-83z" />
    <glyph glyph-name="icircumflex" unicode="&#xee;" horiz-adv-x="278" 
d="M206 0h-134v515h134v-515zM91 731h101l105 -146h-89l-68 86l-70 -86h-89z" />
    <glyph glyph-name="idieresis" unicode="&#xef;" horiz-adv-x="278" 
d="M206 0h-134v515h134v-515zM184 725h116v-116h-116v116zM94 609h-116v116h116v-116z" />
    <glyph glyph-name="eth" unicode="&#xf0;" horiz-adv-x="611" 
d="M307 411c-41.333 0 -74.333 -17.667 -99 -53c-21.333 -30 -32 -65.667 -32 -107c0 -42.667 9.66699 -78.334 29 -107.001c23.333 -34.667 57 -52 101 -52c42.667 0 75 16.333 97 49c19.333 28.667 29 65.334 29 110.001c0 40.667 -9.66699 76 -29 106
c-23.333 36 -55.333 54 -96 54zM145 594l82.999 54.001c-32.667 20.667 -65.667 36.667 -99 48l61 68c44 -16 86.333 -35.667 127 -59l92 59l51 -47l-83 -53c130 -100 195 -227.333 195 -382c0 -94.667 -23.167 -167.334 -69.5 -218.001s-112.166 -76 -197.499 -76
c-82.667 0 -148.667 26 -198 78c-46.667 48.667 -70.334 111.334 -71.001 188.001c-0.666992 72 19.333 132.667 60 182c44 52.667 101.667 79 173 79c48.667 0 89.667 -10.667 123 -32h2c-21.333 45.333 -56.666 86.666 -105.999 123.999l-92 -60z" />
    <glyph glyph-name="ntilde" unicode="&#xf1;" horiz-adv-x="611" 
d="M69 0v514.999h127v-70h2c38.667 54.667 95 82 169 82c58.667 0 103 -19 133 -57c28 -35.333 42 -83.666 42 -144.999v-325h-134v275c0 45.333 -3.66699 78 -11 98c-12.667 33.333 -38 50 -76 50c-43.333 0 -75 -20.333 -95 -61c-15.333 -30 -23 -66.667 -23 -110v-252
h-134zM183 602.999h-54.002c0 31.333 9.83301 59.333 29.5 84s43.834 37 72.501 37c19.333 0 46.333 -6.66699 81 -20c38 -14.667 62.333 -22 73 -22c29.333 0 44 16.333 44 49h54c0 -34.667 -8.66699 -63.5 -26 -86.5s-41 -34.5 -71 -34.5
c-26.667 0 -55.667 6.16699 -87 18.5s-53.666 18.5 -66.999 18.5c-16 0 -28.167 -4.5 -36.5 -13.5s-12.5 -19.167 -12.5 -30.5z" />
    <glyph glyph-name="ograve" unicode="&#xf2;" horiz-adv-x="611" 
d="M36 254c0 83.333 25.999 149.999 77.999 199.999c49.333 48.667 113 73 191 73s142.5 -24.667 193.5 -74s76.5 -115.666 76.5 -198.999c0 -76.667 -23.667 -139.334 -71 -188.001c-49.333 -52 -115.666 -78 -198.999 -78c-82.667 0 -148.667 26 -198 78
c-47.333 48.667 -71 111.334 -71 188.001zM175.999 269.999c0 -118.667 42.999 -178 128.999 -178c86.667 0 130 59.333 130 178c0 42.667 -10.667 78 -32 106c-24 31.333 -56.667 47 -98 47s-73.666 -16 -96.999 -48c-21.333 -28 -32 -63 -32 -105zM287.998 730.999
l83 -146h-83l-137 146h137z" />
    <glyph glyph-name="oacute" unicode="&#xf3;" horiz-adv-x="611" 
d="M36 254c0 83.333 25.999 149.999 77.999 199.999c49.333 48.667 113 73 191 73s142.5 -24.667 193.5 -74s76.5 -115.666 76.5 -198.999c0 -76.667 -23.667 -139.334 -71 -188.001c-49.333 -52 -115.666 -78 -198.999 -78c-82.667 0 -148.667 26 -198 78
c-47.333 48.667 -71 111.334 -71 188.001zM175.999 269.999c0 -118.667 42.999 -178 128.999 -178c86.667 0 130 59.333 130 178c0 42.667 -10.667 78 -32 106c-24 31.333 -56.667 47 -98 47s-73.666 -16 -96.999 -48c-21.333 -28 -32 -63 -32 -105zM231.998 584.999l83 146
h137l-137 -146h-83z" />
    <glyph glyph-name="ocircumflex" unicode="&#xf4;" horiz-adv-x="611" 
d="M36 254c0 83.333 25.999 149.999 77.999 199.999c49.333 48.667 113 73 191 73s142.5 -24.667 193.5 -74s76.5 -115.666 76.5 -198.999c0 -76.667 -23.667 -139.334 -71 -188.001c-49.333 -52 -115.666 -78 -198.999 -78c-82.667 0 -148.667 26 -198 78
c-47.333 48.667 -71 111.334 -71 188.001zM175.999 269.999c0 -118.667 42.999 -178 128.999 -178c86.667 0 130 59.333 130 178c0 42.667 -10.667 78 -32 106c-24 31.333 -56.667 47 -98 47s-73.666 -16 -96.999 -48c-21.333 -28 -32 -63 -32 -105zM257.998 730.999h101
l105 -146h-89l-68 86l-70 -86h-89z" />
    <glyph glyph-name="otilde" unicode="&#xf5;" horiz-adv-x="611" 
d="M36 254c0 83.333 25.999 149.999 77.999 199.999c49.333 48.667 113 73 191 73s142.5 -24.667 193.5 -74s76.5 -115.666 76.5 -198.999c0 -76.667 -23.667 -139.334 -71 -188.001c-49.333 -52 -115.666 -78 -198.999 -78c-82.667 0 -148.667 26 -198 78
c-47.333 48.667 -71 111.334 -71 188.001zM175.999 269.999c0 -118.667 42.999 -178 128.999 -178c86.667 0 130 59.333 130 178c0 42.667 -10.667 78 -32 106c-24 31.333 -56.667 47 -98 47s-73.666 -16 -96.999 -48c-21.333 -28 -32 -63 -32 -105zM182.998 602.999
h-54.002c0 31.333 9.83301 59.333 29.5 84s43.834 37 72.501 37c19.333 0 46.333 -6.66699 81 -20c38 -14.667 62.333 -22 73 -22c29.333 0 44 16.333 44 49h54c0 -34.667 -8.66699 -63.5 -26 -86.5s-41 -34.5 -71 -34.5c-26.667 0 -55.667 6.16699 -87 18.5
s-53.666 18.5 -66.999 18.5c-16 0 -28.167 -4.5 -36.5 -13.5s-12.5 -19.167 -12.5 -30.5z" />
    <glyph glyph-name="odieresis" unicode="&#xf6;" horiz-adv-x="611" 
d="M36 254c0 83.333 25.999 149.999 77.999 199.999c49.333 48.667 113 73 191 73s142.5 -24.667 193.5 -74s76.5 -115.666 76.5 -198.999c0 -76.667 -23.667 -139.334 -71 -188.001c-49.333 -52 -115.666 -78 -198.999 -78c-82.667 0 -148.667 26 -198 78
c-47.333 48.667 -71 111.334 -71 188.001zM175.999 269.999c0 -118.667 42.999 -178 128.999 -178c86.667 0 130 59.333 130 178c0 42.667 -10.667 78 -32 106c-24 31.333 -56.667 47 -98 47s-73.666 -16 -96.999 -48c-21.333 -28 -32 -63 -32 -105zM350.998 724.999h116
v-116h-116v116zM260.998 608.999h-116v116h116v-116z" />
    <glyph glyph-name="divide" unicode="&#xf7;" horiz-adv-x="600" 
d="M554 201h-508v104h508v-104zM300 529c22.667 0 41.167 -7.16699 55.5 -21.5s21.5 -32.833 21.5 -55.5s-7.16699 -41.167 -21.5 -55.5s-32.833 -21.5 -55.5 -21.5s-41.167 7.16699 -55.5 21.5s-21.5 32.833 -21.5 55.5s7.16699 41.167 21.5 55.5s32.833 21.5 55.5 21.5z
M300 -23c-22.667 0 -41.167 7.16699 -55.5 21.5s-21.5 32.833 -21.5 55.5s7.16699 41.167 21.5 55.5s32.833 21.5 55.5 21.5s41.167 -7.16699 55.5 -21.5s21.5 -32.833 21.5 -55.5s-7.16699 -41.167 -21.5 -55.5s-32.833 -21.5 -55.5 -21.5z" />
    <glyph glyph-name="oslash" unicode="&#xf8;" horiz-adv-x="611" 
d="M194 168l189.998 228c-21.333 18 -47.666 27 -78.999 27c-41.333 0 -73.666 -16 -96.999 -48c-21.333 -28 -32 -63 -32 -105c0 -40 6 -74 18 -102zM416.998 354l-193 -232c21.333 -20 48.333 -30 81 -30c86.667 0 130 59.333 130 178c0 31.333 -6 59.333 -18 84z
M512.998 550l39.998 -32.999l-54 -65c50.667 -49.333 76 -115.333 76 -198c0 -76.667 -23.667 -139.334 -71 -188.001c-49.333 -52 -115.666 -78 -198.999 -78c-59.333 0 -111.666 14.333 -156.999 43l-55 -66l-41 33l56 67c-48 48 -72 111 -72 189c0 83.333 26 150 78 200
c49.333 48.667 113 73 191 73c58 0 109.333 -14 154 -42z" />
    <glyph glyph-name="ugrave" unicode="&#xf9;" horiz-adv-x="611" 
d="M542 515v-515h-127v70h-2c-44.667 -54.667 -101 -82 -169 -82c-58.667 0 -103 19.333 -133 58c-28 34.667 -42 82.667 -42 144v325h134v-275c0 -45.333 3.66699 -78 11 -98c12.667 -33.333 38 -50 76 -50c43.333 0 75 20.333 95 61c15.333 30 23 66.667 23 110v252h134z
M288 731l83 -146h-83l-137 146h137z" />
    <glyph glyph-name="uacute" unicode="&#xfa;" horiz-adv-x="611" 
d="M542 515v-515h-127v70h-2c-44.667 -54.667 -101 -82 -169 -82c-58.667 0 -103 19.333 -133 58c-28 34.667 -42 82.667 -42 144v325h134v-275c0 -45.333 3.66699 -78 11 -98c12.667 -33.333 38 -50 76 -50c43.333 0 75 20.333 95 61c15.333 30 23 66.667 23 110v252h134z
M232 585l83 146h137l-137 -146h-83z" />
    <glyph glyph-name="ucircumflex" unicode="&#xfb;" horiz-adv-x="611" 
d="M542 515v-515h-127v70h-2c-44.667 -54.667 -101 -82 -169 -82c-58.667 0 -103 19.333 -133 58c-28 34.667 -42 82.667 -42 144v325h134v-275c0 -45.333 3.66699 -78 11 -98c12.667 -33.333 38 -50 76 -50c43.333 0 75 20.333 95 61c15.333 30 23 66.667 23 110v252h134z
M258 731h101l105 -146h-89l-68 86l-70 -86h-89z" />
    <glyph glyph-name="udieresis" unicode="&#xfc;" horiz-adv-x="611" 
d="M542 515v-515h-127v70h-2c-44.667 -54.667 -101 -82 -169 -82c-58.667 0 -103 19.333 -133 58c-28 34.667 -42 82.667 -42 144v325h134v-275c0 -45.333 3.66699 -78 11 -98c12.667 -33.333 38 -50 76 -50c43.333 0 75 20.333 95 61c15.333 30 23 66.667 23 110v252h134z
M351 725h116v-116h-116v116zM261 609h-116v116h116v-116z" />
    <glyph glyph-name="yacute" unicode="&#xfd;" 
d="M159 515l124 -376h2l124 376h136l-193 -511c-30.667 -81.333 -54.334 -133.333 -71.001 -156c-34 -46.667 -81.667 -70 -143 -70c-31.333 0 -63 4.66699 -95 14l9 99c17.333 -6 40.333 -9 69 -9c26.667 0 47.834 8.33301 63.501 25s23.5 39 23.5 67l-197 541h148z
M204 585l83 146h137l-137 -146h-83z" />
    <glyph glyph-name="thorn" unicode="&#xfe;" horiz-adv-x="611" 
d="M69 -210l0.000976562 960h134v-302h2c31.333 52.667 82.666 79 153.999 79c74 0 129.667 -27 167 -81c32.667 -46.667 49 -109 49 -187s-16.333 -140.667 -49 -188c-37.333 -55.333 -93 -83 -167 -83c-66 0 -117.333 23.333 -154 70h-2v-268h-134zM324.001 423
c-39.333 0 -70.002 -18.333 -92.002 -55c-18.667 -30.667 -28 -67 -28 -109c0 -43.333 8.66699 -80.333 26 -111c20.667 -37.333 51.334 -56 92.001 -56c40 0 70 19 90 57c15.333 30 23 66.667 23 110c0 42.667 -7.66699 78.667 -23 108
c-19.333 37.333 -48.666 56 -87.999 56z" />
    <glyph glyph-name="ydieresis" unicode="&#xff;" 
d="M159 515l124 -376h2l124 376h136l-193 -511c-30.667 -81.333 -54.334 -133.333 -71.001 -156c-34 -46.667 -81.667 -70 -143 -70c-31.333 0 -63 4.66699 -95 14l9 99c17.333 -6 40.333 -9 69 -9c26.667 0 47.834 8.33301 63.501 25s23.5 39 23.5 67l-197 541h148z
M323 725h116v-116h-116v116zM233 609h-116v116h116v-116z" />
    <glyph glyph-name="dotlessi" unicode="&#x131;" horiz-adv-x="278" 
d="M206 0h-134v515h134v-515z" />
    <glyph glyph-name="Lslash" unicode="&#x141;" horiz-adv-x="500" 
d="M81 0v243l-73 -44v92l73 44v363h140v-280l168 100v-92l-168 -100v-216h271v-110h-411z" />
    <glyph glyph-name="lslash" unicode="&#x142;" horiz-adv-x="278" 
d="M72 0v293l-72 -43v92l72 43v365h134v-285l72 43v-92l-72 -43v-373h-134z" />
    <glyph glyph-name="OE" unicode="&#x152;" horiz-adv-x="944" 
d="M490 110l0.000976562 477.999c-28 4 -52.667 6 -74 6c-70 0 -124.667 -22.5 -164 -67.5s-59 -105.5 -59 -181.5c0 -71.333 19.333 -128.666 58 -171.999c40.667 -45.333 97 -68.333 169 -69c19.333 0 42.666 2 69.999 6zM890.001 697.999v-110h-260v-172h238v-110h-238
v-196h264v-110h-265c-24.667 0 -61.834 -1 -111.501 -3s-87.167 -3 -112.5 -3c-238.667 0 -358 117 -358 351c0 117.333 34.333 207.333 103 270c65.333 59.333 156.333 89 273 89c23.333 0 57.833 -1 103.5 -3s79.834 -3 102.501 -3h261z" />
    <glyph glyph-name="oe" unicode="&#x153;" horiz-adv-x="944" 
d="M176 257c0 -48 9.33301 -87.001 28 -117.001c22 -36 55.667 -54 101 -54c46 0 80.667 17.333 104 52c19.333 30 29 69 29 117c0 48.667 -9.66699 88.334 -29 119.001c-23.333 36.667 -58 55 -104 55c-42 0 -75 -19 -99 -57c-20 -32 -30 -70.333 -30 -115zM908 215.999
h-335.998c0.666992 -42.667 14.667 -75.334 42 -98.001c25.333 -21.333 59 -32 101 -32c55.333 0 106.333 17 153 51l4 -109c-45.333 -26.667 -99 -40 -161 -40c-102.667 0 -172.334 28.333 -209.001 85c-40.667 -56.667 -106.334 -85 -197.001 -85
c-82.667 0 -148.667 26 -198 78c-47.333 48.667 -71 111.334 -71 188.001c0 83.333 26 150 78 200c49.333 48.667 113 73 191 73c85.333 0 149.333 -29.333 192 -88c40 58.667 100 88 180 88c154 0 231 -103.667 231 -311zM572.002 307.999h208
c-2.66699 80.667 -36.667 121 -102 121c-32.667 0 -58.5 -12 -77.5 -36s-28.5 -52.333 -28.5 -85z" />
    <glyph glyph-name="Scaron" unicode="&#x160;" 
d="M469 685l-13.0029 -115c-46 20 -93.333 30 -142 30c-29.333 0 -53.666 -6.66699 -72.999 -20c-24.667 -16.667 -37 -42.334 -37 -77.001c0 -31.333 26.333 -58.333 79 -81c84.667 -35.333 134 -57.666 148 -66.999c52.667 -36.667 79 -88.667 79 -156
c0 -72 -26 -126.333 -78 -163c-46 -32 -107.333 -48 -184 -48c-46 0 -105.667 9 -179 27l13 126c52.667 -28.667 105.334 -43 158.001 -43c30.667 0 58 7 82 21c28 17.333 42 40.333 42 69c0 35.333 -26.333 64.666 -79 87.999
c-91.333 40.667 -140.666 63.334 -147.999 68.001c-52.667 36 -79 87 -79 153c0 72.667 25.333 127.667 76 165c43.333 32 99.333 48 168 48c61.333 0 117 -8.33301 167 -25zM330.997 743h-101l-110 146h89l70 -86l68 86h89z" />
    <glyph glyph-name="scaron" unicode="&#x161;" horiz-adv-x="444" 
d="M384 508l-8.99902 -101.003c-42.667 14.667 -82.667 22 -120 22c-52.667 0 -79 -19 -79 -57c0 -20.667 20 -37.667 60 -51c60 -19.333 97.667 -34.333 113 -45c40 -26.667 60 -66.667 60 -120c0 -56 -22.333 -99 -67 -129c-38.667 -26 -88.334 -39 -149.001 -39
c-46 0 -96.667 7.33301 -152 22l8 110c45.333 -22.667 89.333 -34 132 -34c22 0 41 4.33301 57 13c20.667 10.667 31 27.334 31 50.001c0 26.667 -20 46.667 -60 60c-66.667 22.667 -104.334 36.334 -113.001 41.001c-40 24.667 -60 63.667 -60 117
c0 52.667 20.667 93.334 62 122.001c36.667 25.333 83.334 38 140.001 38c38 0 86.667 -6.33301 146 -19zM275.001 584.997h-101l-110 146h89l70 -86l68 86h89z" />
    <glyph glyph-name="Ydieresis" unicode="&#x178;" horiz-adv-x="667" 
d="M266 0v276l-255 422h164l165 -293l168 293h148l-250 -422v-276h-140zM379 883h116v-116h-116v116zM289 767h-116v116h116v-116z" />
    <glyph glyph-name="Zcaron" unicode="&#x17d;" 
d="M36 0v114l328 474h-315v110h464v-114l-331 -474h338v-110h-484zM331 743h-101l-110 146h89l70 -86l68 86h89z" />
    <glyph glyph-name="zcaron" unicode="&#x17e;" horiz-adv-x="500" 
d="M47 411v104h408v-110l-256 -301h265v-104h-428v109l261 302h-250zM303 585h-101l-110 146h89l70 -86l68 86h89z" />
    <glyph glyph-name="florin" unicode="&#x192;" 
d="M124 406h113.999l31 140c12.667 56.667 33 97.667 61 123c30.667 27.333 75 41 133 41c29.333 0 57.333 -3 84 -9l-18 -106c-29.333 7.33301 -48.666 11 -57.999 11c-35.333 0 -58.666 -27.333 -69.999 -82l-25 -118h121l-13 -80h-124l-61 -329
c-10.667 -58.667 -25 -103.667 -43 -135c-32.667 -56 -80.667 -84 -144 -84c-47.333 0 -82 3.33301 -104 10l20 99c14 -3.33301 31.333 -5 52 -5c25.333 0 43.666 11.333 54.999 34c6 10 11.667 29 17 57l70 353h-113z" />
    <glyph glyph-name="circumflex" unicode="&#x2c6;" horiz-adv-x="278" 
d="M91 731h101l105 -146h-89l-68 86l-70 -86h-89z" />
    <glyph glyph-name="caron" unicode="&#x2c7;" horiz-adv-x="278" 
d="M192 585h-101l-110 146h89l70 -86l68 86h89z" />
    <glyph glyph-name="breve" unicode="&#x2d8;" horiz-adv-x="278" 
d="M-24 730h62.0029c11.333 -53.333 44.666 -80 99.999 -80s89.333 26.667 102 80h62c-2.66699 -44.667 -19.334 -81.167 -50.001 -109.5s-68.667 -42.5 -114 -42.5c-44.667 0 -82.334 14.167 -113.001 42.5s-47 64.833 -49 109.5z" />
    <glyph glyph-name="dotaccent" unicode="&#x2d9;" horiz-adv-x="278" 
d="M197 609h-116v116h116v-116z" />
    <glyph glyph-name="ring" unicode="&#x2da;" horiz-adv-x="278" 
d="M33 685c0 29.333 10.667 54.5 32 75.5s46.333 31.5 75 31.5c29.333 0 54.333 -10.5 75 -31.5s31 -46.167 31 -75.5s-10.333 -54.333 -31 -75s-45.667 -31 -75 -31s-54.5 10.333 -75.5 31s-31.5 45.667 -31.5 75zM87 685c0 -14.667 5.16699 -27 15.5 -37
s22.833 -15 37.5 -15s27 5 37 15s15 22.333 15 37s-5 27.167 -15 37.5s-22.333 15.5 -37 15.5s-27.167 -5 -37.5 -15s-15.5 -22.667 -15.5 -38z" />
    <glyph glyph-name="ogonek" unicode="&#x2db;" horiz-adv-x="278" 
d="M181 0h48.998c-55.333 -42.667 -83 -83.667 -83 -123c0 -30 13.667 -45 41 -45c20.667 0 39.334 11 56.001 33l40 -8c-13.333 -27.333 -28.666 -47 -45.999 -59c-20 -13.333 -46.333 -20 -79 -20c-65.333 0 -98 30 -98 90c0 44.667 40 88.667 120 132z" />
    <glyph glyph-name="tilde" unicode="&#x2dc;" horiz-adv-x="278" 
d="M16 603h-54.002c0 31.333 9.83301 59.333 29.5 84s43.834 37 72.501 37c19.333 0 46.333 -6.66699 81 -20c38 -14.667 62.333 -22 73 -22c29.333 0 44 16.333 44 49h54c0 -34.667 -8.66699 -63.5 -26 -86.5s-41 -34.5 -71 -34.5c-26.667 0 -55.667 6.16699 -87 18.5
s-53.666 18.5 -66.999 18.5c-16 0 -28.167 -4.5 -36.5 -13.5s-12.5 -19.167 -12.5 -30.5z" />
    <glyph glyph-name="hungarumlaut" unicode="&#x2dd;" horiz-adv-x="278" 
d="M-70 584l83 146h137l-137 -146h-83zM127 585l83 146h137l-137 -146h-83z" />
    <glyph glyph-name="endash" unicode="&#x2013;" horiz-adv-x="500" 
d="M0 223v92h500v-92h-500z" />
    <glyph glyph-name="emdash" unicode="&#x2014;" horiz-adv-x="1000" 
d="M0 223v92h1000v-92h-1000z" />
    <glyph glyph-name="quoteleft" unicode="&#x2018;" horiz-adv-x="278" 
d="M34 448l91 250h119l-63 -250h-147z" />
    <glyph glyph-name="quoteright" unicode="&#x2019;" horiz-adv-x="278" 
d="M34 448l64 250h146l-92 -250h-118z" />
    <glyph glyph-name="quotesinglbase" unicode="&#x201a;" horiz-adv-x="278" 
d="M34 -110l64 250h146l-92 -250h-118z" />
    <glyph glyph-name="quotedblleft" unicode="&#x201c;" horiz-adv-x="481" 
d="M34 448l91 250h119l-63 -250h-147zM237 448l91 250h119l-63 -250h-147z" />
    <glyph glyph-name="quotedblright" unicode="&#x201d;" horiz-adv-x="481" 
d="M34 448l64 250h146l-92 -250h-118zM237 448l64 250h146l-92 -250h-118z" />
    <glyph glyph-name="quotedblbase" unicode="&#x201e;" horiz-adv-x="481" 
d="M237 -110l64 250h146l-92 -250h-118zM34 -110l64 250h146l-92 -250h-118z" />
    <glyph glyph-name="dagger" unicode="&#x2020;" 
d="M59 435v104h155v159h128v-159h155v-104h-155v-435h-128v435h-155z" />
    <glyph glyph-name="daggerdbl" unicode="&#x2021;" 
d="M59 457v98h155v143h128v-143h155v-98h-155v-212h155v-98h-155v-147h-128v147h-155v98h155v212h-155z" />
    <glyph glyph-name="bullet" unicode="&#x2022;" horiz-adv-x="500" 
d="M76 349c0 48 17 89 51 123s75 51 123 51s89.167 -17 123.5 -51s51.5 -75 51.5 -123s-17.167 -89.167 -51.5 -123.5s-75.5 -51.5 -123.5 -51.5s-89 17.167 -123 51.5s-51 75.5 -51 123.5z" />
    <glyph glyph-name="ellipsis" unicode="&#x2026;" horiz-adv-x="1000" 
d="M237 0h-140v140h140v-140zM570 0h-140v140h140v-140zM903 0h-140v140h140v-140z" />
    <glyph glyph-name="perthousand" unicode="&#x2030;" horiz-adv-x="1000" 
d="M151 436c22 0 36.333 10.333 43 31c4 12.667 6 36 6 70c0 33.333 -2 56.333 -6 69c-6.66699 21.333 -21 32 -43 32s-36.667 -10.667 -44 -32c-4 -12.667 -6 -35.667 -6 -69c0 -34 2 -57.333 6 -70c7.33301 -20.667 22 -31 44 -31zM73 -22l429 742h82l-429 -742h-82z
M151 364c-94.667 0 -142 58.667 -142 176c0 113.333 47.333 170 142 170c94 0 141 -56.667 141 -170c0 -117.333 -47 -176 -141 -176zM515 60c22 0 36.333 10.333 43 31c4 12.667 6 36 6 70c0 33.333 -2 56.333 -6 69c-6.66699 21.333 -21 32 -43 32
s-36.667 -10.667 -44 -32c-4 -12.667 -6 -35.667 -6 -69c0 -34 2 -57.333 6 -70c7.33301 -20.667 22 -31 44 -31zM515 -12c-94.667 0 -142 58.667 -142 176c0 113.333 47.333 170 142 170c94 0 141 -56.667 141 -170c0 -117.333 -47 -176 -141 -176zM851 -12
c-94.667 0 -142 58.667 -142 176c0 113.333 47.333 170 142 170c94 0 141 -56.667 141 -170c0 -117.333 -47 -176 -141 -176zM851 60c22 0 36.333 10.333 43 31c4 12.667 6 36 6 70c0 33.333 -2 56.333 -6 69c-6.66699 21.333 -21 32 -43 32s-36.667 -10.667 -44 -32
c-4 -12.667 -6 -35.667 -6 -69c0 -34 2 -57.333 6 -70c7.33301 -20.667 22 -31 44 -31z" />
    <glyph glyph-name="guilsinglleft" unicode="&#x2039;" horiz-adv-x="333" 
d="M49 269l118 205h126l-110 -205l110 -205h-126z" />
    <glyph glyph-name="guilsinglright" unicode="&#x203a;" horiz-adv-x="333" 
d="M284 269l-118 -205h-126l110 205l-110 205h126z" />
    <glyph glyph-name="fraction" unicode="&#x2044;" horiz-adv-x="167" 
d="M-166 -22l417 742h82l-417 -742h-82z" />
    <glyph glyph-name="trademark" unicode="&#x2122;" horiz-adv-x="1000" 
d="M465 282v416h145l99 -260l98 260h145v-416h-98v294h-2l-106 -294h-75l-106 294h-2v-294h-98zM165 282v336h-117v80h338v-80h-117v-336h-104z" />
    <glyph glyph-name="fi" unicode="&#xf001;" horiz-adv-x="667" 
d="M461 0v515h134v-515h-134zM461 609v128h134v-128h-134zM118 0v417h-99v98h99v72c0 52.667 14.333 95 43 127s69 48 121 48c33.333 0 66 -3.66699 98 -11l-11 -111c-20.667 12 -40 18 -58 18c-39.333 0 -59 -26.333 -59 -79v-64h117v-98h-117v-417h-134z" />
    <glyph glyph-name="fl" unicode="&#xf002;" horiz-adv-x="667" 
d="M461 0v750h134v-750h-134zM118 0v417h-99v98h99v72c0 52.667 14.333 95 43 127s69 48 121 48c33.333 0 66 -3.66699 98 -11l-11 -111c-20.667 12 -40 18 -58 18c-39.333 0 -59 -26.333 -59 -79v-64h117v-98h-117v-417h-134z" />
    <glyph glyph-name=".null" horiz-adv-x="0" 
 />
    <glyph glyph-name="nonmarkingreturn" horiz-adv-x="278" 
 />
    <glyph glyph-name="glyph231" horiz-adv-x="278" 
 />
  </font>
</defs>
</svg>
